<svg width="24" height="24" viewBox="0 0 24 24" fill="none" xmlns="http://www.w3.org/2000/svg"><rect width="24" height="24" fill="none" rx="0" ry="0"></rect><path fill-rule="evenodd" clip-rule="evenodd" d="M20.3628 12.4804L14.42 18.4232C14.3 18.5432 14.15 18.6032 14 18.6032C13.85 18.6032 13.69 18.5432 13.58 18.4232C13.35 18.1932 13.35 17.8132 13.58 17.5732L18.55 12.6033H4.0001C3.6701 12.6033 3.4001 12.3333 3.4001 12.0033C3.4001 11.6733 3.6701 11.4033 4.0001 11.4033H18.5501L13.57 6.42324C13.34 6.19324 13.34 5.81324 13.57 5.57324C13.8 5.33324 14.18 5.34324 14.42 5.57324L20.42 11.5732C20.4481 11.6013 20.4727 11.6316 20.494 11.6636C20.5608 11.7604 20.6001 11.8775 20.6001 12.0033C20.6001 12.1973 20.5068 12.3706 20.3628 12.4804Z" fill="#5D5D5D"></path></svg>