<svg xmlns="http://www.w3.org/2000/svg" xmlns:xlink="http://www.w3.org/1999/xlink" width="198" height="85" viewBox="0 0 198 85">
  <defs>
    <filter id="Rectangle_367" x="0" y="0" width="198" height="85" filterUnits="userSpaceOnUse">
      <feOffset dy="3" input="SourceAlpha"/>
      <feGaussianBlur stdDeviation="5" result="blur"/>
      <feFlood flood-opacity="0.161"/>
      <feComposite operator="in" in2="blur"/>
      <feComposite in="SourceGraphic"/>
    </filter>
  </defs>
  <g id="Group_212" data-name="Group 212" transform="translate(-649 -179)">
    <g transform="matrix(1, 0, 0, 1, 649, 179)" filter="url(#Rectangle_367)">
      <rect id="Rectangle_367-2" data-name="Rectangle 367" width="168" height="55" rx="27.5" transform="translate(15 12)" fill="#3f3c56"/>
    </g>
    <text id="Eve" transform="translate(741 230)" fill="#fff" font-size="31" font-family="HelveticaNeue-Bold, Helvetica Neue" font-weight="700"><tspan x="0" y="0">Eve</tspan></text>
    <g id="undraw_celebrating_bol5" transform="translate(652 179)">
      <path id="Path_755" data-name="Path 755" d="M854.746,54.458s2.342-1.78,7.306.656,8.524.375,8.524.375l-.562,8.149a12.008,12.008,0,0,1-9.741-.843c-4.683-2.81-6.182,0-6.182,0Z" transform="translate(-791.811 -52.116)" fill="#3f3b56"/>
      <path id="Path_756" data-name="Path 756" d="M346.867,198.459a27.46,27.46,0,0,1-17.234,25.481,26.867,26.867,0,0,1-2.847.964,27.62,27.62,0,0,1-14.719,0q-.988-.274-1.945-.619a27.111,27.111,0,0,1-4.2-1.927,27.448,27.448,0,0,1,12.22-51.317q.635-.03,1.276-.029.7,0,1.4.035A27.441,27.441,0,0,1,346.867,198.459Z" transform="translate(-279.436 -158.931)" fill="#3f3b56"/>
      <path id="Path_757" data-name="Path 757" d="M864.7,56.346a11.6,11.6,0,0,1-6.021-1.6c-1.893-1.136-3.462-1.511-4.664-1.115a2.452,2.452,0,0,0-1.454,1.234l-.243.585.974-9.638.025-.024c.083-.079,2.087-1.9,7.332.677,5.137,2.52,8.883.42,8.92.4l.152-.088-.012.176-.6,8.671-.055.022A13.39,13.39,0,0,1,864.7,56.346Zm-9.687-3.058a7.626,7.626,0,0,1,3.763,1.294,12.653,12.653,0,0,0,10.158.9l.578-8.386a10.3,10.3,0,0,1-8.945-.471c-4.82-2.365-6.853-.927-7.1-.73l-.861,8.516a2.7,2.7,0,0,1,1.346-.966A3.356,3.356,0,0,1,855.01,53.288Z" transform="translate(-790.194 -44.148)" fill="#3f3d56"/>
      <path id="Path_758" data-name="Path 758" d="M294.825,188.179a29.269,29.269,0,0,1-7.833-1.062c-.706-.2-1.4-.418-2.071-.659a29.226,29.226,0,0,1,8.545-56.7c.9-.042,1.863-.042,2.849.006a29.231,29.231,0,0,1,9.376,56.323,28.786,28.786,0,0,1-3.026,1.024,29.283,29.283,0,0,1-7.841,1.064Zm0-58.261c-.457,0-.911.01-1.35.031a28.751,28.751,0,0,0-11.466,2.944,29.052,29.052,0,0,0,2.976,53.388c.664.24,1.356.461,2.057.655a29.223,29.223,0,0,0,15.573,0,28.569,28.569,0,0,0,3.007-1.018,29.042,29.042,0,0,0-9.315-55.962C295.8,129.93,295.306,129.918,294.825,129.918Z" transform="translate(-255.401 -121.301)" fill="#3f3d56"/>
      <circle id="Ellipse_152" data-name="Ellipse 152" cx="8.768" cy="8.768" r="8.768" transform="translate(23.37 4.909)" fill="#2f2e41"/>
      <circle id="Ellipse_153" data-name="Ellipse 153" cx="6.212" cy="6.212" r="6.212" transform="translate(27.752 9.907)" fill="#a0616a"/>
      <path id="Path_761" data-name="Path 761" d="M428.517,232.229s-.92,7.362-4.256,8.858,9.2.69,9.2.69,0-6.672.46-6.9S428.517,232.229,428.517,232.229Z" transform="translate(-399.5 -214.73)" fill="#a0616a"/>
      <path id="Path_762" data-name="Path 762" d="M414.752,782.176l-.46,2.416s-6.442,3.8-3.336,4.832,6.9-4.486,6.9-4.486l-.69-2.761Z" transform="translate(-387.116 -716.015)" fill="#a0616a"/>
      <path id="Path_763" data-name="Path 763" d="M513.283,506.839l5.062,5.407,13.92-9.663s-3.221-2.531-4.256-2.531S513.283,506.839,513.283,506.839Z" transform="translate(-481.16 -458.855)" fill="#a0616a"/>
      <path id="Path_764" data-name="Path 764" d="M822.709,155.63s1.5-10.468,4.141-9.663-1.5,11.159-1.5,11.159Z" transform="translate(-763.207 -136.06)" fill="#a0616a"/>
      <path id="Path_765" data-name="Path 765" d="M385.743,314.35s-5.02-.805-6.881,0-7.485,1.446-8.182.55-6.909,2.1-6.909,3.361,13.459,20.362,13.459,20.362,13.92-3.911,15.76-8.053c0,0-1.611-1.15-1.611-2.071a3.37,3.37,0,0,0-.805-1.841,4.687,4.687,0,0,0-.69-4.371C388.273,320.216,385.743,314.35,385.743,314.35Z" transform="translate(-344.877 -289.258)" fill="#d0cde1"/>
      <path id="Path_766" data-name="Path 766" d="M595.19,254.388l1.5-.345a12.945,12.945,0,0,1,6.212,4.026,14.236,14.236,0,0,0,6.9,4.141l5.292-14.38,4.371,1.5s-3.451,18.291-7.362,18.521-13.574-4.026-13.574-4.026Z" transform="translate(-555.82 -228.951)" fill="#d0cde1"/>
      <path id="Path_767" data-name="Path 767" d="M359.686,349.239s-2.416.115-2.416,2.186.345,9.2,2.416,12.309,3.911,10.123,4.026,10.238,2.3,14.61,2.3,14.61l3.681-.345L369,370.176l-3.566-9.2Z" transform="translate(-338.951 -321.386)" fill="#d0cde1"/>
      <path id="Path_768" data-name="Path 768" d="M537.782,527.443a27.5,27.5,0,0,1-11.175,8.276l-.582-1.266-2.26,2.228a27.622,27.622,0,0,1-14.719,0l-.968-.619,5.177-5.983a34.141,34.141,0,0,0,0-3.451c-.115-.46-1.625-4.636-1.625-4.636,5.246-.333,12.748-6.988,14.486-8.592.239-.221.369-.347.369-.347,9.663,1.38,11.043,12.654,11.043,12.654Z" transform="translate(-476.416 -470.708)" fill="#2f2e41"/>
      <ellipse id="Ellipse_154" data-name="Ellipse 154" cx="0.562" cy="1.171" rx="0.562" ry="1.171" transform="translate(27.153 15.174)" fill="#a0616a"/>
      <circle id="Ellipse_155" data-name="Ellipse 155" cx="3.653" cy="3.653" r="3.653" transform="translate(20.503 1.686)" fill="#2f2e41"/>
      <path id="Path_769" data-name="Path 769" d="M371.1,38.109a3.653,3.653,0,0,1,3.231-3.628,3.653,3.653,0,1,0,0,7.256A3.653,3.653,0,0,1,371.1,38.109Z" transform="translate(-350.785 -34.456)" fill="#2f2e41"/>
      <rect id="Rectangle_373" data-name="Rectangle 373" width="1.311" height="13.769" transform="translate(61.998 2.154)" fill="#2f2e41"/>
      <path id="Path_770" data-name="Path 770" d="M449.708,125.317s1.686,3.559,3.747,3.653,9.741-1.4,9.741-1.4l-2.529-5.245-6.744.843Z" transform="translate(-423.21 -114.545)" fill="#2f2e41"/>
    </g>
  </g>
</svg>
