<svg xmlns="http://www.w3.org/2000/svg" xmlns:xlink="http://www.w3.org/1999/xlink" width="154.757" height="116.516" viewBox="0 0 154.757 116.516">
  <defs>
    <clipPath id="clip-path">
      <rect width="154.757" height="116.516" fill="none"/>
    </clipPath>
  </defs>
  <g id="flutter_1x_5_" data-name="flutter@1x (5)" clip-path="url(#clip-path)">
    <g id="flutter_1x_5_2" data-name="flutter@1x (5)" transform="translate(-12.997 -11.512)">
      <path id="Path_6" data-name="Path 6" d="M713.9,290.512a.215.215,0,0,1,.215-.215H728.49a.215.215,0,0,1,0,.43H714.118A.215.215,0,0,1,713.9,290.512Z" transform="translate(-561.582 -222.548)" fill="none" stroke="#000" stroke-width="1" fill-rule="evenodd"/>
      <path id="Path_7" data-name="Path 7" d="M673.68,298.335a.215.215,0,0,1,.215-.215h22.486a.215.215,0,1,1,0,.43H673.9A.215.215,0,0,1,673.68,298.335Z" transform="translate(-529.473 -228.793)" fill="none" stroke="#000" stroke-width="1" fill-rule="evenodd"/>
      <path id="Path_9" data-name="Path 9" d="M292.267,175.68H236.239a3.167,3.167,0,0,1-3.162-3.162V151.506a3.167,3.167,0,0,1,3.162-3.162h56.006a3.167,3.167,0,0,1,3.162,3.162V172.5A3.14,3.14,0,0,1,292.267,175.68Z" transform="translate(-177.75 -109.23)" fill="#065be3" opacity="0.4"/>
      <path id="Path_10" data-name="Path 10" d="M673.761,80.719V58.287l15.5,10.931Z" transform="translate(-529.538 -37.34)" fill="none" stroke="#000" stroke-width="1" opacity="0.7"/>
      <path id="Path_11" data-name="Path 11" d="M572.926,80.719V58.287l-15.5,10.931Z" transform="translate(-436.671 -37.34)" fill="none" stroke="#000" stroke-width="1" opacity="0.7"/>
      <path id="Path_12" data-name="Path 12" d="M651.273,177.785V170.5h1.569v7.285Z" transform="translate(-511.586 -126.917)" fill="none" stroke="#000" stroke-width="1" fill-rule="evenodd"/>
      <path id="Path_13" data-name="Path 13" d="M702.187,159.537l-4.416-5.779,1.247-.953,4.416,5.779Z" transform="translate(-548.704 -112.791)" fill="none" stroke="#000" stroke-width="1" fill-rule="evenodd"/>
      <path id="Path_14" data-name="Path 14" d="M733.952,114.836l-7-1.954.422-1.511,7,1.954Z" transform="translate(-571.999 -79.715)" fill="none" stroke="#000" stroke-width="1" fill-rule="evenodd"/>
      <path id="Path_15" data-name="Path 15" d="M576.348,153.012l4.945-5.332,1.15,1.067-4.945,5.332Z" transform="translate(-451.775 -108.7)" fill="none" stroke="#000" stroke-width="1" fill-rule="evenodd"/>
      <path id="Path_16" data-name="Path 16" d="M544.538,105.262l7.163-1.241.268,1.546-7.163,1.241Z" transform="translate(-426.382 -73.848)" fill="none" stroke="#000" stroke-width="1" fill-rule="evenodd"/>
      <path id="Path_17" data-name="Path 17" d="M620.131,85a8.852,8.852,0,1,0-8.852-8.852A8.852,8.852,0,0,0,620.131,85Z" transform="translate(-479.66 -44.534)" fill="#065be3" opacity="0.9"/>
      <path id="Path_18" data-name="Path 18" d="M654.693,29.166V12.519h.189V29.166Z" transform="translate(-514.316 -0.805)" fill="#065be3" fill-rule="evenodd"/>
      <path id="Path_19" data-name="Path 19" d="M653.683,11.512h.6V28.565h-.6Z" transform="translate(-513.51)" fill="#065be3" fill-rule="evenodd"/>
      <path id="Path_20" data-name="Path 20" d="M578.643,44.17V68.479L562.375,56.324ZM562.691,56.324,578.454,68.1V44.547Z" transform="translate(-440.621 -26.07)" fill="#065be3" fill-rule="evenodd"/>
      <path id="Path_21" data-name="Path 21" d="M577.5,42.156V67.277L560.69,54.717Zm-15.815,12.56,15.219,11.371V43.346Z" transform="translate(-439.276 -24.463)" fill="#065be3" fill-rule="evenodd"/>
      <path id="Path_22" data-name="Path 22" d="M667.3,44.17,683.57,56.324,667.3,68.479Zm.189.377V68.1l15.763-11.777Z" transform="translate(-524.382 -26.07)" fill="#065be3" fill-rule="evenodd"/>
      <path id="Path_23" data-name="Path 23" d="M666.294,42.156l16.811,12.56L666.294,67.277Zm.6,1.19V66.088l15.219-11.371Z" transform="translate(-523.577 -24.463)" fill="#065be3" fill-rule="evenodd"/>
      <path id="Path_24" data-name="Path 24" d="M27.984,86.747h78.079a2.241,2.241,0,0,0,2.27-2.212V51.723a2.241,2.241,0,0,0-2.27-2.212H27.984a2.241,2.241,0,0,0-2.27,2.212v32.8A2.245,2.245,0,0,0,27.984,86.747Z" transform="translate(-12.217 -30.335)" fill="none" stroke="#9f72f8" stroke-width="1" opacity="0.63"/>
      <path id="Path_25" data-name="Path 25" d="M229.682,122.539h29.506a1.467,1.467,0,0,0,1.44-1.493V100.663a1.467,1.467,0,0,0-1.44-1.493H229.682a1.467,1.467,0,0,0-1.441,1.493v20.383A1.457,1.457,0,0,0,229.682,122.539Z" transform="translate(-173.889 -69.976)" fill="rgba(255,255,255,0.15)" opacity="0.9"/>
      <g id="Group_1" data-name="Group 1" transform="translate(61 43.405)" opacity="0.7">
        <path id="Path_26" data-name="Path 26" d="M370.232,174.521a4.08,4.08,0,0,0,.761-2.463,3.914,3.914,0,0,0-.761-2.441h.4a4.193,4.193,0,0,1,0,4.881h-.4Z" transform="translate(-348.237 -169.617)" fill="#065be3"/>
        <path id="Path_27" data-name="Path 27" d="M262.384,174.521a4.078,4.078,0,0,1-.762-2.463,3.913,3.913,0,0,1,.762-2.441h-.4a4.193,4.193,0,0,0,0,4.881h.4Z" transform="translate(-261.197 -169.617)" fill="#065be3"/>
      </g>
      <path id="Path_28" data-name="Path 28" d="M65.7,83.554h64.4a.94.94,0,0,0,0-1.88H65.7a.945.945,0,0,0-.94.94A.935.935,0,0,0,65.7,83.554Z" transform="translate(-43.385 -56.009)" fill="none" stroke="#000" stroke-width="1"/>
      <path id="Path_29" data-name="Path 29" d="M67.335,115.846H89.548a.863.863,0,0,0,.773-.924V102.27a.863.863,0,0,0-.773-.924H67.335a.863.863,0,0,0-.773.924v12.651A.873.873,0,0,0,67.335,115.846Z" transform="translate(-44.824 -71.713)" fill="#065be3"/>
      <path id="Path_30" data-name="Path 30" d="M74.864,162.169h19.62a.485.485,0,0,0,0-.97H74.864a.479.479,0,0,0-.485.485A.5.5,0,0,0,74.864,162.169Z" transform="translate(-51.065 -119.492)" fill="rgba(26,26,26,0.27)"/>
      <path id="Path_31" data-name="Path 31" d="M164.385,107.357h2.183a.485.485,0,1,0,0-.97h-2.183a.479.479,0,0,0-.485.485A.489.489,0,0,0,164.385,107.357Z" transform="translate(-122.527 -75.737)" fill="rgba(26,26,26,0.27)"/>
      <path id="Path_32" data-name="Path 32" d="M73.059,107.357h2.183a.485.485,0,1,0,0-.97H73.059a.479.479,0,0,0-.485.485A.5.5,0,0,0,73.059,107.357Z" transform="translate(-49.624 -75.737)" fill="rgba(26,26,26,0.27)"/>
      <path id="Path_33" data-name="Path 33" d="M91.1,107.357h2.183a.485.485,0,0,0,0-.97H91.1a.479.479,0,0,0-.485.485A.488.488,0,0,0,91.1,107.357Z" transform="translate(-64.025 -75.737)" fill="rgba(26,26,26,0.27)"/>
      <path id="Path_34" data-name="Path 34" d="M75.875,122.52H94.692a.978.978,0,0,0,.88-1.051v-5.625a.978.978,0,0,0-.88-1.051H75.86a.978.978,0,0,0-.879,1.051v5.625A.979.979,0,0,0,75.875,122.52Z" transform="translate(-51.545 -82.447)" fill="#fff" opacity="0.5"/>
      <path id="Path_35" data-name="Path 35" d="M116.882,111a2.308,2.308,0,1,1,2.308-2.308A2.308,2.308,0,0,1,116.882,111Z" transform="translate(-83.152 -75.737)" fill="none" stroke="#000" stroke-width="1"/>
      <path id="Path_36" data-name="Path 36" d="M110.346,139.829c0-1.827-2.368-3.292-5.3-3.292s-5.3,1.485-5.3,3.292Z" transform="translate(-71.316 -99.805)" fill="none" stroke="#000" stroke-width="1"/>
      <path id="Path_37" data-name="Path 37" d="M92.157,167.664a.121.121,0,0,0-.121.121.8.8,0,0,1-.8.8H69.337a.8.8,0,0,1-.8-.8.121.121,0,0,0-.242,0,1.04,1.04,0,0,0,1.046,1.046H91.232a1.04,1.04,0,0,0,1.046-1.046A.121.121,0,0,0,92.157,167.664Z" transform="translate(-46.205 -124.653)" fill="#fff" fill-rule="evenodd"/>
      <path id="Path_38" data-name="Path 38" d="M338.81,113.168h7.263v1.7H338.81Z" transform="translate(-262.154 -81.15)" fill="#065be3" opacity="0.7"/>
      <path id="Path_39" data-name="Path 39" d="M338.81,133.389h7.263v1.7H338.81Z" transform="translate(-262.154 -97.292)" fill="#065be3" opacity="0.7"/>
      <path id="Path_40" data-name="Path 40" d="M254.85,133.389h16.375v1.7H254.85Z" transform="translate(-195.131 -97.292)" fill="#065be3" opacity="0.7"/>
      <path id="Path_41" data-name="Path 41" d="M318.789,146.316h6.95v1.7h-6.95Z" transform="translate(-246.172 -107.611)" fill="#065be3" opacity="0.3"/>
      <path id="Path_42" data-name="Path 42" d="M264.7,146.316h6.95v1.7H264.7Z" transform="translate(-202.991 -107.611)" fill="#065be3" opacity="0.3"/>
      <path id="Path_43" data-name="Path 43" d="M295.439,157.967H307.1v1.7h-11.66Z" transform="translate(-227.532 -116.912)" fill="#065be3" opacity="0.3"/>
      <path id="Path_44" data-name="Path 44" d="M308.969,170.707h11.66v1.7h-11.66Z" transform="translate(-238.333 -127.082)" fill="#065be3" opacity="0.7"/>
      <path id="Path_45" data-name="Path 45" d="M271.161,170.594h6.929v1.7h-6.929Z" transform="translate(-208.151 -126.992)" fill="#065be3" opacity="0.7"/>
      <path id="Path_46" data-name="Path 46" d="M302.628,147.693V147.4h2.558v.291Zm0,.969v-.291h2.558v.291Z" transform="translate(-233.271 -108.478)" fill="#065be3" opacity="0.3"/>
      <path id="Path_47" data-name="Path 47" d="M308.969,183.447h11.66v1.7h-11.66Z" transform="translate(-238.333 -137.252)" fill="#065be3" opacity="0.7"/>
      <path id="Path_48" data-name="Path 48" d="M271.161,183.447h6.929v1.7h-6.929Z" transform="translate(-208.151 -137.252)" fill="#065be3" opacity="0.7"/>
      <path id="Path_49" data-name="Path 49" d="M66.561,181.193h23.76v5.064H66.561Z" transform="translate(-44.824 -135.453)" fill="#fff"/>
      <path id="Path_50" data-name="Path 50" d="M66.763,61.763a.652.652,0,1,1,.652-.652A.652.652,0,0,1,66.763,61.763Z" transform="translate(-44.465 -39.074)" fill="rgba(135,101,14,0.58)"/>
      <path id="Path_51" data-name="Path 51" d="M55.863,61.763a.652.652,0,1,1,.652-.652A.652.652,0,0,1,55.863,61.763Z" transform="translate(-35.763 -39.074)" fill="#065be3"/>
      <path id="Path_52" data-name="Path 52" d="M45.04,61.763a.652.652,0,1,1,.652-.652A.652.652,0,0,1,45.04,61.763Z" transform="translate(-27.123 -39.074)" fill="rgba(0,177,39,0.58)" opacity="0.9"/>
      <path id="Path_53" data-name="Path 53" d="M155.181,184.424H159.4v2.062h-4.215Z" transform="translate(-115.567 -138.032)" fill="#1a1a1a" opacity="0.2"/>
      <path id="Path_54" data-name="Path 54" d="M163.674,197.5h2.5v1.107h-2.5Z" transform="translate(-122.347 -148.472)" fill="#1a1a1a" opacity="0.2"/>
      <path id="Path_55" data-name="Path 55" d="M146.838,197.5h2.5v1.107h-2.5Z" transform="translate(-108.907 -148.472)" fill="#1a1a1a" opacity="0.2"/>
      <path id="Path_56" data-name="Path 56" d="M129.926,197.5h2.5v1.107h-2.5Z" transform="translate(-95.407 -148.472)" fill="#1a1a1a" opacity="0.2"/>
      <path id="Path_57" data-name="Path 57" d="M113.089,197.5h2.5v1.107h-2.5Z" transform="translate(-81.966 -148.472)" fill="#1a1a1a" opacity="0.2"/>
      <path id="Path_58" data-name="Path 58" d="M96.252,197.5h2.5v1.107h-2.5Z" transform="translate(-68.525 -148.472)" fill="#1a1a1a" opacity="0.2"/>
      <path id="Path_59" data-name="Path 59" d="M79.415,197.5h2.5v1.107h-2.5Z" transform="translate(-55.085 -148.472)" fill="#1a1a1a" opacity="0.2"/>
      <path id="Path_60" data-name="Path 60" d="M92.9,185.724a.146.146,0,0,0-.146-.146H78.836a.146.146,0,0,0,0,.292H92.755A.146.146,0,0,0,92.9,185.724Z" transform="translate(-54.506 -138.953)" fill="#1a1a1a" fill-rule="evenodd" opacity="0.2"/>
      <path id="Path_61" data-name="Path 61" d="M92.9,188.957a.146.146,0,0,0-.146-.146H78.836a.146.146,0,1,0,0,.292H92.755A.146.146,0,0,0,92.9,188.957Z" transform="translate(-54.506 -141.534)" fill="#1a1a1a" fill-rule="evenodd" opacity="0.2"/>
      <path id="Path_62" data-name="Path 62" d="M92.9,192.115a.146.146,0,0,0-.146-.146H78.836a.146.146,0,1,0,0,.292H92.755A.146.146,0,0,0,92.9,192.115Z" transform="translate(-54.506 -144.055)" fill="#1a1a1a" fill-rule="evenodd" opacity="0.2"/>
      <path id="Path_63" data-name="Path 63" d="M409.731,108.572v-26.9h-.224v26.9Z" transform="translate(-318.59 -56.009)" fill="#065be3" fill-rule="evenodd"/>
      <path id="Path_64" data-name="Path 64" d="M407.991,89.037h.859v5.5h-.859Z" transform="translate(-317.38 -61.887)" fill="#065be3"/>
      <path id="Path_65" data-name="Path 65" d="M172.888,297.912a56.328,56.328,0,0,1,112.657,0" transform="translate(-129.702 -183.661)" fill="rgba(184,149,255,0.17)" opacity="0.7"/>
      <g id="Group_2" data-name="Group 2" transform="translate(62.467 120.008)" opacity="0.9">
        <path id="Path_66" data-name="Path 66" d="M268.473,549.361H367.76v4.926H268.473Z" transform="translate(-268.473 -549.361)" fill="rgba(255,255,255,0.13)"/>
      </g>
      <path id="Path_67" data-name="Path 67" d="M215.56,483.727l8.893-6.329a6.5,6.5,0,0,1,4.66-1.974h82.458a6.476,6.476,0,0,1,5.311,2.768l5.861,5.535Z" transform="translate(-163.766 -370.331)" fill="#6665eb" opacity="0.88"/>
      <path id="Path_68" data-name="Path 68" d="M98.709,338.561H56.849a2.449,2.449,0,0,1-2.442-2.442V308.993a2.449,2.449,0,0,1,2.442-2.442h41.86a2.449,2.449,0,0,1,2.442,2.442v27.126A2.449,2.449,0,0,1,98.709,338.561Z" transform="translate(-35.122 -235.523)" fill="none" stroke="#000" stroke-width="1" opacity="0.63"/>
      <path id="Path_69" data-name="Path 69" d="M88.2,333.686H109.21v1.73H88.2Z" transform="translate(-62.101 -257.184)" fill="#30c5fb"/>
      <path id="Path_70" data-name="Path 70" d="M88.2,426.148H109.21v1.73H88.2Z" transform="translate(-62.101 -330.995)" fill="#30c5fb"/>
      <path id="Path_71" data-name="Path 71" d="M198.4,426.148h10.771v1.73H198.4Z" transform="translate(-150.069 -330.995)" fill="#30c5fb"/>
      <path id="Path_72" data-name="Path 72" d="M88.74,351.443h32.892v1.73H88.74Z" transform="translate(-62.529 -271.359)" fill="#30c5fb"/>
      <path id="Path_73" data-name="Path 73" d="M46.711,295.286a2.24,2.24,0,0,0-2.227,2.238v27.147a2.24,2.24,0,0,0,2.227,2.238H88.378a2.245,2.245,0,0,0,2.227-2.259V297.524a2.24,2.24,0,0,0-2.227-2.238Zm-2.634,2.238a2.647,2.647,0,0,1,2.634-2.645H88.378a2.647,2.647,0,0,1,2.634,2.645v27.126a2.651,2.651,0,0,1-2.634,2.666H46.711a2.647,2.647,0,0,1-2.634-2.645Z" transform="translate(-26.876 -226.206)" fill="#065be3" fill-rule="evenodd"/>
      <path id="Path_75" data-name="Path 75" d="M437.74,264.415a2.457,2.457,0,1,0-2.294-1.959A2.167,2.167,0,0,0,437.74,264.415Z" transform="translate(-339.246 -198.14)" fill="#f5bf00"/>
      <path id="Path_76" data-name="Path 76" d="M442.643,266.613a.2.2,0,0,1,.259.126l.264.765-.168.076h0l0,0-.019.009-.07.035a2.379,2.379,0,0,0-.212.125,1.091,1.091,0,0,0-.194.158.2.2,0,0,0-.051.076h0a.275.275,0,0,0,.053.192.217.217,0,0,0,.121.062.589.589,0,0,0,.17.007c.025,0,.045-.005.059-.008l.015,0h0m.047.2.048.2h0l-.009,0-.028.005c-.023,0-.055.009-.093.013a1,1,0,0,1-.292-.015.62.62,0,0,1-.34-.189.674.674,0,0,1-.157-.463.531.531,0,0,1,.158-.35,1.493,1.493,0,0,1,.268-.221c.07-.047.14-.088.2-.12l-.146-.423a.2.2,0,0,1,.126-.259" transform="translate(-344.559 -203.632)" fill="#333" fill-rule="evenodd"/>
      <path id="Path_77" data-name="Path 77" d="M516.214,262.466a1.911,1.911,0,1,0-2.294,1.959A2.167,2.167,0,0,0,516.214,262.466Z" transform="translate(-400.825 -198.147)" fill="#f5bf00"/>
      <path id="Path_78" data-name="Path 78" d="M519.388,266.613a.2.2,0,0,1,.126.259l-.146.423c.059.032.128.073.2.12a1.487,1.487,0,0,1,.268.221.532.532,0,0,1,.158.35.674.674,0,0,1-.156.463.621.621,0,0,1-.341.189,1,1,0,0,1-.292.015c-.038,0-.07-.008-.093-.013l-.028-.005-.008,0h0l.047-.194-.047.194a.2.2,0,0,1,.1-.4m0,0Zm-.048.2.048-.2Zm-.084-.852.084-.185-.084.185-.169-.077.264-.765a.2.2,0,0,1,.259-.126m-.223,1.622h0l.015,0c.013,0,.034.005.059.008a.588.588,0,0,0,.17-.007.215.215,0,0,0,.121-.062.273.273,0,0,0,.053-.192h0a.2.2,0,0,0-.051-.076,1.1,1.1,0,0,0-.194-.158,2.388,2.388,0,0,0-.213-.125l-.07-.035-.019-.009,0,0h0" transform="translate(-405.888 -203.632)" fill="#333" fill-rule="evenodd"/>
      <path id="Path_79" data-name="Path 79" d="M322.743,516.582H215.56v1.73H322.743Z" transform="translate(-163.766 -403.186)" fill="#7468ee"/>
      <path id="Path_80" data-name="Path 80" d="M363.359,333.282a5.06,5.06,0,0,1,3.157,6.421l-5.1,15c6.112,1.194,5.5,2.254,5.1,4.566-.474,2.754-4.7,4.443-7.457,3.969L356,362.711c-3.849-.644-6.68-2.519-5.59-6.086l.024-.077,6.5-20.109A5.06,5.06,0,0,1,363.359,333.282Z" transform="translate(-271.227 -256.645)" fill="#0057e2" fill-rule="evenodd"/>
      <path id="Path_81" data-name="Path 81" d="M540.893,334.283a5.06,5.06,0,0,1,6.164,3.634l6.029,19.435,0,.019c.815,3.259-2.641,5.09-6.034,6.235l-.76.26a5.06,5.06,0,0,1-6.425-3.149c-.621-1.814,1.561-2.02,2.77-3.342l-5.383-16.929A5.06,5.06,0,0,1,540.893,334.283Z" transform="translate(-420.442 -257.532)" fill="#0057e2" fill-rule="evenodd"/>
      <path id="Path_82" data-name="Path 82" d="M418.19,313.127H410.8c-1.18,0-13.832,4.473-13.832,4.473l3.922,30.443h27.879l2.618-30.629C431.37,317.414,419.31,313.127,418.19,313.127Z" transform="translate(-308.583 -240.773)" fill="#065be3"/>
      <path id="Path_83" data-name="Path 83" d="M390.657,446.219c-.52.994,1.31,2.82,1.981,3.431l10.062-.614,1.472-1.75c-1.676-1.577-5.213-4.973-6.164-5.09C394.468,441.757,391.308,444.977,390.657,446.219Z" transform="translate(-303.469 -343.772)" fill="#d7a441"/>
      <path id="Path_84" data-name="Path 84" d="M649.148,446.668a9.512,9.512,0,1,1,19.024,0Z" transform="translate(-509.89 -339.782)" fill="none" stroke="#000" stroke-width="1"/>
      <path id="Path_85" data-name="Path 85" d="M109.33,537.994a9.512,9.512,0,0,1-19.024,0Z" transform="translate(-63.778 -420.279)" fill="none" stroke="#000" stroke-width="1"/>
      <path id="Path_86" data-name="Path 86" d="M413.257,477.764l-48.6-.041,2.076-1.913a1.834,1.834,0,0,1,1.282-.488h41.86a1.918,1.918,0,0,1,1.262.488Z" transform="translate(-282.791 -370.249)" fill="#fff"/>
      <path id="Path_87" data-name="Path 87" d="M409.525,489.269H362.354a1.424,1.424,0,0,1,0-2.849h47.191a1.416,1.416,0,0,1,1.424,1.425A1.46,1.46,0,0,1,409.525,489.269Z" transform="translate(-279.812 -379.108)" fill="none" stroke="#000" stroke-width="1"/>
      <path id="Path_88" data-name="Path 88" d="M386.969,475.472h-.9a.529.529,0,1,1,0-1.058h.9a.539.539,0,0,1,.529.529A.526.526,0,0,1,386.969,475.472Z" transform="translate(-299.461 -369.524)" fill="none" stroke="#000" stroke-width="1"/>
      <path id="Path_89" data-name="Path 89" d="M401.494,475.472h-.9a.529.529,0,0,1,0-1.058h.9a.539.539,0,0,1,.529.529A.553.553,0,0,1,401.494,475.472Z" transform="translate(-311.056 -369.524)" fill="none" stroke="#000" stroke-width="1"/>
      <path id="Path_90" data-name="Path 90" d="M415.92,475.472h-.9a.529.529,0,1,1,0-1.058h.9a.529.529,0,0,1,0,1.058Z" transform="translate(-322.572 -369.524)" fill="none" stroke="#000" stroke-width="1"/>
      <path id="Path_91" data-name="Path 91" d="M430.346,475.472h-.9a.529.529,0,1,1,0-1.058h.9a.529.529,0,0,1,0,1.058Z" transform="translate(-334.088 -369.524)" fill="none" stroke="#000" stroke-width="1"/>
      <path id="Path_92" data-name="Path 92" d="M444.772,475.472h-.9a.529.529,0,1,1,0-1.058h.9a.539.539,0,0,1,.529.529A.526.526,0,0,1,444.772,475.472Z" transform="translate(-345.603 -369.524)" fill="none" stroke="#000" stroke-width="1"/>
      <path id="Path_93" data-name="Path 93" d="M459.3,475.472h-.9a.529.529,0,0,1,0-1.058h.9a.539.539,0,0,1,.529.529A.553.553,0,0,1,459.3,475.472Z" transform="translate(-357.201 -369.524)" fill="none" stroke="#000" stroke-width="1"/>
      <path id="Path_94" data-name="Path 94" d="M473.725,475.472h-.9a.529.529,0,0,1,0-1.058h.9a.529.529,0,0,1,0,1.058Z" transform="translate(-368.716 -369.524)" fill="none" stroke="#000" stroke-width="1"/>
      <path id="Path_95" data-name="Path 95" d="M488.151,475.472h-.9a.529.529,0,0,1,0-1.058h.9a.529.529,0,0,1,0,1.058Z" transform="translate(-380.232 -369.524)" fill="none" stroke="#000" stroke-width="1"/>
      <path id="Path_96" data-name="Path 96" d="M502.576,475.472h-.9a.529.529,0,1,1,0-1.058h.9a.539.539,0,0,1,.529.529A.526.526,0,0,1,502.576,475.472Z" transform="translate(-391.747 -369.524)" fill="none" stroke="#000" stroke-width="1"/>
      <path id="Path_97" data-name="Path 97" d="M517.1,475.472h-.9a.529.529,0,1,1,0-1.058h.9a.539.539,0,0,1,.529.529A.553.553,0,0,1,517.1,475.472Z" transform="translate(-403.344 -369.524)" fill="none" stroke="#000" stroke-width="1"/>
      <path id="Path_98" data-name="Path 98" d="M531.529,475.472h-.9a.529.529,0,1,1,0-1.058h.9a.529.529,0,0,1,0,1.058Z" transform="translate(-414.86 -369.524)" fill="none" stroke="#000" stroke-width="1"/>
      <path id="Path_99" data-name="Path 99" d="M545.956,475.472h-.9a.529.529,0,1,1,0-1.058h.9a.529.529,0,0,1,0,1.058Z" transform="translate(-426.376 -369.524)" fill="none" stroke="#000" stroke-width="1"/>
      <path id="Path_100" data-name="Path 100" d="M560.381,475.472h-.9a.529.529,0,0,1,0-1.058h.9a.539.539,0,0,1,.529.529A.526.526,0,0,1,560.381,475.472Z" transform="translate(-437.892 -369.524)" fill="none" stroke="#000" stroke-width="1"/>
      <path id="Path_101" data-name="Path 101" d="M574.908,475.472h-.9a.529.529,0,0,1,0-1.058h.9a.539.539,0,0,1,.529.529A.553.553,0,0,1,574.908,475.472Z" transform="translate(-449.488 -369.524)" fill="none" stroke="#000" stroke-width="1"/>
      <path id="Path_102" data-name="Path 102" d="M382.227,479.81h-.9a.529.529,0,0,1,0-1.058h.9a.529.529,0,1,1,0,1.058Z" transform="translate(-295.675 -372.987)" fill="none" stroke="#000" stroke-width="1"/>
      <path id="Path_103" data-name="Path 103" d="M396.652,479.81h-.9a.529.529,0,0,1,0-1.058h.9a.539.539,0,0,1,.529.529A.525.525,0,0,1,396.652,479.81Z" transform="translate(-307.191 -372.987)" fill="none" stroke="#000" stroke-width="1"/>
      <path id="Path_104" data-name="Path 104" d="M411.079,479.81h-.9a.529.529,0,0,1,0-1.058h.9a.539.539,0,0,1,.529.529A.525.525,0,0,1,411.079,479.81Z" transform="translate(-318.707 -372.987)" fill="none" stroke="#000" stroke-width="1"/>
      <path id="Path_105" data-name="Path 105" d="M425.505,479.81h-.9a.529.529,0,0,1,0-1.058h.9a.539.539,0,0,1,.529.529A.513.513,0,0,1,425.505,479.81Z" transform="translate(-330.224 -372.987)" fill="none" stroke="#000" stroke-width="1"/>
      <path id="Path_106" data-name="Path 106" d="M440.031,479.81h-.9a.529.529,0,1,1,0-1.058h.9a.529.529,0,1,1,0,1.058Z" transform="translate(-341.819 -372.987)" fill="none" stroke="#000" stroke-width="1"/>
      <path id="Path_107" data-name="Path 107" d="M454.456,479.81h-.9a.529.529,0,1,1,0-1.058h.9a.539.539,0,0,1,.529.529A.525.525,0,0,1,454.456,479.81Z" transform="translate(-353.335 -372.987)" fill="none" stroke="#000" stroke-width="1"/>
      <path id="Path_108" data-name="Path 108" d="M468.883,479.81h-.9a.529.529,0,0,1,0-1.058h.9a.539.539,0,0,1,.529.529A.525.525,0,0,1,468.883,479.81Z" transform="translate(-364.851 -372.987)" fill="none" stroke="#000" stroke-width="1"/>
      <path id="Path_109" data-name="Path 109" d="M483.308,479.81h-.9a.529.529,0,0,1,0-1.058h.9a.539.539,0,0,1,.529.529A.513.513,0,0,1,483.308,479.81Z" transform="translate(-376.367 -372.987)" fill="none" stroke="#000" stroke-width="1"/>
      <path id="Path_110" data-name="Path 110" d="M497.836,479.81h-.9a.529.529,0,1,1,0-1.058h.9a.529.529,0,0,1,0,1.058Z" transform="translate(-387.963 -372.987)" fill="none" stroke="#000" stroke-width="1"/>
      <path id="Path_111" data-name="Path 111" d="M512.261,479.81h-.9a.529.529,0,0,1,0-1.058h.9a.539.539,0,0,1,.529.529A.525.525,0,0,1,512.261,479.81Z" transform="translate(-399.478 -372.987)" fill="none" stroke="#000" stroke-width="1"/>
      <path id="Path_112" data-name="Path 112" d="M526.687,479.81h-.9a.529.529,0,0,1,0-1.058h.9a.539.539,0,0,1,.529.529A.525.525,0,0,1,526.687,479.81Z" transform="translate(-410.994 -372.987)" fill="none" stroke="#000" stroke-width="1"/>
      <path id="Path_113" data-name="Path 113" d="M541.112,479.81h-.9a.529.529,0,0,1,0-1.058h.9a.539.539,0,0,1,.529.529A.513.513,0,0,1,541.112,479.81Z" transform="translate(-422.51 -372.987)" fill="none" stroke="#000" stroke-width="1"/>
      <path id="Path_114" data-name="Path 114" d="M555.64,479.81h-.9a.529.529,0,0,1,0-1.058h.9a.529.529,0,0,1,0,1.058Z" transform="translate(-434.108 -372.987)" fill="none" stroke="#000" stroke-width="1"/>
      <path id="Path_115" data-name="Path 115" d="M570.066,479.81h-.9a.529.529,0,1,1,0-1.058h.9a.539.539,0,0,1,.529.529A.525.525,0,0,1,570.066,479.81Z" transform="translate(-445.623 -372.987)" fill="none" stroke="#000" stroke-width="1"/>
      <path id="Path_116" data-name="Path 116" d="M584.492,479.81h-.9a.529.529,0,0,1,0-1.058h.9a.539.539,0,0,1,.529.529A.525.525,0,0,1,584.492,479.81Z" transform="translate(-457.14 -372.987)" fill="none" stroke="#000" stroke-width="1"/>
      <path id="Path_117" data-name="Path 117" d="M307.139,481.589a.857.857,0,0,0,.732-1.3,5.032,5.032,0,0,0-4.9-2.625,4.551,4.551,0,0,0-4.192,2.727.865.865,0,0,0,.794,1.2Z" transform="translate(-230.139 -372.1)" fill="#205284"/>
      <path id="Path_118" data-name="Path 118" d="M468.021,299.188l.416,6.851c0,2.707-2.593,4.344-5.3,4.344s-5.222-1.95-5.222-4.656l.338-6.539Z" transform="translate(-357.233 -229.645)" fill="#f5bf00"/>
      <path id="Path_119" data-name="Path 119" d="M469.386,298.363l.131,2.726s-1.787,2.388-3.565,2.649c-1.494.219-3.336.162-4.267-.718a9.031,9.031,0,0,1-2.1-4.49Z" transform="translate(-358.57 -228.987)" fill="#b58d00"/>
      <path id="Path_120" data-name="Path 120" d="M695.642,453.146l.513.435c.648.548.165.762.518.426a6.836,6.836,0,0,1,.792-.674.95.95,0,0,1,.48-.17c.044,0,.134.008.26.206a2.4,2.4,0,0,1,.485,1.688c-.075.321-.678.759-1.79.952l.547,1.319A2.8,2.8,0,0,0,700,455.361a3.69,3.69,0,0,0-.662-2.717,1.65,1.65,0,0,0-1.331-.825,2.242,2.242,0,0,0-1.233.359,4.677,4.677,0,0,0-.8.625c-.1.094-.178.177-.234.237l-.066.073-.019.022-.006.007,0,0Z" transform="translate(-547.005 -351.486)" fill="#fff" fill-rule="evenodd"/>
      <path id="Path_121" data-name="Path 121" d="M696.155,455.419l-.513-.435h0l0,0,.006-.007.019-.022.066-.073c.056-.06.136-.143.234-.237a4.916,4.916,0,0,1,.641-.521l.56,1.273c-.193.163-.4.358-.5.452a1.744,1.744,0,0,0-.147.161C696.516,456,696.588,455.785,696.155,455.419Zm1.667,2.174.383,1.383a5.051,5.051,0,0,1-.759.189l-.547-1.319A4.587,4.587,0,0,0,697.823,457.593Z" transform="translate(-547.005 -353.324)" fill="rgba(17,17,16,0.28)" fill-rule="evenodd"/>
      <path id="Path_122" data-name="Path 122" d="M449.7,227.686l.712,5.739a3.833,3.833,0,0,0,.387,1.241l1.872,3.663a2.84,2.84,0,0,0,2.625,1.75h2.584a2.861,2.861,0,0,0,2.625-1.75l1.852-3.6a3.508,3.508,0,0,0,.387-1.363l.488-5.474-.855-4.355L456.46,220.1l-5.271,1.1Z" transform="translate(-350.678 -166.508)" fill="#f5bf00"/>
      <path id="Path_123" data-name="Path 123" d="M668.276,456.5a1.217,1.217,0,0,1-.779,1.481l-4.1,1.4a1.628,1.628,0,0,1-2.005-.856l-2.412-5.212c-.246-.755,7.4-3.245,7.643-2.49C666.973,451.892,667.817,454.866,668.276,456.5Z" transform="translate(-517.736 -350.581)" fill="#fff"/>
      <path id="Path_124" data-name="Path 124" d="M669.278,455.615a.051.051,0,0,0-.069-.018,16.365,16.365,0,0,1-3.9,1.494c-.629.168-1.189.294-1.591.378-.2.042-.363.074-.475.1l-.128.024-.033.006h-.011s0,0,.008.05l.009.05h0l.009,0,.034-.006.129-.024c.112-.021.275-.053.477-.1.4-.085.965-.212,1.6-.38a16.436,16.436,0,0,0,3.923-1.5A.051.051,0,0,0,669.278,455.615Zm-6.246,2.04a.05.05,0,0,0,.059.041l-.009-.05-.008-.05A.051.051,0,0,0,663.032,457.655Z" transform="translate(-520.972 -354.498)" fill="#474239" fill-rule="evenodd"/>
      <path id="Path_125" data-name="Path 125" d="M477.177,298.357h.285a.882.882,0,0,0,.733-.407l.936-1.587a16.533,16.533,0,0,1-3.5.122l.794,1.445A.888.888,0,0,0,477.177,298.357Z" transform="translate(-371.374 -227.39)" fill="#fff"/>
      <path id="Path_126" data-name="Path 126" d="M498.009,264.067a.449.449,0,1,0-.488-.448A.469.469,0,0,0,498.009,264.067Z" transform="translate(-388.849 -200.895)" fill="#333"/>
      <path id="Path_127" data-name="Path 127" d="M466.232,264.067a.449.449,0,1,0-.488-.448A.469.469,0,0,0,466.232,264.067Z" transform="translate(-363.482 -200.895)" fill="#333"/>
      <path id="Path_128" data-name="Path 128" d="M443.959,213.543a1.365,1.365,0,0,1,1.384-1.4c1.445.02,3.541.122,4.233.59a11.505,11.505,0,0,1,1.567,1.343.767.767,0,0,0,1.3-.509,1.826,1.826,0,0,0-.041-.509,12.407,12.407,0,0,1,.753,1.14.765.765,0,0,0,1.424-.366v-.041s.733,4.436,1.384,4.558a9.264,9.264,0,0,0,1.974-4.172c.387-2.89-.733-6.369-3.093-7.326a10.474,10.474,0,0,0-10.378,1.506s-3.46-.692-3.6,2.137a24.749,24.749,0,0,0,.122,5.454c.57,2.157,1.791,2.381,1.791,2.381l.448-.692a4.694,4.694,0,0,0,.773-2.747Z" transform="translate(-343.549 -155.315)" fill="#065be3"/>
      <path id="Path_129" data-name="Path 129" d="M392.844,458.925a1.315,1.315,0,0,1,1.814-.412l.716.451,1.655,1.92a1.315,1.315,0,1,1-1.993,1.718l-1.4-1.621-.383-.241A1.316,1.316,0,0,1,392.844,458.925Z" transform="translate(-305.126 -356.669)" fill="#f5bf00" fill-rule="evenodd"/>
      <path id="Path_130" data-name="Path 130" d="M403.147,451.739a1.316,1.316,0,0,1,1.822-.375l1.049.69,2.221,3.223a1.315,1.315,0,0,1-2.166,1.493l-1.93-2.8-.62-.408A1.316,1.316,0,0,1,403.147,451.739Z" transform="translate(-313.34 -350.95)" fill="#f5bf00" fill-rule="evenodd"/>
      <path id="Path_131" data-name="Path 131" d="M412.889,446.665a1.316,1.316,0,0,1,1.795-.49l1.512.864,3.4,4.422a1.316,1.316,0,0,1-2.087,1.6l-3.075-4-1.052-.6A1.316,1.316,0,0,1,412.889,446.665Z" transform="translate(-321.151 -346.843)" fill="#f5bf00" fill-rule="evenodd"/>
      <path id="Path_132" data-name="Path 132" d="M518.328,457.185a1.316,1.316,0,0,1-.953,1.6l-1.206.3-.676.992a1.315,1.315,0,1,1-2.174-1.481l1.237-1.816,2.173-.55A1.316,1.316,0,0,1,518.328,457.185Z" transform="translate(-401.279 -354.978)" fill="#d7a441" fill-rule="evenodd"/>
      <path id="Path_133" data-name="Path 133" d="M420.8,442.362a1.315,1.315,0,0,1,1.821-.383l4,2.609,2.712,2.882a1.316,1.316,0,1,1-1.916,1.8l-2.5-2.653-3.735-2.438A1.315,1.315,0,0,1,420.8,442.362Z" transform="translate(-327.432 -343.462)" fill="#f5bf00" fill-rule="evenodd"/>
      <path id="Path_134" data-name="Path 134" d="M532.414,439.758a1.315,1.315,0,0,1-.573,1.77l-3.381,1.728-1.944,3.092a1.316,1.316,0,1,1-2.227-1.4l2.33-3.7,4.026-2.057A1.315,1.315,0,0,1,532.414,439.758Z" transform="translate(-410.056 -341.287)" fill="#f5bf00" fill-rule="evenodd"/>
      <path id="Path_135" data-name="Path 135" d="M541.3,442.35a1.316,1.316,0,0,1-.362,1.825l-2.975,1.99-2.666,3.211a1.316,1.316,0,0,1-2.024-1.681l2.91-3.5,3.293-2.2A1.316,1.316,0,0,1,541.3,442.35Z" transform="translate(-417.144 -343.462)" fill="#f5bf00" fill-rule="evenodd"/>
      <path id="Path_136" data-name="Path 136" d="M553.724,449.023a1.316,1.316,0,0,1-.387,1.82l-1.016.66-3.243,3.577a1.315,1.315,0,1,1-1.949-1.767l3.473-3.831,1.3-.846A1.316,1.316,0,0,1,553.724,449.023Z" transform="translate(-428.177 -348.777)" fill="#f5bf00" fill-rule="evenodd"/>
      <path id="Path_137" data-name="Path 137" d="M563.9,456.28a1.315,1.315,0,0,1,.746,1.7l-.488,1.247-3,2.535a1.316,1.316,0,1,1-1.7-2.01l2.492-2.1.245-.626A1.316,1.316,0,0,1,563.9,456.28Z" transform="translate(-437.921 -354.976)" fill="#f5bf00" fill-rule="evenodd"/>
      <path id="Path_138" data-name="Path 138" d="M510.535,209.6c.224-.041,4.192,2.137,4.436,3.358h-1.16a5.647,5.647,0,0,1,.814,2.015l-2.238-1.16Z" transform="translate(-399.238 -158.13)" fill="#065be3"/>
      <g id="Group_3" data-name="Group 3" transform="translate(103.979 69.542)">
        <path id="Path_139" data-name="Path 139" d="M474.344,299.2a.052.052,0,0,0-.062.084l.031-.042-.031.042h0l0,0,.016.01c.014.009.035.02.064.035a1.7,1.7,0,0,0,.27.1,4.469,4.469,0,0,0,1.241.145,11.438,11.438,0,0,0,1.34-.133c.232-.033.443-.066.6-.091l.182-.03.05-.008.017,0s0,0-.009-.052l.009.052a.052.052,0,1,0-.018-.1l-.017,0-.049.008-.182.03c-.153.025-.364.058-.595.091a11.344,11.344,0,0,1-1.326.132,4.369,4.369,0,0,1-1.211-.14,1.6,1.6,0,0,1-.254-.095c-.026-.012-.044-.023-.056-.03l-.012-.008,0,0Z" transform="translate(-474.261 -299.187)" fill="#dcdcdc" fill-rule="evenodd"/>
      </g>
      <path id="Path_140" data-name="Path 140" d="M448.715,261.97a.4.4,0,0,1,.555-.091l.651.468a.4.4,0,0,1-.464.646l-.651-.468A.4.4,0,0,1,448.715,261.97Z" transform="translate(-349.829 -199.803)" fill="#333" fill-rule="evenodd"/>
      <path id="Path_141" data-name="Path 141" d="M514.052,262.042a.4.4,0,0,1-.2.524l-.692.305a.4.4,0,0,1-.321-.728l.692-.305A.4.4,0,0,1,514.052,262.042Z" transform="translate(-400.885 -199.803)" fill="#333" fill-rule="evenodd"/>
      <path id="Path_142" data-name="Path 142" d="M495.557,262.711h-3.7a.386.386,0,0,1-.387-.387v-1.893a.386.386,0,0,1,.387-.387h3.7a.386.386,0,0,1,.387.387v1.893A.4.4,0,0,1,495.557,262.711Z" transform="translate(-384.017 -198.398)" fill="rgba(201,248,255,0.26)"/>
      <path id="Path_143" data-name="Path 143" d="M490.206,258.783V260.6h3.624v-1.812Zm-.853-.04a.813.813,0,0,1,.813-.813h3.7a.813.813,0,0,1,.814.813v1.893a.827.827,0,0,1-.814.813h-3.7a.813.813,0,0,1-.813-.813Z" transform="translate(-382.329 -196.71)" fill="#333" fill-rule="evenodd"/>
      <path id="Path_144" data-name="Path 144" d="M458.535,262.711h-3.7a.386.386,0,0,1-.387-.387v-1.893a.386.386,0,0,1,.387-.387h3.7a.386.386,0,0,1,.387.387v1.893A.416.416,0,0,1,458.535,262.711Z" transform="translate(-354.463 -198.398)" fill="rgba(201,248,255,0.26)"/>
      <path id="Path_145" data-name="Path 145" d="M453.183,258.783V260.6h3.624v-1.812Zm-.853-.04a.813.813,0,0,1,.813-.813h3.7a.813.813,0,0,1,.814.813v1.914l0,.021a.841.841,0,0,1-.811.771h-3.7a.813.813,0,0,1-.813-.813Z" transform="translate(-352.774 -196.71)" fill="#333" fill-rule="evenodd"/>
      <path id="Path_146" data-name="Path 146" d="M457.938,247.913a.658.658,0,0,1-.611.7l-3.826.264a.658.658,0,0,1-.091-1.312l3.826-.264A.658.658,0,0,1,457.938,247.913Z" transform="translate(-353.148 -188.225)" fill="#333" fill-rule="evenodd"/>
      <path id="Path_147" data-name="Path 147" d="M490.428,247.707a.658.658,0,0,1,.706-.606l3.48.265a.658.658,0,1,1-.1,1.312l-3.48-.264A.658.658,0,0,1,490.428,247.707Z" transform="translate(-383.186 -188.064)" fill="#333" fill-rule="evenodd"/>
      <path id="Path_148" data-name="Path 148" d="M487.915,297.586a.052.052,0,0,1,.035.065l-.05-.015-.05-.015A.052.052,0,0,1,487.915,297.586Zm-3.828,4.452h-1.572a.052.052,0,0,1-.005-.1h1.578a2.373,2.373,0,0,0,1.619-.635,5.776,5.776,0,0,0,1.182-1.485,10.967,10.967,0,0,0,.719-1.506c.08-.206.141-.378.181-.5.02-.06.035-.107.045-.139l.011-.036,0-.009v0h0l.05.015.05.015h0v0l0,.01-.011.038c-.01.033-.026.081-.046.141-.041.121-.1.295-.183.5a11.033,11.033,0,0,1-.726,1.521,5.878,5.878,0,0,1-1.2,1.513A2.477,2.477,0,0,1,484.087,302.039Z" transform="translate(-376.827 -228.365)" fill="#065be3" fill-rule="evenodd"/>
      <path id="Path_151" data-name="Path 151" d="M336.463,500.549a.215.215,0,0,1,.215-.215h19.739a.215.215,0,1,1,0,.43H336.678A.215.215,0,0,1,336.463,500.549Z" transform="translate(-260.28 -390.216)" fill="none" stroke="#000" stroke-width="1" fill-rule="evenodd"/>
      <path id="Path_152" data-name="Path 152" d="M249.457,539.078H353.77v5.169H249.457Zm.407.407v4.355h103.5v-4.355Z" transform="translate(-190.826 -421.144)" fill="#065be3" fill-rule="evenodd"/>
      <path id="Path_153" data-name="Path 153" d="M256.25,573.178a1.241,1.241,0,1,0,1.241,1.241A1.241,1.241,0,0,0,256.25,573.178Zm-1.648,1.241a1.648,1.648,0,1,1,1.648,1.648A1.649,1.649,0,0,1,254.6,574.419Z" transform="translate(-194.933 -448.04)" fill="#065be3" fill-rule="evenodd"/>
      <path id="Path_154" data-name="Path 154" d="M280.158,573.178a1.241,1.241,0,1,0,1.241,1.241A1.241,1.241,0,0,0,280.158,573.178Zm-1.648,1.241a1.648,1.648,0,1,1,1.648,1.648A1.648,1.648,0,0,1,278.51,574.419Z" transform="translate(-214.018 -448.04)" fill="#065be3" fill-rule="evenodd"/>
      <path id="Path_155" data-name="Path 155" d="M303.966,573.178a1.241,1.241,0,1,0,1.241,1.241A1.241,1.241,0,0,0,303.966,573.178Zm-1.648,1.241a1.648,1.648,0,1,1,1.648,1.648A1.649,1.649,0,0,1,302.318,574.419Z" transform="translate(-233.023 -448.04)" fill="#065be3" fill-rule="evenodd"/>
      <path id="Path_156" data-name="Path 156" d="M327.774,573.178a1.241,1.241,0,1,0,1.241,1.241A1.241,1.241,0,0,0,327.774,573.178Zm-1.648,1.241a1.648,1.648,0,1,1,1.648,1.648A1.648,1.648,0,0,1,326.126,574.419Z" transform="translate(-252.029 -448.04)" fill="#065be3" fill-rule="evenodd"/>
      <path id="Path_157" data-name="Path 157" d="M704.634,364.185a1.445,1.445,0,1,1-1.445-1.445A1.445,1.445,0,0,1,704.634,364.185Zm-4.823,0a1.445,1.445,0,1,1-1.445-1.445A1.445,1.445,0,0,1,699.812,364.185Zm8.181,1.445a1.445,1.445,0,1,0-1.445-1.445A1.445,1.445,0,0,0,707.992,365.63Zm6.247-1.445a1.445,1.445,0,1,1-1.445-1.445A1.445,1.445,0,0,1,714.24,364.185Zm-15.873,7.2a1.445,1.445,0,1,0-1.445-1.445A1.445,1.445,0,0,0,698.367,371.389Zm6.268-1.445a1.445,1.445,0,1,1-1.445-1.445A1.445,1.445,0,0,1,704.634,369.944Zm3.358,1.445a1.445,1.445,0,1,0-1.445-1.445A1.445,1.445,0,0,0,707.992,371.389Zm6.247-1.445a1.445,1.445,0,1,1-1.445-1.445A1.445,1.445,0,0,1,714.24,369.944Z" transform="translate(-548.027 -280.377)" fill="none" stroke="rgba(255,255,255,0.18)" stroke-width="1" fill-rule="evenodd"/>
      <path id="Path_158" data-name="Path 158" d="M479.863,260.045c-1.053,0-1.108,4.289-1.108,5.238,0,1.107,2.138,1.107,2.138,0C480.893,264.332,480.948,260.045,479.863,260.045Z" transform="translate(-373.869 -198.398)" fill="rgba(255,115,75,0.72)"/>
      <path id="Path_159" data-name="Path 159" d="M151.265,546.172a1.445,1.445,0,1,1-1.445-1.445A1.445,1.445,0,0,1,151.265,546.172Zm4.8,0a1.445,1.445,0,1,1-1.445-1.445A1.445,1.445,0,0,1,156.067,546.172Zm3.358,1.445a1.445,1.445,0,1,0-1.445-1.445A1.445,1.445,0,0,0,159.425,547.617Zm6.268-1.445a1.445,1.445,0,1,1-1.445-1.445A1.445,1.445,0,0,1,165.693,546.172Z" transform="translate(-110.134 -425.654)" fill="#205284" fill-rule="evenodd"/>
      <path id="Path_160" data-name="Path 160" d="M477.154,263.256a1.853,1.853,0,0,0-1.033.352.449.449,0,1,1-.5-.747,2.582,2.582,0,0,1,3.062,0,.449.449,0,1,1-.5.747A1.853,1.853,0,0,0,477.154,263.256Z" transform="translate(-371.209 -200.246)" fill="#333" fill-rule="evenodd"/>
      <path id="Path_161" data-name="Path 161" d="M639.657,504.827a8.342,8.342,0,0,0-3.247-.453c-.755-.453,2.077-.453,3.7-.642s4.72.227,4.947.642-1.133,0-1.322.453S640.978,505.394,639.657,504.827Z" transform="translate(-499.62 -392.891)" fill="#fff"/>
      <g id="Group_4" data-name="Group 4" transform="translate(140.962 111.055)" opacity="0.5" style="mix-blend-mode: multiply;isolation: isolate">
        <path id="Path_162" data-name="Path 162" d="M670.342,505.228a81.037,81.037,0,0,1-12.75,0,81.1,81.1,0,0,1,12.75,0Z" transform="translate(-657.592 -504.977)" fill="#858585"/>
      </g>
      <path id="Path_164" data-name="Path 164" d="M459.064,262.38a.305.305,0,0,1,.047.429l-.813,1.012a.305.305,0,1,1-.476-.382l.813-1.012A.305.305,0,0,1,459.064,262.38Zm1.914,0a.305.305,0,0,1,.047.429l-.813,1.012a.305.305,0,0,1-.476-.382l.813-1.012A.305.305,0,0,1,460.978,262.38Z" transform="translate(-357.105 -200.209)" fill="rgba(255,255,255,0.51)" fill-rule="evenodd"/>
      <path id="Path_165" data-name="Path 165" d="M495.881,262.38a.305.305,0,0,1,.047.429l-.813,1.012a.305.305,0,0,1-.476-.382l.813-1.012A.305.305,0,0,1,495.881,262.38Zm1.914,0a.305.305,0,0,1,.047.429l-.813,1.012a.305.305,0,0,1-.476-.382l.813-1.012A.305.305,0,0,1,497.8,262.38Z" transform="translate(-386.495 -200.209)" fill="rgba(255,255,255,0.51)" fill-rule="evenodd"/>
      <path id="Path_166" data-name="Path 166" d="M92.841,379.118a.61.61,0,0,1,.61-.61h13.68a.61.61,0,0,1,.61.61v6.264a.611.611,0,0,1-.61.611H93.451a.611.611,0,0,1-.61-.611Z" transform="translate(-65.802 -292.965)" fill="rgba(0,0,0,0.12)"/>
      <path id="Path_167" data-name="Path 167" d="M89.795,374.716a.611.611,0,0,1,.61-.611h13.68a.611.611,0,0,1,.61.611v6.264a.61.61,0,0,1-.61.61H90.405a.61.61,0,0,1-.61-.61Z" transform="translate(-63.371 -289.45)" fill="#065be3"/>
      <path id="Path_168" data-name="Path 168" d="M177.926,374.105h14.9v7.485h-14.9Z" transform="translate(-133.724 -289.45)" fill="#065be3"/>
      <path id="Path_169" data-name="Path 169" d="M117.592,120.7v4.195a.582.582,0,0,0,.921.47l2.94-2.1a.588.588,0,0,0,0-.941l-2.94-2.1A.582.582,0,0,0,117.592,120.7Z" transform="translate(-85.561 -86.697)" fill="#fff" opacity="0.8"/>
      <g id="Group_5" data-name="Group 5" transform="translate(128.505 45.976)" opacity="0.8">
        <path id="Path_170" data-name="Path 170" d="M595.843,184.082a1.721,1.721,0,0,1,1.721-1.721h35.807a1.721,1.721,0,0,1,1.721,1.721v15.264a1.721,1.721,0,0,1-1.721,1.721H597.564a1.721,1.721,0,0,1-1.721-1.721Z" transform="translate(-595.843 -182.361)" fill="rgba(255,255,255,0.13)" opacity="0.9"/>
        <path id="Path_171" data-name="Path 171" d="M611.279,206.687a.611.611,0,0,1,.611-.611h13.68a.611.611,0,0,1,.611.611v6.264a.611.611,0,0,1-.611.61H611.89a.611.611,0,0,1-.611-.61Z" transform="translate(-608.165 -201.292)" fill="none" stroke="#000" stroke-width="1"/>
        <path id="Path_172" data-name="Path 172" d="M699.411,206.687a.61.61,0,0,1,.61-.611H713.7a.61.61,0,0,1,.61.611v6.264a.61.61,0,0,1-.61.61h-13.68a.61.61,0,0,1-.61-.61Z" transform="translate(-678.519 -201.292)" fill="none" stroke="#000" stroke-width="1"/>
        <path id="Path_173" data-name="Path 173" d="M618.6,215.022a.107.107,0,0,1,.107-.108h9.639a.108.108,0,1,1,0,.215h-9.639A.107.107,0,0,1,618.6,215.022Z" transform="translate(-614.008 -208.347)" fill="#065be3" fill-rule="evenodd"/>
        <path id="Path_174" data-name="Path 174" d="M707.092,215.022a.107.107,0,0,1,.107-.108h9.639a.108.108,0,0,1,0,.215H707.2A.107.107,0,0,1,707.092,215.022Z" transform="translate(-684.651 -208.347)" fill="#876df3" fill-rule="evenodd"/>
        <path id="Path_175" data-name="Path 175" d="M618.6,221.276a.107.107,0,0,1,.107-.108h6.933a.108.108,0,1,1,0,.215h-6.933A.107.107,0,0,1,618.6,221.276Z" transform="translate(-614.008 -213.34)" fill="#065be3" fill-rule="evenodd"/>
        <path id="Path_176" data-name="Path 176" d="M707.092,221.276a.107.107,0,0,1,.107-.108h6.933a.108.108,0,1,1,0,.215H707.2A.107.107,0,0,1,707.092,221.276Z" transform="translate(-684.651 -213.34)" fill="#876df3" fill-rule="evenodd"/>
        <path id="Path_177" data-name="Path 177" d="M618.6,227.526a.107.107,0,0,1,.107-.108h11.76a.108.108,0,1,1,0,.215h-11.76A.107.107,0,0,1,618.6,227.526Z" transform="translate(-614.008 -218.329)" fill="#065be3" fill-rule="evenodd"/>
        <path id="Path_178" data-name="Path 178" d="M707.092,227.526a.107.107,0,0,1,.107-.108h11.76a.108.108,0,1,1,0,.215H707.2A.107.107,0,0,1,707.092,227.526Z" transform="translate(-684.651 -218.329)" fill="#876df3" fill-rule="evenodd"/>
        <path id="Path_179" data-name="Path 179" d="M618.6,233.778a.107.107,0,0,1,.107-.108h11.021a.108.108,0,0,1,0,.215H618.706A.107.107,0,0,1,618.6,233.778Z" transform="translate(-614.008 -223.32)" fill="#065be3" fill-rule="evenodd"/>
      </g>
      <g id="Group_6" data-name="Group 6" transform="translate(139.381 65.073)">
        <path id="Path_180" data-name="Path 180" d="M653.588,277.042a.2.2,0,0,1,.114.253A57.151,57.151,0,0,0,650.5,287.86a19.327,19.327,0,0,0,.943,10.8h0a24.592,24.592,0,0,0,1.477,2.821l.2.337c.477.812.959,1.633,1.374,2.49a9.139,9.139,0,0,1,.969,6.367.2.2,0,1,1-.377-.108,8.758,8.758,0,0,0-.944-6.088c-.407-.841-.881-1.648-1.359-2.461l-.2-.339a24.967,24.967,0,0,1-1.5-2.866,19.716,19.716,0,0,1-.969-11.017,57.538,57.538,0,0,1,3.225-10.639A.2.2,0,0,1,653.588,277.042Z" transform="translate(-649.755 -277.03)" fill="#065be3" fill-rule="evenodd"/>
      </g>
      <g id="Group_7" data-name="Group 7" transform="translate(143.894 53.127)">
        <path id="Path_181" data-name="Path 181" d="M673.447,217.88a.2.2,0,0,1,.277-.02,13.958,13.958,0,0,1,3.8,15.237,23.525,23.525,0,0,1-1.831,3.568l-.347.578c-.571.949-1.136,1.888-1.614,2.87-1.151,2.362-1.75,5.2-.572,7.475a.2.2,0,1,1-.348.18c-1.264-2.444-.6-5.428.568-7.828.487-1,1.063-1.956,1.633-2.9q.172-.286.343-.572a23.142,23.142,0,0,0,1.8-3.508h0a13.567,13.567,0,0,0-3.69-14.8A.2.2,0,0,1,673.447,217.88Z" transform="translate(-672.126 -217.813)" fill="#065be3" fill-rule="evenodd"/>
      </g>
      <path id="Path_184" data-name="Path 184" d="M318.176,242.146c-3.02,0-3.471,1.848-3.471,3.156a22.664,22.664,0,0,0,.361,3.471,23.254,23.254,0,0,1,.361,3.517c0,4.328-2.705,5.861-6.222,5.861h-.9v-2.344h.721c2.389-.045,3.426-1.307,3.426-3.742a23.576,23.576,0,0,0-.315-3.066,18.334,18.334,0,0,1-.361-3.246c0-2.75,1.217-4.193,3.066-4.688v-.09c-1.893-.5-3.066-1.894-3.066-4.644a18.821,18.821,0,0,1,.361-3.246,24.6,24.6,0,0,0,.315-3.021c0-2.3-.9-3.652-3.381-3.7h-.811v-2.344h.857c3.652,0,6.267,1.668,6.267,5.59a23.843,23.843,0,0,1-.361,3.562,24.439,24.439,0,0,0-.361,3.607c0,1.488.451,3.156,3.471,3.156v2.209Z" transform="translate(-237.765 -169.643)" fill="#876df3"/>
      <path id="Path_185" data-name="Path 185" d="M497.521,40.086c3.021,0,3.471,1.848,3.471,3.156a22.67,22.67,0,0,1-.36,3.471,23.248,23.248,0,0,0-.361,3.516c0,4.328,2.7,5.861,6.221,5.861h.9V53.746h-.721c-2.389-.045-3.426-1.307-3.426-3.742a23.574,23.574,0,0,1,.315-3.066,18.334,18.334,0,0,0,.361-3.246c0-2.75-1.217-4.193-3.066-4.689v-.09c1.894-.5,3.066-1.893,3.066-4.644a18.824,18.824,0,0,0-.361-3.246A24.591,24.591,0,0,1,503.247,28c0-2.3.9-3.652,3.381-3.7h.811V21.963h-.857c-3.652,0-6.267,1.668-6.267,5.59a23.839,23.839,0,0,0,.361,3.562,24.435,24.435,0,0,1,.361,3.607c0,1.488-.451,3.156-3.471,3.156v2.209Z" transform="translate(-388.849 -8.343)" fill="#876df3"/>
      <path id="Path_186" data-name="Path 186" d="M231.639,96.568c1.255,0,1.443.768,1.443,1.311a9.4,9.4,0,0,1-.15,1.442,9.676,9.676,0,0,0-.15,1.461c0,1.8,1.124,2.435,2.585,2.435h.375v-.974h-.3c-.993-.019-1.424-.543-1.424-1.555a9.81,9.81,0,0,1,.131-1.274,7.609,7.609,0,0,0,.15-1.349,1.764,1.764,0,0,0-1.274-1.948v-.037a1.725,1.725,0,0,0,1.274-1.93,7.812,7.812,0,0,0-.15-1.349,10.236,10.236,0,0,1-.131-1.255c0-.955.375-1.517,1.4-1.536h.337v-.974H235.4c-1.517,0-2.6.693-2.6,2.323a9.92,9.92,0,0,0,.15,1.48,10.168,10.168,0,0,1,.15,1.5c0,.618-.187,1.311-1.443,1.311v.918Z" transform="translate(-176.602 -61.887)" fill="#065be3" opacity="0.7"/>
      <path id="Path_187" data-name="Path 187" d="M717.214,310.693h13.92v6.553h-13.92Z" transform="translate(-564.225 -238.83)" fill="#065be3"/>
      <path id="Path_189" data-name="Path 189" d="M668.474,452.07a12.285,12.285,0,0,0-3.281.769,21.583,21.583,0,0,0-2.795,1.1c-.207.107-.318.182-.309.21s.094.018.245-.011c.489-.094,1.653-.436,3-.874A16.42,16.42,0,0,0,668.474,452.07Z" transform="translate(-520.22 -351.673)" fill="#474239"/>
      <path id="Path_190" data-name="Path 190" d="M658.158,461.415c-.207.107-.318.182-.309.21s.094.018.245-.011c-.166.072-.525.231-.639.293a15.453,15.453,0,0,0,0,2.658c0,.916-.23,1.67-.553,1.1s.075-3.591.153-3.837C657.116,461.633,657.816,461.471,658.158,461.415Z" transform="translate(-515.98 -359.147)" fill="#474239"/>
      <path id="Path_191" data-name="Path 191" d="M657.245,487.079a3.56,3.56,0,0,0-.153,1.82c.239.495.553.08.553-.463A2.446,2.446,0,0,0,657.245,487.079Z" transform="translate(-516.171 -379.634)" fill="#474239"/>
      <path id="Path_192" data-name="Path 192" d="M651.268,505.38a5.094,5.094,0,0,0,2.781.286c.477-.009,1.276-.078.663-.286C653.945,505.12,650.553,504.834,651.268,505.38Z" transform="translate(-511.504 -393.995)" fill="#474239"/>
    </g>
  </g>
</svg>
