
<svg width="24" height="24" viewBox="0 0 24 24" fill="none" xmlns="http://www.w3.org/2000/svg" data-reactroot="">
<path stroke-linejoin="round" stroke-linecap="round" stroke-miterlimit="10" stroke-width="0.5" stroke="#000000" fill="none" d="M22 13.2C21.9 11.4 20.3 10 18.5 10C16.6 10 15 11.6 15 13.5C15 14 15.1 14.6 15.4 15H4C2.9 15 2 14.1 2 13V4C2 2.9 2.9 2 4 2H20C21.1 2 22 2.9 22 4V13C22 13.1 22 13.1 22 13.2Z"></path>
<path stroke-linejoin="round" stroke-linecap="round" stroke-miterlimit="10" stroke-width="0.5" stroke="#000000" d="M6 11H11.5"></path>
<path stroke-linejoin="round" stroke-linecap="round" stroke-miterlimit="10" stroke-width="0.5" stroke="#000000" d="M6 6H18"></path>
<path stroke-linejoin="round" stroke-linecap="round" stroke-miterlimit="10" stroke-width="0.5" stroke="#000000" fill="none" d="M16.4 16.2998L15.5 21.9998L18.5 19.9998L21.5 21.9998L20.5 16.2998C19.9 16.6998 19.2 16.9998 18.5 16.9998C17.8 16.9998 17 16.7998 16.4 16.2998Z"></path>
<path stroke-linejoin="round" stroke-linecap="round" stroke-miterlimit="10" stroke-width="0.5" stroke="#000000" fill="none" d="M18.5 17C20.433 17 22 15.433 22 13.5C22 11.567 20.433 10 18.5 10C16.567 10 15 11.567 15 13.5C15 15.433 16.567 17 18.5 17Z"></path>
</svg>
