<svg width="24" height="24" viewBox="0 0 24 24" fill="none" xmlns="http://www.w3.org/2000/svg" data-reactroot="">
<path fill="none" d="M11.0002 2C8.66016 2 5.71016 3.72 5.76016 8.16L2.04016 12.98C1.93016 13.12 2.06016 13.3 2.26016 13.3L4.74016 14.53C4.87016 15.45 5.35016 18.13 5.61016 19.47C5.70016 19.89 9.80016 19.57 9.80016 19.57L11.0002 22" undefined="1"></path>
<path stroke-linejoin="round" stroke-linecap="round" stroke-miterlimit="10" stroke-width="0.8" stroke="#ffffff" d="M11.0002 2C8.66016 2 5.71016 3.72 5.76016 8.16L2.04016 12.98C1.93016 13.12 2.06016 13.3 2.26016 13.3L4.74016 14.53C4.87016 15.45 5.35016 18.13 5.61016 19.47C5.70016 19.89 9.80016 19.57 9.80016 19.57L11.0002 22"></path>
<path stroke-linejoin="round" stroke-linecap="round" stroke-miterlimit="10" stroke-width="0.8" stroke="#ffffff" d="M15.2803 2L14.2603 4.85"></path>
<path stroke-linejoin="round" stroke-linecap="round" stroke-miterlimit="10" stroke-width="0.8" stroke="#ffffff" d="M21.69 4.73999L18.27 7.29999"></path>
<path stroke-linejoin="round" stroke-linecap="round" stroke-miterlimit="10" stroke-width="0.8" stroke="#ffffff" d="M22 12.11L18.73 11.87"></path>
<path stroke-linejoin="round" stroke-linecap="round" stroke-miterlimit="10" stroke-width="0.8" stroke="#ffffff" fill="none" d="M13.4903 15.22C14.6703 14.62 17.6103 11.58 15.8403 9.25002C14.4003 7.36002 11.6703 7.36002 10.2303 9.25002C8.4603 11.58 11.4103 14.61 12.5803 15.22C12.8703 15.36 13.2003 15.36 13.4903 15.22Z"></path>
<path stroke-linejoin="round" stroke-linecap="round" stroke-miterlimit="10" stroke-width="0.8" stroke="#ffffff" d="M13.04 11.78V15.33"></path>
<path stroke-linejoin="round" stroke-linecap="round" stroke-miterlimit="10" stroke-width="0.8" stroke="#ffffff" d="M11.7202 17.91H14.3502"></path>
<path stroke-linejoin="round" stroke-linecap="round" stroke-miterlimit="10" stroke-width="0.8" stroke="#ffffff" d="M11.7202 15.33H14.3502"></path>
<path stroke-linejoin="round" stroke-linecap="round" stroke-miterlimit="10" stroke-width="0.8" stroke="#ffffff" fill="none" d="M13 11.78C13.2761 11.78 13.5 11.5562 13.5 11.28C13.5 11.0039 13.2761 10.78 13 10.78C12.7239 10.78 12.5 11.0039 12.5 11.28C12.5 11.5562 12.7239 11.78 13 11.78Z"></path>
</svg>
