<svg xmlns="http://www.w3.org/2000/svg" width="42.3" height="42.3" viewBox="0 0 42.3 42.3">
  <path id="googlechrome" d="M28.577,15.316l11.835-2.959A21.2,21.2,0,0,1,21.094,42.3c-.532,0-1.066-.019-1.6-.06L28.14,27.529a8.876,8.876,0,0,0,1.553-2.24,9.607,9.607,0,0,0-.076-8.368,9.088,9.088,0,0,0-1.04-1.6ZM22.867,30.43,19.128,42.207A21.2,21.2,0,0,1,3.592,9.3l8.52,14.764c.317.95,1.972,4.549,5.406,5.864a9.63,9.63,0,0,0,5.349.5Zm-1.764-17a7.972,7.972,0,0,0-7.545,6.19,7.757,7.757,0,0,0,10.524,8.74,7.912,7.912,0,0,0,4.743-6.047,7.98,7.98,0,0,0-4.4-8.159A7.778,7.778,0,0,0,21.1,13.43Zm-8.684,4.128L3.981,8.747a21.209,21.209,0,0,1,36.152,3.017h-18a9.76,9.76,0,0,0-7.517,2.561,9.421,9.421,0,0,0-2.2,3.232Z" fill="#fff"/>
</svg>
