<svg xmlns="http://www.w3.org/2000/svg" viewBox="0 0 646.056 646.055">
  <path id="linkedin" d="M550.412,550.547h-95.67V400.635c0-35.748-.727-81.753-49.854-81.753-49.881,0-57.5,38.9-57.5,79.115v152.55h-95.67V242.271h91.9v42.021h1.238c12.84-24.227,44.066-49.8,90.717-49.8,96.935,0,114.863,63.8,114.863,146.843V550.547ZM143.667,200.089A55.561,55.561,0,1,1,199.227,144.5,55.506,55.506,0,0,1,143.667,200.089Zm47.97,350.458H95.7V242.271h95.939ZM598.274,0H47.674C21.32,0,0,20.835,0,46.543v552.97c0,25.734,21.32,46.543,47.674,46.543h550.52c26.327,0,47.862-20.808,47.862-46.543V46.543C646.055,20.835,624.52,0,598.193,0Z"/>
</svg>
