<svg xmlns="http://www.w3.org/2000/svg" viewBox="0 0 627.829 737.762">
  <path id="xing" d="M505.926,0c-15.893,0-22.778,9.991-28.5,20.288,0,0-229.167,406.507-236.76,419.817.461.738,151.21,277.368,151.21,277.368,5.226,9.468,13.4,20.288,29.726,20.288H527.782c6.486,0,11.528-2.4,14.233-6.763,2.736-4.642,2.736-10.636-.277-16.477L391.757,440.444a.666.666,0,0,1,0-.676L627.38,23.24c2.92-5.871,2.982-11.9.184-16.446C624.829,2.4,619.849,0,613.455,0H505.926ZM58.965,145.708c-6.486,0-11.835,2.275-14.54,6.64-2.767,4.58-2.4,10.421.615,16.323l71.932,124.5c.123.307.123.492,0,.646L4,493.409c-3.043,5.779-2.859,11.712,0,16.262,2.613,4.365,7.347,7.193,13.833,7.193H124.226c15.923,0,23.547-10.7,29.049-20.5L268.059,293.2l-73.1-127.725c-5.287-9.683-13.341-20.258-29.572-20.258H58.965v.492Z" transform="translate(-1.788)"/>
</svg>
