<svg xmlns="http://www.w3.org/2000/svg" width="424.217" height="341.125" viewBox="0 0 424.217 341.125">
  <g id="Group_209" data-name="Group 209" transform="translate(-281.056 -2941)">
    <path id="Path_731" data-name="Path 731" d="M714.908,443.277c-15.207-8.478-24.674-20.052-28.138-34.4-2.572-10.654-1.833-22.642,2.2-35.632a95.435,95.435,0,0,1,13.271-26.806c30.8-43.593,33.577-72,30.486-88.151-3.389-17.711-14.4-25.067-14.512-25.139l.475-.731c.114.074,11.416,7.6,14.887,25.671,2,10.418,1.06,22.3-2.8,35.307-4.8,16.192-14.163,34.207-27.825,53.547A94.568,94.568,0,0,0,689.8,373.5c-6.609,21.306-7.544,50.573,25.533,69.013Z" transform="translate(-155.957 2784.282)" fill="#d0cde1"/>
    <path id="Path_732" data-name="Path 732" d="M677.843,430.266c-11.989-6.683-11.655-17.274-9.264-24.982a33.873,33.873,0,0,1,4.71-9.516c10.789-15.272,11.764-25.193,10.682-30.826-1.175-6.117-4.945-8.629-4.983-8.653l.475-.731c.168.109,4.119,2.742,5.364,9.22,1.62,8.436-2.022,19.031-10.826,31.494a33,33,0,0,0-4.59,9.27c-2.3,7.4-2.623,17.565,8.856,23.963Z" transform="translate(-145.795 2714.829)" fill="#d0cde1"/>
    <path id="Path_733" data-name="Path 733" d="M805.74,216.266l-.424-.762c11.478-6.4,11.151-16.563,8.856-23.963a33,33,0,0,0-4.59-9.27c-8.8-12.462-12.447-23.058-10.826-31.494,1.244-6.478,5.2-9.111,5.364-9.22l.476.731c-.038.025-3.827,2.57-4.99,8.688-1.07,5.63-.084,15.543,10.689,30.792A33.875,33.875,0,0,1,815,191.283C817.4,198.991,817.729,209.583,805.74,216.266Z" transform="translate(-219.753 2835.527)" fill="#d0cde1"/>
    <path id="Path_734" data-name="Path 734" d="M842.878,178.657a13.08,13.08,0,1,1-21.909-14.294c3.947-6.05,23.819-12.571,23.819-12.571S846.825,172.607,842.878,178.657Z" transform="translate(-231.293 2829.755)" fill="#3f3d56"/>
    <path id="Path_735" data-name="Path 735" d="M831.878,85.657a13.08,13.08,0,1,1-21.909-14.294c3.947-6.05,23.819-12.571,23.819-12.571S835.825,79.607,831.878,85.657Z" transform="translate(-225.089 2882.208)" fill="#3f3d56"/>
    <path id="Path_736" data-name="Path 736" d="M816.435,398.376c-.837-.2-20.583-4.787-27.166-1.652a13.516,13.516,0,0,0,5.833,25.719,13.3,13.3,0,0,0,2.921-.323,13.557,13.557,0,0,0,2.869-.99c6.583-3.139,15.46-21.363,15.835-22.139l.24-.488Zm-15.918,21.965a12.643,12.643,0,0,1-10.874-22.828,16.3,16.3,0,0,1,6.557-1.007c7.325,0,17.117,2.071,19.5,2.6-1.487,2.982-9.452,18.508-15.181,21.237Z" transform="translate(-210.267 2692.227)" fill="#d0cde1"/>
    <path id="Path_737" data-name="Path 737" d="M702.092,193.434a13.462,13.462,0,0,1-9.1-3.522C687.6,185,684.4,164.979,684.27,164.129l-.084-.537.543.035c.858.055,21.087,1.4,26.476,6.311h0a13.51,13.51,0,0,1-9.113,23.5Zm-16.87-28.9c.558,3.283,3.669,20.457,8.357,24.731a12.644,12.644,0,1,0,17.038-18.686h0C705.929,166.307,688.541,164.789,685.221,164.536Z" transform="translate(-155.345 2823.1)" fill="#d0cde1"/>
    <path id="Path_738" data-name="Path 738" d="M649.577,295.867a13.08,13.08,0,0,1-17.625,19.33c-5.338-4.867-8.584-25.528-8.584-25.528S644.239,291,649.577,295.867Z" transform="translate(-121.043 2751.991)" fill="#3f3d56"/>
    <path id="Path_739" data-name="Path 739" d="M749.123,297.367a7.477,7.477,0,0,0-7.277-5.89,7.64,7.64,0,0,0-1.6.174c-3.9.846-10.826,9.335-11.118,9.692l-.344.423.488.244c.384.192,8.729,4.325,13.1,4.325a4.82,4.82,0,0,0,1.038-.1A7.463,7.463,0,0,0,749.123,297.367Zm-1.753,5.145a6.521,6.521,0,0,1-4.146,2.873c-3.13.68-11-2.934-13.062-3.915,1.465-1.744,7.141-8.288,10.276-8.968a6.589,6.589,0,0,1,6.932,10.01Z" transform="translate(-180.502 2750.971)" fill="#d0cde1"/>
    <g id="Group_208" data-name="Group 208">
      <path id="Path_726" data-name="Path 726" d="M633.689,225.766A107.353,107.353,0,0,1,617.6,281.808q-2.675,4.414-5.755,8.641a144.145,144.145,0,0,1-32.808,32.128q-1.19.85-2.4,1.683c-.305.209-.606.419-.911.628q-1.9,1.288-3.85,2.537c-.41.262-.82.519-1.229.776-.349.222-.7.44-1.055.658q-5.67,3.505-11.728,6.631c-.44.227-.885.453-1.33.68-.384.192-.767.388-1.155.58-.27.135-.545.27-.815.4-.453.227-.911.449-1.369.667q-1.785.857-3.6,1.679c-.554.253-1.112.506-1.674.75a.033.033,0,0,1-.017.009c-.558.249-1.116.493-1.679.732-.515.222-1.033.445-1.552.658q-2.341.988-4.722,1.91c-.327.131-.658.257-.99.384-.458.174-.911.349-1.373.519-.589.218-1.173.436-1.761.65-.549.2-1.1.4-1.652.593l-.118.039c-.554.2-1.107.388-1.665.576q-4.3,1.478-8.733,2.764c-.371.109-.741.214-1.112.318-.166.052-.336.1-.506.144-.432.122-.863.244-1.3.362-.532.153-1.068.3-1.609.436q-2.256.6-4.534,1.151c-.514.126-1.025.249-1.539.366a.062.062,0,0,1-.031.009l-1.543.353c-.719.166-1.447.327-2.176.475-.841.183-1.687.358-2.537.532-.528.1-1.055.209-1.583.31s-1.059.2-1.587.3q-3.983.739-8.031,1.33c-1,.144-2.006.283-3.017.419-.619.083-1.243.161-1.866.235-.545.065-1.094.131-1.639.192s-1.09.122-1.639.183h0c-.052.009-.1.013-.157.017-.894.1-1.792.183-2.69.27-.528.052-1.055.1-1.587.139-.475.044-.955.083-1.434.118q-2.152.177-4.316.3-.7.046-1.4.078c-.994.057-1.988.1-2.987.14-.414.017-.833.035-1.247.048-1.116.039-2.237.065-3.357.087q-.948.02-1.9.026-1.125.013-2.25.013c-36.279,0-77.977-12.426-112.324-30.489a241.407,241.407,0,0,1-25.013-15.072c-4.648-3.213-9.034-6.518-13.106-9.9-30.349-25.157-43.485-54.145-19.157-76.206q4.709-4.271,10.145-8.89,4.114-3.5,8.589-7.176c42.5-34.905,107.628-80.693,150.865-115.6C536.969,35.256,633.689,153.047,633.689,225.766Z" transform="translate(71.584 2871.281)" fill="rgba(255,255,255,0)"/>
      <ellipse id="Ellipse_145" data-name="Ellipse 145" cx="182.025" cy="4.228" rx="182.025" ry="4.228" transform="translate(281.056 3248.84)" fill="#3f3d56"/>
      <ellipse id="Ellipse_146" data-name="Ellipse 146" cx="126.017" cy="2.927" rx="126.017" ry="2.927" transform="translate(337.064 3264.126)" fill="#3f3d56"/>
      <ellipse id="Ellipse_147" data-name="Ellipse 147" cx="102.798" cy="2.388" rx="102.798" ry="2.388" transform="translate(360.341 3277.349)" fill="#3f3d56"/>
      <g id="Group_207" data-name="Group 207" transform="translate(120 2)">
        <path id="Path_747" data-name="Path 747" d="M157.424,730.281s-6.153-2.636-8.7-1.315-1.989,6.541-1.989,6.541-4.3,9.784,7.1,12.565l3.142.1s.708-3.244,6.032.554,16.117-.82,18.142-3.659.3-5.677-4.465-8.005-16.894-8.839-16.894-8.839Z" transform="translate(148.233 2504.642)" fill="#2f2e41"/>
        <g id="Group_206" data-name="Group 206">
          <path id="Path_740" data-name="Path 740" d="M114.288,469.367s-6.1,14.388-1.308,15.7,6.976-15.7,6.976-15.7Z" transform="translate(167.858 2650.639)" fill="#ffb8b8"/>
          <path id="Path_741" data-name="Path 741" d="M23.617,229.075,7.7,276.816,4.216,302.539v8.284l9.156-.872v-6.976L27.759,258.94Z" transform="translate(276.622 2811.799)" fill="#575a89"/>
          <path id="Path_742" data-name="Path 742" d="M185.23,363.933l-.872,9.592,27.9,1.744V353.906C212.261,351.29,185.23,363.933,185.23,363.933Z" transform="translate(126.563 2715.962)" fill="#ffb8b8"/>
          <path id="Path_743" data-name="Path 743" d="M151.666,715.615l-1.308,12.208,14.388-1.308s-3.924-9.592-4.36-10.9S151.666,715.615,151.666,715.615Z" transform="translate(145.74 2512.08)" fill="#ffb8b8"/>
          <path id="Path_744" data-name="Path 744" d="M149.96,606.575l-1.744,11.772,9.156,6.54-.872-15.7Z" transform="translate(195.404 2598.885)" fill="#ffb8b8"/>
          <path id="Path_745" data-name="Path 745" d="M166.812,385.367h-7.848l-2.616,4.8s-17,12.208-17,37.495v55.806s-.436,39.675,4.36,44.035l.479,2.873.393,2.359,10.464-1.744a11.591,11.591,0,0,1,.436-6.54c1.308-3.052-.872-20.055-.872-20.055l2.616-26.6,15.7-38.8,19.619,27.9s-2.18,38.8-1.308,40.111-.436,5.232-.436,5.232h11.336l7.412-51.883-16.568-46.651s1.744-21.363-4.36-23.543S166.812,385.367,166.812,385.367Z" transform="translate(151.957 2698.016)" fill="#2f2e41"/>
          <path id="Path_746" data-name="Path 746" d="M250.551,683.835s-1.428-6.54-3.984-7.848-6.48,2.18-6.48,2.18-10.464,2.18-6.1,13.08l1.744,2.616s3.052-1.308,3.052,5.232,10.028,12.644,13.516,12.644,4.8-3.052,3.924-8.284-2.616-18.887-2.616-18.887Z" transform="translate(99.174 2534.269)" fill="#2f2e41"/>
          <circle id="Ellipse_148" data-name="Ellipse 148" cx="14.824" cy="14.824" r="14.824" transform="translate(308.088 2996.839)" fill="#ffb8b8"/>
          <path id="Path_748" data-name="Path 748" d="M77.832,175.575l-2.616,16.568,15.7,1.308,1.744-16.568Z" transform="translate(236.577 2841.974)" fill="#ffb8b8"/>
          <path id="Path_749" data-name="Path 749" d="M196.6,273.472a36.371,36.371,0,0,0-18.969-15.326c-1.216-.422-6.8-.345-10.176-.393a10.338,10.338,0,0,0-9.934,7.022c-4.037,11.875-9.378,35.172,6.718,44.255l3.488,3.052,30.955-8.72s-2.18-5.232-.872-6.976,5.668-12.208.872-19.62C197.93,275.612,197.236,274.51,196.6,273.472Z" transform="translate(144.071 2769.992)" fill="#575a89"/>
          <path id="Path_750" data-name="Path 750" d="M196.5,185.52s3.1-20.956-19.055-14.49c0,0-15.675-3.188-21.211,16.389l-5.619,20.525,2.572-1.337,1.137,2.617,4.105,1.124,1.833-3.47.772,4.271,33.723,4.017s-14.961-9.24-14.893-25.284l2.824,3.1Z" transform="translate(145.596 2819.603)" fill="#2f2e41"/>
          <path id="Path_751" data-name="Path 751" d="M1.859,0H4.812A1.859,1.859,0,0,1,6.671,1.859V22.671H0V1.859A1.859,1.859,0,0,1,1.859,0Z" transform="translate(316.018 2990.085) rotate(-11.102)" fill="#3783cb"/>
          <circle id="Ellipse_149" data-name="Ellipse 149" cx="7.848" cy="7.848" r="7.848" transform="translate(317.679 3005.123)" fill="#d0cde1"/>
          <circle id="Ellipse_150" data-name="Ellipse 150" cx="4.36" cy="4.36" r="4.36" transform="translate(321.167 3008.611)" fill="#3783cb"/>
          <path id="Path_752" data-name="Path 752" d="M266.442,478.032l2.114-2.774-.347-.264,1.425-1.87a4.188,4.188,0,0,0-.793-5.87l-5.128-3.908a4.188,4.188,0,0,0-5.87.793l-12.1,15.878a4.188,4.188,0,0,0,.793,5.87l5.128,3.908a4.188,4.188,0,0,0,5.87-.793l5.654-7.419.347.264,2.114-2.774-.347-.264.793-1.04Z" transform="translate(92.424 2654.519)" fill="#3f3d56"/>
          <path id="Path_753" data-name="Path 753" d="M245.358,475.111s2.18,17.876,6.1,17,3.052-18.747,0-18.747A14.3,14.3,0,0,0,245.358,475.111Z" transform="translate(92.159 2648.383)" fill="#ffb8b8"/>
          <path id="Path_754" data-name="Path 754" d="M212.914,277.585s-1.744,5.232-.872,13.516,3.052,36.187,3.052,36.187,3.488,30.083,8.72,32.263l1.308,6.1,10.028-1.744-1.308-7.412a7.549,7.549,0,0,0,0-4.8c-.872-2.616-7.848-70.194-7.848-70.194S224.25,271.045,212.914,277.585Z" transform="translate(111.087 2760.019)" fill="#575a89"/>
        </g>
      </g>
    </g>
  </g>
</svg>
