<svg xmlns="http://www.w3.org/2000/svg" width="38.162" height="44.813" viewBox="0 0 38.162 44.813">
  <g id="android-icon" transform="translate(0 -0.858)">
    <path id="Path_214" data-name="Path 214" d="M11.719.858A1.312,1.312,0,0,0,10.58,2.811L12,5.381a11.658,11.658,0,0,0-5.7,9.884c0,.017,0,.043,0,.069,0,.009,0,.014,0,.024s0,.033,0,.037v.639A3.59,3.59,0,0,0,0,18.389V29.453a3.59,3.59,0,0,0,6.3,2.355v1.55a3.81,3.81,0,0,0,3.8,3.8h.964v4.922a3.592,3.592,0,0,0,7.183,0V37.157h1.668v4.922a3.592,3.592,0,0,0,7.183,0V37.157h.964a3.81,3.81,0,0,0,3.8-3.8v-1.55a3.59,3.59,0,0,0,6.3-2.355V18.389a3.59,3.59,0,0,0-6.3-2.355V15.4c0-.02,0-.039,0-.037,0-.039,0-.07,0-.094a11.658,11.658,0,0,0-5.707-9.88l1.428-2.575a1.316,1.316,0,0,0-2.3-1.277l-1.493,2.7a13.729,13.729,0,0,0-9.412,0L12.882,1.533A1.317,1.317,0,0,0,11.719.858Z" fill="#fff"/>
    <path id="Path_215" data-name="Path 215" d="M8.915,100.362a2.641,2.641,0,0,0-2.656,2.656v11.064a2.656,2.656,0,0,0,5.312,0V103.018a2.641,2.641,0,0,0-2.656-2.656Zm30.979,0a2.641,2.641,0,0,0-2.656,2.656v11.064a2.656,2.656,0,0,0,5.312,0V103.018a2.641,2.641,0,0,0-2.656-2.656Z" transform="translate(-5.323 -84.628)" fill="#161614"/>
    <path id="Path_216" data-name="Path 216" d="M82.923,184.818a2.641,2.641,0,0,0-2.656,2.656v11.064a2.656,2.656,0,0,0,5.312,0V187.474a2.641,2.641,0,0,0-2.656-2.656Zm8.851,0a2.641,2.641,0,0,0-2.656,2.656v11.064a2.656,2.656,0,0,0,5.312,0V187.474a2.641,2.641,0,0,0-2.656-2.656Z" transform="translate(-68.267 -156.459)" fill="#161614"/>
    <path id="Path_217" data-name="Path 217" d="M52.9,7.116a.379.379,0,0,0-.325.561l1.871,3.38A10.824,10.824,0,0,0,48.4,20.576H72.094a10.823,10.823,0,0,0-6.036-9.518l1.871-3.38a.379.379,0,0,0-.325-.561.372.372,0,0,0-.334.2l-1.9,3.417a12.767,12.767,0,0,0-10.25,0l-1.9-3.417a.372.372,0,0,0-.334-.2ZM48.4,21.512V38.681a2.857,2.857,0,0,0,2.864,2.864H69.231a2.857,2.857,0,0,0,2.864-2.864V21.512Z" transform="translate(-41.169 -5.323)" fill="#161614"/>
    <path id="Path_218" data-name="Path 218" d="M85.445,54.923a.988.988,0,1,0,.988.988,1,1,0,0,0-.988-.988Zm10.934,0a.988.988,0,1,0,.988.988,1,1,0,0,0-.988-.988Z" transform="translate(-71.831 -45.982)" fill="#fff"/>
  </g>
</svg>
