<svg xmlns="http://www.w3.org/2000/svg" xmlns:xlink="http://www.w3.org/1999/xlink" width="133.409" height="165.25" viewBox="0 0 133.409 165.25">
  <defs>
    <linearGradient id="linear-gradient" x1="0.011" y1="0.366" x2="0.822" y2="0.51" gradientUnits="objectBoundingBox">
      <stop offset="0" stop-color="#5f8cf2"/>
      <stop offset="1" stop-color="#9199ee"/>
    </linearGradient>
    <filter id="icons8-earth-planet" x="31.073" y="44.745" width="77.169" height="77.169" filterUnits="userSpaceOnUse">
      <feOffset dy="3" input="SourceAlpha"/>
      <feGaussianBlur stdDeviation="3" result="blur"/>
      <feFlood flood-opacity="0.161"/>
      <feComposite operator="in" in2="blur"/>
      <feComposite in="SourceGraphic"/>
    </filter>
  </defs>
  <g id="Group_165" data-name="Group 165" transform="translate(-208.927 -5423.255)">
    <path id="_7" data-name="7" d="M112.264,78.668c0,38.9,26.024,78.668-14.024,78.668S0,117.57,0,78.668s122.95-110,125.059-66.731S112.264,39.766,112.264,78.668Z" transform="translate(342.254 5580.375) rotate(177)" fill="url(#linear-gradient)"/>
    <g transform="matrix(1, 0, 0, 1, 208.93, 5423.25)" filter="url(#icons8-earth-planet)">
      <path id="icons8-earth-planet-2" data-name="icons8-earth-planet" d="M35.584,6a29.565,29.565,0,1,0,10,1.734A29.043,29.043,0,0,0,35.584,6Zm0,3.06a27,27,0,0,1,8.977,1.53,3.517,3.517,0,0,1,.408.153l.1,3.723a3.521,3.521,0,0,1-2.091,3.214c-2.805,1.224-5.611.561-6.784,3.775-.969,2.448,1.582,9.028,4.693,9.028,3.928,0,5.814-7.906,6.988-7.906.765,0,1.938,2.4,3.316,4.182a4.784,4.784,0,0,0,3.876,1.888h2.6l3.723.867a27.046,27.046,0,0,1,.714,6.07,26.485,26.485,0,0,1-32.594,25.81V57.977L28.239,56.7c-1.275-1.275,1.326-3.418,2.04-6.121,1.989-7.651-4.642-7.957-4.846-9.641-.2-1.887,2.245-3.316,3.724-4.795s1.938-3.775,1.173-5.1c-2.4-4.438-8.212-2.091-8.773,2.55a13.423,13.423,0,0,1-3.417,7.141c-1.428,1.428-4.234.664-5-1.428-.867-2.346,2.143-3.214,1.684-6.224-.1-.816-.969-1.224-2.04-1.377l-3.52.1A26.644,26.644,0,0,1,35.584,9.06ZM53.173,38.615c-1.341.073-3.211.738-5.755,2.479-1.938,1.326-5.355-1.429-6.834.612-1.428,1.989,6.069,8.059,8.569,6.886,4.234-1.989,6.989-6.121,6.989-7.651C56.173,40.016,55.408,38.494,53.173,38.615Z" transform="translate(34.07 44.75)" fill="#fff"/>
    </g>
  </g>
</svg>
