<svg xmlns="http://www.w3.org/2000/svg" xmlns:xlink="http://www.w3.org/1999/xlink" width="129.085" height="131.231" viewBox="0 0 129.085 131.231">
  <defs>
    <linearGradient id="linear-gradient" x1="1" x2="0.5" y2="1" gradientUnits="objectBoundingBox">
      <stop offset="0" stop-color="#67c7f9"/>
      <stop offset="1" stop-color="#34a0f7"/>
    </linearGradient>
    <filter id="Path_229" x="34" y="18.896" width="74.647" height="79.636" filterUnits="userSpaceOnUse">
      <feOffset dy="3" input="SourceAlpha"/>
      <feGaussianBlur stdDeviation="3" result="blur"/>
      <feFlood flood-opacity="0.161"/>
      <feComposite operator="in" in2="blur"/>
      <feComposite in="SourceGraphic"/>
    </filter>
  </defs>
  <g id="Group_166" data-name="Group 166" transform="translate(-1072 -5454.104)">
    <path id="_7" data-name="7" d="M127.863,78.668c0,38.9,10.426,78.668-29.622,78.668S0,117.57,0,78.668,45.244,26.1,85.273,26.1,127.863,39.766,127.863,78.668Z" transform="translate(1072 5428)" fill="url(#linear-gradient)"/>
    <g transform="matrix(1, 0, 0, 1, 1072, 5454.1)" filter="url(#Path_229)">
      <path id="Path_229-2" data-name="Path 229" d="M25.416,0C18.005,0,13.638,4.04,12.241,7.589A12.283,12.283,0,0,0,3.227,14.87c-1.791,4.112-1.714,9.645,1.117,15.871a9.812,9.812,0,0,0-2.08,7.512,9.15,9.15,0,0,0,5.547,6.7,7.713,7.713,0,0,0,.77,8.051,10.338,10.338,0,0,0,7.435,3.544,7.31,7.31,0,0,0,4.2,4.392,14.833,14.833,0,0,0,5.2.693,6.133,6.133,0,0,0,4.931-2.465,6.194,6.194,0,0,0,4.931,2.465,11.426,11.426,0,0,0,5.316-1.387,9.042,9.042,0,0,0,4.083-4.854c2.764-.1,5.5-.674,7.319-2.427a5.752,5.752,0,0,0,1.733-3.852,9.868,9.868,0,0,0-.886-4.122,9.327,9.327,0,0,0,5.7-6.7,9.485,9.485,0,0,0-2.2-7.55c2.831-6.226,2.908-11.759,1.117-15.871a12.283,12.283,0,0,0-9.014-7.281C47.056,4.04,42.688,0,35.278,0a5.619,5.619,0,0,0-4.661,1.888,4.848,4.848,0,0,0-.27.424,4.847,4.847,0,0,0-.27-.424A5.619,5.619,0,0,0,25.416,0Zm0,2.465c1.483,0,2.2.246,2.735.925s.963,2.152.963,4.815V55.472a3.485,3.485,0,0,1-3.7,3.7,13.106,13.106,0,0,1-4.353-.539,4.485,4.485,0,0,1-3.082-3.467l-.231-.925h-.963a8.261,8.261,0,0,1-6.279-2.774c-1.319-1.652-1.714-3.741-.077-6.472l.809-1.31-1.464-.462c-3.342-1.112-4.719-3.149-5.085-5.355A7.691,7.691,0,0,1,6.5,31.742a.582.582,0,0,0,.077-.077l.039-.039s3-3.274,6.472-3.274c4.392,0,6.549,2.119,6.549,2.119A1.233,1.233,0,1,0,21.333,28.7a12.7,12.7,0,0,0-8.244-2.812A11.2,11.2,0,0,0,6.078,28.7C3.926,23.426,4.113,19.054,5.5,15.871a9.738,9.738,0,0,1,7.7-6.009l.847-.116.193-.77C14.909,6.655,18.5,2.465,25.416,2.465Zm9.862,0c6.915,0,10.507,4.189,11.171,6.51l.193.77.847.116a9.738,9.738,0,0,1,7.7,6.009c1.363,3.13,1.575,7.4-.462,12.558a1.239,1.239,0,0,0-.693.886,5.5,5.5,0,0,1-1.618,2.465c-1.368,1.319-3.838,2.735-8.513,2.735a1.233,1.233,0,1,0,0,2.465c5.186,0,8.383-1.666,10.208-3.428a8.435,8.435,0,0,0,.809-.886,7.075,7.075,0,0,1,1.194,5.162c-.39,2.2-1.854,4.276-5.2,5.393l-1.348.424.616,1.271a8.31,8.31,0,0,1,1.079,4.045,3.137,3.137,0,0,1-1,2.234c-1.18,1.136-3.587,1.786-6.2,1.811a7.814,7.814,0,0,1-3.66-2.465,7.656,7.656,0,0,1-1.425-4.931,1.233,1.233,0,1,0-2.465,0,10.3,10.3,0,0,0,1.965,6.472,9.542,9.542,0,0,0,3.891,2.851A6.405,6.405,0,0,1,39.4,58.091a9.44,9.44,0,0,1-4.122,1.079,3.488,3.488,0,0,1-3.7-3.7V8.205c0-2.663.429-4.136.963-4.815S33.795,2.465,35.278,2.465ZM22.835,12.289a1.441,1.441,0,0,0-.154.039,1.235,1.235,0,0,0-.963,1.233,3.585,3.585,0,0,1-1.04,2.042c-.828.828-2.287,1.656-5.123,1.656a1.233,1.233,0,1,0,0,2.465c3.327,0,5.571-1.021,6.9-2.35a5.51,5.51,0,0,0,1.733-3.814,1.234,1.234,0,0,0-1.348-1.271Zm17.258,2.465a1.441,1.441,0,0,0-.154.039,1.235,1.235,0,0,0-.963,1.233,8.038,8.038,0,0,0,2.5,5.509,11.821,11.821,0,0,0,8.59,3.12,1.233,1.233,0,1,0,0-2.465c-3.424,0-5.509-1.117-6.818-2.427a5.941,5.941,0,0,1-1.811-3.737,1.234,1.234,0,0,0-1.348-1.271ZM12.781,36.981a1.233,1.233,0,1,0,.077,2.465,6.661,6.661,0,0,1,5.547,4.2,11.643,11.643,0,0,1,.847,4.43,1.233,1.233,0,1,0,2.465,0,14.071,14.071,0,0,0-1.04-5.432,9.424,9.424,0,0,0-7.4-5.663,1.291,1.291,0,0,0-.385,0Z" transform="translate(40.98 24.9)" fill="#fff"/>
    </g>
  </g>
</svg>
