<svg xmlns="http://www.w3.org/2000/svg" xmlns:xlink="http://www.w3.org/1999/xlink" width="123.148" height="120.507" viewBox="0 0 123.148 120.507">
  <defs>
    <linearGradient id="linear-gradient" x1="0.011" y1="0.366" x2="0.822" y2="0.51" gradientUnits="objectBoundingBox">
      <stop offset="0" stop-color="#5f8cf2"/>
      <stop offset="1" stop-color="#9199ee"/>
    </linearGradient>
    <filter id="icons8-search-more" x="22.419" y="22.412" width="74.617" height="75.937" filterUnits="userSpaceOnUse">
      <feOffset dy="3" input="SourceAlpha"/>
      <feGaussianBlur stdDeviation="3" result="blur"/>
      <feFlood flood-opacity="0.161"/>
      <feComposite operator="in" in2="blur"/>
      <feComposite in="SourceGraphic"/>
    </filter>
  </defs>
  <g id="Group_164" data-name="Group 164" transform="translate(-1083.581 -5024.588)">
    <path id="_7" data-name="7" d="M125.059,96.37c0,38.9-21.638,48.725-61.686,48.725S11.581,94.2,11.581,55.3s31.965-34.671,89.44-20.9S125.059,57.468,125.059,96.37Z" transform="translate(1072 5000)" fill="url(#linear-gradient)"/>
    <g transform="matrix(1, 0, 0, 1, 1083.58, 5024.59)" filter="url(#icons8-search-more)">
      <path id="icons8-search-more-2" data-name="icons8-search-more" d="M26.428,4A22.428,22.428,0,1,0,39.539,44.59L56.886,61.936l3.731-3.731L43.43,41.018A22.4,22.4,0,0,0,26.428,4Zm0,2.639a19.79,19.79,0,1,1-19.79,19.79A19.77,19.77,0,0,1,26.428,6.639ZM15.874,23.79a2.639,2.639,0,1,0,2.639,2.639A2.639,2.639,0,0,0,15.874,23.79Zm10.555,0a2.639,2.639,0,1,0,2.639,2.639A2.639,2.639,0,0,0,26.428,23.79Zm10.555,0a2.639,2.639,0,1,0,2.639,2.639A2.639,2.639,0,0,0,36.983,23.79Z" transform="translate(27.42 24.41)" fill="#fff"/>
    </g>
  </g>
</svg>
