<svg id="undraw_dark_alley_hl3o" xmlns="http://www.w3.org/2000/svg" width="473.968" height="279.931" viewBox="0 0 473.968 279.931">
  <rect id="Rectangle_260" data-name="Rectangle 260" width="462.754" height="12.674" transform="translate(11.214 267.257)" fill="#65617d"/>
  <path id="Path_459" data-name="Path 459" d="M809,366.07a8.418,8.418,0,0,0,.07,1A8.418,8.418,0,0,1,809,366.07Z" transform="translate(-480.394 -262.899)" fill="#7be6dc" opacity="0.1"/>
  <path id="Path_460" data-name="Path 460" d="M816.368,380.192a7.61,7.61,0,0,1-1.648-1.162A7.612,7.612,0,0,0,816.368,380.192Z" transform="translate(-483.607 -270.177)" fill="#7be6dc" opacity="0.1"/>
  <g id="Group_173" data-name="Group 173" opacity="0.1">
    <rect id="Rectangle_261" data-name="Rectangle 261" width="37.184" height="16.979" rx="8.489" transform="translate(140.176 8.487)" fill="#c5dedc"/>
    <rect id="Rectangle_262" data-name="Rectangle 262" width="37.184" height="16.979" rx="8.489" transform="translate(177.36 8.487)" fill="#c5dedc"/>
    <rect id="Rectangle_263" data-name="Rectangle 263" width="37.184" height="16.979" rx="8.489" transform="translate(214.545 8.487)" fill="#c5dedc"/>
    <rect id="Rectangle_264" data-name="Rectangle 264" width="37.184" height="16.979" rx="8.489" transform="translate(251.725 8.487)" fill="#c5dedc"/>
    <rect id="Rectangle_265" data-name="Rectangle 265" width="37.184" height="16.979" rx="8.489" transform="translate(140.176 24.528)" fill="#c5dedc"/>
    <rect id="Rectangle_266" data-name="Rectangle 266" width="37.184" height="16.979" rx="8.489" transform="translate(177.36 24.528)" fill="#c5dedc"/>
    <rect id="Rectangle_267" data-name="Rectangle 267" width="37.184" height="16.979" rx="8.489" transform="translate(214.545 24.528)" fill="#c5dedc"/>
    <rect id="Rectangle_268" data-name="Rectangle 268" width="37.184" height="16.979" rx="8.489" transform="translate(251.725 24.528)" fill="#c5dedc"/>
    <rect id="Rectangle_269" data-name="Rectangle 269" width="37.184" height="16.979" rx="8.489" transform="translate(102.991 40.521)" fill="#c5dedc"/>
    <rect id="Rectangle_270" data-name="Rectangle 270" width="37.184" height="16.979" rx="8.489" transform="translate(177.36 40.521)" fill="#c5dedc"/>
    <rect id="Rectangle_271" data-name="Rectangle 271" width="37.184" height="16.979" rx="8.489" transform="translate(214.545 40.521)" fill="#c5dedc"/>
    <rect id="Rectangle_272" data-name="Rectangle 272" width="37.184" height="16.979" rx="8.489" transform="translate(251.725 40.521)" fill="#c5dedc"/>
    <rect id="Rectangle_273" data-name="Rectangle 273" width="37.184" height="16.979" rx="8.489" transform="translate(140.176 56.557)" fill="#c5dedc"/>
    <rect id="Rectangle_274" data-name="Rectangle 274" width="37.184" height="16.979" rx="8.489" transform="translate(177.36 56.557)" fill="#c5dedc"/>
    <rect id="Rectangle_275" data-name="Rectangle 275" width="37.184" height="16.979" rx="8.489" transform="translate(214.545 56.557)" fill="#c5dedc"/>
    <rect id="Rectangle_276" data-name="Rectangle 276" width="37.184" height="16.979" rx="8.489" transform="translate(102.991 72.55)" fill="#c5dedc"/>
    <rect id="Rectangle_277" data-name="Rectangle 277" width="37.184" height="16.979" rx="8.489" transform="translate(102.991 120.619)" fill="#c5dedc"/>
    <rect id="Rectangle_278" data-name="Rectangle 278" width="37.184" height="16.979" rx="8.489" transform="translate(177.36 72.55)" fill="#c5dedc"/>
    <rect id="Rectangle_279" data-name="Rectangle 279" width="37.184" height="16.979" rx="8.489" transform="translate(214.545 72.55)" fill="#c5dedc"/>
    <rect id="Rectangle_280" data-name="Rectangle 280" width="37.184" height="16.979" rx="8.489" transform="translate(251.725 72.55)" fill="#c5dedc"/>
    <rect id="Rectangle_281" data-name="Rectangle 281" width="37.184" height="16.979" rx="8.489" transform="translate(288.909 24.528)" fill="#c5dedc"/>
    <rect id="Rectangle_282" data-name="Rectangle 282" width="37.184" height="16.979" rx="6.76" transform="translate(288.909 56.557)" fill="#c5dedc"/>
    <rect id="Rectangle_283" data-name="Rectangle 283" width="37.184" height="16.979" rx="6.76" transform="translate(288.909 72.55)" fill="#c5dedc"/>
    <rect id="Rectangle_284" data-name="Rectangle 284" width="37.184" height="16.979" rx="8.489" transform="translate(140.176 88.59)" fill="#c5dedc"/>
    <rect id="Rectangle_285" data-name="Rectangle 285" width="37.184" height="16.979" rx="8.489" transform="translate(177.36 88.59)" fill="#c5dedc"/>
    <rect id="Rectangle_286" data-name="Rectangle 286" width="37.184" height="16.979" rx="8.489" transform="translate(214.545 88.59)" fill="#c5dedc"/>
    <rect id="Rectangle_287" data-name="Rectangle 287" width="37.184" height="16.979" rx="8.489" transform="translate(251.725 88.59)" fill="#c5dedc"/>
    <rect id="Rectangle_288" data-name="Rectangle 288" width="37.184" height="16.979" rx="8.489" transform="translate(102.991 104.578)" fill="#c5dedc"/>
    <rect id="Rectangle_289" data-name="Rectangle 289" width="37.184" height="16.979" rx="8.489" transform="translate(65.807 104.578)" fill="#c5dedc"/>
    <rect id="Rectangle_290" data-name="Rectangle 290" width="37.184" height="16.979" rx="8.489" transform="translate(56.553)" fill="#c5dedc"/>
    <rect id="Rectangle_291" data-name="Rectangle 291" width="37.184" height="16.979" rx="8.489" transform="translate(33.756 16.979)" fill="#c5dedc"/>
    <rect id="Rectangle_292" data-name="Rectangle 292" width="37.184" height="16.979" rx="8.489" transform="translate(0 79.125)" fill="#c5dedc"/>
    <rect id="Rectangle_293" data-name="Rectangle 293" width="37.184" height="16.979" rx="8.489" transform="translate(18.592 96.087)" fill="#c5dedc"/>
    <rect id="Rectangle_294" data-name="Rectangle 294" width="37.184" height="16.979" rx="8.489" transform="translate(140.176 104.578)" fill="#c5dedc"/>
    <rect id="Rectangle_295" data-name="Rectangle 295" width="37.184" height="16.979" rx="8.489" transform="translate(177.36 104.578)" fill="#c5dedc"/>
    <rect id="Rectangle_296" data-name="Rectangle 296" width="37.184" height="16.979" rx="8.489" transform="translate(214.545 104.578)" fill="#c5dedc"/>
    <rect id="Rectangle_297" data-name="Rectangle 297" width="37.184" height="16.979" rx="8.489" transform="translate(251.725 104.578)" fill="#c5dedc"/>
    <rect id="Rectangle_298" data-name="Rectangle 298" width="37.184" height="16.979" rx="8.489" transform="translate(177.36 120.619)" fill="#c5dedc"/>
    <rect id="Rectangle_299" data-name="Rectangle 299" width="37.184" height="16.979" rx="8.489" transform="translate(214.545 120.619)" fill="#c5dedc"/>
    <rect id="Rectangle_300" data-name="Rectangle 300" width="37.184" height="16.979" rx="8.489" transform="translate(102.991 136.607)" fill="#c5dedc"/>
    <rect id="Rectangle_301" data-name="Rectangle 301" width="37.184" height="16.979" rx="8.489" transform="translate(140.176 136.607)" fill="#c5dedc"/>
    <rect id="Rectangle_302" data-name="Rectangle 302" width="37.184" height="16.979" rx="8.489" transform="translate(140.176 152.622)" fill="#c5dedc"/>
    <rect id="Rectangle_303" data-name="Rectangle 303" width="37.184" height="16.979" rx="8.489" transform="translate(177.36 136.607)" fill="#c5dedc"/>
    <rect id="Rectangle_304" data-name="Rectangle 304" width="37.184" height="16.979" rx="8.489" transform="translate(214.545 136.607)" fill="#c5dedc"/>
    <rect id="Rectangle_305" data-name="Rectangle 305" width="37.184" height="16.979" rx="8.489" transform="translate(251.725 136.607)" fill="#c5dedc"/>
    <rect id="Rectangle_306" data-name="Rectangle 306" width="37.184" height="16.979" rx="8.489" transform="translate(177.36 152.648)" fill="#c5dedc"/>
    <rect id="Rectangle_307" data-name="Rectangle 307" width="37.184" height="16.979" rx="8.489" transform="translate(214.545 152.648)" fill="#c5dedc"/>
    <rect id="Rectangle_308" data-name="Rectangle 308" width="37.184" height="16.979" rx="8.489" transform="translate(102.991 168.636)" fill="#c5dedc"/>
    <rect id="Rectangle_309" data-name="Rectangle 309" width="37.184" height="16.979" rx="8.489" transform="translate(140.176 168.636)" fill="#c5dedc"/>
    <rect id="Rectangle_310" data-name="Rectangle 310" width="37.184" height="16.979" rx="8.489" transform="translate(177.36 168.636)" fill="#c5dedc"/>
    <rect id="Rectangle_311" data-name="Rectangle 311" width="37.184" height="16.979" rx="8.489" transform="translate(214.545 168.636)" fill="#c5dedc"/>
    <rect id="Rectangle_312" data-name="Rectangle 312" width="37.184" height="16.979" rx="8.489" transform="translate(251.725 168.636)" fill="#c5dedc"/>
    <rect id="Rectangle_313" data-name="Rectangle 313" width="37.184" height="16.979" rx="6.76" transform="translate(288.909 168.636)" fill="#c5dedc"/>
    <rect id="Rectangle_314" data-name="Rectangle 314" width="37.184" height="16.979" rx="8.15" transform="translate(140.176 184.677)" fill="#c5dedc"/>
    <rect id="Rectangle_315" data-name="Rectangle 315" width="37.184" height="16.979" rx="8.15" transform="translate(177.36 184.677)" fill="#c5dedc"/>
    <rect id="Rectangle_316" data-name="Rectangle 316" width="37.184" height="16.979" rx="8.15" transform="translate(214.545 184.677)" fill="#c5dedc"/>
    <rect id="Rectangle_317" data-name="Rectangle 317" width="37.184" height="16.979" rx="8.15" transform="translate(251.725 184.677)" fill="#c5dedc"/>
    <rect id="Rectangle_318" data-name="Rectangle 318" width="37.184" height="16.979" rx="8.15" transform="translate(140.176 200.665)" fill="#c5dedc"/>
    <rect id="Rectangle_319" data-name="Rectangle 319" width="37.184" height="16.979" rx="8.15" transform="translate(177.36 200.665)" fill="#c5dedc"/>
    <rect id="Rectangle_320" data-name="Rectangle 320" width="37.184" height="16.979" rx="8.15" transform="translate(214.545 200.665)" fill="#c5dedc"/>
    <rect id="Rectangle_321" data-name="Rectangle 321" width="37.184" height="16.979" rx="8.15" transform="translate(251.725 200.665)" fill="#c5dedc"/>
    <rect id="Rectangle_322" data-name="Rectangle 322" width="37.184" height="16.979" rx="8.15" transform="translate(102.991 216.706)" fill="#c5dedc"/>
    <rect id="Rectangle_323" data-name="Rectangle 323" width="37.184" height="16.979" rx="8.15" transform="translate(140.176 216.706)" fill="#c5dedc"/>
    <rect id="Rectangle_324" data-name="Rectangle 324" width="37.184" height="16.979" rx="8.15" transform="translate(177.36 216.706)" fill="#c5dedc"/>
    <rect id="Rectangle_325" data-name="Rectangle 325" width="37.184" height="16.979" rx="8.15" transform="translate(214.545 216.706)" fill="#c5dedc"/>
    <rect id="Rectangle_326" data-name="Rectangle 326" width="37.184" height="16.979" rx="8.15" transform="translate(251.725 216.706)" fill="#c5dedc"/>
    <rect id="Rectangle_327" data-name="Rectangle 327" width="37.184" height="16.979" rx="8.15" transform="translate(102.991 232.694)" fill="#c5dedc"/>
    <rect id="Rectangle_328" data-name="Rectangle 328" width="37.184" height="16.979" rx="6.76" transform="translate(140.176 232.694)" fill="#c5dedc"/>
    <rect id="Rectangle_329" data-name="Rectangle 329" width="37.184" height="16.979" rx="8.15" transform="translate(177.36 232.694)" fill="#c5dedc"/>
    <rect id="Rectangle_330" data-name="Rectangle 330" width="37.184" height="16.979" rx="8.15" transform="translate(214.545 232.694)" fill="#c5dedc"/>
    <rect id="Rectangle_331" data-name="Rectangle 331" width="37.184" height="16.979" rx="6.59" transform="translate(251.725 232.694)" fill="#c5dedc"/>
    <rect id="Rectangle_332" data-name="Rectangle 332" width="37.184" height="16.979" rx="8.15" transform="translate(102.991 248.735)" fill="#c5dedc"/>
    <rect id="Rectangle_333" data-name="Rectangle 333" width="37.184" height="16.979" rx="8.15" transform="translate(140.176 248.735)" fill="#c5dedc"/>
    <rect id="Rectangle_334" data-name="Rectangle 334" width="37.184" height="16.979" rx="8.15" transform="translate(177.36 248.735)" fill="#c5dedc"/>
    <rect id="Rectangle_335" data-name="Rectangle 335" width="37.184" height="16.979" rx="6.59" transform="translate(214.545 248.735)" fill="#c5dedc"/>
    <rect id="Rectangle_336" data-name="Rectangle 336" width="37.184" height="16.979" rx="6.59" transform="translate(251.725 248.735)" fill="#c5dedc"/>
    <rect id="Rectangle_337" data-name="Rectangle 337" width="37.184" height="16.979" rx="8.15" transform="translate(288.909 216.706)" fill="#c5dedc"/>
    <rect id="Rectangle_338" data-name="Rectangle 338" width="37.184" height="16.979" rx="6.59" transform="translate(288.909 248.735)" fill="#c5dedc"/>
  </g>
  <path id="Path_461" data-name="Path 461" d="M499.417,398.8a3.668,3.668,0,0,0-.338-.232s-.438-5.015-3.17-8.115-3.244-11.657-3.244-11.657a6.511,6.511,0,0,0-1.026-.083c-.123-.267-.316-.684-.526-1.175a13.923,13.923,0,0,1-1.035-3.244c-.07-1.315-3.244-8.483-3.244-8.483s-3.319-16.742-9.373-22.056c0,0-2.433-3.4-2.433-5.239s-2.8-2.657-2.8-2.657-1.85-5.383-1.7-6.861-4.06-6.422-4.06-6.422-.557-5.015-1.64-6.265-.877-4.66-.877-4.66-3.17-2.942-2.876-4.862-.96-5.094-.96-5.094a21.265,21.265,0,0,0,2.455-7.014,6.275,6.275,0,0,0,0-1.184,3.8,3.8,0,0,0,1.381-.487c2.214-1.85-.513-19.044-.513-19.044s-3.029-9.645-1.477-16.891-5.094-40.792-5.094-40.792a40.533,40.533,0,0,0-2.223-6.072c-.075-.14-.149-.272-.224-.4a3.8,3.8,0,0,0,1.118-2.021s3.178-4.423,1.315-5.7c-1.692-1.149-4.472-1.618-5.2-3.27h0a2.506,2.506,0,0,1-.105-.32c1.806.39,3.336.741,3.792.912,1.315.491,4.625,1.083,5.068-2.192s-6.1-11.359-6.69-11.657-1.574-2.753-1.574-2.753c.688-1.28-1.179-2.753-1.179-2.753l-.964.513c-.132-2.363-.412-5.037-.412-5.037a50.477,50.477,0,0,1-2.069-7.378c-1.328-5.7-4.13-3.069-5.112-3.2a53,53,0,0,0-8.509,1.232c-2.065.491-11.166,7.133-11.837,7.277s-3.148,4.721-3.446,5.7c-.105.351.438.758,1.149,1.135-.105.14-.206.281-.307.438a12.713,12.713,0,0,0,2.74,17.1h0c-.158.377-.316.758-.438,1.149a6.3,6.3,0,0,0-.2.75h0a6.26,6.26,0,0,0-3.345,4.02c-.622,2.31-1.232,5.362-.487,6.449a4.994,4.994,0,0,1,.877,3.472c.066.294,4.932,4.428,4.932,6.716s3.248-.373,3.84-.877c.118-.105.7-.539,1.556-1.157l-.36.85c-1.227,2.858-3,6.817-3.56,7.238-.877.666-6.2,19.333-6.05,21.543s-.438,14.318-.438,14.318-1.846,17.255-3.244,19.478c0,0-.964,8.185-1.85,8.4s-1.249,1.995,3.4,2.81c1.569.272,3.792.57,6.045.846l-.627,1.1-7.856,13.766-6.576,15.712s-1.179,3.989-2.359,3.989-1.99,3.906-1.99,3.906-2.144,4.2-1.4,5.239,1.4,3.761.438,4.134-1.613,10.083-1.613,10.083l-5.261,18.816a3.526,3.526,0,0,0-1.179,2.876c.3,1.561-1.477,1.692-1.477,1.692a10.119,10.119,0,0,0-.956,2.192c-.022.083-.031.162-.044.237a2.153,2.153,0,0,0-1,.9c-1.754,3.029-4.428,9.294-5.971,10.035a16.672,16.672,0,0,1-7.308,1.179c-2.512-.219-5.607.824-6.931.039a13.339,13.339,0,0,0-4.59-1.315c-1.552-.092-2.6.438-1.39,2.516,2.512,4.27,9.592,9.29,11.214,9.737s15.642,6.2,17.119,6.861,5.234,1.315,5.388,0a21.958,21.958,0,0,0-.373-4.283.1.1,0,0,0,0-.039c.267-.53,2.924-5.936,2.718-7.413-.228-1.548,6.493-9.881,5.015-12.319,0,0,.092-.469.206-1.1a22.355,22.355,0,0,0,.386-2.95c0-1.109,5.085-9.737,5.085-9.737s5.9-12.845,6.138-16.527,1.841-4.283,1.841-4.283a5.494,5.494,0,0,0,.737-1.99,16.114,16.114,0,0,0,.075-4.647s2.5-1.754,2.582-2.88,16.659-22.5,16.659-22.5,1.109.219,1.622,2.139,14.756,27.965,14.756,27.965,6.418,1.841,6.865,6.041l2.657,4.651,5.156,9.206s1.631,4.875,3.7,6.422c0,0,1.315,2.657.811,3.906s1.986,2.218,1.986,2.218.408,1.986.6,3.319a6.722,6.722,0,0,1,.105,1.065,2.858,2.858,0,0,0-.548,2.92c1.477,4.941,3.248,7.966,1.754,9.645s-5.309,6.418-5.309,6.418-5.7,1.7-6.944,2.192a1.778,1.778,0,0,0-.622,2.516,3.945,3.945,0,0,0,2.253,1.754c3.17,1.184,17.777.662,17.777.662s14.029-5.234,14.607-7.672A3.2,3.2,0,0,0,499.417,398.8Z" transform="translate(-230.63 -149.674)" opacity="0.1"/>
  <path id="Path_462" data-name="Path 462" d="M747.449,237.918a9.333,9.333,0,0,1-.048,1.052,12.636,12.636,0,1,1,.048-1.052Z" transform="translate(-431.635 -183.802)" fill="#fdc2cc"/>
  <path id="Path_463" data-name="Path 463" d="M729.139,235.932c-.07.574.1,1.153.053,1.727a6.26,6.26,0,0,1-.82,2.078,2.53,2.53,0,0,0-.228,2.161c.281.57.877.877,1.315,1.381a3.2,3.2,0,0,1,.4,2.942c-.21.706-.566,1.495-.193,2.131.324.548,1.1.75,1.315,1.346a1.692,1.692,0,0,1-.114,1.149c-.333.9-.776,1.754-1.07,2.665a4.639,4.639,0,0,0-.149,2.819.693.693,0,0,0,.171.316.789.789,0,0,0,.438.14l1.21.127c.478.053,1.07.048,1.315-.373.114-.2.123-.478.32-.6s.552.088.763.3a7.593,7.593,0,0,0,4.5,2.192,1.894,1.894,0,0,0,1.315-.2c.364-.254.544-.71.877-.969.807-.6,2,.075,2.937-.294a2.381,2.381,0,0,0,1.175-2.236,6.578,6.578,0,0,1,.3-2.63A11.4,11.4,0,0,1,746.1,250.6a4.984,4.984,0,0,0,.723-3.507,12.88,12.88,0,0,0-1.1-3.468,14.619,14.619,0,0,0-3.367-5.261,5.994,5.994,0,0,1-.947-.938c-.71-1-.522-2.464-1.315-3.4a3.38,3.38,0,0,0-2.7-.916,9.733,9.733,0,0,0-3.946.9,4.928,4.928,0,0,1-1.184.438c-.767.136-1.149-.522-1.89-.193a2.135,2.135,0,0,0-1.232,1.675Z" transform="translate(-434.894 -188.226)" fill="#464a5f"/>
  <g id="Group_174" data-name="Group 174" transform="translate(293.079 44.948)" opacity="0.1">
    <path id="Path_464" data-name="Path 464" d="M738.463,234.575a4.721,4.721,0,0,0,1.188-.438,9.709,9.709,0,0,1,3.792-.877H743a9.731,9.731,0,0,0-3.946.9,5.36,5.36,0,0,1-1.109.438A1.246,1.246,0,0,0,738.463,234.575Z" transform="translate(-733.572 -233.26)"/>
    <path id="Path_465" data-name="Path 465" d="M732.047,258.317l-1.214-.127a.775.775,0,0,1-.438-.14.639.639,0,0,1-.171-.311,4.681,4.681,0,0,1,.145-2.823c.3-.912.741-1.754,1.07-2.665a1.665,1.665,0,0,0,.114-1.149c-.224-.6-1-.8-1.315-1.346-.377-.631,0-1.425.193-2.131a3.2,3.2,0,0,0-.4-2.942c-.408-.491-1.021-.811-1.315-1.381a2.518,2.518,0,0,1,.224-2.157,6.108,6.108,0,0,0,.824-2.082c.048-.574-.123-1.153-.052-1.727a2.122,2.122,0,0,1,1.245-1.635,1.072,1.072,0,0,1,.145-.044,1,1,0,0,0-.732.044,2.135,2.135,0,0,0-1.249,1.635c-.07.574.1,1.153.053,1.727a6.279,6.279,0,0,1-.82,2.082,2.52,2.52,0,0,0-.228,2.157c.281.57.877.877,1.315,1.381a3.2,3.2,0,0,1,.4,2.942c-.21.706-.565,1.5-.193,2.131.324.548,1.1.75,1.315,1.346a1.692,1.692,0,0,1-.114,1.149c-.333.9-.776,1.754-1.07,2.665a4.652,4.652,0,0,0-.149,2.823.68.68,0,0,0,.171.311.789.789,0,0,0,.438.14l1.21.127a2.8,2.8,0,0,0,.636,0Z" transform="translate(-727.963 -234.578)"/>
    <path id="Path_466" data-name="Path 466" d="M746.16,287.675a7.637,7.637,0,0,1-4.5-2.192c-.206-.21-.509-.438-.763-.3a.273.273,0,0,0-.079.079,2.079,2.079,0,0,1,.254.219,7.624,7.624,0,0,0,4.5,2.192,2.993,2.993,0,0,0,.715,0Z" transform="translate(-735.183 -262.397)"/>
    <path id="Path_467" data-name="Path 467" d="M759.53,287.677a7.54,7.54,0,0,0,1.214.048A6.355,6.355,0,0,0,759.53,287.677Z" transform="translate(-745.691 -263.816)"/>
  </g>
  <path id="Path_468" data-name="Path 468" d="M763.974,576.714c-.811,4.358-14.165,5.094-13.963,4.949a3.14,3.14,0,0,0-.074-1.184c-.189-1.315-.6-3.314-.6-3.314s-2.5-.964-1.986-2.223-.811-3.906-.811-3.906c-2.065-1.547-3.691-6.422-3.691-6.422l-5.16-9.206-2.657-4.651c-.438-4.2-6.865-6.041-6.865-6.041s-14.239-26.045-14.756-27.965-1.622-2.135-1.622-2.135-16.58,21.376-16.655,22.507-2.582,2.88-2.582,2.88a16.081,16.081,0,0,1-.074,4.643,5.494,5.494,0,0,1-.737,1.99s-1.626.592-1.841,4.283-6.137,16.527-6.137,16.527-5.085,8.628-5.085,9.741a22.419,22.419,0,0,1-.386,2.95c-.11.631-.206,1.1-.206,1.1s-12.687-4.748-13.643-5.1c-.329-.127-.346-.557-.219-1.065a10.118,10.118,0,0,1,.956-2.192s1.754-.14,1.477-1.692a3.613,3.613,0,0,1,1.179-2.876L673.1,549.5s.658-9.737,1.618-10.1.294-3.1-.438-4.13,1.4-5.261,1.4-5.261.807-3.906,1.99-3.906,2.359-3.989,2.359-3.989L686.6,506.4l7.856-13.766,1.661-2.907s33.055-2.955,37.11-1.035c1.363.644,1.71,2.065,1.57,3.665a21.569,21.569,0,0,1-2.455,7.014s1.254,3.178.96,5.094,2.876,4.866,2.876,4.866-.219,3.4.877,4.656,1.64,6.269,1.64,6.269,4.2,4.945,4.059,6.422,1.7,6.856,1.7,6.856,2.8.815,2.8,2.657,2.433,5.261,2.433,5.261c6.024,5.318,9.342,22.064,9.342,22.064s3.174,7.159,3.244,8.479a13.156,13.156,0,0,0,1.035,3.248C763.667,576.074,763.974,576.714,763.974,576.714Z" transform="translate(-399.047 -331.398)" fill="#5f5d7e"/>
  <path id="Path_469" data-name="Path 469" d="M750.083,237.938a9.333,9.333,0,0,1-.048,1.052c-1.491.772-2.972,1.521-4.2,2.144-1.754.877-2.977,1.473-2.977,1.473s-6.444-3.946-7.624-5.756-4.822-4.572-4.822-4.572-.912-.276-1.9-.671a12.894,12.894,0,0,1-1.635-.763,12.713,12.713,0,0,1,23.235,7.093Z" transform="translate(-434.27 -183.822)" opacity="0.1"/>
  <path id="Path_470" data-name="Path 470" d="M729.307,218s-4.673-1.429-4.384-2.411,2.753-5.559,3.441-5.7,9.789-6.791,11.837-7.282,7.523-1.377,8.509-1.227,3.788-2.508,5.116,3.2a51.056,51.056,0,0,0,2.065,7.378s.785,7.426.342,8.461-14.506,7.917-14.506,7.917-6.444-3.946-7.624-5.756S729.307,218,729.307,218Z" transform="translate(-433.169 -170.134)" fill="#65617d"/>
  <path id="Path_471" data-name="Path 471" d="M773.56,492.39c-6.374,1.355-30.8,1.355-30.8,1.355s-4.963-.5-9.552-1.074l1.661-2.907s33.055-2.955,37.11-1.035C773.354,489.36,773.7,490.79,773.56,492.39Z" transform="translate(-437.83 -331.421)" opacity="0.1"/>
  <path id="Path_472" data-name="Path 472" d="M762.956,385.876c-2.192,1.841-32.169,1.841-32.169,1.841s-10.328-1.035-14.971-1.841-4.287-2.587-3.4-2.81,1.85-8.4,1.85-8.4c1.4-2.218,3.244-19.478,3.244-19.478s.592-12.1.438-14.318,5.164-20.876,6.05-21.543c.561-.438,2.332-4.384,3.56-7.238.706-1.657,1.241-2.937,1.241-2.937,3.757-6.786,22.275-8.417,23.748-7.532a3.808,3.808,0,0,1,1.1,1.464,40.015,40.015,0,0,1,2.223,6.067s6.642,33.563,5.094,40.8,1.477,16.891,1.477,16.891S765.17,384.03,762.956,385.876Z" transform="translate(-425.845 -226.577)" fill="#2bacb5"/>
  <rect id="Rectangle_339" data-name="Rectangle 339" width="6.642" height="2.95" transform="translate(309.742 153.468)" fill="#5f5d7e"/>
  <path id="Path_473" data-name="Path 473" d="M735.647,488.439s-3.4,6.138-4.577,6.344-2.876,9.518,3.911,12.713,7.014-9.518,7.014-9.518l2.7-10.7-7.352-2.731Z" transform="translate(-436.014 -329.438)" opacity="0.1"/>
  <path id="Path_474" data-name="Path 474" d="M734.3,487.06s-3.393,6.137-4.572,6.348-2.88,9.517,3.91,12.687,7.014-9.518,7.014-9.518l2.7-10.7L736,483.15Z" transform="translate(-435.26 -328.652)" fill="#464a5f"/>
  <path id="Path_475" data-name="Path 475" d="M806.69,554.17s5.313,5.7,8.189,3.174S806.69,554.17,806.69,554.17Z" transform="translate(-479.097 -368.537)" opacity="0.1"/>
  <path id="Path_476" data-name="Path 476" d="M825.71,574.34s4.349,5.458,4.423,2.508S825.71,574.34,825.71,574.34Z" transform="translate(-489.779 -379.851)" opacity="0.1"/>
  <path id="Path_477" data-name="Path 477" d="M835.8,602.2s3.1.219,4.208-1.4Z" transform="translate(-495.445 -394.725)" opacity="0.1"/>
  <path id="Path_478" data-name="Path 478" d="M842.87,614.338a2.844,2.844,0,0,0,3.468-.588Z" transform="translate(-499.416 -401.998)" opacity="0.1"/>
  <path id="Path_479" data-name="Path 479" d="M757.38,524.72s1.315,7.527,6.786,10.478Z" transform="translate(-451.404 -351.998)" opacity="0.1"/>
  <path id="Path_480" data-name="Path 480" d="M707.17,619s-.666,1.92,3.025,2.438S707.17,619,707.17,619Z" transform="translate(-423.179 -404.946)" opacity="0.1"/>
  <path id="Path_481" data-name="Path 481" d="M711.1,604s2.433,4.564,3.393,4.27Z" transform="translate(-425.413 -396.522)" opacity="0.1"/>
  <path id="Path_482" data-name="Path 482" d="M718.17,594.85s.736,2.087,2.582,1.868S718.17,594.85,718.17,594.85Z" transform="translate(-429.384 -391.383)" opacity="0.1"/>
  <path id="Path_483" data-name="Path 483" d="M678.3,690.881c-.11.631-.206,1.1-.206,1.1l-13.652-5.081c-.329-.127-.346-.557-.219-1.065,2.131-1.907,7.084,1.583,7.084,1.583S676.392,688.742,678.3,690.881Z" transform="translate(-399.047 -442.164)" opacity="0.1"/>
  <path id="Path_484" data-name="Path 484" d="M634.951,712.472a.169.169,0,0,1,0,.044,22.9,22.9,0,0,1,.373,4.279c-.14,1.328-3.915.662-5.388,0s-15.493-6.422-17.1-6.861-8.706-5.462-11.214-9.737c-1.21-2.074-.167-2.63,1.385-2.516A13.327,13.327,0,0,1,607.6,699c1.315.785,4.428-.263,6.931-.044a16.707,16.707,0,0,0,7.308-1.179c1.547-.741,4.2-7.014,5.971-10.035s7.532,1.035,7.532,1.035,5.866,1.521,7.361,3.972-5.261,10.771-5.015,12.314S635.218,711.941,634.951,712.472Z" transform="translate(-363.634 -442.922)" fill="#464a5f"/>
  <path id="Path_485" data-name="Path 485" d="M635.283,730.946c-.153,1.315-3.915.662-5.388,0s-15.493-6.422-17.1-6.861-8.706-5.462-11.214-9.737c-1.21-2.074-.167-2.63,1.385-2.516a10.758,10.758,0,0,0,3.779,4.384c4.353,3.069,13.8,7.4,13.8,7.4s5.313-.219,7.746,1.315c1.6,1.021,4.726,1.464,6.655,1.653a.165.165,0,0,1,0,.044A24.409,24.409,0,0,1,635.283,730.946Z" transform="translate(-363.611 -457.073)" fill="#464a5f"/>
  <path id="Path_486" data-name="Path 486" d="M665.054,701.63s-5.239,9.943-5.239,10.609-2.065,6.861-2.065,6.861l3.652,1.477,1.368-7.97,4.866-9.592Z" transform="translate(-395.451 -451.352)" fill="#464a5f"/>
  <path id="Path_487" data-name="Path 487" d="M873.867,688.451c-.811,4.358-14.164,5.094-13.963,4.949a3.137,3.137,0,0,0-.074-1.184c1.767-2.148,6.65-2.148,6.65-2.148A9.974,9.974,0,0,1,873.2,687C873.561,687.811,873.867,688.451,873.867,688.451Z" transform="translate(-508.941 -443.136)" opacity="0.1"/>
  <path id="Path_488" data-name="Path 488" d="M867.834,713.234c-.587,2.438-14.607,7.672-14.607,7.672s-14.607.522-17.777-.658a3.968,3.968,0,0,1-2.253-1.754,1.774,1.774,0,0,1,.622-2.512c1.258-.517,6.944-2.214,6.944-2.214s3.836-4.722,5.309-6.422-.294-4.722-1.754-9.645,7.058-4.971,7.058-4.971a9.651,9.651,0,0,1,8.264-3.029s.513,8.562,3.244,11.657,3.17,8.119,3.17,8.119a3.044,3.044,0,0,1,.338.228A3.379,3.379,0,0,1,867.834,713.234Z" transform="translate(-493.838 -444.605)" fill="#464a5f"/>
  <path id="Path_489" data-name="Path 489" d="M868.167,739.014c-.588,2.438-14.607,7.672-14.607,7.672s-14.607.522-17.777-.658a3.968,3.968,0,0,1-2.253-1.754c3.021.473,8.715,1.315,9.645,1.1,1.249-.294,6.137.219,8.926-2.218a28.828,28.828,0,0,1,7.014-4.134s5.028-2.043,7.637-3.507A3.326,3.326,0,0,1,868.167,739.014Z" transform="translate(-494.171 -470.385)" fill="#464a5f"/>
  <path id="Path_490" data-name="Path 490" d="M819.96,575.75l2.582,9.737,3.323,7.672,2.657-1.254-3.91-7.448-2.806-8.707Z" transform="translate(-460.496 -323.346)" fill="#464a5f"/>
  <path id="Path_491" data-name="Path 491" d="M635.774,703.015l-2.582-1.385s-5.239,9.943-5.239,10.609c0,.526-1.315,4.546-1.837,6.177a23.728,23.728,0,0,0-5.611-.5s-9.443-4.349-13.8-7.4a10.76,10.76,0,0,1-3.779-4.384c-1.552-.092-2.6.438-1.385,2.516,2.508,4.274,9.588,9.289,11.214,9.737s15.637,6.2,17.1,6.861,5.234,1.315,5.388,0a21.906,21.906,0,0,0-.373-4.279.175.175,0,0,0,0-.044,24.382,24.382,0,0,1-5.261-1l1.249-7.291Z" transform="translate(-363.589 -451.352)" opacity="0.1"/>
  <path id="Path_492" data-name="Path 492" d="M866.723,719.176c-1.381.789-3.441,1.732-5.072,2.446l-3.376-6.44-2.8-8.7h-1.846l2.582,9.737,2.819,6.514a29.014,29.014,0,0,0-6.948,4.108c-2.806,2.437-7.676,1.924-8.926,2.218-.916.21-6.611-.631-9.645-1.1a3.968,3.968,0,0,0,2.253,1.753c3.17,1.179,17.777.658,17.777.658s14.029-5.234,14.607-7.672A3.364,3.364,0,0,0,866.723,719.176Z" transform="translate(-494.159 -454.076)" opacity="0.1"/>
  <path id="Path_493" data-name="Path 493" d="M755.47,251.047s6.541-7.72,8.61-8.952,10.377-5.655,10.377-5.655,1.868,1.477,1.179,2.753c0,0,.986,2.459,1.574,2.758s7.133,8.36,6.69,11.657-3.74,2.7-5.068,2.192-11.6-2.508-11.6-2.508Z" transform="translate(-450.331 -190.098)" fill="#2bacb5"/>
  <path id="Path_494" data-name="Path 494" d="M778.25,256.9s4.476-1.315,4.822,0S778.25,256.9,778.25,256.9Z" transform="translate(-463.125 -201.26)" opacity="0.1"/>
  <path id="Path_495" data-name="Path 495" d="M773.749,303.081a2.909,2.909,0,0,1-.285.237c-.877.587-10.258.587-12.393.587-1.78,0-10.223,5.866-13.411,8.18.706-1.657,1.241-2.937,1.241-2.937,3.757-6.786,22.275-8.417,23.748-7.532A3.81,3.81,0,0,1,773.749,303.081Z" transform="translate(-445.945 -226.577)" opacity="0.1"/>
  <path id="Path_496" data-name="Path 496" d="M760.309,282.636a3.712,3.712,0,0,1-1.179,2.065c-.885.592-10.258.592-12.393.592s-14.029,8.557-14.607,9.075-3.84,3.17-3.84.877-4.866-6.422-4.932-6.716a4.993,4.993,0,0,0-.877-3.472c-.745-1.087-.136-4.138.487-6.449a6.286,6.286,0,0,1,3.345-4.02c2.7-1.315,6.944-3.406,9.154-4.8a5.111,5.111,0,0,1,2.582-.491c5.945,0,18.246,3.889,18.246,3.889a2.2,2.2,0,0,0,.145.482h0c.732,1.653,3.507,2.117,5.2,3.27C763.487,278.208,760.309,282.636,760.309,282.636Z" transform="translate(-431.611 -208.552)" fill="#5f5d7e"/>
  <path id="Path_497" data-name="Path 497" d="M731.63,298.2s7.155.368,7.527.7S731.63,298.2,731.63,298.2Z" transform="translate(-436.943 -224.782)" opacity="0.1"/>
  <path id="Path_498" data-name="Path 498" d="M753.711,315.484s-11.192,5.458-10.355,9.886a3.416,3.416,0,0,1,.763,3.244c-.662,1.7-1.254,13.647-.438,14.533a5.561,5.561,0,0,1,1.254,4.5c-.443,1.477.662,8.115.662,8.115s1.626,3.319-.294,4.06-.219,3.17-.219,3.17,0,3.025-1.8,3.174-.342,3.985-.342,3.985-.877,2.582-2.288,2.359.811,3.691.811,3.691-5.388,3.612-4.721,9.592L736,389.849l10.622,4.577,1.4-2.657s2.876-.666,2.508-2.437,1.92-2.8,1.92-2.8.438-2.731,1.916-3.91,3.761-6.2,3.761-6.2a11.061,11.061,0,0,1,3.174-3.981c1.859-1.179,3.319-6.935,3.319-6.935l1.109-39.622S761.677,313.713,753.711,315.484Z" transform="translate(-439.397 -234.391)" opacity="0.1"/>
  <path id="Path_499" data-name="Path 499" d="M759.1,315.484s-11.188,5.458-10.355,9.886a3.4,3.4,0,0,1,.763,3.244c-.666,1.7-1.254,13.647-.438,14.533a5.561,5.561,0,0,1,1.254,4.5c-.443,1.477.666,8.115.666,8.115s1.622,3.319-.294,4.06-.224,3.17-.224,3.17.026,3.025-1.793,3.174-.346,3.985-.346,3.985-.877,2.582-2.288,2.359.815,3.691.815,3.691-5.388,3.612-4.726,9.592l-.737,4.055,10.627,4.577,1.4-2.657s2.88-.666,2.508-2.437,1.92-2.8,1.92-2.8.438-2.731,1.92-3.91,3.761-6.2,3.761-6.2a11.061,11.061,0,0,1,3.174-3.981c1.859-1.179,3.319-6.935,3.319-6.935l1.1-39.622S767.09,313.713,759.1,315.484Z" transform="translate(-442.43 -234.391)" opacity="0.1"/>
  <path id="Path_500" data-name="Path 500" d="M756.412,315.484s-11.192,5.458-10.355,9.886a3.4,3.4,0,0,1,.763,3.244c-.666,1.7-1.254,13.647-.438,14.533a5.562,5.562,0,0,1,1.254,4.5c-.443,1.477.666,8.115.666,8.115s1.622,3.319-.3,4.06-.219,3.17-.219,3.17.022,3.025-1.8,3.174-.342,3.985-.342,3.985-.877,2.582-2.288,2.359.811,3.691.811,3.691-5.383,3.612-4.721,9.592l-.736,4.055,10.622,4.577,1.4-2.657s2.876-.666,2.508-2.437,1.92-2.8,1.92-2.8.438-2.731,1.916-3.91,3.766-6.2,3.766-6.2a11.082,11.082,0,0,1,3.169-3.981c1.854-1.179,3.319-6.935,3.319-6.935l1.1-39.622S764.378,313.713,756.412,315.484Z" transform="translate(-440.919 -234.391)" fill="#2bacb5"/>
  <path id="Path_501" data-name="Path 501" d="M760.19,430s3.025,2.88,3.025,3.691-3.985-1.477-3.985-1.477Z" transform="translate(-452.443 -298.802)" opacity="0.1"/>
  <path id="Path_502" data-name="Path 502" d="M757.38,446.13s2.95,3.319,1.99,3.468S757.38,446.13,757.38,446.13Z" transform="translate(-451.404 -307.861)" opacity="0.1"/>
  <path id="Path_503" data-name="Path 503" d="M761.406,469.86s-6.716,1.1-5.164,1.548S761.406,469.86,761.406,469.86Z" transform="translate(-450.634 -321.188)" opacity="0.1"/>
  <path id="Path_504" data-name="Path 504" d="M772.61,419.88s12.135,5.458,10.083,6.935S772.61,419.88,772.61,419.88Z" transform="translate(-459.957 -293.119)" opacity="0.1"/>
  <path id="Path_505" data-name="Path 505" d="M775.145,273.691c-.289-.224-19.675-4.178-19.675-4.178l1.285-.193c5.945,0,18.246,3.889,18.246,3.889A2.188,2.188,0,0,0,775.145,273.691Z" transform="translate(-450.331 -208.563)" opacity="0.1"/>
  <path id="Path_506" data-name="Path 506" d="M768.82,214.6s5.8,7.65,8.557,5.7S773.05,214.013,768.82,214.6Z" transform="translate(-457.829 -177.802)" opacity="0.1"/>
  <path id="Path_507" data-name="Path 507" d="M738.7,314.271s4.923-1.477,5.34-1.754S738.7,314.271,738.7,314.271Z" transform="translate(-440.913 -232.808)" opacity="0.1"/>
  <path id="Path_508" data-name="Path 508" d="M791.27,299.63s5.125.438,5.616.3S791.27,299.63,791.27,299.63Z" transform="translate(-470.437 -225.586)" opacity="0.1"/>
  <path id="Path_509" data-name="Path 509" d="M797.39,287.6s5.12.438,5.616.3S797.39,287.6,797.39,287.6Z" transform="translate(-473.874 -218.829)" opacity="0.1"/>
  <path id="Path_510" data-name="Path 510" d="M764.68,286.86s5.12.438,5.616.3S764.68,286.86,764.68,286.86Z" transform="translate(-455.504 -218.414)" opacity="0.1"/>
  <path id="Path_511" data-name="Path 511" d="M736,308.24s4.919-1.477,5.335-1.754S736,308.24,736,308.24Z" transform="translate(-439.397 -229.422)" opacity="0.1"/>
</svg>
