<svg xmlns="http://www.w3.org/2000/svg" width="540.264" height="291.544" viewBox="0 0 540.264 291.544">
  <g id="developer" transform="translate(0 -0.04)">
    <path id="Path_181" data-name="Path 181" d="M568.263,328.484a85.914,85.914,0,0,1-3.235,23.424,85.035,85.035,0,0,1-9.1,20.912c0,23.66-15.972,44.109-39.155,53.837A79.009,79.009,0,0,1,486.2,432.7H130.56a98.686,98.686,0,0,1-51.07-13.865,87.728,87.728,0,0,1-11.726-8.449c-16.057-13.8-26.012-32.869-26.012-53.932A85.494,85.494,0,0,1,77.847,232.247a82.414,82.414,0,0,1,12.047-4.307q2.187-.6,4.42-1.067a82.826,82.826,0,0,1,12.047-1.653q2.2-.137,4.416-.156h.812c1.634,0,3.254.057,4.864.151l.529-.9q.973-1.625,1.993-3.216,1.842-2.9,3.863-5.714,2.116-2.97,4.416-5.847l.392-.472q1.3-1.625,2.664-3.211,4.25-4.954,8.973-9.61c34.055-33.379,87.406-54.867,147.382-54.867,46.669,0,89.328,13.011,122,34.508a82.258,82.258,0,0,1,40.586-10.668c46.159,0,83.59,37.955,83.59,84.775a87.334,87.334,0,0,1-.472,8.869A85.006,85.006,0,0,1,568.263,328.484Z" transform="translate(-28 -141.34)" fill="#4285f4" opacity="0.1"/>
    <path id="Path_182" data-name="Path 182" d="M253.633,257.52v9.61H244.66Q248.877,262.181,253.633,257.52Z" transform="translate(-142.341 -202.632)" fill="#4285f4" opacity="0.2"/>
    <rect id="Rectangle_35" data-name="Rectangle 35" width="12.047" height="12.047" transform="translate(115.712 52.451)" fill="#4285f4" opacity="0.2"/>
    <rect id="Rectangle_36" data-name="Rectangle 36" width="12.047" height="12.047" transform="translate(132.175 52.451)" fill="#4285f4" opacity="0.2"/>
    <rect id="Rectangle_37" data-name="Rectangle 37" width="12.047" height="12.047" transform="translate(148.643 52.451)" fill="#4285f4" opacity="0.2"/>
    <rect id="Rectangle_38" data-name="Rectangle 38" width="12.047" height="12.047" transform="translate(165.106 52.451)" fill="#4285f4" opacity="0.2"/>
    <rect id="Rectangle_39" data-name="Rectangle 39" width="12.047" height="12.047" transform="translate(181.574 52.451)" fill="#4285f4" opacity="0.2"/>
    <rect id="Rectangle_40" data-name="Rectangle 40" width="12.047" height="12.047" transform="translate(198.041 52.451)" fill="#4285f4"/>
    <rect id="Rectangle_41" data-name="Rectangle 41" width="12.047" height="12.047" transform="translate(214.504 52.451)" fill="#4285f4" opacity="0.2"/>
    <rect id="Rectangle_42" data-name="Rectangle 42" width="12.047" height="12.047" transform="translate(230.972 52.451)" fill="#4285f4" opacity="0.2"/>
    <rect id="Rectangle_43" data-name="Rectangle 43" width="12.047" height="12.047" transform="translate(247.435 52.451)" fill="#4285f4" opacity="0.2"/>
    <rect id="Rectangle_44" data-name="Rectangle 44" width="12.047" height="12.047" transform="translate(263.902 52.451)" fill="#4285f4"/>
    <rect id="Rectangle_45" data-name="Rectangle 45" width="12.047" height="12.047" transform="translate(280.37 52.451)" fill="#4285f4" opacity="0.2"/>
    <rect id="Rectangle_46" data-name="Rectangle 46" width="12.047" height="12.047" transform="translate(296.833 52.451)" fill="#4285f4" opacity="0.2"/>
    <rect id="Rectangle_47" data-name="Rectangle 47" width="12.047" height="12.047" transform="translate(313.301 52.451)" fill="#4285f4" opacity="0.2"/>
    <rect id="Rectangle_48" data-name="Rectangle 48" width="12.047" height="12.047" transform="translate(329.768 52.451)" fill="#4285f4" opacity="0.2"/>
    <rect id="Rectangle_49" data-name="Rectangle 49" width="12.047" height="12.047" transform="translate(346.231 52.451)" fill="#4285f4" opacity="0.2"/>
    <rect id="Rectangle_50" data-name="Rectangle 50" width="12.047" height="12.047" transform="translate(362.699 52.451)" fill="#4285f4" opacity="0.2"/>
    <rect id="Rectangle_51" data-name="Rectangle 51" width="12.047" height="12.047" transform="translate(379.162 52.451)" fill="#4285f4"/>
    <rect id="Rectangle_52" data-name="Rectangle 52" width="12.047" height="12.047" transform="translate(395.629 52.451)" fill="#4285f4"/>
    <rect id="Rectangle_53" data-name="Rectangle 53" width="12.047" height="12.047" transform="translate(412.097 52.451)" fill="#4285f4" opacity="0.2"/>
    <rect id="Rectangle_54" data-name="Rectangle 54" width="12.047" height="12.047" transform="translate(428.56 52.451)" fill="#4285f4" opacity="0.2"/>
    <rect id="Rectangle_55" data-name="Rectangle 55" width="12.047" height="12.047" transform="translate(445.028 52.451)" fill="#4285f4"/>
    <rect id="Rectangle_56" data-name="Rectangle 56" width="12.047" height="12.047" transform="translate(461.491 52.451)" fill="#4285f4"/>
    <path id="Path_183" data-name="Path 183" d="M224.483,298.08v5.714H220.62Q222.462,300.876,224.483,298.08Z" transform="translate(-129.654 -224.037)" fill="#4285f4"/>
    <rect id="Rectangle_57" data-name="Rectangle 57" width="12.047" height="12.047" transform="translate(99.245 67.71)" fill="#4285f4" opacity="0.2"/>
    <rect id="Rectangle_58" data-name="Rectangle 58" width="12.047" height="12.047" transform="translate(115.712 67.71)" fill="#4285f4"/>
    <rect id="Rectangle_59" data-name="Rectangle 59" width="12.047" height="12.047" transform="translate(132.175 67.71)" fill="#4285f4" opacity="0.2"/>
    <rect id="Rectangle_60" data-name="Rectangle 60" width="12.047" height="12.047" transform="translate(148.643 67.71)" fill="#4285f4" opacity="0.7"/>
    <rect id="Rectangle_61" data-name="Rectangle 61" width="12.047" height="12.047" transform="translate(165.106 67.71)" fill="#4285f4" opacity="0.2"/>
    <rect id="Rectangle_62" data-name="Rectangle 62" width="12.047" height="12.047" transform="translate(181.574 67.71)" fill="#4285f4" opacity="0.4"/>
    <rect id="Rectangle_63" data-name="Rectangle 63" width="12.047" height="12.047" transform="translate(198.041 67.71)" fill="#4285f4"/>
    <rect id="Rectangle_64" data-name="Rectangle 64" width="12.047" height="12.047" transform="translate(214.504 67.71)" fill="#4285f4" opacity="0.4"/>
    <rect id="Rectangle_65" data-name="Rectangle 65" width="12.047" height="12.047" transform="translate(230.972 67.71)" fill="#4285f4" opacity="0.2"/>
    <rect id="Rectangle_66" data-name="Rectangle 66" width="12.047" height="12.047" transform="translate(247.435 67.71)" fill="#4285f4" opacity="0.4"/>
    <rect id="Rectangle_67" data-name="Rectangle 67" width="12.047" height="12.047" transform="translate(263.902 67.71)" fill="#4285f4"/>
    <rect id="Rectangle_68" data-name="Rectangle 68" width="12.047" height="12.047" transform="translate(280.37 67.71)" fill="#4285f4" opacity="0.4"/>
    <rect id="Rectangle_69" data-name="Rectangle 69" width="12.047" height="12.047" transform="translate(296.833 67.71)" fill="#4285f4" opacity="0.4"/>
    <rect id="Rectangle_70" data-name="Rectangle 70" width="12.047" height="12.047" transform="translate(313.301 67.71)" fill="#4285f4" opacity="0.2"/>
    <rect id="Rectangle_71" data-name="Rectangle 71" width="12.047" height="12.047" transform="translate(329.768 67.71)" fill="#4285f4" opacity="0.4"/>
    <rect id="Rectangle_72" data-name="Rectangle 72" width="12.047" height="12.047" transform="translate(346.231 67.71)" fill="#4285f4" opacity="0.4"/>
    <rect id="Rectangle_73" data-name="Rectangle 73" width="12.047" height="12.047" transform="translate(362.699 67.71)" fill="#4285f4" opacity="0.2"/>
    <rect id="Rectangle_74" data-name="Rectangle 74" width="12.047" height="12.047" transform="translate(379.162 67.71)" fill="#4285f4" opacity="0.2"/>
    <rect id="Rectangle_75" data-name="Rectangle 75" width="12.047" height="12.047" transform="translate(395.629 67.71)" fill="#4285f4" opacity="0.4"/>
    <rect id="Rectangle_76" data-name="Rectangle 76" width="12.047" height="12.047" transform="translate(412.097 67.71)" fill="#4285f4" opacity="0.2"/>
    <rect id="Rectangle_77" data-name="Rectangle 77" width="12.047" height="12.047" transform="translate(428.56 67.71)" fill="#4285f4"/>
    <rect id="Rectangle_78" data-name="Rectangle 78" width="12.047" height="12.047" transform="translate(445.028 67.71)" fill="#4285f4"/>
    <rect id="Rectangle_79" data-name="Rectangle 79" width="12.047" height="12.047" transform="translate(461.491 67.71)" fill="#4285f4"/>
    <path id="Path_184" data-name="Path 184" d="M145.6,324.67v8.42H133.55v-4.113A82.418,82.418,0,0,1,145.6,324.67Z" transform="translate(-83.703 -238.07)" fill="#4285f4" opacity="0.2"/>
    <path id="Path_185" data-name="Path 185" d="M152.467,177.57v11.141H140.42v-9.488Z" transform="translate(-74.106 -93.69)" fill="#4285f4" opacity="0.2"/>
    <rect id="Rectangle_80" data-name="Rectangle 80" width="12.047" height="12.047" transform="translate(82.777 82.973)" fill="#4285f4"/>
    <rect id="Rectangle_81" data-name="Rectangle 81" width="12.047" height="12.047" transform="translate(99.245 82.973)" fill="#4285f4" opacity="0.7"/>
    <rect id="Rectangle_82" data-name="Rectangle 82" width="12.047" height="12.047" transform="translate(115.712 82.973)" fill="#4285f4"/>
    <rect id="Rectangle_83" data-name="Rectangle 83" width="12.047" height="12.047" transform="translate(132.175 82.973)" fill="#4285f4" opacity="0.7"/>
    <rect id="Rectangle_84" data-name="Rectangle 84" width="12.047" height="12.047" transform="translate(148.643 82.973)" fill="#4285f4" opacity="0.7"/>
    <rect id="Rectangle_85" data-name="Rectangle 85" width="12.047" height="12.047" transform="translate(165.106 82.973)" fill="#4285f4" opacity="0.2"/>
    <rect id="Rectangle_86" data-name="Rectangle 86" width="12.047" height="12.047" transform="translate(181.574 82.973)" fill="#4285f4" opacity="0.4"/>
    <rect id="Rectangle_87" data-name="Rectangle 87" width="12.047" height="12.047" transform="translate(198.041 82.973)" fill="#4285f4" opacity="0.4"/>
    <rect id="Rectangle_88" data-name="Rectangle 88" width="12.047" height="12.047" transform="translate(214.504 82.973)" fill="#4285f4"/>
    <rect id="Rectangle_89" data-name="Rectangle 89" width="12.047" height="12.047" transform="translate(230.972 82.973)" fill="#4285f4" opacity="0.2"/>
    <rect id="Rectangle_90" data-name="Rectangle 90" width="12.047" height="12.047" transform="translate(247.435 82.973)" fill="#4285f4" opacity="0.4"/>
    <rect id="Rectangle_91" data-name="Rectangle 91" width="12.047" height="12.047" transform="translate(263.902 82.973)" fill="#4285f4"/>
    <rect id="Rectangle_92" data-name="Rectangle 92" width="12.047" height="12.047" transform="translate(280.37 82.973)" fill="#4285f4" opacity="0.2"/>
    <rect id="Rectangle_93" data-name="Rectangle 93" width="12.047" height="12.047" transform="translate(296.833 82.973)" fill="#4285f4" opacity="0.4"/>
    <rect id="Rectangle_94" data-name="Rectangle 94" width="12.047" height="12.047" transform="translate(313.301 82.973)" fill="#4285f4" opacity="0.2"/>
    <rect id="Rectangle_95" data-name="Rectangle 95" width="12.047" height="12.047" transform="translate(329.768 82.973)" fill="#4285f4"/>
    <rect id="Rectangle_96" data-name="Rectangle 96" width="12.047" height="12.047" transform="translate(346.231 82.973)" fill="#4285f4" opacity="0.2"/>
    <rect id="Rectangle_97" data-name="Rectangle 97" width="12.047" height="12.047" transform="translate(362.699 82.973)" fill="#4285f4" opacity="0.7"/>
    <rect id="Rectangle_98" data-name="Rectangle 98" width="12.047" height="12.047" transform="translate(379.162 82.973)" fill="#4285f4" opacity="0.7"/>
    <rect id="Rectangle_99" data-name="Rectangle 99" width="12.047" height="12.047" transform="translate(395.629 82.973)" fill="#4285f4" opacity="0.4"/>
    <rect id="Rectangle_100" data-name="Rectangle 100" width="12.047" height="12.047" transform="translate(412.097 82.973)" fill="#4285f4" opacity="0.2"/>
    <rect id="Rectangle_101" data-name="Rectangle 101" width="12.047" height="12.047" transform="translate(428.56 82.973)" fill="#4285f4"/>
    <rect id="Rectangle_102" data-name="Rectangle 102" width="12.047" height="12.047" transform="translate(445.028 82.973)" fill="#4285f4"/>
    <rect id="Rectangle_103" data-name="Rectangle 103" width="12.047" height="12.047" transform="translate(461.491 82.973)" fill="#4285f4"/>
    <rect id="Rectangle_104" data-name="Rectangle 104" width="12.047" height="12.047" transform="translate(49.847 98.232)" fill="#4285f4" opacity="0.2"/>
    <rect id="Rectangle_105" data-name="Rectangle 105" width="12.047" height="12.047" transform="translate(66.314 98.232)" fill="#4285f4" opacity="0.2"/>
    <rect id="Rectangle_106" data-name="Rectangle 106" width="12.047" height="12.047" transform="translate(82.777 98.232)" fill="#4285f4" opacity="0.2"/>
    <rect id="Rectangle_107" data-name="Rectangle 107" width="12.047" height="12.047" transform="translate(99.245 98.232)" fill="#4285f4" opacity="0.2"/>
    <rect id="Rectangle_108" data-name="Rectangle 108" width="12.047" height="12.047" transform="translate(115.712 98.232)" fill="#4285f4"/>
    <rect id="Rectangle_109" data-name="Rectangle 109" width="12.047" height="12.047" transform="translate(132.175 98.232)" fill="#4285f4" opacity="0.7"/>
    <rect id="Rectangle_110" data-name="Rectangle 110" width="12.047" height="12.047" transform="translate(148.643 98.232)" fill="#4285f4" opacity="0.7"/>
    <rect id="Rectangle_111" data-name="Rectangle 111" width="12.047" height="12.047" transform="translate(165.106 98.232)" fill="#4285f4" opacity="0.2"/>
    <rect id="Rectangle_112" data-name="Rectangle 112" width="12.047" height="12.047" transform="translate(181.574 98.232)" fill="#4285f4" opacity="0.2"/>
    <rect id="Rectangle_113" data-name="Rectangle 113" width="12.047" height="12.047" transform="translate(198.041 98.232)" fill="#4285f4" opacity="0.4"/>
    <rect id="Rectangle_114" data-name="Rectangle 114" width="12.047" height="12.047" transform="translate(214.504 98.232)" fill="#4285f4" opacity="0.4"/>
    <rect id="Rectangle_115" data-name="Rectangle 115" width="12.047" height="12.047" transform="translate(230.972 98.232)" fill="#4285f4"/>
    <rect id="Rectangle_116" data-name="Rectangle 116" width="12.047" height="12.047" transform="translate(247.435 98.232)" fill="#4285f4" opacity="0.2"/>
    <rect id="Rectangle_117" data-name="Rectangle 117" width="12.047" height="12.047" transform="translate(263.902 98.232)" fill="#4285f4" opacity="0.4"/>
    <rect id="Rectangle_118" data-name="Rectangle 118" width="12.047" height="12.047" transform="translate(280.37 98.232)" fill="#4285f4" opacity="0.4"/>
    <rect id="Rectangle_119" data-name="Rectangle 119" width="12.047" height="12.047" transform="translate(296.833 98.232)" fill="#4285f4" opacity="0.4"/>
    <rect id="Rectangle_120" data-name="Rectangle 120" width="12.047" height="12.047" transform="translate(313.301 98.232)" fill="#4285f4" opacity="0.4"/>
    <rect id="Rectangle_121" data-name="Rectangle 121" width="12.047" height="12.047" transform="translate(329.768 98.232)" fill="#4285f4" opacity="0.2"/>
    <rect id="Rectangle_122" data-name="Rectangle 122" width="12.047" height="12.047" transform="translate(346.231 98.232)" fill="#4285f4" opacity="0.2"/>
    <rect id="Rectangle_123" data-name="Rectangle 123" width="12.047" height="12.047" transform="translate(362.699 98.232)" fill="#4285f4" opacity="0.2"/>
    <rect id="Rectangle_124" data-name="Rectangle 124" width="12.047" height="12.047" transform="translate(379.162 98.232)" fill="#4285f4" opacity="0.2"/>
    <rect id="Rectangle_125" data-name="Rectangle 125" width="12.047" height="12.047" transform="translate(395.629 98.232)" fill="#4285f4" opacity="0.7"/>
    <rect id="Rectangle_126" data-name="Rectangle 126" width="12.047" height="12.047" transform="translate(412.097 98.232)" fill="#4285f4" opacity="0.7"/>
    <rect id="Rectangle_127" data-name="Rectangle 127" width="12.047" height="12.047" transform="translate(428.56 98.232)" fill="#4285f4" opacity="0.4"/>
    <rect id="Rectangle_128" data-name="Rectangle 128" width="12.047" height="12.047" transform="translate(445.028 98.232)" fill="#4285f4" opacity="0.2"/>
    <rect id="Rectangle_129" data-name="Rectangle 129" width="12.047" height="12.047" transform="translate(461.491 98.232)" fill="#4285f4"/>
    <rect id="Rectangle_130" data-name="Rectangle 130" width="12.047" height="12.047" transform="translate(49.847 113.495)" fill="#4285f4" opacity="0.2"/>
    <rect id="Rectangle_131" data-name="Rectangle 131" width="12.047" height="12.047" transform="translate(66.314 113.495)" fill="#4285f4" opacity="0.2"/>
    <rect id="Rectangle_132" data-name="Rectangle 132" width="12.047" height="12.047" transform="translate(82.777 113.495)" fill="#4285f4" opacity="0.4"/>
    <rect id="Rectangle_133" data-name="Rectangle 133" width="12.047" height="12.047" transform="translate(99.245 113.495)" fill="#4285f4" opacity="0.2"/>
    <rect id="Rectangle_134" data-name="Rectangle 134" width="12.047" height="12.047" transform="translate(115.712 113.495)" fill="#4285f4" opacity="0.2"/>
    <rect id="Rectangle_135" data-name="Rectangle 135" width="12.047" height="12.047" transform="translate(132.175 113.495)" fill="#4285f4" opacity="0.7"/>
    <rect id="Rectangle_136" data-name="Rectangle 136" width="12.047" height="12.047" transform="translate(148.643 113.495)" fill="#4285f4" opacity="0.7"/>
    <rect id="Rectangle_137" data-name="Rectangle 137" width="12.047" height="12.047" transform="translate(165.106 113.495)" fill="#4285f4" opacity="0.2"/>
    <rect id="Rectangle_138" data-name="Rectangle 138" width="12.047" height="12.047" transform="translate(181.574 113.495)" fill="#4285f4" opacity="0.2"/>
    <rect id="Rectangle_139" data-name="Rectangle 139" width="12.047" height="12.047" transform="translate(198.041 113.495)" fill="#4285f4" opacity="0.4"/>
    <rect id="Rectangle_140" data-name="Rectangle 140" width="12.047" height="12.047" transform="translate(214.504 113.495)" fill="#4285f4"/>
    <rect id="Rectangle_141" data-name="Rectangle 141" width="12.047" height="12.047" transform="translate(230.972 113.495)" fill="#4285f4" opacity="0.2"/>
    <rect id="Rectangle_142" data-name="Rectangle 142" width="12.047" height="12.047" transform="translate(247.435 113.495)" fill="#4285f4"/>
    <rect id="Rectangle_143" data-name="Rectangle 143" width="12.047" height="12.047" transform="translate(263.902 113.495)" fill="#4285f4"/>
    <rect id="Rectangle_144" data-name="Rectangle 144" width="12.047" height="12.047" transform="translate(280.37 113.495)" fill="#4285f4"/>
    <rect id="Rectangle_145" data-name="Rectangle 145" width="12.047" height="12.047" transform="translate(296.833 113.495)" fill="#4285f4" opacity="0.2"/>
    <rect id="Rectangle_146" data-name="Rectangle 146" width="12.047" height="12.047" transform="translate(313.301 113.495)" fill="#4285f4"/>
    <rect id="Rectangle_147" data-name="Rectangle 147" width="12.047" height="12.047" transform="translate(329.768 113.495)" fill="#4285f4" opacity="0.2"/>
    <rect id="Rectangle_148" data-name="Rectangle 148" width="12.047" height="12.047" transform="translate(346.231 113.495)" fill="#4285f4" opacity="0.2"/>
    <rect id="Rectangle_149" data-name="Rectangle 149" width="12.047" height="12.047" transform="translate(362.699 113.495)" fill="#4285f4" opacity="0.2"/>
    <rect id="Rectangle_150" data-name="Rectangle 150" width="12.047" height="12.047" transform="translate(379.162 113.495)" fill="#4285f4" opacity="0.2"/>
    <rect id="Rectangle_151" data-name="Rectangle 151" width="12.047" height="12.047" transform="translate(395.629 113.495)" fill="#4285f4" opacity="0.2"/>
    <rect id="Rectangle_152" data-name="Rectangle 152" width="12.047" height="12.047" transform="translate(412.097 113.495)" fill="#4285f4" opacity="0.7"/>
    <rect id="Rectangle_153" data-name="Rectangle 153" width="12.047" height="12.047" transform="translate(428.56 113.495)" fill="#4285f4" opacity="0.2"/>
    <rect id="Rectangle_154" data-name="Rectangle 154" width="12.047" height="12.047" transform="translate(445.028 113.495)" fill="#4285f4" opacity="0.2"/>
    <rect id="Rectangle_155" data-name="Rectangle 155" width="12.047" height="12.047" transform="translate(461.491 113.495)" fill="#4285f4"/>
    <rect id="Rectangle_156" data-name="Rectangle 156" width="12.047" height="12.047" transform="translate(49.847 128.754)" fill="#4285f4" opacity="0.2"/>
    <rect id="Rectangle_157" data-name="Rectangle 157" width="12.047" height="12.047" transform="translate(66.314 128.754)" fill="#4285f4" opacity="0.2"/>
    <rect id="Rectangle_158" data-name="Rectangle 158" width="12.047" height="12.047" transform="translate(82.777 128.754)" fill="#4285f4" opacity="0.2"/>
    <rect id="Rectangle_159" data-name="Rectangle 159" width="12.047" height="12.047" transform="translate(99.245 128.754)" fill="#4285f4" opacity="0.4"/>
    <rect id="Rectangle_160" data-name="Rectangle 160" width="12.047" height="12.047" transform="translate(115.712 128.754)" fill="#4285f4" opacity="0.2"/>
    <rect id="Rectangle_161" data-name="Rectangle 161" width="12.047" height="12.047" transform="translate(132.175 128.754)" fill="#4285f4" opacity="0.2"/>
    <rect id="Rectangle_162" data-name="Rectangle 162" width="12.047" height="12.047" transform="translate(148.643 128.754)" fill="#4285f4" opacity="0.7"/>
    <rect id="Rectangle_163" data-name="Rectangle 163" width="12.047" height="12.047" transform="translate(165.106 128.754)" fill="#4285f4" opacity="0.2"/>
    <rect id="Rectangle_164" data-name="Rectangle 164" width="12.047" height="12.047" transform="translate(181.574 128.754)" fill="#4285f4" opacity="0.2"/>
    <rect id="Rectangle_165" data-name="Rectangle 165" width="12.047" height="12.047" transform="translate(198.041 128.754)" fill="#4285f4" opacity="0.2"/>
    <rect id="Rectangle_166" data-name="Rectangle 166" width="12.047" height="12.047" transform="translate(214.504 128.754)" fill="#4285f4"/>
    <rect id="Rectangle_167" data-name="Rectangle 167" width="12.047" height="12.047" transform="translate(230.972 128.754)" fill="#4285f4" opacity="0.2"/>
    <rect id="Rectangle_168" data-name="Rectangle 168" width="12.047" height="12.047" transform="translate(247.435 128.754)" fill="#4285f4"/>
    <rect id="Rectangle_169" data-name="Rectangle 169" width="12.047" height="12.047" transform="translate(263.902 128.754)" fill="#4285f4"/>
    <rect id="Rectangle_170" data-name="Rectangle 170" width="12.047" height="12.047" transform="translate(280.37 128.754)" fill="#4285f4" opacity="0.2"/>
    <rect id="Rectangle_171" data-name="Rectangle 171" width="12.047" height="12.047" transform="translate(296.833 128.754)" fill="#4285f4" opacity="0.2"/>
    <rect id="Rectangle_172" data-name="Rectangle 172" width="12.047" height="12.047" transform="translate(313.301 128.754)" fill="#4285f4" opacity="0.2"/>
    <rect id="Rectangle_173" data-name="Rectangle 173" width="12.047" height="12.047" transform="translate(329.768 128.754)" fill="#4285f4" opacity="0.2"/>
    <rect id="Rectangle_174" data-name="Rectangle 174" width="12.047" height="12.047" transform="translate(346.231 128.754)" fill="#4285f4" opacity="0.2"/>
    <rect id="Rectangle_175" data-name="Rectangle 175" width="12.047" height="12.047" transform="translate(362.699 128.754)" fill="#4285f4" opacity="0.2"/>
    <rect id="Rectangle_176" data-name="Rectangle 176" width="12.047" height="12.047" transform="translate(379.162 128.754)" fill="#4285f4" opacity="0.2"/>
    <rect id="Rectangle_177" data-name="Rectangle 177" width="12.047" height="12.047" transform="translate(395.629 128.754)" fill="#4285f4" opacity="0.2"/>
    <rect id="Rectangle_178" data-name="Rectangle 178" width="12.047" height="12.047" transform="translate(412.097 128.754)" fill="#4285f4" opacity="0.2"/>
    <rect id="Rectangle_179" data-name="Rectangle 179" width="12.047" height="12.047" transform="translate(428.56 128.754)" fill="#4285f4" opacity="0.2"/>
    <rect id="Rectangle_180" data-name="Rectangle 180" width="12.047" height="12.047" transform="translate(445.028 128.754)" fill="#4285f4" opacity="0.4"/>
    <rect id="Rectangle_181" data-name="Rectangle 181" width="12.047" height="12.047" transform="translate(461.491 128.754)" fill="#4285f4"/>
    <rect id="Rectangle_182" data-name="Rectangle 182" width="12.047" height="12.047" transform="translate(49.847 144.017)" fill="#4285f4" opacity="0.7"/>
    <rect id="Rectangle_183" data-name="Rectangle 183" width="12.047" height="12.047" transform="translate(66.314 144.017)" fill="#4285f4" opacity="0.7"/>
    <rect id="Rectangle_184" data-name="Rectangle 184" width="12.047" height="12.047" transform="translate(82.777 144.017)" fill="#4285f4" opacity="0.7"/>
    <rect id="Rectangle_185" data-name="Rectangle 185" width="12.047" height="12.047" transform="translate(99.245 144.017)" fill="#4285f4" opacity="0.7"/>
    <rect id="Rectangle_186" data-name="Rectangle 186" width="12.047" height="12.047" transform="translate(115.712 144.017)" fill="#4285f4" opacity="0.7"/>
    <rect id="Rectangle_187" data-name="Rectangle 187" width="12.047" height="12.047" transform="translate(132.175 144.017)" fill="#4285f4" opacity="0.2"/>
    <rect id="Rectangle_188" data-name="Rectangle 188" width="12.047" height="12.047" transform="translate(148.643 144.017)" fill="#4285f4" opacity="0.2"/>
    <rect id="Rectangle_189" data-name="Rectangle 189" width="12.047" height="12.047" transform="translate(165.106 144.017)" fill="#4285f4" opacity="0.2"/>
    <rect id="Rectangle_190" data-name="Rectangle 190" width="12.047" height="12.047" transform="translate(181.574 144.017)" fill="#4285f4" opacity="0.2"/>
    <rect id="Rectangle_191" data-name="Rectangle 191" width="12.047" height="12.047" transform="translate(198.041 144.017)" fill="#4285f4" opacity="0.2"/>
    <rect id="Rectangle_192" data-name="Rectangle 192" width="12.047" height="12.047" transform="translate(214.504 144.017)" fill="#4285f4" opacity="0.2"/>
    <rect id="Rectangle_193" data-name="Rectangle 193" width="12.047" height="12.047" transform="translate(230.972 144.017)" fill="#4285f4"/>
    <rect id="Rectangle_194" data-name="Rectangle 194" width="12.047" height="12.047" transform="translate(247.435 144.017)" fill="#4285f4" opacity="0.2"/>
    <rect id="Rectangle_195" data-name="Rectangle 195" width="12.047" height="12.047" transform="translate(263.902 144.017)" fill="#4285f4" opacity="0.2"/>
    <rect id="Rectangle_196" data-name="Rectangle 196" width="12.047" height="12.047" transform="translate(280.37 144.017)" fill="#4285f4" opacity="0.2"/>
    <rect id="Rectangle_197" data-name="Rectangle 197" width="12.047" height="12.047" transform="translate(296.833 144.017)" fill="#4285f4"/>
    <rect id="Rectangle_198" data-name="Rectangle 198" width="12.047" height="12.047" transform="translate(313.301 144.017)" fill="#4285f4" opacity="0.2"/>
    <rect id="Rectangle_199" data-name="Rectangle 199" width="12.047" height="12.047" transform="translate(329.768 144.017)" fill="#4285f4" opacity="0.2"/>
    <rect id="Rectangle_200" data-name="Rectangle 200" width="12.047" height="12.047" transform="translate(346.231 144.017)" fill="#4285f4" opacity="0.2"/>
    <rect id="Rectangle_201" data-name="Rectangle 201" width="12.047" height="12.047" transform="translate(362.699 144.017)" fill="#4285f4" opacity="0.2"/>
    <rect id="Rectangle_202" data-name="Rectangle 202" width="12.047" height="12.047" transform="translate(379.162 144.017)" fill="#4285f4" opacity="0.2"/>
    <rect id="Rectangle_203" data-name="Rectangle 203" width="12.047" height="12.047" transform="translate(395.629 144.017)" fill="#4285f4" opacity="0.2"/>
    <rect id="Rectangle_204" data-name="Rectangle 204" width="12.047" height="12.047" transform="translate(412.097 144.017)" fill="#4285f4" opacity="0.2"/>
    <rect id="Rectangle_205" data-name="Rectangle 205" width="12.047" height="12.047" transform="translate(428.56 144.017)" fill="#4285f4" opacity="0.2"/>
    <rect id="Rectangle_206" data-name="Rectangle 206" width="12.047" height="12.047" transform="translate(445.028 144.017)" fill="#4285f4" opacity="0.2"/>
    <rect id="Rectangle_207" data-name="Rectangle 207" width="12.047" height="12.047" transform="translate(461.491 144.017)" fill="#4285f4"/>
    <circle id="Ellipse_7" data-name="Ellipse 7" cx="16.468" cy="16.468" r="16.468" transform="translate(330.415 155.404)" fill="#767d9f"/>
    <path id="Path_186" data-name="Path 186" d="M760.239,446.779q2.465,10.758,4.184,21.677c.345,2.163.652,4.444-.132,6.489-.656,1.7-1.993,3.037-3.041,4.529s-1.842,3.4-1.2,5.115,2.5,2.645,4.274,3.126c5.081,1.37,10.5.373,15.556-1.11a25.166,25.166,0,0,0,6.522-2.7,24.4,24.4,0,0,0,5.516-5.195c7.372-8.94,12.2-19.67,16.742-30.333a18.475,18.475,0,0,1-15.636-6.3c-1.861-2.187-3.226-5.233-2.177-7.906-3.074,1.686-6.725,1.8-10.035,2.952a35.651,35.651,0,0,0-5.9,2.9q-3.391,1.96-6.744,4C765.6,445.561,763.209,446.931,760.239,446.779Z" transform="translate(-414.21 -295.858)" fill="#ffe0bd"/>
    <path id="Path_187" data-name="Path 187" d="M754.326,470.065c-2.885,5.615-6.64,11.013-12,14.357s-12.576,4.25-17.946.944c-2.645-1.615-4.647-4.071-6.956-6.139s-5.195-3.839-8.3-3.57c-3.419.3-6.1,2.966-8.387,5.521a65.606,65.606,0,0,0-9.294,12.524c-4.723,8.831-5.842,19.155-5.634,29.167s1.658,19.972,1.691,29.984c.047,12.316-2.04,24.534-4.151,36.666,19.41-2.39,38.843,2.834,58.3,4.812,12.449,1.28,24.992,1.251,37.507,1.218,2.2,0,4.543-.057,6.375-1.275a8.594,8.594,0,0,0,2.64-3.136,30.006,30.006,0,0,0,2.9-10.418c1.223-9.077,1.261-18.267,1.294-27.429.085-22.2.165-44.473-2.654-66.494-.694-5.417-1.582-10.862-3.66-15.929s-5.469-9.729-10.21-12.444c-3.046-1.747-10.106-4.789-13.7-3.027C758.118,457.361,756.257,466.306,754.326,470.065Z" transform="translate(-373.856 -306.78)" fill="#767d9f"/>
    <path id="Path_188" data-name="Path 188" d="M832.077,528.4c-.732-13.7-3.712-28.312,2.63-40.468,1.558-2.985-4.033-6.711-2.3-9.6a43.492,43.492,0,0,0,4.751-11.3,8.525,8.525,0,0,0,.307-4.18c-.628-2.5-3.1-3.986-5.195-5.507-2.314-1.681-3.5-6.805-4.25-9.577s5.936.567,8.623-.42c3.731-1.365,8.472-.505,12.194.878a20.353,20.353,0,0,0,6.55.888,86.292,86.292,0,0,0,12.888-.307,32.06,32.06,0,0,1,5.766-.5c4.916.279,9.19,3.641,12.1,7.617s4.76,8.609,7.145,12.916c1.988,3.589,4.359,6.98,6.054,10.716a65.964,65.964,0,0,1,3.391,10.39l2.423,9.063a12.084,12.084,0,0,1,.595,4.019,11.408,11.408,0,0,1-1.417,4.09,77.506,77.506,0,0,1-8.817,13.455c-5.1,6.248-11.282,11.882-14.309,19.363a48.9,48.9,0,0,0-2.437,9.1,334.344,334.344,0,0,0-5.148,37.379,82.264,82.264,0,0,0-17.247-5.766,83.862,83.862,0,0,0-8.973-1.417c-2.64-.274-6.045.246-8.557-.472-4.2-1.195-4.666-8.3-5.3-12.024a109.8,109.8,0,0,1-1.261-17.946C832.228,541.986,832.44,535.19,832.077,528.4Z" transform="translate(-450.171 -302.44)" fill="#4c4981"/>
    <path id="Path_189" data-name="Path 189" d="M595.664,558.415c1.988,11.334,4.179,22.7,8.5,33.351-.109.1-.217.2-.326.293-.383.326-.779.633-1.195.945a15.911,15.911,0,0,0-2.833,2.144,3.78,3.78,0,0,0-.708,1.157,2.588,2.588,0,0,0,0,2.111c-2.253,1-4.869.689-7.4.6-2.177-.08-4.288,0-6.036,1.195-2.427,1.672-3.159,4.883-3.551,7.8q-.217,1.6-.373,3.2-.151,1.488-.246,2.985a89.049,89.049,0,0,0-.09,9.917q.038.907.1,1.813c-7.717-.184-14.749-4.208-21.4-8.118a11.807,11.807,0,0,1-4.076-3.306,7.462,7.462,0,0,1-1.091-4.86,5.374,5.374,0,0,1,.076-.718,19.638,19.638,0,0,1,1.081-4.1A50.627,50.627,0,0,1,565.16,589.4c1.691-1.974,3.594-3.906,4.383-6.385.345-1.081.472-2.229.822-3.306,1.568-4.666,7.226-6.871,9.162-11.4A34.58,34.58,0,0,1,580.8,565a8.327,8.327,0,0,1,2.007-2.243c.345-.288.7-.567,1.058-.845q4.978-3.9,9.591-8.241.859-.808,1.7-1.634A28.1,28.1,0,0,0,595.664,558.415Z" transform="translate(-306.061 -358.062)" fill="#4c4981"/>
    <path id="Path_190" data-name="Path 190" d="M688.281,483.06c-.68.718-1.417,1.393-2.139,2.064l-.194.175-.765.708a18.421,18.421,0,0,0-3.565,4.151l-.08.132c-2.408,4.312-1.516,9.62-.845,14.517a123.514,123.514,0,0,1,1.119,18.418c-.123,8.5-1.124,16.945-1.143,25.436q0,2.89.127,5.776c.137,3.131.373,6.257.657,9.384.307,3.429.675,6.853,1.02,10.276.274,2.649.534,5.294.751,7.939.109,1.37.213,2.734.3,4.1.1,1.606.179,3.216.227,4.822h0c.033,1.02.052,2.035.052,3.056v1.733q0,1.658-.09,3.306-.094,2.12-.288,4.25c-.146,1.544-.406,3.23-1.492,4.316-.066.066-.137.128-.208.189l-1.53-.189a157.129,157.129,0,0,0-31.783-.567c.232-1.6.444-3.188.652-4.789.094-.756.189-1.516.279-2.276q.156-1.3.3-2.607.163-1.417.3-2.834.368-3.65.647-7.306.411-5.332.623-10.682.1-2.555.161-5.115.08-3.174.076-6.352,0-3.089-.052-6.187c0-.68-.028-1.36-.085-2.036a12.908,12.908,0,0,0-.25-1.809,23.545,23.545,0,0,0-1.417-4c-.1-.246-.2-.472-.3-.732-.057-.128-.109-.26-.161-.387,2.72-2.423,4.656-5.667,6.517-8.86,3.018-5.143,6.106-10.513,6.612-16.454s-2.446-12.614-8.123-14.427a39.45,39.45,0,0,0-4.77-.883c-1.5-.264-4.633-.864-6.371-1.941q-1.417,1.455-2.834,2.857a10.46,10.46,0,0,1,1.025-4.113l.671.033a1.282,1.282,0,0,1-.076-.472,2.482,2.482,0,0,1,1.1-1.71c2.224-1.889,5.724-2.309,7.126-4.864a35.471,35.471,0,0,0,1.157-3.443c1.355-3.178,5.247-4.35,7.589-6.89s2.928-6.139,4.822-8.973a13.516,13.516,0,0,1,5.667-4.723c.189-.09.383-.18.576-.26,3.92-1.677,8.576-2.059,12.638-2.05,1.577,0,5.667.047,7.669.845a2.514,2.514,0,0,1,.874.534C693.179,476.472,689.859,481.379,688.281,483.06Z" transform="translate(-351.089 -316.228)" fill="#4c4981"/>
    <path id="Path_191" data-name="Path 191" d="M632.84,541.326a28.751,28.751,0,0,1,22.073,2.3,20.877,20.877,0,0,1,8.321,7.924c2.81,5.1,2.687,11.249,2.489,17.072-.1,2.914-.227,5.932-1.511,8.548-1.488,3.027-4.293,5.105-7.155,6.805a19.946,19.946,0,0,1-5.818,2.517c-3.174.689-6.47.1-9.667-.472-3.476-.642-7.207-1.417-9.62-4a16.432,16.432,0,0,1-2.956-5.36q-1.648-4.132-3.306-8.255c-1.913-4.775-2.56-8.746-.033-13.4,1.148-2.12,2.55-4.1,3.684-6.239C629.908,547.678,631.938,541.6,632.84,541.326Z" transform="translate(-342.534 -351.764)" fill="#4c4981"/>
    <path id="Path_192" data-name="Path 192" d="M574.327,684.455v14.121a79.012,79.012,0,0,1-30.569,6.045H416.395c-.066.066-.137.127-.208.189l-1.53-.189H188.1a98.686,98.686,0,0,1-51.07-13.866V669.2L245.989,656.62h.085l63.453,5.374,16.42,1.417,8.529.723,17.653,1.5,9.082.77,13.223,1.124,1.861.156,9.53.808,12.93,1.063,18.182,1.54,30.31,2.574,21.322,1.809,35.013,2.971,6.659.562.718.061.623.052,8.793.746,9.653.822,1.119.094Z" transform="translate(-85.54 -413.254)" fill="#504f60"/>
    <path id="Path_193" data-name="Path 193" d="M605.493,547.076,468.944,523.77l-5.294,26.772,62.593,7.495,19.273,2.413,53.016-10.442Z" transform="translate(-244.688 -276.394)" fill="#9c9ca1"/>
    <path id="Path_194" data-name="Path 194" d="M642.33,725.523l68.411-12.86a2.361,2.361,0,0,1,2.805,2.328h0a2.361,2.361,0,0,1-1.931,2.328L644.8,729.83Z" transform="translate(-352.208 -442.808)" fill="#9c9ca1"/>
    <path id="Path_195" data-name="Path 195" d="M645.672,644.09a17.644,17.644,0,0,0,6.205-1.478c2.361-1.176,4.2-3.2,6.385-4.694,4.808-3.306,11.24-3.75,16.751-1.851a26.983,26.983,0,0,1,13.332,10.819c2.139,3.235,3.745,7.362,2.234,10.933a14.405,14.405,0,0,1-1.946,3.041l-3.939,5.148a13.7,13.7,0,0,1-2.673,2.876,11.358,11.358,0,0,1-5.11,1.776c-4.793.7-9.672.3-14.5.623-8.3.552-16.4,3.225-24.718,3.136a74.5,74.5,0,0,1-14.168-1.979l-20.671-4.25c-3.6-.737-7.665-1.813-9.36-5.077a11.768,11.768,0,0,1-.992-4.822c-.246-4.553,0-9.615,3.155-12.9,2.966-3.079,7.655-4.052,11.2-6.328,4.335-2.791,5.766-1.889,10.338.208a56.671,56.671,0,0,0,28.482,4.817Z" transform="translate(-325.873 -401.815)" fill="#ffe0bd"/>
    <path id="Path_196" data-name="Path 196" d="M645.672,644.09a17.644,17.644,0,0,0,6.205-1.478c2.361-1.176,4.2-3.2,6.385-4.694,4.808-3.306,11.24-3.75,16.751-1.851a26.983,26.983,0,0,1,13.332,10.819c2.139,3.235,3.745,7.362,2.234,10.933a14.405,14.405,0,0,1-1.946,3.041l-3.939,5.148a13.7,13.7,0,0,1-2.673,2.876,11.358,11.358,0,0,1-5.11,1.776c-4.793.7-9.672.3-14.5.623-8.3.552-16.4,3.225-24.718,3.136a74.5,74.5,0,0,1-14.168-1.979l-20.671-4.25c-3.6-.737-7.665-1.813-9.36-5.077a11.768,11.768,0,0,1-.992-4.822c-.246-4.553,0-9.615,3.155-12.9,2.966-3.079,7.655-4.052,11.2-6.328,4.335-2.791,5.766-1.889,10.338.208a56.671,56.671,0,0,0,28.482,4.817Z" transform="translate(-325.873 -401.815)" fill="#332619" opacity="0.05"/>
    <path id="Path_197" data-name="Path 197" d="M744.289,637.9a122.492,122.492,0,0,1-17.7,5.832c-10.182,2.243-20.836,1.889-30.938,4.453-5.336,1.36-10.64,3.551-16.123,3.107a48.326,48.326,0,0,1-7.2-1.511c-13.4-3.306-28.628-2.234-39.509,6.267a49.166,49.166,0,0,0-9.53,10.39,6.942,6.942,0,0,0,2.791,10.333,40.907,40.907,0,0,0,13.4,3.575c6.2.548,12.43-.331,18.6-1.209,9.152-1.3,18.31-2.6,27.438-4.061,3.277-.524,6.555-1.067,9.851-1.483,23.721-3,47.873.647,71.656-1.856a21.893,21.893,0,0,0,7.037-1.61c5.535-2.6,8.274-9.445,7.131-15.462s-5.554-11.018-10.862-14.088c-4.449-2.583-9.247-3.627-14.2-4.723C751.524,634.782,748.719,636.2,744.289,637.9Z" transform="translate(-341.481 -402.098)" fill="#ffe0bd"/>
    <path id="Path_198" data-name="Path 198" d="M919.537,541.934c2.616,3.429,3.173,8.028,2.89,12.321s-1.3,8.538-1.455,12.85c-.208,5.913,1.219,11.806.978,17.7a50.917,50.917,0,0,1-2.3,12.123c-1.365,4.671-3.339,9.691-7.651,11.934-5.724,2.98-17.729,1.3-23.75,3.636.548-3.414,5.8-8.359,6.347-11.773a21.982,21.982,0,0,0,.354-7.155,15.823,15.823,0,0,0-4.392-7.924,23.174,23.174,0,0,0-12.5-7.084c-4.793-.869-16.529-.156-20.364,2.871-.472-3.126,8.312-6.139,11.4-6.815,1.54-.345,3.306-.151,4.538-1.129,2.361-1.851.647-5.54.76-8.5.09-2.361,1.469-4.524,1.747-6.885.472-3.778-1.993-7.627-1.025-11.334a29.4,29.4,0,0,1,1.71-3.877c1.681-3.991.945-8.543.047-12.784-.557-2.664-1.1-5.667.382-7.939,1.374-2.12,5.275,5.431,7.773,5.082,8.25-1.157,15.717-7.273,22.38-2.267,3.4,2.55,3.839,5.195,5.195,8.836C913.917,537.287,917.331,539.062,919.537,541.934Z" transform="translate(-465.852 -342.1)" opacity="0.1"/>
    <path id="Path_199" data-name="Path 199" d="M922.536,538.365c2.616,3.429,3.174,8.028,2.89,12.321s-1.3,8.538-1.454,12.85c-.208,5.913,1.218,11.806.978,17.7a50.91,50.91,0,0,1-2.3,12.123c-1.365,4.671-3.339,9.691-7.651,11.934-5.724,2.98-17.729,1.3-23.75,3.636.548-3.414,5.8-8.359,6.347-11.773a21.993,21.993,0,0,0,.354-7.155,15.823,15.823,0,0,0-4.392-7.925,23.175,23.175,0,0,0-12.5-7.084c-4.793-.869-16.529-.156-20.364,2.871-.472-3.126,8.312-6.139,11.4-6.815,1.54-.345,3.306-.151,4.538-1.129,2.361-1.851.647-5.54.76-8.5.09-2.361,1.469-4.524,1.747-6.885.472-3.778-1.993-7.627-1.025-11.334a29.4,29.4,0,0,1,1.709-3.877c1.681-3.991.945-8.543.047-12.784-.557-2.664-1.1-5.667.383-7.939,1.374-2.12,4.061-2.923,6.56-3.277a32.312,32.312,0,0,1,23.613,6.092c3.4,2.55,3.839,5.195,5.195,8.836C916.917,533.718,920.331,535.494,922.536,538.365Z" transform="translate(-467.435 -338.532)" fill="#4c4981"/>
    <path id="Path_200" data-name="Path 200" d="M329.768,499.251l25.677,94.9a5.927,5.927,0,0,0,5.152,4.35l115.571,11.1a5.922,5.922,0,0,0,6.319-7.311L454.369,487.822a5.922,5.922,0,0,0-6.2-4.491l-113.148,8.463a5.922,5.922,0,0,0-5.256,7.457Z" transform="translate(-187.147 -321.793)" fill="#9c9ca1"/>
    <ellipse id="Ellipse_8" data-name="Ellipse 8" cx="12.704" cy="12.869" rx="12.704" ry="12.869" transform="translate(359.015 170.237)" fill="#fff"/>
    <path id="Path_201" data-name="Path 201" d="M830.234,479.083s2.678,7.962-5.223,11.311L824,492.16l4.949,4.883s6.1-11.131,5.44-15.084C834.39,481.959,833.445,477.945,830.234,479.083Z" transform="translate(-448.083 -319.453)" fill="#fff"/>
    <circle id="Ellipse_9" data-name="Ellipse 9" cx="12.25" cy="12.25" r="12.25" transform="translate(360.928 171.475)" fill="#3b3b3b"/>
    <path id="Path_202" data-name="Path 202" d="M828.746,461.708,826.8,458.5l-2.833-.4c.6-10.574-2.139-13.724-2.139-13.724l-.638-.061-2.777-.269-5.223-5.422V437.08c7.339.874,11.4,4.359,13.587,8.444C830.649,452.693,828.746,461.708,828.746,461.708Z" transform="translate(-442.378 -297.393)" fill="#3b3b3b"/>
    <path id="Path_203" data-name="Path 203" d="M821.24,444.085v1.946l-2.777-.269-5.223-5.422S821.32,442.149,821.24,444.085Z" transform="translate(-442.404 -299.114)" stroke="#4c4981" stroke-miterlimit="10" stroke-width="1" opacity="0.1"/>
    <path id="Path_204" data-name="Path 204" d="M843.956,471.165l-1.946-3.211V455C845.859,462.15,843.956,471.165,843.956,471.165Z" transform="translate(-457.587 -306.85)" fill="#3b3b3b" stroke="#4c4981" stroke-miterlimit="10" stroke-width="1" opacity="0.1"/>
    <ellipse id="Ellipse_10" data-name="Ellipse 10" cx="6.815" cy="12.43" rx="6.815" ry="12.43" transform="translate(332.211 170.64) rotate(-30)" fill="#fff"/>
    <path id="Path_205" data-name="Path 205" d="M746.146,505.215c3.433,5.946,7.646,9.917,4.387,11.806s-12.751.945-16.184-5.006-.316-14.168,2.942-16.057S742.708,499.255,746.146,505.215Z" transform="translate(-399.981 -328.258)" fill="#3b3b3b"/>
    <path id="Path_206" data-name="Path 206" d="M751.524,390.1c0,19-13,37.308-32,37.308a34.4,34.4,0,0,1,0-68.808C738.523,358.619,751.524,371.1,751.524,390.1Z" transform="translate(-374.79 -255.976)" opacity="0.1"/>
    <circle id="Ellipse_11" data-name="Ellipse 11" cx="34.404" cy="34.404" r="34.404" transform="translate(310.33 101.698)" fill="#ffe0bd"/>
    <path id="Path_207" data-name="Path 207" d="M700.434,347.123c4.094,1.507,6.517,5.738,10.191,8.095,5.195,3.306,11.958,2.451,17.889.817,3.306-.9,6.763-2,10.017-1a2.834,2.834,0,0,0,1.525.217c.708-.2,1.058-.987,1.289-1.686,4.024-12,2.215-25.582-3.858-36.68a23.711,23.711,0,0,0-6.035-7.618,25.178,25.178,0,0,0-6.857-3.462,68.479,68.479,0,0,0-13.639-3.367,8.47,8.47,0,0,0-2.489-.08,10.423,10.423,0,0,0-3.174,1.346,32.481,32.481,0,0,1-14.1,3.83c-6.612.25-14.168-1.308-19.263,2.933-6.139,5.086-4.609,15.008-8.59,21.913-2.635,4.567-7.717,7.882-8.553,13.082a12.078,12.078,0,0,0,.3,4.756,19.351,19.351,0,0,0,17.946,14.342,6.81,6.81,0,0,0,3.665-.751,8.29,8.29,0,0,0,1.932-1.837C684.032,355.567,690.219,343.363,700.434,347.123Z" transform="translate(-358.722 -226.265)" fill="#5a3d3d"/>
    <path id="Path_208" data-name="Path 208" d="M741.33,390.323c-.231.7-.581,1.483-1.289,1.686a2.833,2.833,0,0,1-1.525-.217c-3.254-1-6.73.1-10.012,1-5.936,1.634-12.713,2.508-17.889-.817-3.679-2.361-6.1-6.612-10.2-8.095-10.215-3.778-16.4,8.444-21.823,14.848a8.289,8.289,0,0,1-1.932,1.837,6.81,6.81,0,0,1-3.665.751,19.4,19.4,0,0,1-17.946-14.342c-.109-.472-.2-.944-.274-1.417a.229.229,0,0,1-.024.123,12.075,12.075,0,0,0,.3,4.756A19.356,19.356,0,0,0,673,404.779a6.81,6.81,0,0,0,3.665-.751,8.29,8.29,0,0,0,1.932-1.837c5.422-6.4,11.608-18.607,21.823-14.848,4.1,1.507,6.517,5.738,10.2,8.095,5.195,3.306,11.953,2.451,17.889.817,3.306-.9,6.758-2,10.012-1a2.834,2.834,0,0,0,1.525.217c.708-.2,1.058-.987,1.289-1.686a42.638,42.638,0,0,0,2.116-15.235,41.931,41.931,0,0,1-2.116,11.773Z" transform="translate(-358.706 -266.504)" opacity="0.1"/>
  </g>
</svg>
