<svg xmlns="http://www.w3.org/2000/svg" width="424.95" height="322.531" viewBox="0 0 424.95 322.531">
  <g id="Group_189" data-name="Group 189" transform="translate(-1219.247 -2288.501)">
    <path id="Path_658" data-name="Path 658" d="M350.865,44.851C213.7,71.62,157.194,15.179,138.593,32.766,29.883,277.339,262.455,344.929,350.865,344.929s160.08-67.175,160.08-150.039S443.531,30.785,350.865,44.851Z" transform="translate(1109.023 2259.2)" fill="#f2f2f2"/>
    <circle id="Ellipse_122" data-name="Ellipse 122" cx="20.702" cy="20.702" r="20.702" transform="translate(1350.027 2288.633)" fill="#ff6584"/>
    <ellipse id="Ellipse_123" data-name="Ellipse 123" cx="55.045" cy="7.143" rx="55.045" ry="7.143" transform="translate(1528.967 2564.73)" fill="#757486"/>
    <ellipse id="Ellipse_124" data-name="Ellipse 124" cx="55.045" cy="7.143" rx="55.045" ry="7.143" transform="translate(1334.202 2596.746)" fill="#757486"/>
    <path id="Path_659" data-name="Path 659" d="M980.71,678.531s2.958,10.188,4.93,12.817,3.615,6.9,2.629,7.559-2.958,8.545-.329,8.873,8.545-8.545,8.873-11.5,1.643-13.474,1.643-13.474,2.3-9.2-1.315-9.859-9.2-.986-9.2-.986Z" transform="translate(606.338 1868.47)" fill="#2f2e41"/>
    <path id="Path_660" data-name="Path 660" d="M933.072,717.658s-4.272,11.174-5.258,11.831-4.6,6.573,2.629,6.573,11.174-1.972,11.174-1.972l2.3-2.629s0-6.9-.657-7.887,0-5.916,0-5.916Z" transform="translate(640.173 1840.189)" fill="#2f2e41"/>
    <path id="Path_661" data-name="Path 661" d="M863.622,441.766s-5.258,35.494-.657,47,9.2,14.789,9.2,14.789L907,536.086s10.845-5.587,9.859-9.2c0,0-2.3-1.315-2.629-2.3s-4.6-1.315-4.6-1.315-1.972-2.3-1.972-3.615-17.09-24.648-22.677-26.292c0,0-2.958-3.615-2.629-4.272s-.986-2.958-.986-2.958l3.286-12.817,20.7-3.286s8.545-30.235,1.314-32.536S863.622,441.766,863.622,441.766Z" transform="translate(680.373 2013.873)" fill="#2f2e41"/>
    <path id="Path_662" data-name="Path 662" d="M943.476,509.854l.657,5.258s0,13.8-.657,15.118-.986,3.286,0,4.6,2.629,4.6,1.972,5.916,1.315,38.451-1.315,41.081a5.532,5.532,0,0,0-1.315,6.244c.329.329-.329,1.643-.329,1.643s-13.474,2.3-12.488,0,.986-3.615,1.643-4.272,0-1.643,0-1.643.986-10.517,0-11.174-3.944-32.207-3.944-32.536-.986-.986-.986-2.3,0-5.587-1.643-6.244-1.314-16.761-1.314-16.761Z" transform="translate(641.6 1968.79)" fill="#2f2e41"/>
    <path id="Path_663" data-name="Path 663" d="M888.169,202.027s1.314,9.859,5.258,11.831S900,216.816,900,216.816l-3.286,11.5-1.315,9.859H880.281l-8.216-6.573,2.629-10.845,1.315-1.972s1.643-7.23.329-9.531S888.169,202.027,888.169,202.027Z" transform="translate(673.573 2159.29)" fill="#ffb9b9"/>
    <path id="Path_664" data-name="Path 664" d="M863.987,246.829l2.3,4.272s1.643-5.916,3.944-6.9,7.888-2.629,7.888-3.944-.329-4.6.986-4.6,14.132,3.944,16.1,5.258a5.18,5.18,0,0,1,2.3,2.629l-3.615,37.794s5.258,17.747,3.615,24.648-2.958,7.887-6.9,8.873-1.643-2.3-13.146.986a60.121,60.121,0,0,1-21.362,2.3,9.2,9.2,0,0,0-4.93,1.643c-.657.329-.329-1.643,1.972-4.6s1.315-7.887,1.315-7.887-2.629-8.545-.986-11.831,3.944-7.559,1.972-8.873-4.6-11.174-4.6-11.174l-7.23-25.634L858.4,239.6s-.657,4.6,1.643,5.587S863.987,246.829,863.987,246.829Z" transform="translate(691.183 2138.479)" fill="#575a89"/>
    <path id="Path_665" data-name="Path 665" d="M840.247,271.87h-1.972s-3.286,5.587-3.286,9.531,1.643,26.292,1.643,26.292l9.531,9.859,2.3-7.559.657-16.761Z" transform="translate(696.519 2116.067)" fill="#575a89"/>
    <path id="Path_666" data-name="Path 666" d="M845.493,361.75s-10.845-2.958-10.517,1.643,1.972,10.188,7.23,11.5,6.9-5.916,6.9-5.916S849.765,362.407,845.493,361.75Z" transform="translate(696.531 2061.023)" fill="#575a89"/>
    <path id="Path_667" data-name="Path 667" d="M962.03,402.934s-.657,15.118-4.6,16.761l9.531,2.3s4.6-15.775,3.944-16.432S962.03,402.934,962.03,402.934Z" transform="translate(620.746 2034.958)" fill="#ffb9b9"/>
    <path id="Path_668" data-name="Path 668" d="M.867,0H7.026a.867.867,0,0,1,.867.867V16.541A1.059,1.059,0,0,1,6.834,17.6H1.059A1.059,1.059,0,0,1,0,16.541V.867A.867.867,0,0,1,.867,0Z" transform="translate(1525.613 2407.466) rotate(-23.598)" fill="#2f2e41"/>
    <path id="Path_669" data-name="Path 669" d="M.867,0H7.026a.867.867,0,0,1,.867.867V16.541A1.059,1.059,0,0,1,6.834,17.6H1.059A1.059,1.059,0,0,1,0,16.541V.867A.867.867,0,0,1,.867,0Z" transform="translate(1525.613 2407.466) rotate(-23.598)" opacity="0.1"/>
    <path id="Path_670" data-name="Path 670" d="M.867,0h5.37A.867.867,0,0,1,7.1.867V15.741A1.059,1.059,0,0,1,6.045,16.8H1.059A1.059,1.059,0,0,1,0,15.741V.867A.867.867,0,0,1,.867,0Z" transform="translate(1525.933 2408.199) rotate(-23.598)" fill="#2f2e41"/>
    <ellipse id="Ellipse_125" data-name="Ellipse 125" cx="1.579" cy="1.6" rx="1.579" ry="1.6" transform="translate(1528.525 2411.365) rotate(-23.598)" fill="#f2f2f2"/>
    <path id="Path_671" data-name="Path 671" d="M961.293,262.921l2.136-3.122s7.888,12.16,7.23,20.376-1.315,8.545-1.315,9.859-1.643,1.315,0,2.958,3.944,3.944,2.629,5.258-2.3,1.315-1.972,2.958a21.742,21.742,0,0,1,.329,3.615s-2.794,5.423-3.779,5.423-10.352,8.709-10.352,7.723.986-7.887.986-8.873.329-4.272.986-5.258.657-.657,0-1.643-.658,0-.658-.986.329-2.3-.657-2.629-1.972,0-1.315-1.643,0-2.958-.329-2.958-1.972-.329-.986-1.315-1.972-20.047-1.972-20.047S952.749,267.85,961.293,262.921Z" transform="translate(623.947 2123.538)" opacity="0.1"/>
    <path id="Path_672" data-name="Path 672" d="M961.35,249.452l5.587,2.629s7.887,12.16,7.23,20.376-1.315,8.545-1.315,9.859-1.643,1.315,0,2.958,3.944,3.944,2.629,5.258-2.3,1.315-1.972,2.958a21.729,21.729,0,0,1,.329,3.615s-2.958,15.775-3.944,15.775-10.188-1.643-10.188-2.629.986-7.887.986-8.873.329-4.272.986-5.258.657-.657,0-1.643-.657,0-.657-.986.329-2.3-.657-2.629-1.972,0-1.315-1.643,0-2.958-.329-2.958-1.972-.329-.986-1.315-1.972-20.047-1.972-20.047S952.805,254.381,961.35,249.452Z" transform="translate(622.083 2129.941)" fill="#575a89"/>
    <path id="Path_673" data-name="Path 673" d="M832.343,348.53a1.378,1.378,0,0,1-1.585-.715c-1.51-3.02-5.6-11.876-1.787-12.149,3.519-.251,6.654,6.611,7.933,9.852a1.566,1.566,0,0,1-1.058,2.09Z" transform="translate(701.221 2076.591)" fill="#ffb9b9"/>
    <circle id="Ellipse_126" data-name="Ellipse 126" cx="12.16" cy="12.16" r="12.16" transform="translate(1540.38 2346.199)" fill="#ffb9b9"/>
    <path id="Path_674" data-name="Path 674" d="M864.322,158.627a23.956,23.956,0,0,1-4.675,1.1c-1.2.187-2.6.283-3.441-.59a2.914,2.914,0,0,1-.129-3.331,31.909,31.909,0,0,1,2.143-2.847c1.065-1.538,1.693-3.577,3.4-4.352a6.247,6.247,0,0,1,2.21-.413c4.419-.282,9.018-.536,13.11,1.155a9.647,9.647,0,0,1,3.957,2.815,10.508,10.508,0,0,1,1.582,3.067,20.015,20.015,0,0,1-3.6,19.219c-1.491-1.344-.843-4.448-2.73-5.133-.619-.225-1.319-.068-1.953-.246-1.993-.559-1.893-3.639-3.552-4.876a3.168,3.168,0,0,1-.945-.776,1.932,1.932,0,0,1-.184-.979c-.012-1.154.53-4.084-.571-4.875C867.821,156.764,865.4,158.239,864.322,158.627Z" transform="translate(683.75 2192.729)" fill="#2f2e41"/>
    <path id="Path_675" data-name="Path 675" d="M499.815,59H600.056v52.6h-7.242v19.438L573.376,111.6H499.815Z" transform="translate(930.375 2264.116)" fill="#2bacb5"/>
    <path id="Path_676" data-name="Path 676" d="M680.86,163.777l-1.769-1.6c-6.281-5.767-10.428-9.51-10.428-14.172a6.633,6.633,0,0,1,6.708-6.749,7.215,7.215,0,0,1,5.489,2.577,7.215,7.215,0,0,1,5.488-2.577,6.633,6.633,0,0,1,6.708,6.749c0,4.663-4.147,8.406-10.428,14.172Z" transform="translate(799.451 2196.896)" fill="#fff"/>
    <path id="Path_677" data-name="Path 677" d="M0,353.055l96.427-27.387,14.37,50.6-6.966,1.979,5.311,18.7-24.01-13.388-70.762,20.1Z" transform="translate(1239.689 2099.087)" fill="#2bacb5"/>
    <path id="Path_678" data-name="Path 678" d="M196.261,461.137l-2.137-1.052c-7.618-3.831-12.629-6.3-13.9-10.784a6.633,6.633,0,0,1,4.609-8.325,7.215,7.215,0,0,1,5.984.979,7.215,7.215,0,0,1,4.576-3.978,6.633,6.633,0,0,1,8.3,4.659c1.274,4.485-1.693,9.219-6.159,16.482Z" transform="translate(1101.903 2013.44)" fill="#fff"/>
    <path id="Path_679" data-name="Path 679" d="M339.793,355.8s-3.259,9.778-1.449,11.951-10.864-6.519-10.864-6.519l6.881-7.967Z" transform="translate(1010.593 2065.697)" fill="#a0616a"/>
    <circle id="Ellipse_127" data-name="Ellipse 127" cx="16.26" cy="16.26" r="16.26" transform="translate(1326.694 2388.959)" fill="#2f2e41"/>
    <path id="Path_680" data-name="Path 680" d="M415.593,594.791l-8.329,6.519-4.708-7.6,8.329-5.794Z" transform="translate(990.564 1936.797)" fill="#a0616a"/>
    <path id="Path_681" data-name="Path 681" d="M452.187,775.746l2.173,10.5,6.157,8.329s16.659,5.07,5.432,7.605-13.762-1.811-13.762-1.811l-7.967-6.881v9.416h-5.07l-1.086-13.4a11.507,11.507,0,0,1,2.535-8.329l.724-6.519Z" transform="translate(942.201 1804.913)" fill="#2f2e41"/>
    <path id="Path_682" data-name="Path 682" d="M344.431,431.109l2.9,16.659s30.783-3.259,32.956,2.9,2.9,7.967,2.9,7.967l-6.156,2.173-2.9-5.432a6.879,6.879,0,0,0-5.432.362c-2.9,1.449-28.248,5.07-30.058.362s-6.881-22.091-6.881-22.091l7.605-6.157Z" transform="translate(1007.947 2019.538)" fill="#a0616a"/>
    <path id="Path_683" data-name="Path 683" d="M344.431,431.109l2.9,16.659s30.783-3.259,32.956,2.9,2.9,7.967,2.9,7.967l-6.156,2.173-2.9-5.432a6.879,6.879,0,0,0-5.432.362c-2.9,1.449-28.248,5.07-30.058.362s-6.881-22.091-6.881-22.091l7.605-6.157Z" transform="translate(1007.947 2019.538)" opacity="0.1"/>
    <path id="Path_684" data-name="Path 684" d="M409.669,553.953l2.535,8.692,6.519,33.318s.724,24.626,1.811,27.523,1.086,3.259,0,4.346-3.259,4.708,0,6.881,14.848,4.708,15.21,2.173a31.933,31.933,0,0,0,0-8.329c-.362-1.811,1.086-30.058,1.086-30.058l-4.346-43.1-14.848-6.881Z" transform="translate(959.73 1944.86)" fill="#2f2e41"/>
    <path id="Path_685" data-name="Path 685" d="M409.669,553.953l2.535,8.692,6.519,33.318s.724,24.626,1.811,27.523,1.086,3.259,0,4.346-3.259,4.708,0,6.881,14.848,4.708,15.21,2.173a31.933,31.933,0,0,0,0-8.329c-.362-1.811,1.086-30.058,1.086-30.058l-4.346-43.1-14.848-6.881Z" transform="translate(959.73 1944.86)" opacity="0.1"/>
    <path id="Path_686" data-name="Path 686" d="M411.129,473.458l7.967,15.21s45.631,20.28,41.647,28.61-26.075,23.9-26.075,23.9-1.086,6.156-4.346,4.346-11.227-11.227-10.5-12.313,3.259-3.622,4.346-3.259,13.762-9.416,13.762-9.416L416.2,515.1s-26.075-.724-27.523-13.037,0-14.486,0-14.486l-1.811-3.984,14.848-9.054Z" transform="translate(973.842 1991.313)" fill="#2f2e41"/>
    <path id="Path_687" data-name="Path 687" d="M432.94,631.185l-7.605,6.881s-6.519-2.9-10.5-1.811a89.53,89.53,0,0,1-10.865,1.811l1.086,6.156,9.24-1.7-7.429,10.4s0,16.3,4.708,16.3,3.259-9.778,3.259-9.778l14.486-11.227s7.243-2.9,7.967-2.9S432.94,631.185,432.94,631.185Z" transform="translate(963.258 1893.703)" fill="#2f2e41"/>
    <circle id="Ellipse_128" data-name="Ellipse 128" cx="12.313" cy="12.313" r="12.313" transform="translate(1336.625 2399.766)" fill="#a0616a"/>
    <path id="Path_688" data-name="Path 688" d="M322.281,359.343s5.794-1.449,7.605,0,2.173,4.708,4.708,5.07,4.708.362,5.07.724,8.692,10.5,8.692,10.5,5.07,2.9,6.157,6.881,11.951,17.383,13.4,18.832-9.416,8.692-13.037,11.227-14.124,3.621-17.383-2.173S316.487,366.948,322.281,359.343Z" transform="translate(1014.525 2062.333)" fill="#575a89"/>
    <path id="Path_689" data-name="Path 689" d="M339.68,416.857l2.9,16.659s30.783-3.259,32.956,2.9,2.9,7.967,2.9,7.967l-6.156,2.173-2.9-5.432a6.878,6.878,0,0,0-5.432.362c-2.9,1.449-28.248,5.07-30.058.362s-6.881-22.091-6.881-22.091l7.605-6.157Z" transform="translate(1010.887 2028.358)" fill="#a0616a"/>
    <path id="Path_690" data-name="Path 690" d="M324.208,362.014s8.731,18.395,8.007,23.465-3.259,1.449-3.259,1.449-3.259-5.07-4.708-2.173-3.259,6.881-4.708,6.519-9.416-27.161-5.07-29.7S324.208,362.014,324.208,362.014Z" transform="translate(1019.439 2061.185)" fill="#575a89"/>
    <circle id="Ellipse_129" data-name="Ellipse 129" cx="16.26" cy="16.26" r="16.26" transform="translate(1309.079 2367.55)" fill="#2f2e41"/>
    <path id="Path_691" data-name="Path 691" d="M245.443,271.678a16.261,16.261,0,0,0,25.109-8.538,16.261,16.261,0,1,1-31.719-6.668,16.255,16.255,0,0,0,6.609,15.206Z" transform="translate(1065.871 2125.597)" fill="#2f2e41"/>
    <circle id="Ellipse_130" data-name="Ellipse 130" cx="11.924" cy="11.924" r="11.924" transform="translate(1326.694 2396.005)" fill="#2f2e41"/>
    <ellipse id="Ellipse_131" data-name="Ellipse 131" cx="10.569" cy="8.265" rx="10.569" ry="8.265" transform="translate(1338.076 2395.192)" fill="#2f2e41"/>
    <ellipse id="Ellipse_132" data-name="Ellipse 132" cx="2.354" cy="4.165" rx="2.354" ry="4.165" transform="translate(1346.765 2409.181)" fill="#a0616a"/>
    <path id="Path_692" data-name="Path 692" d="M440.812,494.932s6.411-3.678,7.6-2.756,1.719,3.808,1.719,3.808l-7.41,2.908-2.173-3.984Z" transform="translate(940.62 1979.822)" fill="#2f2e41"/>
    <line id="Line_29" data-name="Line 29" y1="44.248" transform="translate(1350.881 2556.02)" fill="#3f3d56" stroke="#3f3d56" stroke-miterlimit="10" stroke-width="2"/>
    <circle id="Ellipse_133" data-name="Ellipse 133" cx="6.257" cy="6.257" r="6.257" transform="translate(1344.623 2549.763)" fill="#3f3d56"/>
    <path id="Path_693" data-name="Path 693" d="M329.877,756.536s-.894-19.226-19.219-16.991" transform="translate(1021.004 1826.756)" fill="#3f3d56"/>
    <line id="Line_30" data-name="Line 30" y1="44.248" transform="translate(1541.453 2523.242)" fill="#3f3d56" stroke="#3f3d56" stroke-miterlimit="10" stroke-width="2"/>
    <circle id="Ellipse_134" data-name="Ellipse 134" cx="6.257" cy="6.257" r="6.257" transform="translate(1535.195 2516.985)" fill="#3f3d56"/>
    <path id="Path_694" data-name="Path 694" d="M829.877,670.536s-.894-19.226-19.219-16.991" transform="translate(711.576 1879.978)" fill="#3f3d56"/>
    <line id="Line_31" data-name="Line 31" y1="88.497" transform="translate(1618.72 2480.006)" fill="#3f3d56" stroke="#3f3d56" stroke-miterlimit="10" stroke-width="2"/>
    <circle id="Ellipse_135" data-name="Ellipse 135" cx="6.257" cy="6.257" r="6.257" transform="translate(1612.463 2473.748)" fill="#3f3d56"/>
    <path id="Path_695" data-name="Path 695" d="M1063.809,552.406s.894-19.226,19.219-16.991" transform="translate(554.912 1953.083)" fill="#3f3d56"/>
    <path id="Path_696" data-name="Path 696" d="M1063.377,680.758s-4.023-35.377,19.219-37.165" transform="translate(555.344 1886.024)" fill="none" stroke="#3f3d56" stroke-miterlimit="10" stroke-width="2"/>
    <circle id="Ellipse_136" data-name="Ellipse 136" cx="6.257" cy="6.257" r="6.257" transform="translate(1631.682 2523.36)" fill="#3f3d56"/>
  </g>
</svg>
