<svg id="github-icon" xmlns="http://www.w3.org/2000/svg" width="45.947" height="44.813" viewBox="0 0 45.947 44.813">
  <path id="Path_212" data-name="Path 212" d="M22.974,0a22.976,22.976,0,0,0-7.263,44.773c1.148.213,1.57-.5,1.57-1.105,0-.548-.021-2.358-.031-4.277-6.391,1.39-7.74-2.711-7.74-2.711a6.083,6.083,0,0,0-2.551-3.361c-2.084-1.426.157-1.4.157-1.4a4.829,4.829,0,0,1,3.522,2.367c2.049,3.512,5.374,2.5,6.685,1.91a4.893,4.893,0,0,1,1.459-3.072c-5.1-.581-10.467-2.551-10.467-11.354a8.891,8.891,0,0,1,2.367-6.166,8.255,8.255,0,0,1,.223-6.08s1.929-.617,6.319,2.355a21.791,21.791,0,0,1,11.505,0C33.114,8.91,35.04,9.528,35.04,9.528a8.244,8.244,0,0,1,.225,6.08,8.873,8.873,0,0,1,2.364,6.166c0,8.824-5.374,10.767-10.49,11.335A5.491,5.491,0,0,1,28.7,37.363c0,3.074-.027,5.548-.027,6.3,0,.611.414,1.328,1.578,1.1A22.977,22.977,0,0,0,22.974,0ZM8.6,32.726c-.051.114-.23.148-.394.07s-.26-.231-.206-.345.229-.15.4-.072S8.662,32.612,8.6,32.726Zm1.13,1.008c-.11.1-.324.054-.469-.106a.351.351,0,0,1-.067-.477c.113-.1.321-.054.471.106S9.849,33.632,9.734,33.735Zm.775,1.29c-.141.1-.371.006-.513-.2s-.141-.449,0-.547.369-.01.514.193S10.653,34.925,10.51,35.025Zm1.311,1.494c-.126.139-.394.1-.59-.088a.442.442,0,0,1-.13-.587c.127-.139.4-.1.595.088S11.955,36.381,11.821,36.519Zm1.694.5c-.056.18-.314.262-.574.185s-.43-.29-.377-.471.313-.266.576-.185S13.569,36.84,13.515,37.023Zm1.928.214c.006.189-.214.347-.487.35s-.5-.147-.5-.334.216-.347.49-.352S15.444,37.049,15.444,37.237Zm1.894-.073c.033.185-.157.375-.428.425s-.514-.065-.547-.249.16-.379.426-.428S17.3,36.977,17.338,37.165Z" fill="#161614"/>
</svg>
