<svg xmlns="http://www.w3.org/2000/svg" width="48.454" height="66.005" viewBox="0 0 48.454 66.005">
  <g id="gopher" transform="translate(-0.408 -0.199)">
    <path id="Path_235" data-name="Path 235" d="M1.734,175.078c.095,1.95,2.045,1.041,2.916.436.833-.587,1.079-.095,1.155-1.231a17.942,17.942,0,0,0,.095-2.253,5.5,5.5,0,0,0-3.674.947c-.549.379-1.534,1.628-.492,2.1" transform="translate(-0.703 -139.147)" fill="#fff"/>
    <path id="Path_236" data-name="Path 236" d="M194.23,314.272c1.5.928,4.242,3.73,1.988,5.094-2.159,1.969-3.371-2.178-5.264-2.746a5.117,5.117,0,0,1,3.276-2.348Z" transform="translate(-154.324 -254.369)" fill="#fff"/>
    <path id="Path_237" data-name="Path 237" d="M36.978,319.7c-1.761.265-2.746,1.856-4.223,2.67-1.382.814-1.912-.265-2.026-.492-.208-.095-.189.095-.53-.246-1.288-2.026,1.325-3.5,2.689-4.507,1.894-.379,3.087,1.269,4.09,2.575Z" transform="translate(-23.847 -256.635)" fill="#fff"/>
    <path id="Path_238" data-name="Path 238" d="M234.124,173.783c-.095,1.95-2.045,1.041-2.916.436-.833-.587-1.079-.095-1.155-1.231a17.941,17.941,0,0,1-.095-2.253,5.5,5.5,0,0,1,3.674.947c.53.379,1.534,1.628.492,2.1" transform="translate(-185.906 -138.098)" fill="#fff"/>
    <path id="Path_239" data-name="Path 239" d="M49.534,12.87c6.76-2.386,1.477-11.645-4.412-7.555C41.259,2,35.939,1.395,30.353,1.395c-5.472.436-10.68,1.439-14.315,4.62-5.87-3.787-11.286,5.3-4.393,7.593-1.931,7.5.265,15.149-.038,22.78-.284,6.855-2.083,16.038,1.723,22.193,3.238,5.264,10.206,7.139,15.944,7.347,7.328.265,16.209-1.534,19.769-8.635,3.408-6.76,2.462-15.186,2.026-22.477-.436-7.366.379-14.846-1.534-21.946Z" transform="translate(-6.485 -0.968)" fill="#fff"/>
    <path id="Path_240" data-name="Path 240" d="M48.73,34.53a3.166,3.166,0,0,0-.89-1.1,5.74,5.74,0,0,0-3.143-1c-.038-1.174-.076-2.462-.076-4.09V26.861a86.043,86.043,0,0,0-.341-9.26A37.464,37.464,0,0,0,43.3,12a4.562,4.562,0,0,0,2.935-2.8,4.553,4.553,0,0,0-.454-3.617,4.763,4.763,0,0,0-7.1-1.5,14.44,14.44,0,0,0-4.242-2.443A30.082,30.082,0,0,0,23.886.2V.389L23.867.2c-4.753.379-8.275,1.117-11.191,2.537A13.92,13.92,0,0,0,9.552,4.782a5.007,5.007,0,0,0-4.2-.663A5.165,5.165,0,0,0,2.375,6.543a4.306,4.306,0,0,0-.36,3.617,4.644,4.644,0,0,0,2.935,2.575,27.407,27.407,0,0,0-.757,6.173,69.359,69.359,0,0,0,.4,7.858c.246,2.935.341,4.279.379,5.908a5.669,5.669,0,0,0-3.541.985,2.823,2.823,0,0,0-.89,1.1.906.906,0,0,0,.341,1.288c.076.909.587,1.325,1.363,1.25a4.138,4.138,0,0,0,1.837-.776,2.131,2.131,0,0,1,.4-.227c.057-.019.095-.038.151-.057,0,0,.114-.038.151-.057a.381.381,0,0,0,.151-.076c-.038.89-.114,1.818-.284,3.939-.189,2.386-.284,3.692-.322,5.15-.17,5.416.473,9.354,2.4,12.479A12.308,12.308,0,0,0,8.946,60.32c-.17.114-.89.644-1.117.814a6.021,6.021,0,0,0-1.666,1.685,2.072,2.072,0,0,0,.057,2.253l.019.019.019.019c.208.208.322.265.473.265h.057c.019.038.038.057.057.095a2.771,2.771,0,0,0,.17.246,1.437,1.437,0,0,0,2.026.151,8.323,8.323,0,0,0,1.534-1.136l.038-.038a4.959,4.959,0,0,1,2.575-1.477l.3-.057c.114.057.227.095.36.151a27.034,27.034,0,0,0,8.975,1.78A30.385,30.385,0,0,0,34.187,63.52,20.272,20.272,0,0,0,36.706,62.4a4.74,4.74,0,0,1,1.7,1.515.2.2,0,0,1,.057.076c.038.038.038.057.057.076.038.057.095.095.133.151a4.338,4.338,0,0,0,1.515,1.307,1.638,1.638,0,0,0,1.856-.436c1.1-.682,1.174-1.742.454-2.954a8.109,8.109,0,0,0-2.234-2.31,13.1,13.1,0,0,0,2.5-3.427c1.818-3.636,2.518-7.877,2.481-13.331-.019-1.931-.095-3.617-.3-6.836v-.095a1.13,1.13,0,0,1,.284.17,4.367,4.367,0,0,0,1.837.776c.776.076,1.288-.341,1.363-1.25h0a.942.942,0,0,0,.322-1.307ZM42.708,3.646A4.541,4.541,0,0,1,45.435,5.8a4.14,4.14,0,0,1,.436,3.314,4.142,4.142,0,0,1-2.689,2.537,30.8,30.8,0,0,0-1-2.992,1.391,1.391,0,0,0,.379-1.894,1.491,1.491,0,0,0-1.969-.682,14.151,14.151,0,0,0-1.61-1.742,4.609,4.609,0,0,1,3.73-.7Zm-40.371,6.4a3.861,3.861,0,0,1,.341-3.295A4.766,4.766,0,0,1,5.443,4.517a4.709,4.709,0,0,1,3.806.568A12.459,12.459,0,0,0,7.28,7.338c-.985-.511-1.988-.606-2.556.436-.587,1.117.095,1.818,1.06,2.348-.133.322-.265.663-.379,1-.133.417-.265.852-.379,1.288a4.356,4.356,0,0,1-2.689-2.367ZM4.629,35.855c-.019,0-.133.038-.133.057a.673.673,0,0,0-.17.076,1.886,1.886,0,0,0-.454.265,3.676,3.676,0,0,1-1.666.7c-.568.057-.89-.189-.947-.871a1.161,1.161,0,0,0,.72-.454l-.3-.227c-.114.151-.227.208-.568.322h0c-.019,0-.019,0-.038.019-.3-.17-.36-.436-.189-.814a2.713,2.713,0,0,1,.776-.947,5.167,5.167,0,0,1,3.333-.909c0,.473.019.947,0,1.4a.417.417,0,0,1-.019.151c-.019.265-.019.379-.038.511h0c-.057.549-.095.625-.3.72Zm5.719,28.574-.038.038a8.415,8.415,0,0,1-1.477,1.1c-.72.436-1.212.341-1.553-.076a1.15,1.15,0,0,1-.133-.189c-.019-.019-.038-.057-.057-.076v-.019A2.513,2.513,0,0,1,7.6,64.088c.019-.019.019-.019.019-.038a4.055,4.055,0,0,0,.4-.682l-.341-.151a5.2,5.2,0,0,1-.36.625c-.019.019-.019.019-.019.038a3.137,3.137,0,0,0-.568,1.136H6.655a.688.688,0,0,1-.17-.133C5.746,63.709,6.333,62.706,8,61.456c.208-.151.909-.644,1.1-.8a.269.269,0,0,0,.114-.038,15.918,15.918,0,0,0,3.541,2.253h0c0,.019.019.038.038.057a5.816,5.816,0,0,0-2.443,1.5ZM42.14,62.365c.587.985.568,1.78-.17,2.329-.057-.114-.095-.246-.17-.436,0-.019,0-.019-.019-.038a3.443,3.443,0,0,0-.757-1.363l-.265.265a2.989,2.989,0,0,1,.682,1.212c0,.019,0,.019.019.038.095.246.151.4.208.53a1.2,1.2,0,0,1-1.382.284A4.424,4.424,0,0,1,38.9,63.974a1.05,1.05,0,0,1-.114-.151.261.261,0,0,1-.057-.076.2.2,0,0,1-.057-.076,6.288,6.288,0,0,0-1.572-1.5,15.179,15.179,0,0,0,2.859-2.083,8.851,8.851,0,0,1,2.178,2.272Zm.265-6.135a14.324,14.324,0,0,1-8.37,6.987,30.127,30.127,0,0,1-11.229,1.534C15.857,64.5,9.836,62.081,7.015,57.5,5.121,54.45,4.5,50.568,4.667,45.228c.057-1.458.133-2.765.322-5.15.208-2.689.265-3.465.322-4.677.038-.871.038-1.761.019-2.708-.038-1.666-.133-2.992-.379-5.965a68.963,68.963,0,0,1-.4-7.82A25.378,25.378,0,0,1,5.784,11.2a13.366,13.366,0,0,1,7.063-8.123c2.859-1.4,6.325-2.121,11.039-2.5A29.769,29.769,0,0,1,34.3,2a13.309,13.309,0,0,1,7.517,6.7A31.752,31.752,0,0,1,43.9,17.62a85.238,85.238,0,0,1,.341,9.222v1.477c.019,2.291.057,3.9.151,5.51.038.625.057.89.151,2.386.208,3.219.284,4.885.3,6.817.038,5.435-.644,9.619-2.443,13.2ZM48.2,35.5h0c-.019,0-.038-.019-.057-.019a1.081,1.081,0,0,1-.568-.322l-.3.227a1.283,1.283,0,0,0,.72.454c-.076.682-.4.928-.947.871a3.9,3.9,0,0,1-1.666-.7,2.825,2.825,0,0,0-.454-.265c-.019,0-.038-.019-.057-.019-.076-1.041-.076-1.307-.114-1.856L44.7,32.844a5.075,5.075,0,0,1,2.9.928,2.713,2.713,0,0,1,.776.947.5.5,0,0,1-.17.776Z"/>
    <g id="Group_159" data-name="Group 159" transform="translate(21.043 18.724)">
      <path id="Path_241" data-name="Path 241" d="M19.008,4.22a16.337,16.337,0,0,1,.038,3.049c-.265.492-.757.549-1.193.738a1.784,1.784,0,0,1-1.363-1.06,18.652,18.652,0,0,1,.095-3.408,4.346,4.346,0,0,1,1.363.208,4.581,4.581,0,0,1,1.06.473Z" transform="translate(-13.314 -2.99)" fill="#fff"/>
      <path id="Path_242" data-name="Path 242" d="M1.268,4.307c-.53,2.007.7,5.283,2.727,2.594A17.993,17.993,0,0,1,4.07,3.55a13.442,13.442,0,0,0-2.8.757Z" transform="translate(-0.932 -3)" fill="#fff"/>
      <path id="Path_243" data-name="Path 243" d="M5.949,2.818c-.038-.568-.057-.8-.057-1.079V1.606l-.133-.038L3.374.83V.7L3.127.754H3.108V.773L.42,1.455l-.095.019-.038.095A4.362,4.362,0,0,0,.5,5.015C1.1,6.075,2.086,6.094,3.09,4.882A1.937,1.937,0,0,0,4.51,5.9h.057l.057-.019c.076-.038.151-.057.284-.114.019,0,.019,0,.038-.019a1.406,1.406,0,0,0,.966-.7l.019-.019V5a6.671,6.671,0,0,0,.076-1.1c0-.284-.019-.549-.057-1.079Zm-3.03-.7c-.019.341-.038.473-.057.663a10.675,10.675,0,0,0,.019,1.761c-.89,1.136-1.591,1.136-2.064.284A3.993,3.993,0,0,1,.609,1.8L2.995,1.19c-.019.246-.038.492-.076.928ZM5.57,4.92c-.133.227-.3.341-.757.492-.019,0-.019,0-.038.019-.114.038-.189.076-.246.095a1.576,1.576,0,0,1-1.155-.909,10.409,10.409,0,0,1-.019-1.742c.019-.189.019-.322.057-.663.038-.436.057-.7.057-.947l2.064.625c0,.246.019.473.057.966.038.511.057.776.057,1.079a5.333,5.333,0,0,1-.076.985Z" transform="translate(-0.027 -0.697)"/>
    </g>
    <g id="Group_160" data-name="Group 160" transform="translate(9.666 4.393)">
      <path id="Path_244" data-name="Path 244" d="M1.678,8.409C3.42,15.188,14.27,13.446,13.854,6.648,13.361-1.494.012.078,1.678,8.409" transform="translate(-1.364 -1.098)" fill="#fff"/>
      <path id="Path_245" data-name="Path 245" d="M13.316,5.817a5.543,5.543,0,0,0-2.424-4.469,6.908,6.908,0,0,0-4.677-1A6.784,6.784,0,0,0,1.954,2.522,5.787,5.787,0,0,0,.78,7.6l.17-.038L.78,7.6c1.78,6.968,12.952,5.283,12.535-1.78ZM1.121,7.559a5.418,5.418,0,0,1,1.1-4.772A6.41,6.41,0,0,1,6.253.723a6.414,6.414,0,0,1,4.431.947,5.218,5.218,0,0,1,2.272,4.2c.4,6.609-10.149,8.2-11.835,1.685Z" transform="translate(-0.636 -0.285)"/>
      <ellipse id="Ellipse_14" data-name="Ellipse 14" cx="1.837" cy="1.988" rx="1.837" ry="1.988" transform="translate(1.47 4.206)"/>
      <ellipse id="Ellipse_15" data-name="Ellipse 15" cx="0.436" cy="0.511" rx="0.436" ry="0.511" transform="translate(3.704 6.138)" fill="#fff"/>
    </g>
    <g id="Group_161" data-name="Group 161" transform="translate(24.995 3.748)">
      <path id="Path_246" data-name="Path 246" d="M1.137,8.2c1.344,7.783,14.069,5.719,12.232-2.121C11.722-.962.683.988,1.137,8.2" transform="translate(-0.935 -1.513)" fill="#fff"/>
      <path id="Path_247" data-name="Path 247" d="M12.735,5.3C11.05-1.952-.312.036.143,7.478V7.5c.625,3.674,3.9,5.548,7.517,4.942a6.761,6.761,0,0,0,4.09-2.253A5.463,5.463,0,0,0,12.735,5.3ZM11.466,9.958A6.36,6.36,0,0,1,7.6,12.079C4.176,12.647,1.108,10.886.5,7.44.086.434,10.8-1.441,12.394,5.376a5.1,5.1,0,0,1-.928,4.582Z" transform="translate(-0.129 -0.769)"/>
      <ellipse id="Ellipse_16" data-name="Ellipse 16" cx="1.799" cy="1.988" rx="1.799" ry="1.988" transform="translate(1.528 4.36)"/>
      <ellipse id="Ellipse_17" data-name="Ellipse 17" cx="0.417" cy="0.511" rx="0.417" ry="0.511" transform="translate(3.744 6.292)" fill="#fff"/>
    </g>
    <g id="Group_163" data-name="Group 163" transform="translate(19.427 13.697)">
      <path id="Path_248" data-name="Path 248" d="M3.988,11.664a2.356,2.356,0,0,0-1.931,3.295c1.023,1.856,3.314-.17,4.734.019,1.647.038,2.992,1.742,4.3.3,1.458-1.591-.625-3.143-2.272-3.825l-4.829.208Z" transform="translate(-1.646 -9.421)" fill="#fff"/>
      <path id="Path_249" data-name="Path 249" d="M10.558,12.206a6.041,6.041,0,0,0-2.367-1.628l-.038-.019H8.115l-4.848.189a2.551,2.551,0,0,0-2.083,3.579,1.582,1.582,0,0,0,1.344.89A4.188,4.188,0,0,0,4.119,14.9c.057-.019.133-.038.227-.076a3.751,3.751,0,0,1,1.7-.36H6.07a4.131,4.131,0,0,1,1.553.417,4.788,4.788,0,0,0,1.439.454,1.723,1.723,0,0,0,1.458-.625,1.749,1.749,0,0,0,.038-2.5Zm-.322,2.234a1.365,1.365,0,0,1-1.155.511,4.138,4.138,0,0,1-1.325-.417,4.417,4.417,0,0,0-1.666-.454,4.1,4.1,0,0,0-1.875.379c-.095.038-.17.057-.227.076-1.382.473-2.045.436-2.5-.4a2.181,2.181,0,0,1,1.78-3.03l4.791-.189a5.721,5.721,0,0,1,2.2,1.515,1.364,1.364,0,0,1-.019,2.007Z" transform="translate(-0.925 -8.695)" fill="#231f20"/>
      <g id="Group_162" data-name="Group 162" transform="translate(2.151 0)">
        <path id="Path_250" data-name="Path 250" d="M5.687,2.183C5.1.024.177.346.291,2.921c.246,1.912,5.965,1.4,5.4-.738Z" transform="translate(-0.289 -0.755)"/>
      </g>
    </g>
  </g>
</svg>
