<svg xmlns="http://www.w3.org/2000/svg"  viewBox="0 0 254.725 345.379">
  <g id="java" transform="translate(-0.517 -0.372)">
    <path id="Path_251" data-name="Path 251" d="M82.554,267.473s-13.2,7.675,9.393,10.273c27.369,3.122,41.357,2.674,71.517-3.034a124.431,124.431,0,0,0,19,9.278c-67.612,28.977-153.019-1.678-99.914-16.517"/>
    <path id="Path_252" data-name="Path 252" d="M74.292,229.659s-14.8,10.958,7.8,13.3c29.236,3.016,52.325,3.263,92.276-4.43a40.954,40.954,0,0,0,14.215,8.666c-81.747,23.9-172.8,1.885-114.3-17.532"/>
    <path id="Path_253" data-name="Path 253" d="M143.942,165.515c16.66,19.18-4.377,36.44-4.377,36.44s42.3-21.837,22.874-49.183c-18.144-25.5-32.059-38.172,43.268-81.859,0,0-118.238,29.53-61.765,94.6"/>
    <path id="Path_254" data-name="Path 254" d="M233.364,295.442s9.767,8.048-10.757,14.274c-39.027,11.823-162.432,15.393-196.714.471-12.323-5.361,10.786-12.8,18.056-14.362a46.877,46.877,0,0,1,11.914-1.338c-13.7-9.654-88.583,18.957-38.034,27.151,137.853,22.356,251.292-10.067,215.535-26.2"/>
    <path id="Path_255" data-name="Path 255" d="M88.9,190.48S26.129,205.389,66.672,210.8c17.118,2.292,51.244,1.773,83.031-.89,25.978-2.191,52.063-6.851,52.063-6.851a110.2,110.2,0,0,0-15.787,8.448c-63.744,16.765-186.886,8.966-151.435-8.183C64.524,188.836,88.9,190.48,88.9,190.48"/>
    <path id="Path_256" data-name="Path 256" d="M201.506,253.422c64.8-33.672,34.838-66.03,13.926-61.671a48.5,48.5,0,0,0-7.411,1.991,11.807,11.807,0,0,1,5.537-4.271c41.371-14.545,73.187,42.9-13.355,65.648a5.637,5.637,0,0,0,1.3-1.7"/>
    <path id="Path_257" data-name="Path 257" d="M162.439.371s35.887,35.9-34.037,91.1c-56.071,44.281-12.786,69.53-.023,98.377-32.73-29.53-56.749-55.526-40.635-79.72C111.4,74.613,176.918,57.394,162.439.371"/>
    <path id="Path_258" data-name="Path 258" d="M95.268,344.665c62.2,3.981,157.712-2.209,159.974-31.64,0,0-4.348,11.157-51.4,20.017-53.088,9.991-118.564,8.824-157.4,2.421,0,0,7.95,6.58,48.829,9.2"/>
  </g>
</svg>
