<svg id="react" xmlns="http://www.w3.org/2000/svg" width="50.367" height="44.813" viewBox="0 0 50.367 44.813">
  <path id="Path_213" data-name="Path 213" d="M41.412,14.525q-.784-.27-1.621-.511.137-.561.25-1.106C41.268,6.95,40.466,2.15,37.726.57,35.1-.945,30.8.635,26.461,4.412q-.626.545-1.254,1.151-.418-.4-.835-.771C19.824.753,15.265-.949,12.527.636c-2.625,1.52-3.4,6.032-2.3,11.678q.16.818.372,1.669c-.645.183-1.268.378-1.864.586C3.406,16.428,0,19.342,0,22.364c0,3.121,3.656,6.252,9.21,8.151q.657.225,1.362.426-.228.919-.4,1.8c-1.053,5.548-.231,9.954,2.387,11.464,2.7,1.559,7.243-.043,11.662-3.906q.524-.458,1.051-.969.683.657,1.362,1.242c4.281,3.684,8.508,5.171,11.124,3.657,2.7-1.564,3.579-6.3,2.44-12.054q-.131-.66-.3-1.346.478-.141.937-.293c5.774-1.913,9.531-5.006,9.531-8.169,0-3.033-3.515-5.967-8.955-7.839ZM40.16,28.49q-.413.137-.846.265a50.468,50.468,0,0,0-2.551-6.381,50.457,50.457,0,0,0,2.451-6.288q.773.224,1.5.472c4.661,1.6,7.5,3.977,7.5,5.8,0,1.947-3.07,4.475-8.056,6.127Zm-2.069,4.1a18.22,18.22,0,0,1,.242,6.647,4.446,4.446,0,0,1-1.649,3.127c-1.587.919-4.982-.276-8.643-3.426q-.629-.542-1.266-1.155A50.55,50.55,0,0,0,31,32.423a50.222,50.222,0,0,0,6.821-1.052q.154.622.273,1.218Zm-20.92,9.616a4.446,4.446,0,0,1-3.533.133c-1.589-.916-2.249-4.454-1.348-9.2q.155-.815.368-1.672a50.6,50.6,0,0,0,6.788.982,52.379,52.379,0,0,0,4.324,5.342q-.482.465-.96.884a18.223,18.223,0,0,1-5.638,3.53ZM9.906,28.479a18.223,18.223,0,0,1-5.874-3.121,4.446,4.446,0,0,1-1.88-2.994c0-1.834,2.734-4.173,7.295-5.763.553-.193,1.133-.375,1.734-.546a51.575,51.575,0,0,0,2.455,6.361,52.42,52.42,0,0,0-2.486,6.452q-.643-.185-1.243-.389ZM12.341,11.9c-.947-4.837-.318-8.487,1.264-9.4,1.685-.976,5.411.415,9.338,3.9q.377.334.756.7a51.544,51.544,0,0,0-4.291,5.31,52.588,52.588,0,0,0-6.721,1.045q-.2-.791-.346-1.552Zm21.726,5.365q-.748-1.291-1.532-2.519c1.607.2,3.147.473,4.593.8a45.959,45.959,0,0,1-1.612,4.337q-.685-1.3-1.449-2.621Zm-8.86-8.63a46,46,0,0,1,2.964,3.578q-1.478-.07-2.988-.071-1.494,0-2.965.069c.979-1.29,1.981-2.489,2.989-3.577ZM16.291,17.28q-.747,1.295-1.422,2.6c-.627-1.486-1.163-2.947-1.6-4.358,1.437-.322,2.969-.585,4.566-.784q-.793,1.238-1.544,2.537Zm1.59,12.858a45.8,45.8,0,0,1-4.642-.746c.445-1.436.993-2.929,1.633-4.447q.676,1.306,1.428,2.606h0q.765,1.322,1.581,2.587Zm7.386,6.105c-1.02-1.1-2.037-2.317-3.03-3.627q1.447.057,2.947.057,1.54,0,3.04-.068a45.767,45.767,0,0,1-2.957,3.637Zm10.27-11.375A45.647,45.647,0,0,1,37.228,29.3a45.714,45.714,0,0,1-4.7.8q.784-1.243,1.546-2.563t1.461-2.669Zm-3.325,1.594c-.787,1.365-1.6,2.668-2.416,3.9-1.495.107-3.039.162-4.612.162s-3.092-.049-4.56-.144c-.854-1.246-1.68-2.553-2.462-3.9h0c-.78-1.348-1.5-2.707-2.149-4.058.651-1.355,1.367-2.715,2.143-4.06h0c.778-1.349,1.6-2.65,2.442-3.888,1.5-.113,3.034-.172,4.586-.172h0c1.559,0,3.1.06,4.595.174.833,1.229,1.646,2.526,2.427,3.875.79,1.364,1.515,2.716,2.171,4.041C33.722,23.733,33,25.1,32.212,26.462ZM36.651,2.434c1.687.973,2.343,4.9,1.283,10.039q-.1.492-.226,1a51.543,51.543,0,0,0-6.734-1.064A50.544,50.544,0,0,0,26.715,7.1q.581-.558,1.158-1.062c3.718-3.236,7.194-4.514,8.777-3.6ZM25.184,17.866a4.5,4.5,0,1,1-4.5,4.5,4.5,4.5,0,0,1,4.5-4.5Z" transform="translate(0 0)" fill="#000000"/>
</svg>
