<?xml version="1.0" standalone="no"?>
<!DOCTYPE svg PUBLIC "-//W3C//DTD SVG 20010904//EN"
 "http://www.w3.org/TR/2001/REC-SVG-20010904/DTD/svg10.dtd">
<svg version="1.0" xmlns="http://www.w3.org/2000/svg"
 width="359.000000pt" height="359.000000pt" viewBox="0 0 359.000000 359.000000"
 preserveAspectRatio="xMidYMid meet">
<metadata>
Created by potrace 1.11, written by Peter Selinger 2001-2013
</metadata>
<g transform="translate(0.000000,359.000000) scale(0.100000,-0.100000)"
fill="#000000" stroke="none">
<path d="M1615 3519 c-104 -14 -129 -18 -150 -24 -11 -2 -45 -11 -75 -19 -110
-28 -201 -64 -338 -133 -56 -28 -198 -117 -212 -133 -3 -3 -27 -23 -55 -44
-112 -89 -251 -245 -336 -379 -42 -66 -138 -257 -144 -285 -2 -9 -10 -35 -19
-57 -23 -59 -64 -237 -73 -319 -9 -83 -9 -311 0 -376 3 -25 9 -65 12 -90 38
-261 191 -572 392 -796 240 -269 627 -470 978 -511 102 -12 358 -8 445 6 77
13 210 45 245 60 11 5 43 17 70 26 129 46 293 137 420 234 67 51 202 183 256
251 168 209 301 503 334 735 4 28 10 59 12 70 10 41 11 312 2 375 -16 117 -19
132 -40 214 -103 407 -359 753 -724 976 -157 96 -396 185 -550 206 -27 3 -54
8 -58 11 -15 9 -329 10 -392 2z"/>
</g>
</svg>
