<svg id="terminal" xmlns="http://www.w3.org/2000/svg" width="40.193" height="32.867" viewBox="0 0 40.193 32.867">
  <rect id="Rectangle_209" data-name="Rectangle 209" width="40.193" height="32.867" rx="5"/>
  <path id="Path_220" data-name="Path 220" d="M21.915,20.691a.689.689,0,0,0-.975.975l2.11,2.11-2.108,2.108a.69.69,0,0,0,.484,1.178.667.667,0,0,0,.49-.2l2.345-2.347a.921.921,0,0,0,0-1.475l-2.347-2.347Zm9.192,5.2a.672.672,0,0,0-.492-.2H26.087a.695.695,0,0,0,0,1.389h4.527a.695.695,0,0,0,.492-1.186Z" transform="translate(-17.481 -17.273)" fill="#fff"/>
</svg>
