<svg xmlns="http://www.w3.org/2000/svg" xmlns:xlink="http://www.w3.org/1999/xlink" version="1.1" x="0px" y="0px" viewBox="0 0 100 125" enable-background="new 0 0 100 100" xml:space="preserve"><g><path d="M75.562,35.222L58.434,46.514c-0.163-0.298-0.349-0.596-0.555-0.874L74.944,34.4   C75.129,34.688,75.335,34.965,75.562,35.222z"/></g><g><path d="M44.246,60.929l-5.332,11.969c-0.288-0.195-0.596-0.35-0.925-0.463l5.363-12.01l0.216,0.092   c0.011,0,0.011,0.011,0.021,0.011c0.011,0,0.011,0.011,0.021,0.011c0,0,0.011,0,0.011,0.01   C43.814,60.691,44.03,60.805,44.246,60.929z"/></g><g><path d="M33.632,73.318c-0.246,0.226-0.473,0.494-0.667,0.78l-9.504-9.894c0.298-0.194,0.565-0.41,0.792-0.667L33.632,73.318z"/></g><g><path d="M85.424,73.698l-22.027,4.859c-0.03-0.349-0.103-0.688-0.195-1.017l21.915-4.828   C85.178,73.062,85.281,73.391,85.424,73.698z"/></g><g><path d="M30.109,35.931l-6.709,21.093c-0.288-0.185-0.596-0.328-0.935-0.432l6.719-21.134   C29.472,35.644,29.78,35.797,30.109,35.931z"/></g><g><path d="M56.708,73.556c-0.339,0.061-0.667,0.153-0.986,0.276l-3.564-12.021c0.328-0.093,0.657-0.206,0.976-0.34L56.708,73.556z"/></g><g><path d="M39.324,55.113l-13.952,4.962c-0.041-0.349-0.124-0.678-0.257-0.997l13.921-4.951   C39.119,54.466,39.211,54.794,39.324,55.113z"/></g><g><path d="M42.89,43.328c-0.268,0.216-0.534,0.432-0.781,0.668L35.43,35.51c0.298-0.174,0.576-0.37,0.833-0.596L42.89,43.328z"/></g><g><path d="M26.543,28.718c-0.103,0.329-0.165,0.668-0.195,1.018l-13.449-2.425c0.113-0.318,0.175-0.667,0.185-1.017L26.543,28.718z"/></g><g><path d="M90.869,7.451l-5.362,15.38c-0.298-0.164-0.617-0.308-0.936-0.421l5.312-15.257C90.191,7.287,90.521,7.39,90.869,7.451z"/></g><g><path d="M74.555,26.191c-0.165,0.298-0.309,0.617-0.422,0.946L53.996,16.801c0.185-0.288,0.328-0.596,0.432-0.915L74.555,26.191z"/></g><g><path d="M50.903,18.742l-1.079,22.429c-0.185-0.01-0.36-0.01-0.545-0.01c-0.164,0-0.329,0-0.493,0.01l1.089-22.438   c0.174,0.03,0.349,0.041,0.534,0.041C50.574,18.773,50.738,18.763,50.903,18.742z"/></g><g><path d="M20.122,56.53c-0.339,0.083-0.658,0.206-0.956,0.371L9.725,30.239c0.339-0.082,0.658-0.185,0.966-0.339L20.122,56.53z"/></g><g><path d="M87.305,68.191c-0.309,0.154-0.586,0.36-0.843,0.596l-6.123-8.26c0.318-0.154,0.616-0.328,0.894-0.544L87.305,68.191z"/></g><g><path d="M80.791,38.006l-1.562,11.28c-0.328-0.092-0.657-0.153-1.006-0.174l1.561-11.291   C80.112,37.904,80.452,37.965,80.791,38.006z"/></g><g><path d="M32.903,78.599l-11.229,4.604c-0.103-0.329-0.236-0.647-0.391-0.955l11.199-4.582   C32.584,78.004,32.718,78.312,32.903,78.599z"/></g><g><path d="M71.668,55.113c0,0.092,0,0.185,0.01,0.276l-12.186-1.171c0.082-0.329,0.154-0.668,0.195-1.018l12.031,1.151   C71.688,54.6,71.668,54.856,71.668,55.113z"/></g><g><path d="M20.656,64.842l-2.969,14.518c-0.319-0.092-0.658-0.153-1.007-0.185l2.979-14.59   C19.978,64.719,20.307,64.801,20.656,64.842z"/></g><g><path d="M79.764,89.798c-0.134,0.318-0.257,0.647-0.339,0.986l-16.901-8.507c0.195-0.287,0.359-0.596,0.482-0.914L79.764,89.798z"/></g><g><path d="M89.781,76.154l-0.443,8.959c-0.328-0.082-0.667-0.154-1.016-0.205l0.431-8.765c0.175,0.031,0.35,0.041,0.534,0.041   C89.451,76.185,89.616,76.175,89.781,76.154z"/></g><g><path d="M87.562,4.543v0.011l-32.97,9.287c-0.052-0.349-0.145-0.678-0.277-0.986l33.052-9.318   C87.387,3.886,87.448,4.215,87.562,4.543z"/></g><g><path d="M47.708,17.808l-10.551,8.897c-0.195-0.277-0.432-0.534-0.688-0.771l10.531-8.876   C47.205,17.335,47.451,17.582,47.708,17.808z"/></g><g><path d="M52.157,77.85c-0.083,0.329-0.134,0.668-0.145,1.027l-11.569-0.833c0.134-0.318,0.227-0.647,0.278-1.006L52.157,77.85z"/></g><g><path d="M49.28,42.19c-5.24,0-9.5,4.26-9.5,9.5c0,5.229,4.26,9.5,9.5,9.5s9.49-4.271,9.49-9.5C58.77,46.45,54.52,42.19,49.28,42.19   z M49.21,43.96c0.66,0,1.19,0.53,1.19,1.2c0,0.66-0.53,1.19-1.19,1.19s-1.2-0.53-1.2-1.19C48.01,44.49,48.55,43.96,49.21,43.96z    M52.01,51.83c0,0.72-0.939,0.72-0.939,0v-3.58h-0.29l-0.011,9.7c0,0.37-0.299,0.67-0.669,0.67s-0.67-0.3-0.67-0.67v-5.62h-0.3   v5.62c0,0.37-0.3,0.67-0.67,0.67s-0.67-0.3-0.67-0.67v-9.7h-0.3v3.58c0,0.71-0.94,0.71-0.94,0v-3.68c0-0.86,0.53-1.55,1.38-1.55   h2.68c0.93,0,1.399,0.78,1.399,1.57V51.83z"/></g><g><path d="M36.53,73.2c-1.78,0-3.22,1.43-3.22,3.21c0,1.77,1.44,3.21,3.22,3.21c1.77,0,3.22-1.44,3.22-3.21   C39.75,74.63,38.3,73.2,36.53,73.2z M36.5,73.53c0.25,0,0.45,0.2,0.45,0.45c0,0.239-0.2,0.439-0.45,0.439   c-0.24,0-0.44-0.2-0.44-0.439C36.06,73.73,36.26,73.53,36.5,73.53z M37.54,76.46c0,0.271-0.34,0.271-0.34,0v-1.33h-0.12v3.61   c0,0.14-0.11,0.25-0.25,0.25c-0.13,0-0.25-0.11-0.25-0.25V76.64h-0.11v2.101c0,0.14-0.11,0.25-0.25,0.25   c-0.13,0-0.25-0.11-0.25-0.25l0.01-3.61h-0.12v1.33c0,0.26-0.35,0.26-0.35,0v-1.37c0-0.32,0.2-0.58,0.52-0.58h0.99   c0.35,0,0.52,0.29,0.52,0.59V76.46z"/></g><g><path d="M89.29,68.73c-1.78,0-3.22,1.43-3.22,3.21c0,1.77,1.439,3.22,3.22,3.22c1.76,0,3.21-1.45,3.21-3.22   C92.5,70.16,91.05,68.73,89.29,68.73z M89.26,69.06c0.24,0,0.44,0.2,0.44,0.45c0,0.24-0.2,0.44-0.44,0.44   c-0.25,0-0.45-0.2-0.45-0.44C88.81,69.26,89.01,69.06,89.26,69.06z M90.3,71.99c0,0.27-0.35,0.27-0.35,0v-1.33h-0.11v3.609   c0,0.141-0.109,0.25-0.25,0.25c-0.14,0-0.25-0.109-0.25-0.25v-2.09H89.23v2.09c0,0.141-0.11,0.25-0.25,0.25   c-0.141,0-0.25-0.109-0.25-0.25V70.66h-0.11v1.33c0,0.27-0.351,0.27-0.351,0v-1.37c0-0.32,0.2-0.57,0.511-0.57h1   c0.35,0,0.52,0.29,0.52,0.58V71.99z"/></g><g><path d="M50.41,11.31c-1.77,0-3.22,1.45-3.22,3.22c0,1.78,1.45,3.22,3.22,3.22c1.78,0,3.22-1.44,3.22-3.22   C53.63,12.76,52.19,11.31,50.41,11.31z M50.38,11.65c0.25,0,0.45,0.2,0.45,0.45s-0.2,0.44-0.45,0.44c-0.24,0-0.44-0.19-0.44-0.44   S50.14,11.65,50.38,11.65z M51.43,14.58c0,0.27-0.35,0.27-0.35,0v-1.33h-0.11v3.61c0,0.14-0.109,0.25-0.25,0.25   c-0.14,0-0.25-0.11-0.25-0.25v-2.09h-0.11v2.09c0,0.14-0.11,0.25-0.25,0.25c-0.14,0-0.25-0.11-0.25-0.25v-3.61h-0.11v1.33   c0,0.27-0.36,0.27-0.36,0v-1.37c0-0.32,0.2-0.57,0.52-0.57h1c0.34,0,0.52,0.29,0.52,0.58V14.58z"/></g><g><path d="M8.85,22.86c-1.77,0-3.2,1.44-3.2,3.22c0,1.77,1.43,3.21,3.2,3.21c1.78,0,3.22-1.44,3.22-3.21   C12.07,24.3,10.63,22.86,8.85,22.86z M8.83,23.2c0.25,0,0.45,0.19,0.45,0.44s-0.2,0.45-0.45,0.45s-0.45-0.2-0.45-0.45   S8.58,23.2,8.83,23.2z M9.87,26.12c0,0.27-0.35,0.27-0.35,0v-1.33H9.41v3.62c0,0.13-0.11,0.25-0.25,0.25   c-0.14,0-0.25-0.12-0.25-0.25v-2.1H8.8v2.1c0,0.13-0.11,0.25-0.25,0.25c-0.14,0-0.25-0.12-0.25-0.25v-3.62H8.19v1.33   c0,0.27-0.35,0.27-0.35,0v-1.36c0-0.32,0.2-0.58,0.51-0.58h1c0.35,0,0.52,0.29,0.52,0.59V26.12z"/></g><g><path d="M91.6,0.05c-1.77,0-3.22,1.45-3.22,3.22c0,1.78,1.45,3.22,3.22,3.22c1.78,0,3.21-1.44,3.21-3.22   C94.81,1.5,93.38,0.05,91.6,0.05z M91.57,0.39c0.25,0,0.449,0.2,0.449,0.45S91.82,1.28,91.57,1.28c-0.24,0-0.44-0.19-0.44-0.44   S91.33,0.39,91.57,0.39z M92.62,3.32c0,0.27-0.351,0.27-0.351,0V1.99H92.16V5.6c0,0.14-0.12,0.25-0.25,0.25   c-0.141,0-0.25-0.11-0.25-0.25V3.51h-0.11V5.6c0,0.14-0.12,0.25-0.25,0.25c-0.14,0-0.25-0.11-0.25-0.25V1.99H90.94v1.33   c0,0.27-0.36,0.27-0.36,0V1.96c0-0.33,0.2-0.58,0.52-0.58h1c0.341,0,0.521,0.29,0.521,0.58V3.32z"/></g><g><path d="M57.71,74.49c-2.58,0-4.69,2.109-4.69,4.689c0,2.59,2.11,4.7,4.69,4.7c2.59,0,4.7-2.11,4.7-4.7   C62.41,76.6,60.3,74.49,57.71,74.49z M57.68,75.16c0.34,0,0.62,0.28,0.62,0.62c0,0.35-0.28,0.63-0.62,0.63   c-0.35,0-0.63-0.28-0.63-0.63C57.05,75.44,57.33,75.16,57.68,75.16z M59.13,79.25c0,0.38-0.479,0.38-0.479,0v-1.86h-0.16v5.051   c0,0.199-0.16,0.35-0.351,0.35c-0.189,0-0.35-0.15-0.35-0.35V79.51h-0.15v2.931c0,0.199-0.159,0.35-0.35,0.35s-0.35-0.15-0.35-0.35   V77.39h-0.16v1.86c0,0.38-0.49,0.38-0.49,0v-1.91c0-0.439,0.28-0.8,0.72-0.8h1.4c0.479,0,0.72,0.4,0.72,0.81V79.25z"/></g><g><path d="M32.35,25.33c-2.76,0-5.01,2.24-5.01,5c0,2.75,2.25,5.01,5.01,5.01c2.76,0,5-2.26,5-5.01   C37.35,27.57,35.11,25.33,32.35,25.33z M32.31,26.07c0.37,0,0.66,0.3,0.66,0.66c0,0.37-0.29,0.66-0.66,0.66   c-0.36,0-0.66-0.29-0.66-0.66C31.65,26.37,31.95,26.07,32.31,26.07z M33.85,30.41c0.01,0.39-0.51,0.39-0.51,0v-1.97h-0.16   l-0.01,5.34c0,0.21-0.16,0.37-0.36,0.37c-0.21,0-0.37-0.16-0.37-0.37v-3.1h-0.17v3.1c0,0.21-0.16,0.37-0.37,0.37   c-0.2,0-0.37-0.16-0.37-0.37v-5.34h-0.16v1.97c0,0.39-0.52,0.39-0.52,0v-2.03c0-0.47,0.29-0.85,0.76-0.85h1.48   c0.51,0,0.76,0.43,0.76,0.87V30.41z"/></g><g><path d="M81.71,22.9c-3.9,0-7.06,3.17-7.06,7.06c0,3.91,3.159,7.07,7.06,7.07c3.89,0,7.06-3.16,7.06-7.07   C88.77,26.07,85.6,22.9,81.71,22.9z M81.65,24.12c0.5,0,0.909,0.4,0.909,0.9s-0.409,0.91-0.909,0.91s-0.9-0.41-0.9-0.91   S81.15,24.12,81.65,24.12z M83.77,30.07c0,0.55-0.71,0.55-0.71,0v-2.7h-0.22v7.34c0,0.28-0.229,0.51-0.51,0.51   s-0.51-0.23-0.51-0.51v-4.26H81.6v4.26c0,0.28-0.229,0.51-0.51,0.51s-0.51-0.23-0.51-0.51v-7.34h-0.22v2.7   c0,0.54-0.721,0.54-0.721,0v-2.78c0-0.65,0.4-1.17,1.04-1.17h2.03c0.71,0,1.06,0.59,1.06,1.19V30.07z"/></g><g><path d="M87.22,85.86c-3.89,0-7.069,3.18-7.069,7.069c0,3.9,3.18,7.07,7.069,7.07c3.9,0,7.061-3.17,7.061-7.07   C94.28,89.04,91.12,85.86,87.22,85.86z M87.17,87.08c0.5,0,0.9,0.41,0.9,0.91s-0.4,0.91-0.9,0.91s-0.91-0.41-0.91-0.91   S86.67,87.08,87.17,87.08z M89.29,93.04c0,0.54-0.71,0.54-0.71,0v-2.71h-0.23v7.34c0,0.29-0.229,0.51-0.51,0.51s-0.5-0.22-0.5-0.51   v-4.25H87.11v4.25c0,0.29-0.23,0.51-0.511,0.51c-0.279,0-0.5-0.22-0.5-0.51v-7.34H85.87v2.71c0,0.54-0.71,0.54-0.71,0v-2.78   c0-0.649,0.399-1.18,1.04-1.18h2.03c0.699,0,1.06,0.59,1.06,1.189V93.04z"/></g><g><path d="M21.18,57.42c-1.78,0-3.22,1.44-3.22,3.21c0,1.78,1.44,3.22,3.22,3.22c1.77,0,3.21-1.439,3.21-3.22   C24.39,58.86,22.95,57.42,21.18,57.42z M21.15,57.75c0.25,0,0.45,0.2,0.45,0.45s-0.2,0.45-0.45,0.45s-0.45-0.2-0.45-0.45   S20.9,57.75,21.15,57.75z M22.19,60.68c0,0.271-0.35,0.271-0.35,0v-1.33h-0.11v3.61c0,0.14-0.11,0.25-0.25,0.25   c-0.13,0-0.25-0.11-0.25-0.25v-2.09h-0.11v2.09c0,0.14-0.11,0.25-0.25,0.25c-0.13,0-0.25-0.11-0.25-0.25v-3.61h-0.11v1.33   c0,0.271-0.35,0.271-0.35,0V59.32c0-0.32,0.2-0.58,0.51-0.58h1c0.35,0,0.52,0.29,0.52,0.59V60.68z"/></g><g><path d="M16.2,80.18c-2.59,0-4.7,2.11-4.7,4.7s2.11,4.69,4.7,4.69c2.59,0,4.69-2.101,4.69-4.69S18.79,80.18,16.2,80.18z    M16.16,80.85c0.34,0,0.62,0.28,0.62,0.631c0,0.34-0.28,0.619-0.62,0.619c-0.35,0-0.63-0.279-0.63-0.619   C15.53,81.13,15.81,80.85,16.16,80.85z M17.61,84.95c0,0.37-0.48,0.37-0.48,0v-1.86h-0.16v5.04c0,0.2-0.15,0.351-0.35,0.351   c-0.19,0-0.35-0.15-0.35-0.351v-2.92h-0.15v2.92c0,0.2-0.16,0.351-0.35,0.351s-0.35-0.15-0.35-0.351v-5.04h-0.15v1.86   c0,0.37-0.5,0.37-0.5,0v-1.92c0-0.44,0.28-0.8,0.72-0.8h1.4c0.48,0,0.72,0.399,0.72,0.819V84.95z"/></g><g><path d="M77.69,50.11c-2.761,0-4.99,2.25-4.99,5c0,2.77,2.229,5.01,4.99,5.01c2.76,0,5-2.24,5-5.01   C82.69,52.36,80.45,50.11,77.69,50.11z M77.65,50.86c0.369,0,0.659,0.29,0.659,0.659c0,0.36-0.29,0.65-0.659,0.65   c-0.36,0-0.66-0.29-0.66-0.65C76.99,51.15,77.29,50.86,77.65,50.86z M79.2,55.19c0,0.399-0.521,0.399-0.521,0V53.22h-0.16v5.351   c0,0.199-0.17,0.37-0.369,0.37c-0.21,0-0.37-0.171-0.37-0.37V55.47h-0.17v3.101c0,0.199-0.16,0.37-0.37,0.37   c-0.2,0-0.37-0.171-0.37-0.37l0.01-5.351h-0.17v1.971c0,0.399-0.52,0.399-0.52,0V53.17c0-0.479,0.29-0.86,0.76-0.86h1.479   c0.511,0,0.771,0.431,0.771,0.87V55.19z"/></g><text x="0" y="115" fill="#000000" font-size="5px" font-weight="bold" font-family="'Helvetica Neue', Helvetica, Arial-Unicode, Arial, Sans-serif">Created by gilbert bages</text><text x="0" y="120" fill="#000000" font-size="5px" font-weight="bold" font-family="'Helvetica Neue', Helvetica, Arial-Unicode, Arial, Sans-serif">from the Noun Project</text></svg>