<svg xmlns="http://www.w3.org/2000/svg" width="868.304" height="1489.629" viewBox="0 0 868.304 1489.629">
  <g id="Group_1" data-name="Group 1" transform="translate(-1212.498 1446)">
    <path id="Path_1" data-name="Path 1" d="M1.35,1.78C59.9-.22,116.83-.25,174.77.99M.78.57C45.85-.32,94.13-.96,173.4-.42m-1.5,2.14c2.76,26.15,3.41,55.11,1.05,79.95M173.6-.61c.57,21.27-.69,43.53-1.29,81.52m.28-2.21c-35.41,1.69-72.78,2.35-173.98,2.74m174.94-1.39c-65.39-.95-131.37-1.33-173.3.28m1.62.41A589.658,589.658,0,0,1,1.98-1.6M-.79,80.9C-1.27,62.26.2,46.12-.13-.24" transform="translate(1214.39 -1386.838)" fill="none" stroke="#000" stroke-linecap="round" stroke-width="1"/>
    <text id="WhatsApp" transform="translate(1301.315 -1344.354)" font-size="20" font-family="Virgil3YOFF, 'Virgil \33  YOFF'"><tspan x="-47.1" y="0">WhatsApp</tspan></text>
    <path id="Path_2" data-name="Path 2" d="M-.81.42c47.42.97,96.64.04,198.31,1M-.21.9C49.99.18,98.56.68,197.93-.59m-.42,1.71c.67,23.96-1.22,46.64,2.99,77.45M198.38.51c1.63,27.95-.06,57.93.22,76.37m-.18.33C147.02,76.58,93.96,78.38-2,75.59m200.42,2.53C147.59,76.73,95.35,77.29.57,77.47M-.94,79.02a384.393,384.393,0,0,0-1-79.23M.6,77.16C.21,57.83-.44,40.76-.45.38" transform="translate(1563.379 -1387.339)" fill="none" stroke="#000" stroke-linecap="round" stroke-width="1"/>
    <text id="Parser" transform="translate(1664.953 -1345.14)" font-size="20" font-family="Virgil3YOFF, 'Virgil \33  YOFF'"><tspan x="-32.82" y="0">Parser</tspan></text>
    <path id="Path_3" data-name="Path 3" d="M.65,1.18C25.42.91,124.14-.81,149.1-.82M-.47.76C24.62.55,126.26.49,151.3.25" transform="translate(1399.273 -1352.646)" fill="none" stroke="#000" stroke-linecap="round" stroke-width="1"/>
    <path id="Path_4" data-name="Path 4" d="M125.13,9.01c6.12-1.54,18.97-6.74,28.13-7.05m-30.87,9.58C132,8.15,140.26,4.23,152.11-.02" transform="translate(1399.273 -1352.646)" fill="none" stroke="#000" stroke-linecap="round" stroke-width="1"/>
    <path id="Path_5" data-name="Path 5" d="M125.04-11.52c6.28,5.49,19.17,7.29,28.22,13.48M122.3-8.98c9.83,3.08,18.12,5.62,29.81,8.96" transform="translate(1399.273 -1352.646)" fill="none" stroke="#000" stroke-linecap="round" stroke-width="1"/>
    <text id="export" transform="translate(1441.264 -1361.289)" font-size="16" font-family="Virgil3YOFF, 'Virgil \33  YOFF'"><tspan x="0" y="0">export</tspan></text>
    <path id="Path_6" data-name="Path 6" d="M.89-1c23.78.05,118.67,2.04,142.26,2.36M-.1,1.1C23.54,1.36,118.95.21,142.59-.13" transform="translate(1765.401 -1352.347)" fill="none" stroke="#000" stroke-linecap="round" stroke-width="1"/>
    <path id="Path_7" data-name="Path 7" d="M112.87,11.69C126.03,6.73,134.98,1.92,142.43.51M115.46,11.34C124.11,6.57,134.28,1.7,141.9-.64" transform="translate(1765.401 -1352.347)" fill="none" stroke="#000" stroke-linecap="round" stroke-width="1"/>
    <path id="Path_8" data-name="Path 8" d="M112.61-8.83c13.43,2.05,22.47,4.27,29.82,9.34M115.2-9.18c8.93,2.71,19.19,5.33,26.7,8.54" transform="translate(1765.401 -1352.347)" fill="none" stroke="#000" stroke-linecap="round" stroke-width="1"/>
    <path id="Path_9" data-name="Path 9" d="M.6-1.59C46.63.99,90.16,1.49,159.8,1.02M-.07.46C52.12-1.16,102.62-2.2,158.98.41m-1.22-.64c.34,25.39-.41,55.02,1.41,84.97M157.32-.04c1.28,31.2,1.23,63.11.77,84.93m.71.41c-58.77-.7-116.75-3.34-157.56,1.32m157.41-1.78c-59.35.59-119.03-.32-159.12.47M-1,83.33C-.6,61.21-.2,39.58.3,1.99M-.06,84.93C.09,65.54-1.29,44.89-.22-.65" transform="translate(1913.074 -1396.718)" fill="none" stroke="#000" stroke-linecap="round" stroke-width="1"/>
    <text id="Model" transform="translate(1992.49 -1350.384)" font-size="20" font-family="Virgil3YOFF, 'Virgil \33  YOFF'"><tspan x="-25.99" y="0">Model</tspan></text>
    <text id="train_24h_" data-name="train (24h)" transform="translate(1827.123 -1362.25)" font-size="16" font-family="Virgil3YOFF, 'Virgil \33  YOFF'"><tspan x="-43.368" y="0">train (24h)</tspan></text>
    <path id="Path_10" data-name="Path 10" d="M1.07-.83C70.39.55,145.63-.09,181.34,1.49M-.58-.35c70.37.61,140.9.17,184.13-.44m.59.07c-2.27,20.07.51,41.5-2.67,89.88m.87-89.24c.3,26.09,1.47,50.22.03,87.84m2.18-1.94c-75.12-.35-148.98.35-182.98.77m180.79.18c-35.96-.98-72.98-1.14-183.11.46m-.38-.48c-.86-26.06.32-57.41,2.55-84.9M.16,88.21C-1.47,59.87-.26,30.58.53-.78" transform="translate(1262.042 -1107.304)" fill="none" stroke="#000" stroke-linecap="round" stroke-width="1"/>
    <text id="WebApp" transform="translate(1353.589 -1058.083)" font-size="20" font-family="Virgil3YOFF, 'Virgil \33  YOFF'"><tspan x="-34.86" y="0">WebApp</tspan></text>
    <path id="Path_11" data-name="Path 11" d="M-.84-1.14c-.04,18.87.3,96.57.17,115.47M.93.88c-.1,19.07-1.56,93.2-2.12,111.9" transform="translate(1363.304 -1011.633)" fill="none" stroke="#000" stroke-linecap="round" stroke-width="1"/>
    <path id="Path_12" data-name="Path 12" d="M7.59,28.39C8.3,19.3,2.11,12.17.36.85M9.04,26.59C6.23,16.42,1.24,5.83.12-1.66" transform="translate(1363.304 -1011.633)" fill="none" stroke="#000" stroke-linecap="round" stroke-width="1"/>
    <path id="Path_13" data-name="Path 13" d="M-12.94,28.43C-6.77,19.48-7.51,12.33.36.85M-11.48,26.63C-6.85,16.6-4.4,6,.12-1.66" transform="translate(1363.304 -1011.633)" fill="none" stroke="#000" stroke-linecap="round" stroke-width="1"/>
    <path id="Path_14" data-name="Path 14" d="M-12.68,85.71C-6.15,91.79-7.05,99.69,0,114.77M-11.22,83.91c4.38,10.5,6.61,20.43,10.98,28.34" transform="translate(1363.304 -1011.633)" fill="none" stroke="#000" stroke-linecap="round" stroke-width="1"/>
    <path id="Path_15" data-name="Path 15" d="M7.84,86.2C8.91,92.01,2.56,99.77,0,114.77M9.3,84.4C6.24,94.57,1.03,104.32-.24,112.25" transform="translate(1363.304 -1011.633)" fill="none" stroke="#000" stroke-linecap="round" stroke-width="1"/>
    <text id="WebSocket" transform="translate(1421.603 -967.468)" font-size="16" font-family="Virgil3YOFF, 'Virgil \33  YOFF'"><tspan x="-40.888" y="0">WebSocket</tspan></text>
    <text id="_HTTP" data-name="/ HTTP" transform="translate(1408.608 -944.309)" font-size="16" font-family="Virgil3YOFF, 'Virgil \33  YOFF'"><tspan x="-32.912" y="0">/ HTTP</tspan></text>
    <path id="Path_16" data-name="Path 16" d="M.33-1.12-.32,89.91,1.7,93.34l16.02,1.8,24.61,3.44,23.66-2.02,17.4-7.29L81-1.84l-.4-.61-1.42.41-6.4-2.13L40.9-9.42,9.18-4.96,2.83-4.98,1.25-1.59" transform="translate(1310.625 -660.062)" fill="#ced4da" fill-rule="evenodd"/>
    <path id="Path_17" data-name="Path 17" d="M.71-.42c.05,13.19.69,64.53.64,79.37S-.22,86.33.36,88.61s1.54,2.8,4.5,4.03a51.292,51.292,0,0,0,13.27,3.32c6.53.91,17.84,2.19,25.93,2.1s16.42-1.54,22.62-2.64a74.094,74.094,0,0,0,14.57-3.97c2.67-1.17,1.12-1.22,1.5-3.09s.81,5.56.75-8.1-.79-60.48-1.1-73.88.22-4.79-.76-6.51S79.12-2.97,76.5-3.95,72-5.13,65.92-6.03s-18.2-3.15-25.9-3.32S25.92-7.9,19.73-7.03,6.19-5.32,2.88-4.11.45-.25-.15.25s-.51-1.32-.6-1.32m.38-.3C-.48,11.9.94,64.82.96,80S-.96,87.45-.22,89.71s2.3,2.77,5.64,3.85a68.458,68.458,0,0,0,14.44,2.59c6.69.64,17.87,1.61,25.69,1.23s15.36-2.39,21.21-3.46,11.47-1.8,13.9-2.96.63-2.06.71-3.99-.44,5.7-.2-7.55,1.81-58.68,1.64-71.94S81.16,1.82,80.15-.15s-.98-3.24-3.42-4.15-5.15-.37-11.21-1.33S47.84-9.49,40.39-10.05A73.291,73.291,0,0,0,20.86-8.96C14.95-7.86,8.67-5.07,4.94-3.4A26.382,26.382,0,0,0-1.49,1.09c-.63.39,2.47-1.8,2.62-2.16" transform="translate(1310.625 -660.062)" fill="none" stroke="#495057" stroke-linecap="round" stroke-width="1" fill-rule="evenodd"/>
    <path id="Path_18" data-name="Path 18" d="M.17,1.05c.14.55-.74,1.88,1.08,2.92A35.374,35.374,0,0,0,11.14,7.3c3.74.61,7.2.12,12.55.37S35.98,9.05,43.22,8.85,61.06,7.26,67.1,6.46s9.82-1.32,12.35-2.38S81.77.69,82.29.11M-1.2.57A33.516,33.516,0,0,1,3.48,2.04c1.89.78,3.29,2.19,6.67,3.24a71.158,71.158,0,0,0,13.6,3.04c5.84.67,14.55.96,21.46.99s14.21.23,20-.79A56.194,56.194,0,0,0,79.94,3.18C82.59,1.77,80.96.63,81.11.07" transform="translate(1311.253 -599.689)" fill="none" stroke="#495057" stroke-linecap="round" stroke-width="1"/>
    <path id="Path_19" data-name="Path 19" d="M1.08-.95c.3.51-.4,2.94,1.45,4.15s6.2,2.31,9.64,3.13a66.662,66.662,0,0,0,11,1.83A182,182,0,0,0,43.73,9.39,155.285,155.285,0,0,0,65.35,7.23,77.263,77.263,0,0,0,80.59,2.95C83.56,1.67,82.63.23,83.13-.46M.18,1.18c.12.66-.34,2.29,1.58,3.34s6.43,2.19,9.96,2.95a80.866,80.866,0,0,0,11.24,1.6c5.11.45,12.17,1.58,19.37,1.07S60.26,7.48,66.2,6.04,75.32,2.6,78.02,1.46,81.65-.68,82.4-.81" transform="translate(1310.141 -630.52)" fill="none" stroke="#495057" stroke-linecap="round" stroke-width="1"/>
    <path id="Path_20" data-name="Path 20" d="M59.65,1.56c7.46.65,15.53,1.7,19.01,3.17s4.61,3.78,1.89,5.64-10.56,4.55-18.23,5.54-19.27.77-27.79.43-17.66-1.06-23.27-2.46S1.35,9.7.87,7.94,3.21,4.52,8.41,3.31A135.348,135.348,0,0,1,32.08.67c9.94-.36,29.22.15,35.98.46s5,1.04,4.57,1.39M34.48.92C42.52.18,53.89-.92,61.52-.31S77.09,2.88,80.3,4.6s3.54,3.84.46,5.45-11.13,3.03-18.95,4.21-19.31,3.02-28,2.9A104.387,104.387,0,0,1,9.67,13.52C4.26,11.98,1.35,9.63,1.36,7.86S4.29,4.03,9.74,2.92,29.7,1.5,34.03,1.2s1.38-.19,1.67-.09" transform="translate(1309.104 -668.235)" fill="#ced4da"/>
    <path id="Path_21" data-name="Path 21" d="M33.12-.19c8.06-.25,20.87.97,28.45,1.87S75.48,3.67,78.59,5.2s4.38,3.98,1.6,5.68-10.67,3.75-18.24,4.57-18.49.66-27.19.38S15.55,14.95,9.73,13.8-.1,10.62-.13,8.94,3.04,5.05,9.58,3.72,33.48,1.58,39.14.95s4.41-1.1,4.39-.99M31.11-.63a143.125,143.125,0,0,1,26.23.52c7.98.93,17.85,3.34,21.67,5.07s3.48,3.59,1.25,5.33-7.78,4.24-14.61,5.12-17.34.58-26.39.18-21.52-1.28-27.88-2.58S1.68,9.17,1.09,7.77,3.13,6,7.82,4.59,25.52.14,29.25-.7s.82.05.94.27" transform="translate(1309.104 -668.235)" fill="none" stroke="#495057" stroke-linecap="round" stroke-width="1"/>
    <path id="Path_22" data-name="Path 22" d="M8.03-.16C9.18.29,9.81,2.17,10.39,3.3A9.041,9.041,0,0,1,11.5,6.67a5.364,5.364,0,0,1-.58,3.72A11.052,11.052,0,0,1,6.5,13.8a3.953,3.953,0,0,1-3.78-1.02A11.032,11.032,0,0,1-.38,7.99,6.776,6.776,0,0,1,.66,3.4a5.811,5.811,0,0,1,3.2-2.09A9.848,9.848,0,0,1,8.14.77C9.07,1,9.2,2.68,9.4,2.74m-1.96-3c.86.13.82,1.63,1.42,2.92s2.06,3.42,2.21,4.82a4.86,4.86,0,0,1-1.35,3.57,8.947,8.947,0,0,1-3.5,2.14c-.94.28-1.17-.02-2.12-.47S1.2,11.89.5,10.54A11.069,11.069,0,0,1-.11,4.61,5.417,5.417,0,0,1,2.66.88c1.31-.55,4.26.43,5.06.45S7.5.96,7.45.98" transform="translate(1375.967 -645.256)" fill="#ced4da"/>
    <path id="Path_23" data-name="Path 23" d="M7.21.32c1.34.23,3.5.3,4.26,1.53s.51,4.28.27,5.9a7.239,7.239,0,0,1-1.69,3.81c-.87,1.03-2.14,2.26-3.49,2.33a7.729,7.729,0,0,1-4.58-1.87A6.158,6.158,0,0,1,.4,8.12a8.3,8.3,0,0,1,.79-4.31,6.1,6.1,0,0,1,3-2.7A17.9,17.9,0,0,1,9.1.51C9.82.49,8.57,1,8.5,1M4.89-.6c1.1-.13,2.77,2.16,3.98,3.06s2.87,1.01,3.26,2.34-.31,4.11-.9,5.66-1.27,3.36-2.62,3.59-3.96-1.71-5.45-2.24S.44,11.78-.3,10.85a5.585,5.585,0,0,1-.95-4.64C-.7,4.56,1.99,1.94,3,.9S4.5.29,4.82-.03s.02-1.25.11-.99" transform="translate(1375.967 -645.256)" fill="none" stroke="#495057" stroke-linecap="round" stroke-width="1"/>
    <path id="Path_24" data-name="Path 24" d="M5.15-.45A6.4,6.4,0,0,1,10.09.69c1.06.98,1.31,3.33,1.43,4.74a9.163,9.163,0,0,1-.72,3.71c-.36,1.17-.55,2.84-1.47,3.35s-2.61.06-4.04-.29S1.7,11.35.74,10.39A4.448,4.448,0,0,1-.45,6.43,12.291,12.291,0,0,1,2.41,1.07,7.333,7.333,0,0,1,7.01-.68c1.14.05,2.32,1.8,2.26,2.08M7.05-1.3c1.28-.07,3.36,1.79,4.42,2.96A6.359,6.359,0,0,1,13.42,5.7c-.06,1.34-1.26,2.67-2.31,4.01s-2.67,3.62-4.01,4S4,12.9,3.09,11.97,2.08,9.42,1.63,8.09.12,5.05.35,4s1.3-1.7,2.68-2.2A34.245,34.245,0,0,1,8.64,1c.85-.11-.4.43-.5.15" transform="translate(1375.967 -616.643)" fill="#ced4da"/>
    <path id="Path_25" data-name="Path 25" d="M5.24.64C6.41.37,7.07.12,8.26.72s3.52,2.14,4.15,3.51.09,3.44-.35,4.68a4.78,4.78,0,0,1-2.31,2.72,10.634,10.634,0,0,1-4.82,1.46,5.527,5.527,0,0,1-3.76-1.87A6.273,6.273,0,0,1,0,7.09,7.793,7.793,0,0,1,2,3.13,16.517,16.517,0,0,1,6.19-.22C7.06-.58,7.34.85,7.23.99M5.15-.85A13.64,13.64,0,0,1,10.72,1.6c1.06.98.51,2.06.76,3.45s.98,3.78.7,4.87-.93,1.39-2.41,1.66-5.15.44-6.47-.04S2.27,9.51,1.84,8.7.79,7.99.69,6.65.36,1.96,1.2.71,5.15-.72,5.72-.89,4.45-.67,4.6-.34" transform="translate(1375.967 -616.643)" fill="none" stroke="#495057" stroke-linecap="round" stroke-width="1"/>
    <path id="Path_26" data-name="Path 26" d="M3.6.98A6.867,6.867,0,0,1,7.68.15c1.38.3,3.5,1.18,4.18,2.59s.23,4.23-.11,5.85-.84,3.17-1.92,3.86-3.29.49-4.57.24a6.191,6.191,0,0,1-3.07-1.75A5.463,5.463,0,0,1,.56,8.16C.21,6.84-.55,4.28.04,3.06S3.05,1.37,4.11.83A9.525,9.525,0,0,1,6.39-.19M4.96.69A14.823,14.823,0,0,1,9.25,3.25a5,5,0,0,1,1.58,3.29,11.3,11.3,0,0,1-1.09,3.97c-.41,1.1-.32,2.06-1.36,2.62s-3.49,1.35-4.84.7S.82,10.78.26,9.26A6.511,6.511,0,0,1,.2,4.7C.75,3.58,2.39,3.18,3.56,2.54S6.64,1.1,7.26.83s.4.07.01.09" transform="translate(1375.967 -585.544)" fill="#ced4da"/>
    <path id="Path_27" data-name="Path 27" d="M4.45-.47C5.58-.92,6.66.38,7.74,1.07s2.5,1.36,3.19,2.59a8.433,8.433,0,0,1,.99,4.8c-.27,1.32-1.67,2.39-2.61,3.13a5.106,5.106,0,0,1-3.04,1.32,5.89,5.89,0,0,1-3.42-1.34A5.805,5.805,0,0,1,.86,8.21,10.525,10.525,0,0,1,1.7,3.4,9.95,9.95,0,0,1,4.39.33,2.8,2.8,0,0,1,6.13-.38M7.33,1.5c1.36.44,3.44.3,4.19,1.49s.54,3.97.31,5.65-.53,3.85-1.68,4.44-3.69-.82-5.24-.94-3.04.84-4.06.18a5.094,5.094,0,0,1-2.1-4.18c.17-1.66,2.4-4.45,3.12-5.75S2.17.83,3.07.32A9.819,9.819,0,0,1,7.29-.71c.76.19.19,1.59.38,2.13" transform="translate(1375.967 -585.544)" fill="none" stroke="#495057" stroke-linecap="round" stroke-width="1"/>
    <path id="Path_28" data-name="Path 28" d="M-1.85,1.82C69.53.53,141.36.18,183.75-.37M-.43-.84C71.72-.94,146.06-1.21,182.43.17m.46-.33c-.42,33.06,2.72,64.07,1.84,86.83M183.98.24c-1.43,22.64-.19,44.76-.97,86.88m-.31-.17C114.68,90.68,46.42,89.03,1.66,88.41M183,87.17c-65.28-.61-128.75-.2-183.79-.47m-1.01-.37C1.67,67.13-.77,47.7-1.8,1.31M-.41,86.82C-1.13,65.35.05,41.78-.78-.71" transform="translate(1275.626 -886.458)" fill="none" stroke="#000" stroke-linecap="round" stroke-width="1"/>
    <text id="WebServer" transform="translate(1367.173 -837.236)" font-size="20" font-family="Virgil3YOFF, 'Virgil \33  YOFF'"><tspan x="-49.29" y="0">WebServer</tspan></text>
    <path id="Path_29" data-name="Path 29" d="M-1.01,1.16C46.36.15,89.8-2.96,183.02-.99M.46.89C65,.94,130.23,2.76,183.36-.54m-.79-1.05c2.36,30.32-.4,54.42-1.39,89.44M183.54.61c.42,29.82,1.07,59.77.4,86.61m-1.04-.26c-37.2.26-74.98,1.18-183.85,2.43m183.62-1.24C134.88,87.53,87.38,86.99.29,86.58m-.62,1.96C.16,51.27-.95,18.77,1.32.74M-.55,87.21C1.12,63.01.43,38.8-.92.33" transform="translate(1557.565 -883.429)" fill="none" stroke="#000" stroke-linecap="round" stroke-width="1"/>
    <text id="MessageHandler" transform="translate(1649.112 -834.207)" font-size="20" font-family="Virgil3YOFF, 'Virgil \33  YOFF'"><tspan x="-74.76" y="0">MessageHandler</tspan></text>
    <path id="Path_30" data-name="Path 30" d="M-1.64-.84c63.4,4.11,128.18,2.95,184.21-.88M-.92.05C69.66-.73,138.57-1.99,182.92.6m1.92,1.09c-3.44,30.62-1.96,62.54-2.46,87.29m.31-89.27c-1.08,34.77.27,69.51.74,88.2m-.33-1.74c-36.54,1.82-71.5-.61-181.4,1.18m181.66.12c-57-.81-115.48-.37-184.26.94m1.14-.15C.54,63.29.22,40.05-.93,1m.04,87.13C-.84,65.51-1.31,44.46.29-.77" transform="translate(1833.271 -886.264)" fill="none" stroke="#000" stroke-linecap="round" stroke-width="1"/>
    <text id="BotRouter" transform="translate(1924.817 -837.042)" font-size="20" font-family="Virgil3YOFF, 'Virgil \33  YOFF'"><tspan x="-50.31" y="0">BotRouter</tspan></text>
    <path id="Path_31" data-name="Path 31" d="M-.37-.18C265.46-2.38,532-2.6,791.82-.53M-.28-.01c208.46.1,416.74.29,791.82.16m-.5-.75c1.2,67.48.31,134.67-.72,190.84M790.5.57c2.17,64.4,3.11,130.36.08,189.11m.44-1.28c-293.07.28-587.89.64-791.24,1m791.24-.7c-205.04,3.63-409.75,3.66-790.66.41m-1.45,1.73C0,117.69.52,45.53-1.98-.74M-.56,189.8C-.07,120.62.63,50.87-.74.38" transform="translate(1252.008 -930.489)" fill="none" stroke="#000" stroke-linecap="round" stroke-width="1"/>
    <text id="Manager" transform="translate(1640.411 -904.519)" font-size="24.135" font-family="Virgil3YOFF, 'Virgil \33  YOFF'"><tspan x="-47.51" y="0">Manager</tspan></text>
    <path id="Path_32" data-name="Path 32" d="M0,0C14.77.3,73.86,1.49,88.63,1.79" transform="translate(1466.978 -840.516)" fill="none" stroke="#495057" stroke-linecap="round" stroke-width="1.5" stroke-dasharray="8 9"/>
    <path id="Path_33" data-name="Path 33" d="M28.39-9.69C18.08-6.17,7.78-2.65,0,0" transform="translate(1466.978 -840.516)" fill="none" stroke="#495057" stroke-linecap="round" stroke-width="1.5"/>
    <path id="Path_34" data-name="Path 34" d="M27.98,10.83C17.82,6.9,7.66,2.97,0,0" transform="translate(1466.978 -840.516)" fill="none" stroke="#495057" stroke-linecap="round" stroke-width="1.5"/>
    <path id="Path_35" data-name="Path 35" d="M60.24,11.48c10.3-3.52,20.61-7.04,28.39-9.69" transform="translate(1466.978 -840.516)" fill="none" stroke="#495057" stroke-linecap="round" stroke-width="1.5"/>
    <path id="Path_36" data-name="Path 36" d="M60.65-9.04C70.81-5.11,80.97-1.18,88.63,1.79" transform="translate(1466.978 -840.516)" fill="none" stroke="#495057" stroke-linecap="round" stroke-width="1.5"/>
    <path id="Path_37" data-name="Path 37" d="M0,0C11.71-.14,58.57-.69,70.28-.83" transform="translate(1755.046 -840.634)" fill="none" stroke="#495057" stroke-linecap="round" stroke-width="1.5" stroke-dasharray="8 9"/>
    <path id="Path_38" data-name="Path 38" d="M28.07-10.59C20.08-7.58,12.09-4.56,0,0" transform="translate(1755.046 -840.634)" fill="none" stroke="#495057" stroke-linecap="round" stroke-width="1.5"/>
    <path id="Path_39" data-name="Path 39" d="M28.31,9.93C20.25,7.1,12.19,4.28,0,0" transform="translate(1755.046 -840.634)" fill="none" stroke="#495057" stroke-linecap="round" stroke-width="1.5"/>
    <path id="Path_40" data-name="Path 40" d="M42.21,9.77C50.2,6.75,58.19,3.73,70.28-.83" transform="translate(1755.046 -840.634)" fill="none" stroke="#495057" stroke-linecap="round" stroke-width="1.5"/>
    <path id="Path_41" data-name="Path 41" d="M41.97-10.75C50.03-7.93,58.09-5.1,70.28-.83" transform="translate(1755.046 -840.634)" fill="none" stroke="#495057" stroke-linecap="round" stroke-width="1.5"/>
    <path id="Path_42" data-name="Path 42" d="M-.24.68C2.02,19.8,11.38,96.46,13.46,115.85M-1.83-.01C.3,19.8,9.85,98.02,12.6,117.22" transform="translate(1359.429 -793.298) rotate(6.965)" fill="none" stroke="#495057" stroke-linecap="round" stroke-width="1"/>
    <path id="Path_43" data-name="Path 43" d="M14.44,27.71C8.57,17.92,6.64,12.9-1.32-.92M13.16,27.14A216.737,216.737,0,0,1-.31-.21" transform="translate(1359.429 -793.298) rotate(6.965)" fill="none" stroke="#495057" stroke-linecap="round" stroke-width="1"/>
    <path id="Path_44" data-name="Path 44" d="M-5.93,30.16C-5.9,19.69-1.89,13.96-1.32-.92m-5.9,30.51c2-7.7,3.83-17.09,6.91-29.8" transform="translate(1359.429 -793.298) rotate(6.965)" fill="none" stroke="#495057" stroke-linecap="round" stroke-width="1"/>
    <path id="Path_45" data-name="Path 45" d="M-.09,90.86c2.59,5.81,8.64,16.33,11.61,24.76M-1.38,90.29a228.823,228.823,0,0,0,13.91,26.04" transform="translate(1359.429 -793.298) rotate(6.965)" fill="none" stroke="#495057" stroke-linecap="round" stroke-width="1"/>
    <path id="Path_46" data-name="Path 46" d="M20.26,88.2c-3.31,6.54-3.19,17.84-8.74,27.42m7.45-27.99c-1.98,9.99-4.17,18.21-6.44,28.7" transform="translate(1359.429 -793.298) rotate(6.965)" fill="none" stroke="#495057" stroke-linecap="round" stroke-width="1"/>
    <text id="UserData" transform="translate(1417.117 -720.729)" fill="#495057" font-size="16" font-family="Virgil3YOFF, 'Virgil \33  YOFF'"><tspan x="-39.976" y="0">UserData</tspan></text>
    <text id="message_" data-name="message &amp;" transform="translate(2027.802 -689.686)" fill="#495057" font-size="20" font-family="Virgil3YOFF, 'Virgil \33  YOFF'"><tspan x="-52.04" y="0">message &amp;</tspan></text>
    <text id="context" transform="translate(2027.802 -664.686)" fill="#495057" font-size="20" font-family="Virgil3YOFF, 'Virgil \33  YOFF'"><tspan x="-38.74" y="0">context</tspan></text>
    <text id="answer" transform="translate(1888.677 -562.885)" fill="#495057" font-size="20" font-family="Virgil3YOFF, 'Virgil \33  YOFF'"><tspan x="-32.87" y="0">answer</tspan></text>
    <path id="Path_47" data-name="Path 47" d="M.46,1.24C60.44-.03,118.13,2.39,183.57.33M-.07-.47C66.57,1,134.04.29,182.42.41m-.08,1.45c1.3,26.84.23,56.27,2.18,85.25M182.42.56c.72,25.72-.06,53.46.94,86.74m.49-.35c-47.83,2.99-92.54,3.28-184.93.55m185-.3c-46.51-.6-94.1-1.78-183.33-.27m-2.17.4C-.46,71.4.26,50.33-1.35,1.24M-.5,88.43C-1.25,68.29.21,47.39.07.13" transform="translate(1838.956 -420.366)" fill="none" stroke="#000" stroke-linecap="round" stroke-width="1"/>
    <text id="Request_Handler" data-name="Request Handler" transform="translate(1930.502 -371.145)" font-size="20" font-family="Virgil3YOFF, 'Virgil \33  YOFF'"><tspan x="-78.63" y="0">Request Handler</tspan></text>
    <path id="Path_48" data-name="Path 48" d="M-1.8-.98c66.65-.07,135.9-.04,184.29-.69M.73-.46c56.65-.8,112.87-1.98,181.64-.06m-.44,1.83c1.45,27.26-.07,55.63,1.58,86.13m-.4-88.3c-.6,30.56-.07,61.24.06,87.8m.63.71c-73.16-.9-142.7.05-184.09-.47m183.95.42c-55.1-.43-110.12.57-182.98-1.05m-2.25-.47C1.24,63.12,1.75,36.1-.8.45m.16,86.1C.38,54.46.76,20.7.71-.67" transform="translate(1552.102 -420.749)" fill="none" stroke="#000" stroke-linecap="round" stroke-width="1"/>
    <text id="Pattern" transform="translate(1644.357 -384.624)" font-size="20" font-family="Virgil3YOFF, 'Virgil \33  YOFF'"><tspan x="-37.8" y="0">Pattern</tspan></text>
    <text id="Recognizer" transform="translate(1644.357 -359.624)" font-size="20" font-family="Virgil3YOFF, 'Virgil \33  YOFF'"><tspan x="-50.57" y="0">Recognizer</tspan></text>
    <path id="Path_49" data-name="Path 49" d="M-.53-1.24c42.01.68,82.52-1.7,183.57-.4M-.89.37C52.14-1.34,104.88-1.03,182.48-.64m-1.35,2.32a827.044,827.044,0,0,1,.66,86.89m.99-89.13c.7,32.53.3,62.95-.44,88.67m-.97-1.61c-62.52.37-126.65-1.37-179.64,2.73M182.1,86.62c-57.02-.31-114.78-.37-181.24.55m-.35-.03c-1.1-22.73-.83-44.99.75-85.68M.66,86.68C.67,62.82-.72,38.78.84.35" transform="translate(1549.852 -252.657)" fill="none" stroke="#000" stroke-linecap="round" stroke-width="1"/>
    <text id="Model-2" data-name="Model" transform="translate(1640.3 -218.668)" font-size="20" font-family="Virgil3YOFF, 'Virgil \33  YOFF'"><tspan x="-25.99" y="0">Model</tspan></text>
    <text id="_TensorFlow_" data-name="(TensorFlow)" transform="translate(1640.3 -193.668)" font-size="20" font-family="Virgil3YOFF, 'Virgil \33  YOFF'"><tspan x="-59.28" y="0">(TensorFlow)</tspan></text>
    <path id="Path_50" data-name="Path 50" d="M-1.62.86C55.25,1.84,110.69.9,183.87-.9M.24-.29C74.01.81,146.32.28,182.88.08m.32-.45c-2.35,30.6.49,62.16.25,88.98M182.14-.23c-.22,22.26.55,42.45.7,87.84m1.61,1.37c-39.7-1.89-74.35-.19-185.01-.27m183.11-1.74c-53.74,2.78-106.41,1.85-183.5.64m-.94-1.37C-.74,60.6.31,35.57,1.85-.99M-.96,86.83C-.08,60.82,1.1,35.76.76.6" transform="translate(1266.266 -427.891)" fill="none" stroke="#000" stroke-linecap="round" stroke-width="1"/>
    <text id="Static_Answer" data-name="Static Answer" transform="translate(1358.521 -391.766)" font-size="20" font-family="Virgil3YOFF, 'Virgil \33  YOFF'"><tspan x="-68.64" y="0">Static Answer</tspan></text>
    <text id="Handler" transform="translate(1358.521 -366.766)" font-size="20" font-family="Virgil3YOFF, 'Virgil \33  YOFF'"><tspan x="-34.76" y="0">Handler</tspan></text>
    <path id="Path_51" data-name="Path 51" d="M.83.28C62-1.89,123.4-.52,182.13-1.39M-.15-.8C38.58.48,77.76.43,183.76-.27m1.08-1.22c-2.7,26.27-2.97,49.68-1.42,87.7m.55-86.6c0,25.61-.48,49.04.07,88.68m-1.47-1.57C124.43,89.56,69,89.45-1.99,88.55m185.08-.94c-38.81-1.69-77.86-2.56-183.21-.59m-.77.72c-1.1-28.85-.78-57.13.84-88.94M-.78,87.23C-.13,62.3.64,37.03.04.4" transform="translate(1548.95 -81.326)" fill="none" stroke="#000" stroke-linecap="round" stroke-width="1"/>
    <text id="Mood_Analayser" data-name="Mood Analayser" transform="translate(1641.205 -36.787)" font-size="20" font-family="Virgil3YOFF, 'Virgil \33  YOFF'"><tspan x="-75.4" y="0">Mood Analayser</tspan></text>
    <path id="Path_52" data-name="Path 52" d="M-.58.43C185.13-2.65,371.28-3.55,795.19.46M.37.07C212.84-1.28,426.2-1.55,795.44.12m.88-.16c1.39,182.65.82,364.75-.37,556.68M795.75-.1c1.95,123.54,1.72,247.34.24,556.12m-.58.13c-268.43.38-538.12.02-795.61.46m795.82-.7c-264.77-2.36-529.12-2.39-795.89.29m.21.8C.02,367.95-.91,180.08.73-.24M.2,556.41C.66,365.38.51,174.55-.32-.15" transform="translate(1247.294 -514.372)" fill="none" stroke="#495057" stroke-linecap="round" stroke-width="2"/>
    <text id="Bot_Instance" data-name="Bot Instance" transform="translate(1640.467 -478.642)" font-size="24.135" font-family="Virgil3YOFF, 'Virgil \33  YOFF'"><tspan x="-79.49" y="0">Bot Instance</tspan></text>
    <path id="Path_53" data-name="Path 53" d="M-1.06-.87c-15.41-.15-76.6-1.09-91.99-1.21" transform="translate(1546.286 -386.427)" fill="none" stroke="#495057" stroke-linecap="round" stroke-width="1.5" stroke-dasharray="8 9"/>
    <path id="Path_54" data-name="Path 54" d="M-30.84,10.84C-22.11,8-14.25,5.97-2.3-1.19" transform="translate(1546.286 -386.427)" fill="none" stroke="#495057" stroke-linecap="round" stroke-width="1.5"/>
    <path id="Path_55" data-name="Path 55" d="M-30.56-9.68c8.46,2.3,16.25,5.4,28.26,8.49" transform="translate(1546.286 -386.427)" fill="none" stroke="#495057" stroke-linecap="round" stroke-width="1.5"/>
    <path id="Path_56" data-name="Path 56" d="M-66.2-10.17C-71.84-8.55-78.16-5.62-94.3-2.4" transform="translate(1546.286 -386.427)" fill="none" stroke="#495057" stroke-linecap="round" stroke-width="1.5"/>
    <path id="Path_57" data-name="Path 57" d="M-66.44,10.35C-71.82,6.84-78.08,4.63-94.3-2.4" transform="translate(1546.286 -386.427)" fill="none" stroke="#495057" stroke-linecap="round" stroke-width="1.5"/>
    <path id="Path_58" data-name="Path 58" d="M.77.36c.57,12.25,2.4,61.78,2.73,73.91" transform="translate(1638.4 -157.69)" fill="none" stroke="#495057" stroke-linecap="round" stroke-width="1.5" stroke-dasharray="8 9"/>
    <path id="Path_59" data-name="Path 59" d="M12.7,29.97C9.18,20.3,3.83,11.26,1.98,2.1" transform="translate(1638.4 -157.69)" fill="none" stroke="#495057" stroke-linecap="round" stroke-width="1.5"/>
    <path id="Path_60" data-name="Path 60" d="M-7.8,30.75C-5,20.71-4.03,11.42,1.98,2.1" transform="translate(1638.4 -157.69)" fill="none" stroke="#495057" stroke-linecap="round" stroke-width="1.5"/>
    <path id="Path_61" data-name="Path 61" d="M-7.09,48.27c3.78,7.34,5.38,15.44,11.8,27.74" transform="translate(1638.4 -157.69)" fill="none" stroke="#495057" stroke-linecap="round" stroke-width="1.5"/>
    <path id="Path_62" data-name="Path 62" d="M13.42,47.59c-2.54,7.68-7.27,15.99-8.71,28.42" transform="translate(1638.4 -157.69)" fill="none" stroke="#495057" stroke-linecap="round" stroke-width="1.5"/>
    <path id="Path_63" data-name="Path 63" d="M-1.03-.22c-.06,12.36.71,62.19.65,74.97" transform="translate(1641.962 -330.856)" fill="none" stroke="#495057" stroke-linecap="round" stroke-width="1.5" stroke-dasharray="8 9"/>
    <path id="Path_64" data-name="Path 64" d="M9.12,29.61C4.91,19.42,4.62,11.76.11-1.36" transform="translate(1641.962 -330.856)" fill="none" stroke="#495057" stroke-linecap="round" stroke-width="1.5"/>
    <path id="Path_65" data-name="Path 65" d="M-11.4,29.8C-9.5,19.73-3.68,12.01.11-1.36" transform="translate(1641.962 -330.856)" fill="none" stroke="#495057" stroke-linecap="round" stroke-width="1.5"/>
    <path id="Path_66" data-name="Path 66" d="M-11.19,48.37C-8.9,55.1-2.94,64.17.76,73.62" transform="translate(1641.962 -330.856)" fill="none" stroke="#495057" stroke-linecap="round" stroke-width="1.5"/>
    <path id="Path_67" data-name="Path 67" d="M9.33,48.24C5.52,54.83,5.36,63.94.76,73.62" transform="translate(1641.962 -330.856)" fill="none" stroke="#495057" stroke-linecap="round" stroke-width="1.5"/>
    <path id="Path_68" data-name="Path 68" d="M.45-.49C.67,20.32.35,104.29.2,125.15M-.78-1.79c.17,20.42.18,103.83.04,125.15" transform="translate(1359.262 -556.921)" fill="none" stroke="#495057" stroke-linecap="round" stroke-width="1"/>
    <path id="Path_69" data-name="Path 69" d="M9.86,27.75C9.55,20.87,6.7,14.81-.32-2.19M9.69,28.03A145.329,145.329,0,0,0,.33,0" transform="translate(1359.262 -556.921)" fill="none" stroke="#495057" stroke-linecap="round" stroke-width="1"/>
    <path id="Path_70" data-name="Path 70" d="M-10.66,27.73c3.89-6.95,5.23-13,10.34-29.92m-10.51,30.2C-6.64,18.87-3.61,9.89.33,0" transform="translate(1359.262 -556.921)" fill="none" stroke="#495057" stroke-linecap="round" stroke-width="1"/>
    <path id="Path_71" data-name="Path 71" d="M-11.74,95.18c4,4.58,5.33,10.06,10.23,26.48m-10.41-26.2c4.27,7.62,7.28,15.39,11.06,28.39" transform="translate(1359.262 -556.921)" fill="none" stroke="#495057" stroke-linecap="round" stroke-width="1"/>
    <path id="Path_72" data-name="Path 72" d="M8.78,95.24c-.19,4.64-3.07,10.11-10.29,26.42M8.6,95.52c-1.82,7.77-4.91,15.53-9.46,28.33" transform="translate(1359.262 -556.921)" fill="none" stroke="#495057" stroke-linecap="round" stroke-width="1"/>
    <text id="pre-defined" transform="translate(1421.256 -491.273)" fill="#495057" font-size="16" font-family="Virgil3YOFF, 'Virgil \33  YOFF'"><tspan x="-43.048" y="0">pre-defined</tspan></text>
    <text id="answers" transform="translate(1421.256 -471.273)" fill="#495057" font-size="16" font-family="Virgil3YOFF, 'Virgil \33  YOFF'"><tspan x="-31.328" y="0">answers</tspan></text>
    <path id="Path_73" data-name="Path 73" d="M-1.12.51C-.79,61,.76,303.21,1.34,363.79M.49-.27C.71,60.35.07,304.31.33,365.24" transform="translate(1953.78 -790.259)" fill="none" stroke="#495057" stroke-linecap="round" stroke-width="1"/>
    <path id="Path_74" data-name="Path 74" d="M-9.1,336.86c1.59,8.61,4.45,12.5,9.15,29.88m-10.4-30.51c4.54,11.32,9.12,22.92,11.49,28.02" transform="translate(1953.78 -790.259)" fill="none" stroke="#495057" stroke-linecap="round" stroke-width="1"/>
    <path id="Path_75" data-name="Path 75" d="M11.43,336.85C8,345.28,5.87,349.16.05,366.74m10.12-30.52c-3.32,11.51-6.6,23.12-9.03,28.03" transform="translate(1953.78 -790.259)" fill="none" stroke="#495057" stroke-linecap="round" stroke-width="1"/>
    <path id="Path_76" data-name="Path 76" d="M.47-1.01C.92,59.46,1.8,302.75,1.77,363.7M-.75,1.08C-.35,61.66.44,304.83.99,365.11" transform="translate(1930.229 -790.888)" fill="none" stroke="#495057" stroke-linecap="round" stroke-width="1"/>
    <path id="Path_77" data-name="Path 77" d="M9.16,27.66C7.91,18.93,7.22,15.79.14-.06M11.13,26.71C7.86,16.27,2.85,6.8-.12-1.59" transform="translate(1930.229 -790.888)" fill="none" stroke="#495057" stroke-linecap="round" stroke-width="1"/>
    <path id="Path_78" data-name="Path 78" d="M-11.36,27.75C-8.02,18.91-4.11,15.76.14-.06M-9.39,26.79C-5.22,16.16-2.8,6.66-.12-1.59" transform="translate(1930.229 -790.888)" fill="none" stroke="#495057" stroke-linecap="round" stroke-width="1"/>
    <path id="Path_79" data-name="Path 79" d="M-1.14.31C-14.89-.17-69.55-1.54-83.09-2.06" transform="translate(1828.785 -375.554)" fill="none" stroke="#495057" stroke-linecap="round" stroke-width="1.5" stroke-dasharray="8 9"/>
    <path id="Path_80" data-name="Path 80" d="M-29.1,9.99C-22.61,9.08-16.61,4.54-2.54.74" transform="translate(1828.785 -375.554)" fill="none" stroke="#495057" stroke-linecap="round" stroke-width="1.5"/>
    <path id="Path_81" data-name="Path 81" d="M-28.52-10.52C-22.04-6.24-16.19-5.57-2.54.74" transform="translate(1828.785 -375.554)" fill="none" stroke="#495057" stroke-linecap="round" stroke-width="1.5"/>
    <path id="Path_82" data-name="Path 82" d="M-54.09-11.23c-7.83,3.33-16.28,3.58-30.4,9.61" transform="translate(1828.785 -375.554)" fill="none" stroke="#495057" stroke-linecap="round" stroke-width="1.5"/>
    <path id="Path_83" data-name="Path 83" d="M-54.72,9.28c-7.81-1.86-16.1-6.82-29.77-10.9" transform="translate(1828.785 -375.554)" fill="none" stroke="#495057" stroke-linecap="round" stroke-width="1.5"/>
    <path id="Path_84" data-name="Path 84" d="M.63-.82c136.28-.04,680.65.48,816.83.19M-.49,1.36c136.15-.33,680.83-3.12,817.11-3.64" transform="translate(1238.781 -1243.786)" fill="none" stroke="#495057" stroke-linecap="round" stroke-width="1"/>
    <text id="Before" transform="translate(1251.214 -1428)" fill="#0b7285" font-size="20" font-family="Virgil3YOFF, 'Virgil \33  YOFF'"><tspan x="-33.65" y="0">Training</tspan></text>
    <text id="Architecture" transform="translate(1282.496 -1162.39)" fill="#0b7285" font-size="20" font-family="Virgil3YOFF, 'Virgil \33  YOFF'"><tspan x="-59.78" y="0">Architecture</tspan></text>
    <text id="Python" transform="translate(2003.884 -490.944)" fill="#862e9c" font-size="20" font-family="Virgil3YOFF, 'Virgil \33  YOFF'"><tspan x="-32.1" y="0">Python</tspan></text>
    <text id="Go" transform="translate(2022.97 -906.623)" fill="#862e9c" font-size="20" font-family="Virgil3YOFF, 'Virgil \33  YOFF'"><tspan x="-13.73" y="0">Go</tspan></text>
    <path id="Path_85" data-name="Path 85" d="M11.2,2.01A20.912,20.912,0,0,1,24.52.81,20.175,20.175,0,0,1,34.81,8.69c2.15,3.33,2.86,8.32,2.58,12.13s-1.36,7.88-4.25,10.7-8.84,5.56-13.07,6.22-9.22.06-12.29-2.3-5.14-7.8-6.13-11.83-1.53-8.62.19-12.33S10.04,3,11.96,1.37s1.36-.14,1.41.07M18.36-.77c3.71-.44,8.78,2.37,12.16,4.83s7.24,5.9,8.11,9.94S37.6,24.76,35.75,28.29s-4.53,5.47-8.25,6.9-10.16,2.56-14.06,1.68a15.14,15.14,0,0,1-9.38-6.92C1.77,26.41-.86,20.02-.29,15.63s4.5-9.64,7.74-12,10.18-1.4,11.7-2.18-2.57-2.74-2.56-2.49" transform="translate(1719.344 -1353.313)" fill="none" stroke="#5f3dc4" stroke-linecap="round" stroke-width="1"/>
    <text id="LE" transform="translate(1738.279 -1330.252)" fill="#5f3dc4" font-size="13.888" font-family="Virgil3YOFF, 'Virgil \33  YOFF'"><tspan x="-8.639" y="0">LE</tspan></text>
    <path id="Path_86" data-name="Path 86" d="M11.59.71c3.54-1.74,9.54-.82,13.23.44a17.55,17.55,0,0,1,8.95,7.09,22.752,22.752,0,0,1,3.32,12.07c-.11,4.17-1.18,9.99-4.04,12.91s-8.88,4.42-13.12,4.57A20.765,20.765,0,0,1,7.58,34.15,19.759,19.759,0,0,1,.66,23.54,16.545,16.545,0,0,1,2.62,11.31C5.06,7.4,12.87,1.96,15.29.11s1.87-.3,1.88.08M14.25.71c3.58-1.19,9.29-.78,12.93.82a19.362,19.362,0,0,1,8.94,8.78c1.57,3.47,1.57,8.07.48,12a27.933,27.933,0,0,1-7.01,11.62c-3.01,2.81-7.11,5.36-11.09,5.27S8.56,36.17,5.74,33.39,2.27,26.67,1.6,22.51-.07,12.02,1.72,8.46s8.87-6.21,10.57-7.3-.56.37-.32.74" transform="translate(1398.809 -595.406)" fill="none" stroke="#5f3dc4" stroke-linecap="round" stroke-width="1"/>
    <text id="LE-2" data-name="LE" transform="translate(1417.744 -572.791)" fill="#5f3dc4" font-size="13.888" font-family="Virgil3YOFF, 'Virgil \33  YOFF'"><tspan x="-8.639" y="0">LE</tspan></text>
    <path id="Path_87" data-name="Path 87" d="M26.61,1.57c3.71,1.28,8.31,4.75,9.92,8.38s.8,9.1-.24,13.35-2.87,9.71-5.96,12.12-8.25,2.99-12.53,2.33A29.23,29.23,0,0,1,4.62,31.47,15.792,15.792,0,0,1-.49,21.02,21.687,21.687,0,0,1,3.11,8.68C5.43,5.32,9.12,1.87,13.48.81s12.86.84,15.78,1.55,1.7,2.28,1.73,2.68M18.55-1.39c4.15-.31,8.73,2.86,11.79,5.16s5.83,4.74,6.63,8.67-.37,11.21-1.83,14.95a12.789,12.789,0,0,1-6.96,7.49,26.229,26.229,0,0,1-13.25,2.27c-4.29-.57-10.22-2.66-12.47-5.7S.93,22.97,1.41,18.9,2.55,10.07,5.33,7,15.93,1.67,18.07.48s.23-.91.07-.59" transform="translate(1417.324 -841.854)" fill="none" stroke="#5f3dc4" stroke-linecap="round" stroke-width="1"/>
    <text id="LE-3" data-name="LE" transform="translate(1436.259 -819.239)" fill="#5f3dc4" font-size="13.888" font-family="Virgil3YOFF, 'Virgil \33  YOFF'"><tspan x="-8.639" y="0">LE</tspan></text>
    <path id="Path_88" data-name="Path 88" d="M17.54.37c3.83-.69,10.18.72,13.37,3.14s4.98,7.28,5.8,11.38.68,9.81-.86,13.2-4.64,5.73-8.39,7.15S17.34,37.42,13.4,36.6a15.882,15.882,0,0,1-9.57-6.3C1.46,27.1-1.1,21.45-.81,17.36S2.29,8.59,5.58,5.78,16.36,1.51,18.94.54s1.97-.76,2.11-.56m-.2-.48c3.52.23,7.26,4.49,9.88,7.24s5.12,5.54,5.85,9.29.67,9.59-1.48,13.22a22.039,22.039,0,0,1-11.43,8.54c-3.97,1.03-8.84-.81-12.38-2.36s-6.95-3.16-8.83-6.94S-.78,16.84.03,12.78,3.74,6.14,7.34,4.11,19.67.96,21.6.6s-2.31,1.2-2.73,1.33" transform="translate(1265.903 -1062.483)" fill="none" stroke="#5f3dc4" stroke-linecap="round" stroke-width="1"/>
    <text id="LE-4" data-name="LE" transform="translate(1284.837 -1039.868)" fill="#5f3dc4" font-size="13.888" font-family="Virgil3YOFF, 'Virgil \33  YOFF'"><tspan x="-8.639" y="0">LE</tspan></text>
    <path id="Path_89" data-name="Path 89" d="M11.38,2.33C14.74.19,20.59-.88,24.33.11s7.35,4.94,9.5,8.15,3.73,7.11,3.38,11.12a27.076,27.076,0,0,1-5.44,12.91c-2.67,3.2-6.82,6.01-10.58,6.28S12.6,36.14,9.18,33.9,1.9,28.71.64,25.11-.83,16.35,1.65,12.32,12.62,2.86,15.48.95s3.34-.4,3.3-.09m-6.17.46c3.27-1.53,8.15-.6,12.16.82s9.77,4.43,11.88,7.72,1.61,8.18.76,12.04-2.89,8.48-5.86,11.09a20.545,20.545,0,0,1-11.96,4.55A17.67,17.67,0,0,1,8.4,33.17,30.266,30.266,0,0,1,.74,21.37c-1.2-3.77-1.58-7.47.45-10.8s9.78-7.5,11.75-9.2.16-1.24.06-1" transform="translate(2029.057 -1355.706)" fill="none" stroke="#364fc7" stroke-linecap="round" stroke-width="1"/>
    <text id="NK" transform="translate(2048.311 -1333.006)" fill="#364fc7" font-size="13.888" font-family="Virgil3YOFF, 'Virgil \33  YOFF'"><tspan x="-8.937" y="0">NK</tspan></text>
    <path id="Path_90" data-name="Path 90" d="M10.55,2.18C14.01.45,20.68.34,24.6,1.31a16.486,16.486,0,0,1,9.46,6.73c2.24,3.24,4.33,8.57,3.97,12.74A21.473,21.473,0,0,1,31.9,33.01a19.739,19.739,0,0,1-12.07,4.83c-3.97.05-8.47-2.1-11.71-4.52S1.49,27.29.42,23.35-.81,13.53,1.65,9.69,12.4,1.92,15.14.36s2.93-.44,2.92-.03m-2.75.74C19-.32,23.77-.89,27.44,1.03s8.44,7.83,9.92,11.56.3,7.16-1.07,10.8-4.07,8.53-7.17,11.04-7.38,4.37-11.48,3.99S7.36,35.27,4.57,32.15.8,24.02.87,19.68,2.66,9.29,4.99,6.09,13.07,1.33,14.86.48s.96.27.87.54" transform="translate(1995.688 -7.056)" fill="none" stroke="#364fc7" stroke-linecap="round" stroke-width="1"/>
    <text id="NK-2" data-name="NK" transform="translate(2014.942 15.645)" fill="#364fc7" font-size="13.888" font-family="Virgil3YOFF, 'Virgil \33  YOFF'"><tspan x="-8.937" y="0">NK</tspan></text>
    <path id="Path_91" data-name="Path 91" d="M26.55.75c3.63,1.29,8.34,5.34,10,9.13s1,9.66-.05,13.59a17.939,17.939,0,0,1-6.25,10,24.779,24.779,0,0,1-12.88,4.12A16.907,16.907,0,0,1,6.38,33.36,22.016,22.016,0,0,1-.21,21.74C-.89,17.47.06,11.26,2.32,7.7A16.733,16.733,0,0,1,13.35.39c4.49-.67,12.98,2.6,15.86,3.27s1.73.65,1.4.77M15.04.59c3.9-1.61,9.7-1.62,13.07-.04s5.78,5.75,7.14,9.56a27.706,27.706,0,0,1,1.06,13.27c-.76,4.19-2.17,9.21-5.63,11.84s-10.82,4.4-15.13,3.93S7.34,35.48,4.84,32.43A19.666,19.666,0,0,1,.52,20.81C.48,16.75,2.51,11.44,4.63,8.04S11.34,1.8,13.22.41s2.43-.95,2.71-.69" transform="translate(1997.975 -787.429)" fill="none" stroke="#364fc7" stroke-linecap="round" stroke-width="1"/>
    <text id="SN" transform="translate(2017.229 -764.729)" fill="#364fc7" font-size="13.888" font-family="Virgil3YOFF, 'Virgil \33  YOFF'"><tspan x="-8.493" y="0">SN</tspan></text>
    <path id="Path_92" data-name="Path 92" d="M11.17,1.21C14.8-.51,21.08-.86,25.02.32s7.53,4.6,9.8,7.99,4.29,8.3,3.83,12.33-3.56,8.91-6.58,11.81a20.77,20.77,0,0,1-11.55,5.6c-4.2.45-10.32-.35-13.63-2.9S1.5,26.92.7,22.72-.12,13.44,2.12,9.96s9.87-6.74,12.05-8.11,1.08-.34.98-.13m2.24-.66c4.03-.22,11.56.87,14.78,3.04s4.04,6.08,4.54,9.99.29,9.62-1.54,13.47-5.52,8.01-9.4,9.64-10.26,1.33-13.88.11A13.285,13.285,0,0,1,4,29.83,35.437,35.437,0,0,1,1.44,15.07,11.946,11.946,0,0,1,6.25,6.01C9.22,3.7,17.24,2.13,19.26,1.26s-.69-.53-.91-.45" transform="translate(1690.74 -28.757)" fill="none" stroke="#364fc7" stroke-linecap="round" stroke-width="1"/>
    <text id="DSc" transform="translate(1709.994 -6.057)" fill="#364fc7" font-size="13.888" font-family="Virgil3YOFF, 'Virgil \33  YOFF'"><tspan x="-14.562" y="0">DSc</tspan></text>
    <path id="Path_93" data-name="Path 93" d="M15.36.64c3.77-1.04,8.02.47,11.66,2.28s8.4,4.9,10.14,8.59,1.57,9.8.31,13.59a17.339,17.339,0,0,1-7.81,9.18,24.949,24.949,0,0,1-13.33,2.9A19.6,19.6,0,0,1,5.04,31.52,18.738,18.738,0,0,1,.21,20C.09,15.88,1.57,10.21,4.33,6.81S14.51.7,16.79-.43s1.28.13,1.18.41m2.5-.29A19.681,19.681,0,0,1,32.85,5.57c2.89,3.24,4.93,9.59,4.95,13.56s-2.33,7.47-4.87,10.31a23.835,23.835,0,0,1-10.37,6.73,19.653,19.653,0,0,1-12.01-.66,16.476,16.476,0,0,1-8.41-8.27A29.55,29.55,0,0,1,.78,12.53,14.609,14.609,0,0,1,7.37,3.47C10.53,1.43,17.49.65,19.73.32s.62.71,1.04,1.12" transform="translate(1956.945 -625.139)" fill="none" stroke="#364fc7" stroke-linecap="round" stroke-width="1"/>
    <text id="DSc-2" data-name="DSc" transform="translate(1976.199 -602.439)" fill="#364fc7" font-size="13.888" font-family="Virgil3YOFF, 'Virgil \33  YOFF'"><tspan x="-14.562" y="0">DSc</tspan></text>
    <path id="Path_94" data-name="Path 94" d="M24.55,1.42a17.08,17.08,0,0,1,9.82,7.26c2.11,3.58,3.26,10.11,2.84,14.2a15.049,15.049,0,0,1-5.37,10.35c-3.12,2.48-9.08,4.49-13.37,4.56a20.626,20.626,0,0,1-12.38-4.1A19.759,19.759,0,0,1-.42,22.74,19.675,19.675,0,0,1,1.87,10.22C3.98,6.63,8.1,2.59,12.25,1.15s12.07.24,14.5.43.26.43.08.74M15.62-1.07c3.52-.53,8.91,2.87,12.61,4.86s8.32,3.64,9.59,7.04-.22,9.1-1.94,13.38-5.33,9.87-8.41,12.3a11.29,11.29,0,0,1-10.1,2.25A29.153,29.153,0,0,1,4.9,31.32,19.862,19.862,0,0,1,.15,19.6C-.14,15.44.53,9.75,3.14,6.34S13.87.23,15.85-.84s-.92.18-.87.75" transform="translate(1403.989 -1061.995)" fill="none" stroke="#364fc7" stroke-linecap="round" stroke-width="1"/>
    <text id="DSa" transform="translate(1422.243 -1039.294)" fill="#364fc7" font-size="13.888" font-family="Virgil3YOFF, 'Virgil \33  YOFF'"><tspan x="-15.819" y="0">DSa</tspan></text>
  </g>
</svg>
