<svg version="1.1" xmlns="http://www.w3.org/2000/svg" viewBox="0 0 765.0263671875002 1164.7928292410713" width="1530.0527343750005" height="2329.5856584821427" data-theme="invert">
  <!-- svg-source:excalidraw -->
  
  <defs>
    <style>
      @font-face {
        font-family: "Virgil";
        src: url("https://excalidraw.com/Virgil.woff2");
      }
      @font-face {
        font-family: "Cascadia";
        src: url("https://excalidraw.com/Cascadia.woff2");
      }
    </style>
  </defs>
  <g stroke-linecap="round" transform="translate(30.841145833333314 59.514880952380935) rotate(0 68.23828125 29.98046875)"><path d="M0.62 1.49 C50.6 -1.28, 100.67 -2.74, 135.19 -1.06 M-0.6 0.72 C50.83 -0.71, 102.29 0.02, 136.06 -0.78 M138.34 -0.91 C135.73 21.37, 135.4 43.3, 136.29 61.34 M136.22 -0.32 C136.63 21.34, 135.87 41.83, 137.24 59.04 M134.84 60.36 C86.33 62.7, 34.15 59.57, -1.24 61.25 M137.22 60.61 C94.17 59.09, 51.95 58.8, 0.85 59.13 M-0.08 58.51 C0.48 46.12, -1.33 26.8, 1.37 -2 M-0.26 60.1 C1.53 41.18, -0.19 21.55, -0.9 0.19" stroke="#000000" stroke-width="1" fill="none"></path></g><g transform="translate(62.864583333333314 79.42113095238093) rotate(0 37.5 10)"><text x="37.5" y="14" font-family="Virgil, Segoe UI Emoji" font-size="16px" fill="#000000" text-anchor="middle" style="white-space: pre;" direction="ltr">WhatsApp</text></g><g stroke-linecap="round" transform="translate(37.90587797619048 273.6108630952381) rotate(0 68.23828125 29.98046875)"><path d="M-1.73 -1.74 C29.8 -1.07, 62.2 0.57, 137.11 1.1 M0.94 -0.77 C27.19 -1.42, 54.01 -0.84, 136.78 -0.85 M136.04 1.62 C136.1 23.14, 134.75 44.29, 134.77 59.6 M136.16 -0.68 C136.99 21.88, 136.17 43.51, 136.02 59.45 M136.76 61.04 C84.41 59.3, 28.28 57.46, -0.32 59.3 M135.88 59.87 C96.25 59.69, 56.8 61.42, -0.91 60.53 M1.61 58.1 C0.3 42.67, -0.33 22.19, 1.21 0.73 M0.61 59.68 C-0.62 47.38, 0.62 35.34, 0.59 -0.43" stroke="#000000" stroke-width="1" fill="none"></path></g><g transform="translate(79.92931547619048 293.5171130952381) rotate(0 27.5 10)"><text x="27.5" y="14" font-family="Virgil, Segoe UI Emoji" font-size="16px" fill="#000000" text-anchor="middle" style="white-space: pre;" direction="ltr">WebApp</text></g><g stroke-linecap="round" transform="translate(288.3802083333333 59.823474702380935) rotate(0 68.23828125 29.98046875)"><path d="M-1.36 -1.47 C44.43 0.13, 92.84 -0.96, 137.75 -1.73 M-0.36 0.43 C50.39 -1.22, 99.7 -0.55, 136.5 0.7 M137.33 -0.02 C135.39 21.8, 136.65 41.47, 135.31 59.14 M136.6 -0.85 C136.29 21.31, 136.47 41.01, 135.54 59.69 M137.4 58.25 C83.78 61.06, 33.9 58.87, 1.49 60.02 M135.94 60.13 C109.17 60.56, 79.99 58.97, -0.53 59.22 M-0.77 59.2 C-0.54 37.04, -0.45 15.86, -1.19 -1.33 M-0.81 59.42 C0.61 39.54, 0.39 19.66, 0.61 0.1" stroke="#000000" stroke-width="1" fill="none"></path></g><g transform="translate(331.9036458333333 79.72972470238093) rotate(0 26 10)"><text x="26" y="14" font-family="Virgil, Segoe UI Emoji" font-size="16px" fill="#000000" text-anchor="middle" style="white-space: pre;" direction="ltr">Parser</text></g><g stroke-linecap="round" transform="translate(553.8919270833333 58.323474702380935) rotate(0 68.23828125 29.98046875)"><path d="M1.64 1 C38.24 -0.38, 75.06 -0.25, 137.81 -1.22 M0.98 -0.48 C28.89 -0.83, 56.89 -1.92, 137.19 0.71 M137.11 0.9 C137.44 16.69, 136.21 33.25, 135.94 58.25 M136.04 -0.98 C136.65 15.24, 135.96 30.39, 136.08 60.9 M138.28 61.31 C95.74 62.74, 54.89 61.1, -0.36 60.96 M135.92 59.17 C90.17 59.91, 42.78 58.32, 0.91 60.57 M-0.5 61.55 C-0.36 39.6, 0.26 23.25, 1.13 1.48 M-0.04 59.73 C0.39 43.81, -1 26.52, 0.48 0.01" stroke="#000000" stroke-width="1" fill="none"></path></g><g transform="translate(601.9153645833333 78.22972470238093) rotate(0 21.5 10)"><text x="21.5" y="14" font-family="Virgil, Segoe UI Emoji" font-size="16px" fill="#000000" text-anchor="middle" style="white-space: pre;" direction="ltr">Model</text></g><g stroke-linecap="round"><g transform="translate(167.09895833333331 91.72191220238093) rotate(0 60.111328125 -0.662109375)"><path d="M0 0 C20.04 -0.22, 100.19 -1.1, 120.22 -1.32 M0 0 C20.04 -0.22, 100.19 -1.1, 120.22 -1.32" stroke="#000000" stroke-width="1" fill="none"></path></g><g transform="translate(167.09895833333331 91.72191220238093) rotate(0 60.111328125 -0.662109375)"><path d="M92.15 9.25 C103.08 5.13, 114.01 1.01, 120.22 -1.32 M92.15 9.25 C99.9 6.33, 107.66 3.41, 120.22 -1.32" stroke="#000000" stroke-width="1" fill="none"></path></g><g transform="translate(167.09895833333331 91.72191220238093) rotate(0 60.111328125 -0.662109375)"><path d="M91.92 -11.27 C102.94 -7.4, 113.96 -3.53, 120.22 -1.32 M91.92 -11.27 C99.74 -8.53, 107.55 -5.78, 120.22 -1.32" stroke="#000000" stroke-width="1" fill="none"></path></g></g><g stroke-linecap="round"><g transform="translate(429.2903645833333 90.24925595238093) rotate(0 60.111328125 -0.662109375)"><path d="M0 0 C20.04 -0.22, 100.19 -1.1, 120.22 -1.32 M0 0 C20.04 -0.22, 100.19 -1.1, 120.22 -1.32" stroke="#000000" stroke-width="1" fill="none"></path></g><g transform="translate(429.2903645833333 90.24925595238093) rotate(0 60.111328125 -0.662109375)"><path d="M92.15 9.25 C99.56 6.46, 106.97 3.66, 120.22 -1.32 M92.15 9.25 C99.85 6.35, 107.56 3.44, 120.22 -1.32" stroke="#000000" stroke-width="1" fill="none"></path></g><g transform="translate(429.2903645833333 90.24925595238093) rotate(0 60.111328125 -0.662109375)"><path d="M91.92 -11.27 C99.39 -8.65, 106.86 -6.02, 120.22 -1.32 M91.92 -11.27 C99.69 -8.54, 107.45 -5.81, 120.22 -1.32" stroke="#000000" stroke-width="1" fill="none"></path></g></g><g transform="translate(195.32161458333331 66.77659970238093) rotate(0 25 10)"><text x="0" y="14" font-family="Virgil, Segoe UI Emoji" font-size="16px" fill="#000000" text-anchor="start" style="white-space: pre;" direction="ltr">export</text></g><g transform="translate(126.78645833333331 378.05589657738096) rotate(0 39 20)"><text x="0" y="14" font-family="Virgil, Segoe UI Emoji" font-size="16px" fill="#000000" text-anchor="start" style="white-space: pre;" direction="ltr">http/ </text><text x="0" y="34" font-family="Virgil, Segoe UI Emoji" font-size="16px" fill="#000000" text-anchor="start" style="white-space: pre;" direction="ltr">websocket</text></g><g transform="translate(120.66829427083331 558.3928106398811) rotate(0 40.5 10)"><text x="0" y="14" font-family="Virgil, Segoe UI Emoji" font-size="16px" fill="#000000" text-anchor="start" style="white-space: pre;" direction="ltr">user data</text></g><g transform="translate(121.85970052083331 797.535388764881) rotate(0 42.5 20)"><text x="0" y="14" font-family="Virgil, Segoe UI Emoji" font-size="16px" fill="#000000" text-anchor="start" style="white-space: pre;" direction="ltr">pre-defined</text><text x="0" y="34" font-family="Virgil, Segoe UI Emoji" font-size="16px" fill="#000000" text-anchor="start" style="white-space: pre;" direction="ltr">answers</text></g><g transform="translate(665.8500434027778 610.343548487103) rotate(0 41.5 20)"><text x="0" y="14" font-family="Virgil, Segoe UI Emoji" font-size="16px" fill="#000000" text-anchor="start" style="white-space: pre;" direction="ltr">message &amp;</text><text x="0" y="34" font-family="Virgil, Segoe UI Emoji" font-size="16px" fill="#000000" text-anchor="start" style="white-space: pre;" direction="ltr">history</text></g><g transform="translate(576.1972656250002 728.3904234871029) rotate(0 26 10)"><text x="0" y="14" font-family="Virgil, Segoe UI Emoji" font-size="16px" fill="#000000" text-anchor="start" style="white-space: pre;" direction="ltr">answer</text></g><g transform="translate(668.957682291667 967.9650762648807) rotate(0 36 20)"><text x="0" y="14" font-family="Virgil, Segoe UI Emoji" font-size="16px" fill="#000000" text-anchor="start" style="white-space: pre;" direction="ltr">mood &amp; </text><text x="0" y="34" font-family="Virgil, Segoe UI Emoji" font-size="16px" fill="#000000" text-anchor="start" style="white-space: pre;" direction="ltr">affection</text></g><g transform="translate(415.62000868055594 972.1664651537696) rotate(0 55.5 20)"><text x="0" y="14" font-family="Virgil, Segoe UI Emoji" font-size="16px" fill="#343a40" text-anchor="start" style="white-space: pre;" direction="ltr">if no pattern </text><text x="0" y="34" font-family="Virgil, Segoe UI Emoji" font-size="16px" fill="#343a40" text-anchor="start" style="white-space: pre;" direction="ltr">matches</text></g><g transform="translate(227.5644531250004 855.2350415426585) rotate(0 43.5 19.999999999999943)"><text x="0" y="14" font-family="Virgil, Segoe UI Emoji" font-size="16px" fill="#343a40" text-anchor="start" style="white-space: pre;" direction="ltr">if pattern </text><text x="0" y="34" font-family="Virgil, Segoe UI Emoji" font-size="16px" fill="#343a40" text-anchor="start" style="white-space: pre;" direction="ltr">matches</text></g><g transform="translate(457.2278645833333 65.52659970238093) rotate(0 19 10)"><text x="0" y="14" font-family="Virgil, Segoe UI Emoji" font-size="16px" fill="#000000" text-anchor="start" style="white-space: pre;" direction="ltr">train</text></g><g stroke-linecap="round"><g transform="translate(722.8891369047619 191.6722470238095) rotate(0 -354.251953125 -0.109375)"><path d="M0 0 C-118.08 -0.04, -590.42 -0.18, -708.5 -0.22 M0 0 C-118.08 -0.04, -590.42 -0.18, -708.5 -0.22" stroke="#000000" stroke-width="1" fill="none"></path></g></g><g transform="translate(10 10) rotate(0 30 10)"><text x="0" y="14" font-family="Virgil, Segoe UI Emoji" font-size="16px" fill="#a61e4d" text-anchor="start" style="white-space: pre;" direction="ltr">Training</text></g><g transform="translate(19.36817956349205 228.30729166666654) rotate(0 48 10)"><text x="0" y="14" font-family="Virgil, Segoe UI Emoji" font-size="16px" fill="#a61e4d" text-anchor="start" style="white-space: pre;" direction="ltr">Architecture</text></g><g transform="translate(687.0287698412699 407.68663194444434) rotate(0 26 10)"><text x="0" y="14" font-family="Virgil, Segoe UI Emoji" font-size="16px" fill="#0b7285" text-anchor="start" style="white-space: pre;" direction="ltr">Golang</text></g><g transform="translate(696.850818452381 823.7369791666666) rotate(0 25.5 10)"><text x="0" y="14" font-family="Virgil, Segoe UI Emoji" font-size="16px" fill="#0b7285" text-anchor="start" style="white-space: pre;" direction="ltr">Python</text></g><g stroke-linecap="round" transform="translate(49.91392299107173 451.468470982143) rotate(0 68.23828125 29.98046875)"><path d="M-0.24 0.87 C42.98 1.13, 88.11 1.37, 137.25 0.84 M-0.09 -0.45 C46.24 0.76, 92.75 1.75, 135.9 -0.17 M134.8 0.54 C135.78 22.43, 136.09 47.71, 137.29 61.93 M136.21 -0.26 C136.88 17.74, 135.82 35.16, 135.55 60.82 M138.38 59.09 C89.88 59.78, 43.72 63.19, -0.64 60.4 M136.43 60.17 C108.05 60.45, 81.11 60.41, 0.41 59.74 M-0.44 58.27 C1.41 44.02, -0.85 31.72, 0.99 -0.31 M0.13 59.52 C0.77 46.64, 0.82 32.07, -0.27 -0.89" stroke="#000000" stroke-width="1" fill="none"></path></g><g transform="translate(80.93736049107173 471.374720982143) rotate(0 38.5 10)"><text x="38.5" y="14" font-family="Virgil, Segoe UI Emoji" font-size="16px" fill="#000000" text-anchor="middle" style="white-space: pre;" direction="ltr">Webserver</text></g><g stroke-linecap="round" transform="translate(322.32463727678606 452.85797991071445) rotate(0 68.23828125 29.98046875)"><path d="M0.49 0.77 C38.87 -0.11, 75.71 -2.41, 136.29 -0.9 M0.7 -0.58 C41.56 0.28, 82.99 -1.46, 135.64 0.27 M138.45 0.81 C138.31 16.75, 135 34.24, 135.95 59.45 M135.71 -0.92 C137.2 23.19, 135.45 46.59, 137.43 59.52 M138.44 59.33 C100.95 57.31, 66.32 58.72, -0.1 60.38 M137.3 60.37 C106.52 59.09, 77.75 60.51, -0.22 59.12 M0.01 60.95 C0.23 35.13, 0.19 12.25, 0.27 -0.89 M0.18 59.69 C-1.32 38.97, 0.14 16.36, 0.35 -0.03" stroke="#000000" stroke-width="1" fill="none"></path></g><g transform="translate(330.84807477678606 472.76422991071445) rotate(0 61 10)"><text x="61" y="14" font-family="Virgil, Segoe UI Emoji" font-size="16px" fill="#000000" text-anchor="middle" style="white-space: pre;" direction="ltr">MessageHandler</text></g><g stroke-linecap="round" transform="translate(574.629324776786 447.93610491071445) rotate(0 68.23828125 29.98046875)"><path d="M1.41 -1.15 C41.38 1.1, 82.52 -2.39, 134.8 0.54 M0.98 0.41 C39.13 0.07, 75.62 0.43, 136.21 -0.26 M134.94 -1.85 C138.05 23.55, 134.55 47.51, 138.38 59.09 M137.46 -0.32 C136.26 14.82, 136.93 31.33, 136.43 60.17 M138.12 60.78 C106.3 58.44, 78.47 61.28, -0.44 58.27 M136.48 60.46 C82.81 59.02, 29.28 59.34, 0.13 59.52 M0.36 59.41 C-2.22 39.95, 0.72 16.71, 0.71 -0.06 M-0.66 60.08 C0.91 37.91, 1.02 14.68, 0.04 -0.78" stroke="#000000" stroke-width="1" fill="none"></path></g><g transform="translate(602.652762276786 467.84235491071445) rotate(0 41.5 10)"><text x="41.5" y="14" font-family="Virgil, Segoe UI Emoji" font-size="16px" fill="#000000" text-anchor="middle" style="white-space: pre;" direction="ltr">BotRouter</text></g><g stroke-linecap="round"><g transform="translate(467.20800781250017 476.14895074957815) rotate(0 52.52204241071428 -0.8299005990102728)"><path d="M0 0 C17.51 -0.28, 87.54 -1.38, 105.04 -1.66" stroke="#000000" stroke-width="1.5" fill="none" stroke-dasharray="8 9"></path></g><g transform="translate(467.20800781250017 476.14895074957815) rotate(0 52.52204241071428 -0.8299005990102728)"><path d="M28.03 -10.7 C21.86 -8.35, 15.7 -6, 0 0" stroke="#000000" stroke-width="1.5" fill="none"></path></g><g transform="translate(467.20800781250017 476.14895074957815) rotate(0 52.52204241071428 -0.8299005990102728)"><path d="M28.35 9.81 C22.11 7.66, 15.88 5.5, 0 0" stroke="#000000" stroke-width="1.5" fill="none"></path></g><g transform="translate(467.20800781250017 476.14895074957815) rotate(0 52.52204241071428 -0.8299005990102728)"><path d="M77.02 9.04 C83.18 6.69, 89.35 4.34, 105.04 -1.66" stroke="#000000" stroke-width="1.5" fill="none"></path></g><g transform="translate(467.20800781250017 476.14895074957815) rotate(0 52.52204241071428 -0.8299005990102728)"><path d="M76.69 -11.47 C82.93 -9.32, 89.17 -7.16, 105.04 -1.66" stroke="#000000" stroke-width="1.5" fill="none"></path></g></g><g stroke-linecap="round"><g transform="translate(194.8363560267859 481.4206423643334) rotate(0 61.83900669642864 -0.5857306237173248)"><path d="M0 0 C20.61 -0.2, 103.07 -0.98, 123.68 -1.17" stroke="#000000" stroke-width="1.5" fill="none" stroke-dasharray="8 9"></path></g><g transform="translate(194.8363560267859 481.4206423643334) rotate(0 61.83900669642864 -0.5857306237173248)"><path d="M28.09 -10.53 C20.72 -7.76, 13.35 -5, 0 0" stroke="#000000" stroke-width="1.5" fill="none"></path></g><g transform="translate(194.8363560267859 481.4206423643334) rotate(0 61.83900669642864 -0.5857306237173248)"><path d="M28.29 9.99 C20.86 7.37, 13.44 4.75, 0 0" stroke="#000000" stroke-width="1.5" fill="none"></path></g><g transform="translate(194.8363560267859 481.4206423643334) rotate(0 61.83900669642864 -0.5857306237173248)"><path d="M95.59 9.36 C102.96 6.59, 110.33 3.83, 123.68 -1.17" stroke="#000000" stroke-width="1.5" fill="none"></path></g><g transform="translate(194.8363560267859 481.4206423643334) rotate(0 61.83900669642864 -0.5857306237173248)"><path d="M95.39 -11.16 C102.81 -8.54, 110.24 -5.92, 123.68 -1.17" stroke="#000000" stroke-width="1.5" fill="none"></path></g></g><g stroke-linecap="round" transform="translate(15.116489955357281 401.76981026785745) rotate(0 365.3934151785715 78.82254464285694)"><path d="M0 0 C289.3 0, 578.61 0, 730.79 0 M0 0 C251.04 0, 502.09 0, 730.79 0 M730.79 0 C730.79 60.16, 730.79 120.32, 730.79 157.65 M730.79 0 C730.79 41.49, 730.79 82.97, 730.79 157.65 M730.79 157.65 C556.52 157.65, 382.25 157.65, 0 157.65 M730.79 157.65 C548.75 157.65, 366.72 157.65, 0 157.65 M0 157.65 C0 120.51, 0 83.37, 0 0 M0 157.65 C0 122.4, 0 87.16, 0 0" stroke="#343a40" stroke-width="1" fill="none"></path></g><g stroke-linecap="round" transform="translate(55.52785528273813 877.5723121279761) rotate(0 68.23828125 29.98046875)"><path d="M-1.83 -0.01 C38.42 0.91, 72.92 1.02, 137.54 -1.73 M0.76 -0.73 C43.77 -0.74, 85.75 -0.66, 135.55 -0.41 M137.15 -0.42 C136.49 15.19, 136.84 28.29, 135.36 61.78 M135.58 -0.42 C136.75 12.63, 136.08 25.16, 136.95 59.89 M137.38 58.36 C104.24 60.63, 70.03 60.91, 0.61 59.12 M137.28 60.56 C103.21 59.74, 70.82 58.33, 0.76 60.69 M-1.19 60.77 C-1.27 44.09, -0.78 27.15, -0.05 -0.91 M0.7 59.62 C-0.33 48.27, -0.41 36.33, -0.19 0.41" stroke="#000000" stroke-width="1" fill="none"></path></g><g transform="translate(68.76613653273813 887.5527808779761) rotate(0 55 20)"><text x="55" y="14" font-family="Virgil, Segoe UI Emoji" font-size="16px" fill="#000000" text-anchor="middle" style="white-space: pre;" direction="ltr">Static Answer</text><text x="55" y="34" font-family="Virgil, Segoe UI Emoji" font-size="16px" fill="#000000" text-anchor="middle" style="white-space: pre;" direction="ltr">Handler</text></g><g stroke-linecap="round" transform="translate(328.35849144345246 877.9896530877977) rotate(0 68.23828125 29.98046875)"><path d="M1.37 0.96 C40.19 1.07, 83.78 -1.73, 136.78 -0.22 M0.79 -0.73 C40.84 0.35, 81.19 0.59, 135.7 0.6 M136.13 1.86 C136.68 24.05, 135.56 46.68, 134.84 58.46 M137.2 -0.45 C136 19.83, 136.42 41.57, 135.95 60.37 M138.05 60.07 C91.12 59.26, 44 58.02, -1.18 59.15 M136.12 60.82 C106.49 60.22, 76.92 61.51, -0.2 59.81 M-1.36 60.87 C-0.51 39.92, 0.31 17.49, -1.97 1.43 M0.1 60.34 C-0.4 45.18, -0.61 29.78, -0.25 0.72" stroke="#000000" stroke-width="1" fill="none"></path></g><g transform="translate(356.59677269345246 887.9701218377977) rotate(0 40 20)"><text x="40" y="14" font-family="Virgil, Segoe UI Emoji" font-size="16px" fill="#000000" text-anchor="middle" style="white-space: pre;" direction="ltr">Pattern</text><text x="40" y="34" font-family="Virgil, Segoe UI Emoji" font-size="16px" fill="#000000" text-anchor="middle" style="white-space: pre;" direction="ltr">Recognizer</text></g><g stroke-linecap="round" transform="translate(579.8672805059525 874.0448288690477) rotate(0 68.23828125 29.98046875)"><path d="M-1.17 1.06 C41.97 -2.39, 82.1 -0.87, 136.49 1.53 M-0.22 -0.65 C29.99 0.58, 61.05 1.6, 137.22 0.33 M136.48 1.62 C135.26 18.56, 134.73 31.97, 137.42 58.16 M136.53 -0.99 C137.39 15.4, 136.39 31.34, 136.89 60.42 M137.66 60.35 C107.09 59.19, 75.31 59.22, -1.58 61.56 M136.65 59.4 C88.11 61.87, 38.03 60.98, 0.47 59.37 M-0.87 60.7 C0.36 38.64, -1.56 20.57, -0.9 1.4 M0.02 60.48 C-0.25 44.43, -0.31 28.8, 0.8 0.2" stroke="#000000" stroke-width="1" fill="none"></path></g><g transform="translate(589.3907180059525 893.9510788690477) rotate(0 60 10)"><text x="60" y="14" font-family="Virgil, Segoe UI Emoji" font-size="16px" fill="#000000" text-anchor="middle" style="white-space: pre;" direction="ltr">RequestHandler</text></g><g stroke-linecap="round" transform="translate(587.4014601934525 1034.7235398065475) rotate(0 68.23828125 29.98046875)"><path d="M-0.19 1.68 C50.38 -1.98, 98.61 -0.72, 136.43 0.44 M-0.08 -0.37 C47.97 -0.54, 95.75 -1.52, 136.62 0.62 M136.8 -1.48 C137.06 21.7, 138.46 39.49, 134.95 60.68 M137.16 -0.83 C137.71 22.54, 137.37 44.31, 135.53 59.73 M135.82 60.74 C103.61 57.53, 70.44 57.21, -1.95 60.84 M136.19 59.06 C87.66 59.73, 39.34 58.99, -0.64 60.02 M-1.4 60.03 C1.05 44.57, -2.08 30.23, -0.5 0.65 M0.87 59.9 C-1.45 39.78, -0.61 20.27, 0.81 -0.24" stroke="#000000" stroke-width="1" fill="none"></path></g><g transform="translate(600.9248976934525 1054.6297898065475) rotate(0 56 10)"><text x="56" y="14" font-family="Virgil, Segoe UI Emoji" font-size="16px" fill="#000000" text-anchor="middle" style="white-space: pre;" direction="ltr">Mood Analyzer</text></g><g stroke-linecap="round" transform="translate(329.55966331845246 1041.0565476190475) rotate(0 68.23828125 29.98046875)"><path d="M0.43 -0.55 C36.12 1.8, 74.14 0.7, 137.37 0.77 M-0.83 -0.27 C50.3 0.31, 102.53 1.77, 135.65 -0.57 M136.33 -1.5 C134.56 14.6, 137.76 30.6, 137.32 60.26 M136.15 -0.57 C137.21 20.94, 137.26 39.76, 136.97 60.53 M137.93 59.81 C87.9 56.99, 33.61 57.46, 1.38 59.29 M136.2 60.63 C82.72 58.25, 28.31 58.69, -0.43 59.84 M1.69 59.16 C-2.17 42.2, 0.31 22.89, -0.49 -0.77 M0.2 59.78 C-0.33 45.38, 1.12 28.86, 0.97 0.17" stroke="#000000" stroke-width="1" fill="none"></path></g><g transform="translate(377.58310081845246 1060.9627976190475) rotate(0 21.5 10)"><text x="21.5" y="14" font-family="Virgil, Segoe UI Emoji" font-size="16px" fill="#000000" text-anchor="middle" style="white-space: pre;" direction="ltr">Model</text></g><g stroke-linecap="round"><g transform="translate(476.6363932291666 905.2615776964142) rotate(0 50.59528459821428 -1.8909415296355974)"><path d="M0 0 C16.87 -0.63, 84.33 -3.15, 101.19 -3.78" stroke="#000000" stroke-width="1.5" fill="none" stroke-dasharray="8 9"></path></g><g transform="translate(476.6363932291666 905.2615776964142) rotate(0 50.59528459821428 -1.8909415296355974)"><path d="M27.79 -11.31 C18.12 -7.37, 8.46 -3.44, 0 0" stroke="#000000" stroke-width="1.5" fill="none"></path></g><g transform="translate(476.6363932291666 905.2615776964142) rotate(0 50.59528459821428 -1.8909415296355974)"><path d="M28.55 9.2 C18.62 6, 8.69 2.8, 0 0" stroke="#000000" stroke-width="1.5" fill="none"></path></g><g transform="translate(476.6363932291666 905.2615776964142) rotate(0 50.59528459821428 -1.8909415296355974)"><path d="M73.4 7.52 C83.07 3.59, 92.73 -0.34, 101.19 -3.78" stroke="#000000" stroke-width="1.5" fill="none"></path></g><g transform="translate(476.6363932291666 905.2615776964142) rotate(0 50.59528459821428 -1.8909415296355974)"><path d="M72.64 -12.98 C82.57 -9.78, 92.5 -6.58, 101.19 -3.78" stroke="#000000" stroke-width="1.5" fill="none"></path></g></g><g stroke-linecap="round"><g transform="translate(649.0387369791665 1030.502788633914) rotate(0 -1.5531529017857224 -45.291820435885484)"><path d="M0 0 C-0.52 -15.1, -2.59 -75.49, -3.11 -90.58" stroke="#000000" stroke-width="1.5" fill="none" stroke-dasharray="8 9"></path></g><g transform="translate(649.0387369791665 1030.502788633914) rotate(0 -1.5531529017857224 -45.291820435885484)"><path d="M-11.22 -27.82 C-8.42 -20.87, -5.62 -13.92, 0 0" stroke="#000000" stroke-width="1.5" fill="none"></path></g><g transform="translate(649.0387369791665 1030.502788633914) rotate(0 -1.5531529017857224 -45.291820435885484)"><path d="M9.29 -28.53 C6.97 -21.4, 4.65 -14.27, 0 0" stroke="#000000" stroke-width="1.5" fill="none"></path></g><g transform="translate(649.0387369791665 1030.502788633914) rotate(0 -1.5531529017857224 -45.291820435885484)"><path d="M8.11 -62.76 C5.31 -69.71, 2.51 -76.66, -3.11 -90.58" stroke="#000000" stroke-width="1.5" fill="none"></path></g><g transform="translate(649.0387369791665 1030.502788633914) rotate(0 -1.5531529017857224 -45.291820435885484)"><path d="M-12.39 -62.06 C-10.07 -69.18, -7.75 -76.31, -3.11 -90.58" stroke="#000000" stroke-width="1.5" fill="none"></path></g></g><g stroke-linecap="round"><g transform="translate(397.1246744791666 1035.370952696414) rotate(0 -1.5531529017857224 -45.291820435885484)"><path d="M0 0 C-0.52 -15.1, -2.59 -75.49, -3.11 -90.58" stroke="#000000" stroke-width="1.5" fill="none" stroke-dasharray="8 9"></path></g><g transform="translate(397.1246744791666 1035.370952696414) rotate(0 -1.5531529017857224 -45.291820435885484)"><path d="M-11.22 -27.82 C-7.87 -19.52, -4.52 -11.22, 0 0" stroke="#000000" stroke-width="1.5" fill="none"></path></g><g transform="translate(397.1246744791666 1035.370952696414) rotate(0 -1.5531529017857224 -45.291820435885484)"><path d="M9.29 -28.53 C6.52 -20.01, 3.74 -11.5, 0 0" stroke="#000000" stroke-width="1.5" fill="none"></path></g><g transform="translate(397.1246744791666 1035.370952696414) rotate(0 -1.5531529017857224 -45.291820435885484)"><path d="M8.11 -62.76 C4.77 -71.06, 1.42 -79.37, -3.11 -90.58" stroke="#000000" stroke-width="1.5" fill="none"></path></g><g transform="translate(397.1246744791666 1035.370952696414) rotate(0 -1.5531529017857224 -45.291820435885484)"><path d="M-12.39 -62.06 C-9.62 -70.57, -6.85 -79.08, -3.11 -90.58" stroke="#000000" stroke-width="1.5" fill="none"></path></g></g><g stroke-linecap="round"><g transform="translate(200.45028831845235 908.7765505147765) rotate(0 60.09047154017861 -1.4864463078140489)"><path d="M0 0 C20.03 -0.5, 100.15 -2.48, 120.18 -2.97" stroke="#000000" stroke-width="1.5" fill="none" stroke-dasharray="8 9"></path></g><g transform="translate(200.45028831845235 908.7765505147765) rotate(0 60.09047154017861 -1.4864463078140489)"><path d="M27.93 -10.95 C21.18 -8.31, 14.44 -5.66, 0 0" stroke="#000000" stroke-width="1.5" fill="none"></path></g><g transform="translate(200.45028831845235 908.7765505147765) rotate(0 60.09047154017861 -1.4864463078140489)"><path d="M28.44 9.56 C21.57 7.25, 14.7 4.94, 0 0" stroke="#000000" stroke-width="1.5" fill="none"></path></g><g transform="translate(200.45028831845235 908.7765505147765) rotate(0 60.09047154017861 -1.4864463078140489)"><path d="M92.25 7.98 C99 5.34, 105.74 2.69, 120.18 -2.97" stroke="#000000" stroke-width="1.5" fill="none"></path></g><g transform="translate(200.45028831845235 908.7765505147765) rotate(0 60.09047154017861 -1.4864463078140489)"><path d="M91.75 -12.53 C98.61 -10.22, 105.48 -7.91, 120.18 -2.97" stroke="#000000" stroke-width="1.5" fill="none"></path></g></g><g stroke-linecap="round" transform="translate(24.23953683035728 819.1399274553575) rotate(0 365.3934151785715 167.82645089285694)"><path d="M0 0 C239.01 0, 478.01 0, 730.79 0 M0 0 C148.65 0, 297.31 0, 730.79 0 M730.79 0 C730.79 102.92, 730.79 205.85, 730.79 335.65 M730.79 0 C730.79 93.47, 730.79 186.94, 730.79 335.65 M730.79 335.65 C539.02 335.65, 347.26 335.65, 0 335.65 M730.79 335.65 C558.25 335.65, 385.72 335.65, 0 335.65 M0 335.65 C0 257.61, 0 179.56, 0 0 M0 335.65 C0 211.94, 0 88.23, 0 0" stroke="#343a40" stroke-width="1" fill="none"></path></g><g stroke-linecap="round"><g transform="translate(107.03644193356428 342.05022321428567) rotate(0 1.488473175646277 51.928833648690215)"><path d="M-0.69 -0.47 C-0.18 16.95, 3.03 88.15, 3.67 105.62 M1.15 -1.76 C1.46 15.81, 2.59 85.91, 2.75 103.75" stroke="#343a40" stroke-width="1" fill="none"></path></g><g transform="translate(107.03644193356428 342.05022321428567) rotate(0 1.488473175646277 51.928833648690215)"><path d="M9.93 27.39 C7.29 16.77, 1.24 6.44, -1.81 1.29 M10.11 26.92 C7.67 22.03, 6.17 15.89, -1.66 0.23" stroke="#343a40" stroke-width="1" fill="none"></path></g><g transform="translate(107.03644193356428 342.05022321428567) rotate(0 1.488473175646277 51.928833648690215)"><path d="M-10.57 28.23 C-6.07 17.44, -4.95 6.81, -1.81 1.29 M-10.39 27.76 C-8.4 22.58, -5.47 16.27, -1.66 0.23" stroke="#343a40" stroke-width="1" fill="none"></path></g><g transform="translate(107.03644193356428 342.05022321428567) rotate(0 1.488473175646277 51.928833648690215)"><path d="M-8.66 75.81 C-3.1 84.81, -1.45 93.96, 1.64 105.51 M-8.49 75.34 C-5.88 82.41, -2.61 88.36, 1.78 104.45" stroke="#343a40" stroke-width="1" fill="none"></path></g><g transform="translate(107.03644193356428 342.05022321428567) rotate(0 1.488473175646277 51.928833648690215)"><path d="M11.86 75.54 C10.25 84.52, 4.74 93.76, 1.64 105.51 M12.03 75.07 C10.2 82.3, 9.03 88.31, 1.78 104.45" stroke="#343a40" stroke-width="1" fill="none"></path></g></g><g stroke-linecap="round"><g transform="translate(80.99409128778825 652.0090710989488) rotate(0 33.989364744215095 34.98191162749259)"><path d="M-0.01 -2.05 C0.03 9.05, 0.21 52.19, 0.21 64.55 C0.22 76.92, -0.55 70.32, 0 72.13 C0.55 73.94, 0.89 74.4, 3.51 75.41 C6.12 76.42, 10.24 77.58, 15.71 78.18 C21.19 78.79, 29.63 79.13, 36.35 79.05 C43.08 78.96, 51.04 78.45, 56.07 77.67 C61.1 76.89, 64.55 75.38, 66.54 74.37 C68.54 73.36, 67.74 73.07, 68.02 71.59 C68.3 70.11, 68.22 76.83, 68.23 65.49 C68.24 54.14, 68.15 14.84, 68.07 3.54 C67.98 -7.76, 68.49 -0.8, 67.7 -2.32 C66.91 -3.84, 65.58 -4.73, 63.32 -5.59 C61.05 -6.45, 59.13 -6.9, 54.08 -7.48 C49.04 -8.06, 39.36 -8.97, 33.05 -9.08 C26.73 -9.18, 21.2 -8.82, 16.18 -8.13 C11.16 -7.43, 5.62 -5.91, 2.91 -4.9 C0.21 -3.9, 0.44 -2.57, -0.05 -2.09 C-0.53 -1.62, -0.02 -2.06, -0.01 -2.05 M-0.01 -2.05 C0.03 9.05, 0.21 52.19, 0.21 64.55 C0.22 76.92, -0.55 70.32, 0 72.13 C0.55 73.94, 0.89 74.4, 3.51 75.41 C6.12 76.42, 10.24 77.58, 15.71 78.18 C21.19 78.79, 29.63 79.13, 36.35 79.05 C43.08 78.96, 51.04 78.45, 56.07 77.67 C61.1 76.89, 64.55 75.38, 66.54 74.37 C68.54 73.36, 67.74 73.07, 68.02 71.59 C68.3 70.11, 68.22 76.83, 68.23 65.49 C68.24 54.14, 68.15 14.84, 68.07 3.54 C67.98 -7.76, 68.49 -0.8, 67.7 -2.32 C66.91 -3.84, 65.58 -4.73, 63.32 -5.59 C61.05 -6.45, 59.13 -6.9, 54.08 -7.48 C49.04 -8.06, 39.36 -8.97, 33.05 -9.08 C26.73 -9.18, 21.2 -8.82, 16.18 -8.13 C11.16 -7.43, 5.62 -5.91, 2.91 -4.9 C0.21 -3.9, 0.44 -2.57, -0.05 -2.09 C-0.53 -1.62, -0.02 -2.06, -0.01 -2.05" stroke="#000000" stroke-width="2" fill="none"></path></g></g><g stroke-linecap="round"><g transform="translate(81.51530857373592 700.5919577755893) rotate(0 34.17397559452883 3.3870985574494057)"><path d="M0 -0.1 C0.3 0.4, 0.21 1.99, 1.8 2.92 C3.4 3.85, 6.55 4.78, 9.57 5.46 C12.58 6.14, 15.48 6.71, 19.9 6.99 C24.32 7.27, 30.24 7.27, 36.09 7.13 C41.93 6.99, 49.99 6.91, 54.98 6.16 C59.97 5.4, 63.78 3.7, 66.01 2.6 C68.24 1.5, 67.96 0.06, 68.35 -0.45 M0 -0.1 C0.3 0.4, 0.21 1.99, 1.8 2.92 C3.4 3.85, 6.55 4.78, 9.57 5.46 C12.58 6.14, 15.48 6.71, 19.9 6.99 C24.32 7.27, 30.24 7.27, 36.09 7.13 C41.93 6.99, 49.99 6.91, 54.98 6.16 C59.97 5.4, 63.78 3.7, 66.01 2.6 C68.24 1.5, 67.96 0.06, 68.35 -0.45" stroke="#000000" stroke-width="2" fill="none"></path></g></g><g stroke-linecap="round"><g transform="translate(80.6687837012235 674.993501316386) rotate(0 34.17397559452883 3.3870985574494057)"><path d="M0 -0.1 C0.3 0.4, 0.21 1.99, 1.8 2.92 C3.4 3.85, 6.55 4.78, 9.57 5.46 C12.58 6.14, 15.48 6.71, 19.9 6.99 C24.32 7.27, 30.24 7.27, 36.09 7.13 C41.93 6.99, 49.99 6.91, 54.98 6.16 C59.97 5.4, 63.78 3.7, 66.01 2.6 C68.24 1.5, 67.96 0.06, 68.35 -0.45 M0 -0.1 C0.3 0.4, 0.21 1.99, 1.8 2.92 C3.4 3.85, 6.55 4.78, 9.57 5.46 C12.58 6.14, 15.48 6.71, 19.9 6.99 C24.32 7.27, 30.24 7.27, 36.09 7.13 C41.93 6.99, 49.99 6.91, 54.98 6.16 C59.97 5.4, 63.78 3.7, 66.01 2.6 C68.24 1.5, 67.96 0.06, 68.35 -0.45" stroke="#000000" stroke-width="2" fill="none"></path></g></g><g stroke-linecap="round" transform="translate(79.80129876895222 643.7465836112759) rotate(0 33.91959428117042 6.859982755780948)"><path d="M55.72 1.6 C61.29 2.55, 66.06 4.22, 67.32 5.67 C68.59 7.12, 66.93 9.02, 63.29 10.29 C59.66 11.56, 52.35 12.8, 45.52 13.31 C38.69 13.81, 29.15 13.81, 22.32 13.31 C15.49 12.8, 8.18 11.56, 4.54 10.29 C0.91 9.02, -0.75 7.12, 0.52 5.67 C1.78 4.22, 6.55 2.55, 12.12 1.6 C17.68 0.66, 26.65 0, 33.92 0 C41.19 0, 50.16 0.66, 55.72 1.6" stroke="#000000" stroke-width="2" fill="none"></path></g><g stroke-linecap="round" transform="translate(135.14780098325446 662.7675571850565) rotate(0 4.971241689223461 5.39531904148788)"><path d="M8.17 1.26 C8.98 2.01, 9.68 3.32, 9.87 4.46 C10.05 5.6, 9.81 7.09, 9.28 8.09 C8.74 9.09, 7.67 10.07, 6.67 10.47 C5.67 10.86, 4.27 10.86, 3.27 10.47 C2.27 10.07, 1.2 9.09, 0.67 8.09 C0.13 7.09, -0.11 5.6, 0.08 4.46 C0.26 3.32, 0.96 2.01, 1.78 1.26 C2.59 0.52, 3.91 0, 4.97 0 C6.04 0, 7.35 0.52, 8.17 1.26" stroke="#000000" stroke-width="2" fill="none"></path></g><g stroke-linecap="round" transform="translate(135.14780098325446 686.4529874864053) rotate(0 4.971241689223461 5.39531904148788)"><path d="M8.17 1.26 C8.98 2.01, 9.68 3.32, 9.87 4.46 C10.05 5.6, 9.81 7.09, 9.28 8.09 C8.74 9.09, 7.67 10.07, 6.67 10.47 C5.67 10.86, 4.27 10.86, 3.27 10.47 C2.27 10.07, 1.2 9.09, 0.67 8.09 C0.13 7.09, -0.11 5.6, 0.08 4.46 C0.26 3.32, 0.96 2.01, 1.78 1.26 C2.59 0.52, 3.91 0, 4.97 0 C6.04 0, 7.35 0.52, 8.17 1.26" stroke="#000000" stroke-width="2" fill="none"></path></g><g stroke-linecap="round" transform="translate(135.14780098325446 712.1959031236219) rotate(0 4.971241689223461 5.39531904148788)"><path d="M8.17 1.26 C8.98 2.01, 9.68 3.32, 9.87 4.46 C10.05 5.6, 9.81 7.09, 9.28 8.09 C8.74 9.09, 7.67 10.07, 6.67 10.47 C5.67 10.86, 4.27 10.86, 3.27 10.47 C2.27 10.07, 1.2 9.09, 0.67 8.09 C0.13 7.09, -0.11 5.6, 0.08 4.46 C0.26 3.32, 0.96 2.01, 1.78 1.26 C2.59 0.52, 3.91 0, 4.97 0 C6.04 0, 7.35 0.52, 8.17 1.26" stroke="#000000" stroke-width="2" fill="none"></path></g><g stroke-linecap="round"><g transform="translate(112.47239967241495 515.3410434370373) rotate(0 2.200169387447005 61.68678285563561)"><path d="M1.02 1.15 C1.38 21.16, 1.82 101.18, 2.05 121.06 M0.1 0.7 C0.84 20.85, 4.09 102.55, 4.3 122.67" stroke="#343a40" stroke-width="1" fill="none"></path></g><g transform="translate(112.47239967241495 515.3410434370373) rotate(0 2.200169387447005 61.68678285563561)"><path d="M13.43 27.79 C8.46 20.19, 4.29 13.95, 1.78 -0.11 M10.77 29.39 C8.38 22.69, 7.82 18.21, 0.27 1.73" stroke="#343a40" stroke-width="1" fill="none"></path></g><g transform="translate(112.47239967241495 515.3410434370373) rotate(0 2.200169387447005 61.68678285563561)"><path d="M-7.09 27.97 C-6.04 20.15, -4.18 13.85, 1.78 -0.11 M-9.75 29.56 C-7.79 22.68, -4 18.17, 0.27 1.73" stroke="#343a40" stroke-width="1" fill="none"></path></g><g transform="translate(112.47239967241495 515.3410434370373) rotate(0 2.200169387447005 61.68678285563561)"><path d="M-4.82 93.32 C-3.03 101.98, -0.88 112.18, 5.06 121.42 M-7.48 94.91 C-5.29 99.94, -1.28 107.33, 3.55 123.26" stroke="#343a40" stroke-width="1" fill="none"></path></g><g transform="translate(112.47239967241495 515.3410434370373) rotate(0 2.200169387447005 61.68678285563561)"><path d="M15.7 92.76 C11.46 101.76, 7.6 112.12, 5.06 121.42 M13.04 94.35 C10.88 99.64, 10.53 107.15, 3.55 123.26" stroke="#343a40" stroke-width="1" fill="none"></path></g></g><g stroke-linecap="round"><g transform="translate(114.68600639868083 743.4395926339284) rotate(0 -0.8112706134979817 62.66246883832736)"><path d="M0.48 -0.7 C0.08 20.15, -1.02 103.91, -1.64 125.09 M-0.72 1.55 C-1.27 22.5, -1.5 104.98, -2.11 126.02" stroke="#343a40" stroke-width="1" fill="none"></path></g><g transform="translate(114.68600639868083 743.4395926339284) rotate(0 -0.8112706134979817 62.66246883832736)"><path d="M9.14 29.19 C4.77 16.2, 3.4 5.44, 2.24 -0.87 M9.33 26.71 C5.73 17.23, 1.93 5.05, -0.24 -1.28" stroke="#343a40" stroke-width="1" fill="none"></path></g><g transform="translate(114.68600639868083 743.4395926339284) rotate(0 -0.8112706134979817 62.66246883832736)"><path d="M-11.38 28.86 C-8.24 15.91, -2.1 5.27, 2.24 -0.87 M-11.18 26.38 C-6.69 17.17, -2.39 5.12, -0.24 -1.28" stroke="#343a40" stroke-width="1" fill="none"></path></g><g transform="translate(114.68600639868083 743.4395926339284) rotate(0 -0.8112706134979817 62.66246883832736)"><path d="M-13.13 99.23 C-10.28 106.9, -4.46 116.88, -0.35 125.85 M-12.93 96.74 C-8.27 109.76, -4.31 119.95, -2.84 125.44" stroke="#343a40" stroke-width="1" fill="none"></path></g><g transform="translate(114.68600639868083 743.4395926339284) rotate(0 -0.8112706134979817 62.66246883832736)"><path d="M7.39 99.52 C2.73 107.17, 1.04 117.04, -0.35 125.85 M7.59 97.04 C4.15 109.8, 0.01 119.88, -2.84 125.44" stroke="#343a40" stroke-width="1" fill="none"></path></g></g><g stroke-linecap="round"><g transform="translate(639.1641817419734 518.6886160714284) rotate(0 0.8924152571674995 172.7389887121588)"><path d="M-0.54 0.26 C-0.49 57.89, -0.24 287.54, 0.03 345.08 M1.38 -0.65 C1.82 57.17, 2.46 288.26, 2.3 346.13" stroke="#343a40" stroke-width="1" fill="none"></path></g><g transform="translate(639.1641817419734 518.6886160714284) rotate(0 0.8924152571674995 172.7389887121588)"><path d="M10.19 27.04 C5.49 20.84, 3.33 13.74, -1.28 2.17 M9.48 28.79 C6.54 17.82, 2.76 7.39, -1.44 0.58" stroke="#343a40" stroke-width="1" fill="none"></path></g><g transform="translate(639.1641817419734 518.6886160714284) rotate(0 0.8924152571674995 172.7389887121588)"><path d="M-10.33 27.06 C-9.29 20.95, -5.71 13.84, -1.28 2.17 M-11.04 28.82 C-6.55 17.95, -2.9 7.51, -1.44 0.58" stroke="#343a40" stroke-width="1" fill="none"></path></g></g><g stroke-linecap="round"><g transform="translate(655.4776583044736 515.6563895089284) rotate(0 0.6582372886240364 172.65380590696708)"><path d="M0.17 -0.24 C0.1 57.25, 0.01 287.9, 0.17 345.47 M-1.19 -1.42 C-0.93 56.19, 2.23 288.81, 2.51 346.72" stroke="#343a40" stroke-width="1" fill="none"></path></g><g transform="translate(655.4776583044736 515.6563895089284) rotate(0 0.6582372886240364 172.65380590696708)"><path d="M-8.43 317.46 C-5.11 328.91, -1.91 336.78, 2.84 345.89 M-7.4 318.32 C-4.93 328.24, -0.28 338.94, 2.15 347.09" stroke="#343a40" stroke-width="1" fill="none"></path></g><g transform="translate(655.4776583044736 515.6563895089284) rotate(0 0.6582372886240364 172.65380590696708)"><path d="M12.09 317.26 C8.21 328.81, 4.2 336.75, 2.84 345.89 M13.12 318.12 C8.29 328.31, 5.64 339.07, 2.15 347.09" stroke="#343a40" stroke-width="1" fill="none"></path></g></g><g stroke-linecap="round" transform="translate(592.4824277551791 1077.880084325395) rotate(0 13.2052951388888 13.2052951388888)"><path d="M21.69 3.09 C23.86 4.91, 25.72 8.13, 26.21 10.91 C26.7 13.7, 26.06 17.36, 24.64 19.81 C23.23 22.26, 20.38 24.65, 17.72 25.61 C15.06 26.58, 11.35 26.58, 8.69 25.61 C6.03 24.65, 3.18 22.26, 1.77 19.81 C0.35 17.36, -0.29 13.7, 0.2 10.91 C0.69 8.13, 2.55 4.91, 4.72 3.09 C6.88 1.27, 10.38 0, 13.21 0 C16.03 0, 19.53 1.27, 21.69 3.09" stroke="none" stroke-width="0" fill="#ffffff"></path><path d="M21.69 3.09 C23.86 4.91, 25.72 8.13, 26.21 10.91 C26.7 13.7, 26.06 17.36, 24.64 19.81 C23.23 22.26, 20.38 24.65, 17.72 25.61 C15.06 26.58, 11.35 26.58, 8.69 25.61 C6.03 24.65, 3.18 22.26, 1.77 19.81 C0.35 17.36, -0.29 13.7, 0.2 10.91 C0.69 8.13, 2.55 4.91, 4.72 3.09 C6.88 1.27, 10.38 0, 13.21 0 C16.03 0, 19.53 1.27, 21.69 3.09" stroke="#5f3dc4" stroke-width="1" fill="none"></path></g><g transform="translate(594.904525390664 1083.8965811286807) rotate(0 10.783197503403755 7.188798335602542)"><text x="10.783197503403766" y="10.377596671205033" font-family="Virgil, Segoe UI Emoji" font-size="11.50207733696401px" fill="#5f3dc4" text-anchor="middle" style="white-space: pre;" direction="ltr">DSc</text></g><g stroke-linecap="round" transform="translate(663.8148930329569 666.5997023809506) rotate(0 13.2052951388888 13.2052951388888)"><path d="M21.69 3.09 C23.86 4.91, 25.72 8.13, 26.21 10.91 C26.7 13.7, 26.06 17.36, 24.64 19.81 C23.23 22.26, 20.38 24.65, 17.72 25.61 C15.06 26.58, 11.35 26.58, 8.69 25.61 C6.03 24.65, 3.18 22.26, 1.77 19.81 C0.35 17.36, -0.29 13.7, 0.2 10.91 C0.69 8.13, 2.55 4.91, 4.72 3.09 C6.88 1.27, 10.38 0, 13.21 0 C16.03 0, 19.53 1.27, 21.69 3.09" stroke="none" stroke-width="0" fill="#ffffff"></path><path d="M21.69 3.09 C23.86 4.91, 25.72 8.13, 26.21 10.91 C26.7 13.7, 26.06 17.36, 24.64 19.81 C23.23 22.26, 20.38 24.65, 17.72 25.61 C15.06 26.58, 11.35 26.58, 8.69 25.61 C6.03 24.65, 3.18 22.26, 1.77 19.81 C0.35 17.36, -0.29 13.7, 0.2 10.91 C0.69 8.13, 2.55 4.91, 4.72 3.09 C6.88 1.27, 10.38 0, 13.21 0 C16.03 0, 19.53 1.27, 21.69 3.09" stroke="#5f3dc4" stroke-width="1" fill="none"></path></g><g transform="translate(666.2369906684419 672.6161991842363) rotate(0 10.783197503403755 7.188798335602542)"><text x="10.783197503403766" y="10.377596671205033" font-family="Virgil, Segoe UI Emoji" font-size="11.50207733696401px" fill="#5f3dc4" text-anchor="middle" style="white-space: pre;" direction="ltr">DSc</text></g><g stroke-linecap="round" transform="translate(721.9355527551791 1123.0016121031726) rotate(0 13.2052951388888 13.2052951388888)"><path d="M21.69 3.09 C23.86 4.91, 25.72 8.13, 26.21 10.91 C26.7 13.7, 26.06 17.36, 24.64 19.81 C23.23 22.26, 20.38 24.65, 17.72 25.61 C15.06 26.58, 11.35 26.58, 8.69 25.61 C6.03 24.65, 3.18 22.26, 1.77 19.81 C0.35 17.36, -0.29 13.7, 0.2 10.91 C0.69 8.13, 2.55 4.91, 4.72 3.09 C6.88 1.27, 10.38 0, 13.21 0 C16.03 0, 19.53 1.27, 21.69 3.09" stroke="none" stroke-width="0" fill="#ffffff"></path><path d="M21.69 3.09 C23.86 4.91, 25.72 8.13, 26.21 10.91 C26.7 13.7, 26.06 17.36, 24.64 19.81 C23.23 22.26, 20.38 24.65, 17.72 25.61 C15.06 26.58, 11.35 26.58, 8.69 25.61 C6.03 24.65, 3.18 22.26, 1.77 19.81 C0.35 17.36, -0.29 13.7, 0.2 10.91 C0.69 8.13, 2.55 4.91, 4.72 3.09 C6.88 1.27, 10.38 0, 13.21 0 C16.03 0, 19.53 1.27, 21.69 3.09" stroke="#5f3dc4" stroke-width="1" fill="none"></path></g><g transform="translate(728.357650390664 1129.0181089064586) rotate(0 7 7)"><text x="7" y="10" font-family="Virgil, Segoe UI Emoji" font-size="11.50207733696401px" fill="#5f3dc4" text-anchor="middle" style="white-space: pre;" direction="ltr">NK</text></g><g stroke-linecap="round" transform="translate(660.5249624774015 96.19605654761736) rotate(0 13.2052951388888 13.2052951388888)"><path d="M21.69 3.09 C23.86 4.91, 25.72 8.13, 26.21 10.91 C26.7 13.7, 26.06 17.36, 24.64 19.81 C23.23 22.26, 20.38 24.65, 17.72 25.61 C15.06 26.58, 11.35 26.58, 8.69 25.61 C6.03 24.65, 3.18 22.26, 1.77 19.81 C0.35 17.36, -0.29 13.7, 0.2 10.91 C0.69 8.13, 2.55 4.91, 4.72 3.09 C6.88 1.27, 10.38 0, 13.21 0 C16.03 0, 19.53 1.27, 21.69 3.09" stroke="none" stroke-width="0" fill="#ffffff"></path><path d="M21.69 3.09 C23.86 4.91, 25.72 8.13, 26.21 10.91 C26.7 13.7, 26.06 17.36, 24.64 19.81 C23.23 22.26, 20.38 24.65, 17.72 25.61 C15.06 26.58, 11.35 26.58, 8.69 25.61 C6.03 24.65, 3.18 22.26, 1.77 19.81 C0.35 17.36, -0.29 13.7, 0.2 10.91 C0.69 8.13, 2.55 4.91, 4.72 3.09 C6.88 1.27, 10.38 0, 13.21 0 C16.03 0, 19.53 1.27, 21.69 3.09" stroke="#5f3dc4" stroke-width="1" fill="none"></path></g><g transform="translate(666.9470601128864 102.21255335090333) rotate(0 7 7)"><text x="7" y="10" font-family="Virgil, Segoe UI Emoji" font-size="11.50207733696401px" fill="#5f3dc4" text-anchor="middle" style="white-space: pre;" direction="ltr">NK</text></g><g stroke-linecap="round" transform="translate(714.1490944218465 527.1552579365064) rotate(0 13.2052951388888 13.2052951388888)"><path d="M21.69 3.09 C23.86 4.91, 25.72 8.13, 26.21 10.91 C26.7 13.7, 26.06 17.36, 24.64 19.81 C23.23 22.26, 20.38 24.65, 17.72 25.61 C15.06 26.58, 11.35 26.58, 8.69 25.61 C6.03 24.65, 3.18 22.26, 1.77 19.81 C0.35 17.36, -0.29 13.7, 0.2 10.91 C0.69 8.13, 2.55 4.91, 4.72 3.09 C6.88 1.27, 10.38 0, 13.21 0 C16.03 0, 19.53 1.27, 21.69 3.09" stroke="none" stroke-width="0" fill="#ffffff"></path><path d="M21.69 3.09 C23.86 4.91, 25.72 8.13, 26.21 10.91 C26.7 13.7, 26.06 17.36, 24.64 19.81 C23.23 22.26, 20.38 24.65, 17.72 25.61 C15.06 26.58, 11.35 26.58, 8.69 25.61 C6.03 24.65, 3.18 22.26, 1.77 19.81 C0.35 17.36, -0.29 13.7, 0.2 10.91 C0.69 8.13, 2.55 4.91, 4.72 3.09 C6.88 1.27, 10.38 0, 13.21 0 C16.03 0, 19.53 1.27, 21.69 3.09" stroke="#5f3dc4" stroke-width="1" fill="none"></path></g><g transform="translate(720.5711920573312 533.1717547397923) rotate(0 7 7)"><text x="7" y="10" font-family="Virgil, Segoe UI Emoji" font-size="11.50207733696401px" fill="#5f3dc4" text-anchor="middle" style="white-space: pre;" direction="ltr">SN</text></g><g stroke-linecap="round" transform="translate(156.18034442184592 694.6726190476173) rotate(0 13.2052951388888 13.2052951388888)"><path d="M21.69 3.09 C23.86 4.91, 25.72 8.13, 26.21 10.91 C26.7 13.7, 26.06 17.36, 24.64 19.81 C23.23 22.26, 20.38 24.65, 17.72 25.61 C15.06 26.58, 11.35 26.58, 8.69 25.61 C6.03 24.65, 3.18 22.26, 1.77 19.81 C0.35 17.36, -0.29 13.7, 0.2 10.91 C0.69 8.13, 2.55 4.91, 4.72 3.09 C6.88 1.27, 10.38 0, 13.21 0 C16.03 0, 19.53 1.27, 21.69 3.09" stroke="none" stroke-width="0" fill="#ffffff"></path><path d="M21.69 3.09 C23.86 4.91, 25.72 8.13, 26.21 10.91 C26.7 13.7, 26.06 17.36, 24.64 19.81 C23.23 22.26, 20.38 24.65, 17.72 25.61 C15.06 26.58, 11.35 26.58, 8.69 25.61 C6.03 24.65, 3.18 22.26, 1.77 19.81 C0.35 17.36, -0.29 13.7, 0.2 10.91 C0.69 8.13, 2.55 4.91, 4.72 3.09 C6.88 1.27, 10.38 0, 13.21 0 C16.03 0, 19.53 1.27, 21.69 3.09" stroke="#364fc7" stroke-width="1" fill="none"></path></g><g transform="translate(162.1024420573308 700.689115850903) rotate(0 7.5 7)"><text x="7.5" y="10" font-family="Virgil, Segoe UI Emoji" font-size="11.50207733696401px" fill="#364fc7" text-anchor="middle" style="white-space: pre;" direction="ltr">LE</text></g><g stroke-linecap="round" transform="translate(392.85569164406814 97.62400793650605) rotate(0 13.2052951388888 13.2052951388888)"><path d="M21.69 3.09 C23.86 4.91, 25.72 8.13, 26.21 10.91 C26.7 13.7, 26.06 17.36, 24.64 19.81 C23.23 22.26, 20.38 24.65, 17.72 25.61 C15.06 26.58, 11.35 26.58, 8.69 25.61 C6.03 24.65, 3.18 22.26, 1.77 19.81 C0.35 17.36, -0.29 13.7, 0.2 10.91 C0.69 8.13, 2.55 4.91, 4.72 3.09 C6.88 1.27, 10.38 0, 13.21 0 C16.03 0, 19.53 1.27, 21.69 3.09" stroke="none" stroke-width="0" fill="#ffffff"></path><path d="M21.69 3.09 C23.86 4.91, 25.72 8.13, 26.21 10.91 C26.7 13.7, 26.06 17.36, 24.64 19.81 C23.23 22.26, 20.38 24.65, 17.72 25.61 C15.06 26.58, 11.35 26.58, 8.69 25.61 C6.03 24.65, 3.18 22.26, 1.77 19.81 C0.35 17.36, -0.29 13.7, 0.2 10.91 C0.69 8.13, 2.55 4.91, 4.72 3.09 C6.88 1.27, 10.38 0, 13.21 0 C16.03 0, 19.53 1.27, 21.69 3.09" stroke="#364fc7" stroke-width="1" fill="none"></path></g><g transform="translate(398.777789279553 103.64050473979174) rotate(0 7.5 7)"><text x="7.5" y="10" font-family="Virgil, Segoe UI Emoji" font-size="11.50207733696401px" fill="#364fc7" text-anchor="middle" style="white-space: pre;" direction="ltr">LE</text></g><g stroke-linecap="round" transform="translate(153.97548331073483 491.3479662698396) rotate(0 13.2052951388888 13.2052951388888)"><path d="M21.69 3.09 C23.86 4.91, 25.72 8.13, 26.21 10.91 C26.7 13.7, 26.06 17.36, 24.64 19.81 C23.23 22.26, 20.38 24.65, 17.72 25.61 C15.06 26.58, 11.35 26.58, 8.69 25.61 C6.03 24.65, 3.18 22.26, 1.77 19.81 C0.35 17.36, -0.29 13.7, 0.2 10.91 C0.69 8.13, 2.55 4.91, 4.72 3.09 C6.88 1.27, 10.38 0, 13.21 0 C16.03 0, 19.53 1.27, 21.69 3.09" stroke="none" stroke-width="0" fill="#ffffff"></path><path d="M21.69 3.09 C23.86 4.91, 25.72 8.13, 26.21 10.91 C26.7 13.7, 26.06 17.36, 24.64 19.81 C23.23 22.26, 20.38 24.65, 17.72 25.61 C15.06 26.58, 11.35 26.58, 8.69 25.61 C6.03 24.65, 3.18 22.26, 1.77 19.81 C0.35 17.36, -0.29 13.7, 0.2 10.91 C0.69 8.13, 2.55 4.91, 4.72 3.09 C6.88 1.27, 10.38 0, 13.21 0 C16.03 0, 19.53 1.27, 21.69 3.09" stroke="#364fc7" stroke-width="1" fill="none"></path></g><g transform="translate(159.8975809462197 497.3644630731253) rotate(0 7.5 7)"><text x="7.5" y="10" font-family="Virgil, Segoe UI Emoji" font-size="11.50207733696401px" fill="#364fc7" text-anchor="middle" style="white-space: pre;" direction="ltr">LE</text></g><g stroke-linecap="round" transform="translate(139.82617775517923 314.35230654761733) rotate(0 13.2052951388888 13.2052951388888)"><path d="M21.69 3.09 C23.86 4.91, 25.72 8.13, 26.21 10.91 C26.7 13.7, 26.06 17.36, 24.64 19.81 C23.23 22.26, 20.38 24.65, 17.72 25.61 C15.06 26.58, 11.35 26.58, 8.69 25.61 C6.03 24.65, 3.18 22.26, 1.77 19.81 C0.35 17.36, -0.29 13.7, 0.2 10.91 C0.69 8.13, 2.55 4.91, 4.72 3.09 C6.88 1.27, 10.38 0, 13.21 0 C16.03 0, 19.53 1.27, 21.69 3.09" stroke="none" stroke-width="0" fill="#ffffff"></path><path d="M21.69 3.09 C23.86 4.91, 25.72 8.13, 26.21 10.91 C26.7 13.7, 26.06 17.36, 24.64 19.81 C23.23 22.26, 20.38 24.65, 17.72 25.61 C15.06 26.58, 11.35 26.58, 8.69 25.61 C6.03 24.65, 3.18 22.26, 1.77 19.81 C0.35 17.36, -0.29 13.7, 0.2 10.91 C0.69 8.13, 2.55 4.91, 4.72 3.09 C6.88 1.27, 10.38 0, 13.21 0 C16.03 0, 19.53 1.27, 21.69 3.09" stroke="#5f3dc4" stroke-width="1" fill="none"></path></g><g transform="translate(141.2482753906641 320.368803350903) rotate(0 12 7)"><text x="12" y="10" font-family="Virgil, Segoe UI Emoji" font-size="11.50207733696401px" fill="#5f3dc4" text-anchor="middle" style="white-space: pre;" direction="ltr">DSa</text></g></svg>