<svg xmlns="http://www.w3.org/2000/svg" xmlns:xlink="http://www.w3.org/1999/xlink" width="141.896" height="145.399" viewBox="0 0 141.896 145.399">
  <defs>
    <linearGradient id="linear-gradient" x1="0.5" x2="0.5" y2="1" gradientUnits="objectBoundingBox">
      <stop offset="0" stop-color="#329ef7"/>
      <stop offset="1" stop-color="#6ccbfa"/>
    </linearGradient>
    <filter id="Line_24" x="66.364" y="37.735" width="49.779" height="49.779" filterUnits="userSpaceOnUse">
      <feOffset dy="3" input="SourceAlpha"/>
      <feGaussianBlur stdDeviation="3" result="blur"/>
      <feFlood flood-opacity="0.161"/>
      <feComposite operator="in" in2="blur"/>
      <feComposite in="SourceGraphic"/>
    </filter>
    <filter id="Line_25" x="66.364" y="63.858" width="49.779" height="49.779" filterUnits="userSpaceOnUse">
      <feOffset dy="3" input="SourceAlpha"/>
      <feGaussianBlur stdDeviation="3" result="blur-2"/>
      <feFlood flood-opacity="0.161"/>
      <feComposite operator="in" in2="blur-2"/>
      <feComposite in="SourceGraphic"/>
    </filter>
    <filter id="Line_24-2" x="25.672" y="63.857" width="49.779" height="49.779" filterUnits="userSpaceOnUse">
      <feOffset dy="3" input="SourceAlpha"/>
      <feGaussianBlur stdDeviation="3" result="blur-3"/>
      <feFlood flood-opacity="0.161"/>
      <feComposite operator="in" in2="blur-3"/>
      <feComposite in="SourceGraphic"/>
    </filter>
    <filter id="Line_25-2" x="25.672" y="37.735" width="49.779" height="49.779" filterUnits="userSpaceOnUse">
      <feOffset dy="3" input="SourceAlpha"/>
      <feGaussianBlur stdDeviation="3" result="blur-4"/>
      <feFlood flood-opacity="0.161"/>
      <feComposite operator="in" in2="blur-4"/>
      <feComposite in="SourceGraphic"/>
    </filter>
  </defs>
  <g id="Group_145" data-name="Group 145" transform="translate(-257 -5011.937)">
    <path id="_7" data-name="7" d="M121.177,88.017c0,38.9,17.112,69.319-22.936,69.319S0,117.57,0,78.668,85.03,11.937,125.059,11.937,121.177,49.115,121.177,88.017Z" transform="translate(257 5000)" fill="url(#linear-gradient)"/>
    <g id="Group_17" data-name="Group 17" transform="translate(-1290 5018)">
      <g id="Group_15" data-name="Group 15" transform="translate(1625.193 40.5)">
        <g transform="matrix(1, 0, 0, 1, -78.19, -46.56)" filter="url(#Line_24)">
          <line id="Line_24-3" data-name="Line 24" x2="26.123" y2="26.123" stroke-width="4" fill="none" stroke="#fff" stroke-linecap="round" transform="translate(78.19 46.56)"/>
        </g>
        <g transform="matrix(1, 0, 0, 1, -78.19, -46.56)" filter="url(#Line_25)">
          <line id="Line_25-3" data-name="Line 25" x1="26.123" y2="26.123" transform="translate(78.19 72.69)" fill="none" stroke="#fff" stroke-linecap="round" stroke-width="4"/>
        </g>
      </g>
      <g id="Group_16" data-name="Group 16" transform="translate(1610.623 92.745) rotate(180)">
        <g transform="matrix(-1, 0, 0, -1, 63.62, 98.81)" filter="url(#Line_24-2)">
          <line id="Line_24-4" data-name="Line 24" x2="26.123" y2="26.123" stroke-width="4" fill="none" stroke="#fff" stroke-linecap="round" transform="translate(63.62 98.81) rotate(180)"/>
        </g>
        <g transform="matrix(-1, 0, 0, -1, 63.62, 98.81)" filter="url(#Line_25-2)">
          <line id="Line_25-4" data-name="Line 25" x1="26.123" y2="26.123" transform="translate(63.62 72.69) rotate(180)" fill="none" stroke="#fff" stroke-linecap="round" stroke-width="4"/>
        </g>
      </g>
    </g>
  </g>
</svg>
