<svg id="undraw_everywhere_together_bdmn-2" xmlns="http://www.w3.org/2000/svg" xmlns:xlink="http://www.w3.org/1999/xlink" width="791.904" height="452.008" viewBox="0 0 791.904 452.008">
  <defs>
    <linearGradient id="linear-gradient" x1="0.5" x2="0.5" y2="1" gradientUnits="objectBoundingBox">
      <stop offset="0" stop-color="#78e3dc"/>
      <stop offset="1" stop-color="#3792d3"/>
    </linearGradient>
  </defs>
  <path id="Path_419" data-name="Path 419" d="M759.481,107.248H600.824a33.727,33.727,0,0,0-32.9,26.31L487.756,489.14a27.259,27.259,0,0,0,25.25,33.221l163.1,8.036a36.012,36.012,0,0,0,37.209-29.558l45.475-251.4,3.383.967,8.7-47.65-3.482-.871,12.694-70.175a20.766,20.766,0,0,0-20.606-24.461Z" transform="translate(-165.588 -107.247)" fill="#3f3d56"/>
  <path id="Path_420" data-name="Path 420" d="M630,118.874h-18.52a23.308,23.308,0,0,0-22.772,18.34L511.761,489.894a14.443,14.443,0,0,0,13.166,17.49L687.5,518.039a18.7,18.7,0,0,0,19.632-15.349l65.661-364.53a16.383,16.383,0,0,0-16.123-19.287H739.1a7.732,7.732,0,0,0-7.466,5.722h0a6.826,6.826,0,0,1-6.591,5.051H641.635A11.668,11.668,0,0,1,630,118.874Z" transform="translate(-173.879 -111.208)" fill="url(#linear-gradient)"/>
  <path id="Path_421" data-name="Path 421" d="M1037.97,554.681c-25.37,40.087-17.582,90.528-17.582,90.528s48.919-14.554,74.289-54.641,17.582-90.528,17.582-90.528S1063.34,514.594,1037.97,554.681Z" transform="translate(-346.857 -241.041)" fill="#d0cde1"/>
  <path id="Path_422" data-name="Path 422" d="M1042.622,548.293c-1.4,47.42-36.08,84.869-36.08,84.869s-32.4-39.434-31-86.853,36.08-84.869,36.08-84.869S1044.025,500.874,1042.622,548.293Z" transform="translate(-331.951 -227.893)" fill="#7be6dc"/>
  <ellipse id="Ellipse_55" data-name="Ellipse 55" cx="14.506" cy="9.874" rx="14.506" ry="9.874" transform="translate(61.951 240.844)" fill="#7be6dc"/>
  <path id="Path_423" data-name="Path 423" d="M115.461,487.481s68.9,119.722,67.091,137" transform="translate(-39.004 -236.763)" fill="#7be6dc"/>
  <path id="Path_424" data-name="Path 424" d="M134.015,500.006v70.035c-14.433-20-43.222-40.592-97.169-57.309L134.015,646.2v1.014s.184-.1.525-.292l.166.227s.139-.185.387-.544C146.413,640.049,241.361,580.92,134.015,500.006Z" transform="translate(-12.226 -241.029)" fill="#3f3d56"/>
  <ellipse id="Ellipse_56" data-name="Ellipse 56" cx="14.506" cy="9.874" rx="14.506" ry="9.874" transform="translate(590.773 240.844)" fill="#7be6dc"/>
  <path id="Path_425" data-name="Path 425" d="M917.461,487.481s68.9,119.722,67.091,137" transform="translate(-312.182 -236.763)" fill="#7be6dc"/>
  <path id="Path_426" data-name="Path 426" d="M936.015,500.006v70.035c-14.433-20-43.222-40.592-97.169-57.309L936.015,646.2v1.014s.184-.1.525-.292l.165.227s.139-.185.387-.544C948.413,640.049,1043.361,580.92,936.015,500.006Z" transform="translate(-285.404 -241.029)" fill="#3f3d56"/>
  <path id="Path_427" data-name="Path 427" d="M42.484,676.266c7.616,14.124,23.779,20.187,23.779,20.187s3.816-16.836-3.8-30.96-23.779-20.187-23.779-20.187S34.869,662.142,42.484,676.266Z" transform="translate(-12.527 -290.521)" fill="#d0cde1"/>
  <path id="Path_428" data-name="Path 428" d="M37,682.22c13.75,8.272,19.045,24.7,19.045,24.7s-17,3.019-30.747-5.253-19.045-24.7-19.045-24.7S23.247,673.948,37,682.22Z" transform="translate(-1.805 -301.123)" fill="#7be6dc"/>
  <path id="Path_429" data-name="Path 429" d="M732.484,676.266c7.616,14.124,23.779,20.187,23.779,20.187s3.816-16.836-3.8-30.96-23.779-20.187-23.779-20.187S724.869,662.142,732.484,676.266Z" transform="translate(-247.555 -290.521)" fill="#3f3d56"/>
  <path id="Path_430" data-name="Path 430" d="M727,682.22c13.75,8.272,19.045,24.7,19.045,24.7s-17,3.019-30.747-5.253-19.045-24.7-19.045-24.7S713.247,673.948,727,682.22Z" transform="translate(-236.833 -301.123)" fill="#3f3d56"/>
  <path id="Path_431" data-name="Path 431" d="M450.484,660.266c7.616,14.124,23.779,20.187,23.779,20.187s3.816-16.836-3.8-30.96-23.779-20.187-23.779-20.187S442.869,646.142,450.484,660.266Z" transform="translate(-151.5 -285.071)" fill="#3f3d56"/>
  <path id="Path_432" data-name="Path 432" d="M445,666.22c13.75,8.272,19.045,24.7,19.045,24.7s-17,3.019-30.747-5.253-19.045-24.7-19.045-24.7S431.247,657.948,445,666.22Z" transform="translate(-140.778 -295.673)" fill="#7be6dc"/>
  <path id="Path_433" data-name="Path 433" d="M325.484,660.266c7.616,14.124,23.779,20.187,23.779,20.187s3.816-16.836-3.8-30.96-23.779-20.187-23.779-20.187S317.869,646.142,325.484,660.266Z" transform="translate(-108.923 -285.071)" fill="#d0cde1"/>
  <path id="Path_434" data-name="Path 434" d="M320,666.22c13.75,8.272,19.045,24.7,19.045,24.7s-17,3.019-30.747-5.253-19.045-24.7-19.045-24.7S306.247,657.948,320,666.22Z" transform="translate(-98.2 -295.673)" fill="#7be6dc"/>
  <path id="Path_435" data-name="Path 435" d="M1142.164,676.266c-7.616,14.124-23.779,20.187-23.779,20.187s-3.816-16.836,3.8-30.96,23.779-20.187,23.779-20.187S1149.779,662.142,1142.164,676.266Z" transform="translate(-380.295 -290.521)" fill="#3f3d56"/>
  <path id="Path_436" data-name="Path 436" d="M1137.164,682.22c-13.75,8.272-19.045,24.7-19.045,24.7s17,3.019,30.747-5.253,19.045-24.7,19.045-24.7S1150.914,673.948,1137.164,682.22Z" transform="translate(-380.53 -301.123)" fill="#7be6dc"/>
  <path id="Path_437" data-name="Path 437" d="M791.412,640.5s-18.966-5.62-56.689-11.021l.679-11.542c5.678-65-38.819-161.826-38.819-161.826A434.489,434.489,0,0,1,721.7,606.234c-5.9-10-17.193-20.732-38.721-27.134,0,0,28.189,23.567,36.487,48.346a1079.662,1079.662,0,0,0-110.491-7.505l9.313-22.176-18.162,18.623s-8.265-55.083-24.521-57.043l12.579,53.947s-14.2-10.643-17.433-9.52l8.2,15.906q-7.566.016-15.4.117c3.893-64.916-39.067-158.407-39.067-158.407A434.487,434.487,0,0,1,549.6,611.509c-5.9-10-17.193-20.732-38.721-27.134,0,0,19.382,16.2,30.733,35.868-28.545.791-59.521,2.455-92.914,5.265q-5.815-.17-11.823-.292l4.358-10.378,1.686-3.269a1.488,1.488,0,0,0-.287-.061l3.556-8.467-11.55,11.844c-2.6,1.574-5.2,3.365-6.963,4.618-.188-1.11-.452-2.606-.792-4.4l11.183-47.961c-7.2.869-12.838,12.173-16.88,24.491C417.1,578.377,411.2,565.548,403.5,564.62l11.719,50.259c-.19.948-.365,1.844-.523,2.676-3.6-2.6-13.186-9.242-15.942-8.532l-3.376-3.461,8.149,19.4q-5.863.026-11.878.1l-2-.222,5.883-14.009L382.62,624.084q-3.155-.336-6.286-.659c-2.688-14.351-10.559-49.451-23.477-51.009l11.618,49.826q-2.884-.278-5.743-.544c-4.149-2.7-9-5.455-10.729-4.855l2.1,4.068c-51.73-4.583-97.784-6.421-138.132-6.508l8.2-15.906c-3.232-1.123-17.433,9.52-17.433,9.52l12.579-53.946c-10.109,1.219-17.127,22.98-20.989,39.264-3.631-8.441-8.158-14.989-13.572-15.642l7.087,30.393L172.636,592.49l9.313,22.176a1079.66,1079.66,0,0,0-110.491,7.505c8.3-24.779,36.487-48.346,36.487-48.346-21.528,6.4-32.82,17.132-38.721,27.134A434.487,434.487,0,0,1,94.338,450.838s-44.5,96.83-38.819,161.826L56.2,624.2c-37.723,5.4-56.689,11.021-56.689,11.021l184.349,2.311,1.633,3.166q-36.37,4.827-75.757,11.461l509.581-6.388s-3.978-1.177-11.889-2.969Z" transform="translate(0.491 -224.281)" fill="#3f3d56"/>
  <path id="Path_438" data-name="Path 438" d="M220.742,788.665s121.326-17.8,196.5,0" transform="translate(-74.865 -336.657)" fill="#3f3d56"/>
  <path id="Path_439" data-name="Path 439" d="M924.742,765.5s71.859-18.224,116.38,0" transform="translate(-314.662 -328.701)" fill="#3f3d56"/>
  <path id="Path_440" data-name="Path 440" d="M688.7,467.976q-.471,0-.944-.03l-11.244-.739-110.189-7.22A11.464,11.464,0,0,1,555.9,446.126l57.478-263.436a18.166,18.166,0,0,1,17.649-14.214H739.472a12.9,12.9,0,0,1,12.689,15.184L703.116,455.938a14.671,14.671,0,0,1-3.175,6.792l-.136.329h-.142a14.7,14.7,0,0,1-4.258,3.3l-.08.037A14.662,14.662,0,0,1,688.7,467.976ZM631.023,169.8a16.84,16.84,0,0,0-16.361,13.176L557.184,446.407a10.117,10.117,0,0,0,9.233,12.264l121.428,7.958a13.306,13.306,0,0,0,6.873-1.4l.075-.035a13.358,13.358,0,0,0,3.853-2.976l.214-.251a13.346,13.346,0,0,0,2.959-6.264l49.044-272.277.649.117-.649-.117A11.58,11.58,0,0,0,739.472,169.8Z" transform="translate(-188.935 -128.103)" fill="#3f3d56"/>
  <path id="Path_441" data-name="Path 441" d="M570.277,575.944s-20.693,24.132-16.344,25.708,24.655-15.667,23.349-21.763Z" transform="translate(-188.152 -266.895)" fill="#ffb9b9"/>
  <path id="Path_442" data-name="Path 442" d="M759.371,609.861s11.234,29.738,6.608,29.738-17.843-23.129-14.538-28.416Z" transform="translate(-255.454 -278.448)" fill="#ffb9b9"/>
  <path id="Path_443" data-name="Path 443" d="M727.365,319.224c-1.855-2.623-4.136-4.915-6.094-7.463-4.513-5.873-6.074-13.7-12.13-18.2-5.993-4.457-15.5-8.843-23-8.492-9.883.463-17.723,8.13-24.536,15.3l-15.619,16.448c-3.766,3.966-7.672,8.177-9.03,13.476-1.3,5.092-.031,10.563,2.357,15.246a37.107,37.107,0,0,0,10.205,12.183c5.228-7.2,12.553-17.14,12.553-17.14l1.705,24.727c8.858,2.936,18.373,3.513,27.708,2.864l2.765-10.138,2.9,9.577c11.155-1.479,22.362-5.331,29.267-14.035A29.483,29.483,0,0,0,727.365,319.224Z" transform="translate(-216.458 -167.809)" fill="#2f2e41"/>
  <circle id="Ellipse_57" data-name="Ellipse 57" cx="20.486" cy="20.486" r="20.486" transform="translate(447.747 132.502)" fill="#ffb9b9"/>
  <path id="Path_444" data-name="Path 444" d="M676.6,354.3s1.322,15.86-7.269,17.182-17.843,0-17.843,5.287,6.608,53.528,6.608,53.528l16.521-1.322L697.75,406.5l12.556-24.451s-15.2-6.608-8.591-26.433Z" transform="translate(-221.587 -191.398)" fill="#ffb9b9"/>
  <path id="Path_445" data-name="Path 445" d="M658.761,426.5l-6.608-17.843,1.322-24.451s14.51-1.983,14.194-13.878l-10.89,4.626-25.112,3.965v23.129s-8.591,13.878,1.322,27.755l4.626,29.077,47.58-3.3,15.2-19.825,19.164-37.668L699.733,383.55l2.643-3.965-10.112-6.595,1.521,12.542-4.626,7.93S668.013,397.428,658.761,426.5Z" transform="translate(-213.658 -196.86)" fill="#fff"/>
  <path id="Path_446" data-name="Path 446" d="M616.934,384.684l-3.965-1.322s-7.93,3.3-7.93,13.878-31.72,114.985-31.72,114.985l14.538,3.965,19.825-48.241,11.9-40.311Z" transform="translate(-194.96 -201.298)" fill="#fff"/>
  <path id="Path_447" data-name="Path 447" d="M751.559,412.362h5.287s3.3-2.643,2.643,16.521,1.982,120.272,1.982,120.272l-19.164-1.322L737.681,438.8Z" transform="translate(-250.945 -211.134)" fill="#fff"/>
  <path id="Path_448" data-name="Path 448" d="M703.682,574.833l-36.114-2.367-8.776-.574-19.986-1.312c-.3-1.075-.567-2-.778-2.783-6.607-24.45.666-58.81.666-58.81s-1.325-3.3,0-5.288.659-1.319-1.985-3.963,0,0,1.319-3.3,0,0,0-2.644a5.812,5.812,0,0,0-1.319-3.969,8.819,8.819,0,0,1,1.767-1.081c12.574-6.027,52.935,1.391,52.935,1.391s-.026.033-.073.1a3.236,3.236,0,0,0,.218,4.22c1.985,1.985-1.319,1.985-1.978,3.963s0,0,.659,1.985-1.325,4.622-1.325,4.622C705.924,519.313,706.82,549.2,703.682,574.833Z" transform="translate(-216.057 -236.387)" fill="#2f2e41"/>
  <path id="Path_449" data-name="Path 449" d="M679.726,611.112l-8.776-.574c1.49-6.772,2.367-10.7,2.367-10.7Z" transform="translate(-228.215 -275.034)" fill="#2f2e41"/>
  <path id="Path_450" data-name="Path 450" d="M676.045,309.205s16.521,19.825,49.563,8.591l-9.252-16.521-21.807-6.608Z" transform="translate(-229.951 -171.086)" fill="#2f2e41"/>
  <path id="Path_451" data-name="Path 451" d="M432.269,758.893s9.336,7.862,14.25,7.371,14.25-.491,10.319,4.914-20.147,8.353-27.026,8.845-22.112.983-21.129-1.966,1.966-16.707,5.9-17.69S432.269,758.893,432.269,758.893Z" transform="translate(-138.866 -329.211)" fill="#575a89"/>
  <path id="Path_452" data-name="Path 452" d="M348.742,745.464s6.88,10.082,11.745,10.929,13.858,3.356,8.619,7.506-21.65,2.632-28.409,1.256-21.563-5-19.824-7.572,6.383-15.564,10.434-15.454S348.742,745.464,348.742,745.464Z" transform="translate(-108.924 -323.501)" fill="#575a89"/>
  <path id="Path_453" data-name="Path 453" d="M410.647,523.738s6.324,43.311,4.85,51.173-2.457,20.147-2.457,20.147.983,10.319,0,15.233-6.879,51.595-6.879,52.578.983,3.931,0,6.388-2.948.491,0,4.422.983,4.914.491,4.914-19.655,1.966-20.638,0,.491-2.457,0-4.914-.983-2.948-1.966-3.44-2.948.491-1.474-1.965,4.914-5.405,3.931-6.879.491-12.284.491-12.284.983-24.078,1.474-38.819-4.422-29.974-4.422-29.974a56.221,56.221,0,0,1-12.776,32.922c-12.776,15.233-19.164,43.733-19.164,43.733s-2.948,4.422-1.474,8.353,5.9,1.474,1.474,3.931-19.655-.983-21.129-2.457,1.965-3.44.983-7.371-4.914-2.948-1.474-4.914,4.422-1.474,4.422-3.44,8.845-44.716,22.6-57l.983-44.715s-12.284-31.448.491-34.4S410.647,523.738,410.647,523.738Z" transform="translate(-111.775 -245.962)" fill="#2f2e41"/>
  <path id="Path_454" data-name="Path 454" d="M423.522,347.01s-8.353,20.638-6.388,23.586-24.078-9.828-24.078-9.828,8.353-20.638,8.353-23.095S423.522,347.01,423.522,347.01Z" transform="translate(-133.559 -185.621)" fill="#ffb9b9"/>
  <circle id="Ellipse_58" data-name="Ellipse 58" cx="18.181" cy="18.181" r="18.181" transform="translate(265.64 130.186)" fill="#ffb9b9"/>
  <path id="Path_455" data-name="Path 455" d="M382.393,360.1s12.776-1.474,19.164,6.388,7.371,9.828,7.371,9.828,15.233,24.569,12.284,36.853a35.553,35.553,0,0,0-1.965,3.44c-.983,1.966-.983,29.483,0,33.905s1.966,5.9.983,12.284,7.862,16.707-2.457,18.672-18.181.491-21.621-3.931-.491-7.371-11.3-7.371a26,26,0,0,1-17.69-7.371s5.405-5.9,3.44-6.879,0-3.44.983-5.9.983-4.422-.491-4.422-.491-.983.491-3.44-17.2-44.715-6.388-57S381.41,366,381.41,366,379.445,358.629,382.393,360.1Z" transform="translate(-122.896 -193.309)" fill="#2f2e41"/>
  <path id="Path_456" data-name="Path 456" d="M423.057,431V452.62l15.724,52.086s10.319,27.026,0,27.026-9.766-25.8-9.766-25.8L406.841,466.87s-8.845-30.957-7.862-33.414S423.057,431,423.057,431Z" transform="translate(-135.55 -217.524)" fill="#ffb9b9"/>
  <path id="Path_457" data-name="Path 457" d="M413.633,382.557s14.741,5.9,10.81,21.621,0,15.233,0,15.233-20.147-1.966-26.534,2.457l-1.474-5.9S390.538,382.066,413.633,382.557Z" transform="translate(-134.48 -201.022)" fill="#2f2e41"/>
  <path id="Path_458" data-name="Path 458" d="M421.473,304.208a7.254,7.254,0,0,0,6.814-1.06,5.489,5.489,0,0,0,1.548-6.48c-.941-1.847-2.953-2.86-4.883-3.615a45.385,45.385,0,0,0-13.3-3,12.1,12.1,0,0,0-6.4.863c-.96.491-1.793,1.2-2.744,1.709-1.748.936-3.782,1.144-5.671,1.746a14.194,14.194,0,0,0-8.674,7.974A17.1,17.1,0,0,0,387.1,306.3a22.047,22.047,0,0,0,1.147,11.037c2.095,5.577,6.488,10.452,6.736,16.4,2.689-1.951,3.686-5.472,5.841-8a10.882,10.882,0,0,1,6.211-3.6,3.459,3.459,0,0,0,1.851-.675,2.981,2.981,0,0,0,.676-1.577l1.84-8.687c.374-1.768.848-3.7,2.3-4.77a6.961,6.961,0,0,1,3-1.056,47.044,47.044,0,0,1,7.682-.7" transform="translate(-131.444 -169.49)" fill="#2f2e41"/>
</svg>
