<svg xmlns="http://www.w3.org/2000/svg" xmlns:xlink="http://www.w3.org/1999/xlink" width="391.394" height="310.688" viewBox="0 0 391.394 310.688">
  <defs>
    <linearGradient id="linear-gradient" x1="0.508" y1="0.468" x2="0.508" y2="-0.532" gradientUnits="objectBoundingBox">
      <stop offset="0" stop-color="gray" stop-opacity="0.251"/>
      <stop offset="0.54" stop-color="gray" stop-opacity="0.122"/>
      <stop offset="1" stop-color="gray" stop-opacity="0.102"/>
    </linearGradient>
    <linearGradient id="linear-gradient-2" x1="-6.39" y1="0.315" x2="-6.39" y2="-0.3" xlink:href="#linear-gradient"/>
    <linearGradient id="linear-gradient-3" x1="-7.004" y1="0.126" x2="-7.004" y2="-0.489" xlink:href="#linear-gradient"/>
    <linearGradient id="linear-gradient-4" x1="-0.757" y1="0.537" x2="-0.757" y2="-0.463" xlink:href="#linear-gradient"/>
    <linearGradient id="linear-gradient-5" x1="0.5" y1="1" x2="0.5" y2="0" xlink:href="#linear-gradient"/>
  </defs>
  <g id="opened" transform="translate(0.031 -0.005)">
    <rect id="Rectangle_217" data-name="Rectangle 217" width="113.118" height="69.518" transform="translate(-0.031 190.204) rotate(-16.6)" fill="url(#linear-gradient)"/>
    <rect id="Rectangle_218" data-name="Rectangle 218" width="109.284" height="64.879" transform="translate(1.791 191.461) rotate(-16.6)" fill="#fff"/>
    <g id="Group_120" data-name="Group 120" transform="translate(7.768 190.852)" opacity="0.6">
      <rect id="Rectangle_219" data-name="Rectangle 219" width="13.903" height="10.289" transform="translate(16.263 9.86) rotate(163.4)" fill="#39a4f7"/>
      <rect id="Rectangle_220" data-name="Rectangle 220" width="53.39" height="3.335" transform="translate(70.751 14.504) rotate(163.4)" fill="#39a4f7"/>
      <rect id="Rectangle_221" data-name="Rectangle 221" width="38.93" height="2.225" transform="translate(72.818 21.429) rotate(163.4)" fill="#39a4f7"/>
    </g>
    <rect id="Rectangle_222" data-name="Rectangle 222" width="69.518" height="113.118" transform="translate(264.009 68.24) rotate(-78.98)" fill="url(#linear-gradient-2)"/>
    <rect id="Rectangle_223" data-name="Rectangle 223" width="64.879" height="109.284" transform="translate(265.926 65.653) rotate(-78.98)" fill="#fff"/>
    <g id="Group_121" data-name="Group 121" transform="translate(280.056 7.72)" opacity="0.6">
      <rect id="Rectangle_224" data-name="Rectangle 224" width="13.903" height="10.289" transform="translate(13.646 12.757) rotate(-168.98)" fill="#3ca6f7"/>
      <rect id="Rectangle_225" data-name="Rectangle 225" width="53.39" height="3.335" transform="translate(59.772 42.139) rotate(-168.98)" fill="#3ca6f7"/>
      <rect id="Rectangle_226" data-name="Rectangle 226" width="38.93" height="2.225" transform="translate(58.392 49.238) rotate(-168.98)" fill="#3ca6f7"/>
    </g>
    <rect id="Rectangle_227" data-name="Rectangle 227" width="69.518" height="113.118" transform="translate(282.572 162.397) rotate(-23.45)" fill="url(#linear-gradient-3)"/>
    <rect id="Rectangle_228" data-name="Rectangle 228" width="64.879" height="109.284" transform="translate(285.786 162.512) rotate(-23.45)" fill="#fff"/>
    <g id="Group_122" data-name="Group 122" transform="translate(318.496 143.011)" opacity="0.6">
      <rect id="Rectangle_229" data-name="Rectangle 229" width="13.903" height="10.289" transform="translate(20.242 16.849) rotate(-113.45)" fill="#47e6b1"/>
      <rect id="Rectangle_230" data-name="Rectangle 230" width="53.39" height="3.335" transform="translate(22.124 71.501) rotate(-113.45)" fill="#47e6b1"/>
      <rect id="Rectangle_231" data-name="Rectangle 231" width="38.93" height="2.225" transform="translate(15.492 74.375) rotate(-113.45)" fill="#47e6b1"/>
    </g>
    <rect id="Rectangle_232" data-name="Rectangle 232" width="113.118" height="69.518" transform="translate(30.167 38.306) rotate(-19.53)" fill="url(#linear-gradient-4)"/>
    <rect id="Rectangle_233" data-name="Rectangle 233" width="109.284" height="64.879" transform="translate(32.054 39.475) rotate(-19.53)" fill="#fff"/>
    <g id="Group_123" data-name="Group 123" transform="translate(38.161 37.904)" opacity="0.6">
      <rect id="Rectangle_234" data-name="Rectangle 234" width="13.903" height="10.289" transform="translate(16.542 9.697) rotate(160.47)" fill="#6c63ff"/>
      <rect id="Rectangle_235" data-name="Rectangle 235" width="53.39" height="3.335" transform="translate(71.197 11.557) rotate(160.47)" fill="#6c63ff"/>
      <rect id="Rectangle_236" data-name="Rectangle 236" width="38.93" height="2.225" transform="translate(73.613 18.367) rotate(160.47)" fill="#6c63ff"/>
    </g>
    <path id="Path_221" data-name="Path 221" d="M274.36,9.21,142.66,133.192V315.76h263.4V133.192Z" transform="translate(-78.553 -5.068)" fill="url(#linear-gradient-5)"/>
    <path id="Path_222" data-name="Path 222" d="M406.355,314.48H145.63V135.62L275.995,14.16l130.36,121.46Z" transform="translate(-80.188 -7.793)" fill="#fff"/>
    <rect id="Rectangle_237" data-name="Rectangle 237" width="181.525" height="213.56" transform="translate(105.042 31.282)" fill="url(#linear-gradient-5)"/>
    <rect id="Rectangle_238" data-name="Rectangle 238" width="176.941" height="211.78" transform="translate(107.334 33.062)" fill="#fff"/>
    <path id="Path_223" data-name="Path 223" d="M145.63,284.38l130.365,89.43L145.63,463.24Z" transform="translate(-80.188 -156.552)" fill="#f5f5f5"/>
    <path id="Path_224" data-name="Path 224" d="M566.02,284.38,435.66,373.81l130.36,89.43Z" transform="translate(-239.853 -156.552)" fill="#f5f5f5"/>
    <path id="Path_225" data-name="Path 225" d="M310.28,665.175l125.245-97.444a8.266,8.266,0,0,1,10.226,0l125.254,97.444Z" transform="translate(-244.838 -358.492)" fill="url(#linear-gradient-5)"/>
    <path id="Path_226" data-name="Path 226" d="M310.28,670.484,435.525,577.3a8.567,8.567,0,0,1,10.226,0l125.254,93.188Z" transform="translate(-244.838 -363.801)" fill="#fff"/>
    <rect id="Rectangle_239" data-name="Rectangle 239" width="36.93" height="6.23" transform="translate(134.182 73.993)" fill="#47e6b1"/>
    <rect id="Rectangle_240" data-name="Rectangle 240" width="123.245" height="6.23" transform="translate(134.182 90.457)" fill="#f5f5f5"/>
    <rect id="Rectangle_241" data-name="Rectangle 241" width="123.245" height="6.23" transform="translate(134.182 101.133)" fill="#f5f5f5"/>
    <rect id="Rectangle_242" data-name="Rectangle 242" width="123.245" height="6.23" transform="translate(134.182 111.812)" fill="#f5f5f5"/>
    <rect id="Rectangle_243" data-name="Rectangle 243" width="123.245" height="6.23" transform="translate(134.182 122.488)" fill="#f5f5f5"/>
    <rect id="Rectangle_244" data-name="Rectangle 244" width="56.06" height="6.23" transform="translate(134.182 133.168)" fill="#f5f5f5"/>
    <rect id="Rectangle_245" data-name="Rectangle 245" width="56.06" height="6.23" transform="translate(201.367 133.168)" fill="#6c63ff"/>
  </g>
</svg>
