<svg id="undraw_share_opinion_jpw0" xmlns="http://www.w3.org/2000/svg" width="489.227" height="324.251" viewBox="0 0 489.227 324.251">
  <path id="Path_512" data-name="Path 512" d="M809.753,628.383l-102.222.339c-27.12-8.149-49.339-36.452-49.479-78.886a120.176,120.176,0,0,1,1.444-19.093l82.335-18.5,63.517-14.269A126.323,126.323,0,0,1,818.4,511.542l-60.737,32.071-28.652,15.13,32.2-11.108,66.825-23.054A162.058,162.058,0,0,1,839.14,544.5l-20.163,20.838,22.809-14.932q.146.343.291.687C856.533,585.414,838.6,628.287,809.753,628.383Z" transform="translate(-387.549 -314.455)" fill="#f2f2f2"/>
  <path id="Path_513" data-name="Path 513" d="M795.307,457.1c-15.459,4.44-34.464,10.049-54,15.88-28.253,8.432-57.623,17.331-79.006,23.836l.014-.076a29.39,29.39,0,0,1,5.423-12.587c15.84-20.594,36.009-34.981,58.456-40.324h0a84.246,84.246,0,0,1,19.266-2.3C763.317,441.466,780.234,447.067,795.307,457.1Z" transform="translate(-389.901 -283.179)" fill="#f2f2f2"/>
  <path id="Path_514" data-name="Path 514" d="M196.042,601.906l-17.674,52.932-4.339,13a43.749,43.749,0,0,1-7.408,8.545h-.415c-22.267,0-42.487-1.146-57.387-3.006l2.074-15.9,4.451-34.1,5.691-43.669a80.968,80.968,0,0,1,10.538-5.8L136.59,619.2l2.368,21.366.687-22.878,1.423-47.487a95.009,95.009,0,0,1,13.727-3.336l7.452,16.991L158.724,566.3c.152-.018.3-.04.455-.058C181.8,563.517,202.25,583.3,196.042,601.906Z" transform="translate(-83.257 -352.136)" fill="#f2f2f2"/>
  <path id="Path_515" data-name="Path 515" d="M89.37,610.546c-.838,10.815-1.779,24.136-2.716,37.849-.785,11.528-1.561,23.329-2.261,34.139-.348,5.392-.678,10.538-.977,15.283-2.533-.334-4.9-.7-7.082-1.07a81.319,81.319,0,0,1-5.5-11.925,69.711,69.711,0,0,1-4.014-32.284v0A64.354,64.354,0,0,1,69.7,639.681,66.2,66.2,0,0,1,89.37,610.546Z" transform="translate(-59.736 -376.822)" fill="#f2f2f2"/>
  <path id="Path_516" data-name="Path 516" d="M217.4,775.789c0,5.967-36.917,10.8-82.535,10.833h-.415c-22.267,0-42.487-1.146-57.387-3.006-.638-.085-1.267-.165-1.882-.25-2.533-.334-4.9-.7-7.082-1.07-10.422-1.815-16.6-4.067-16.6-6.507,0-1.976,4.04-3.822,11.1-5.419,3.728-.843,8.3-1.61,13.557-2.288q1.452-.194,2.979-.366a497.1,497.1,0,0,1,55.313-2.761c4.13,0,8.192.04,12.162.116C186.655,765.839,217.4,770.343,217.4,775.789Z" transform="translate(-51.5 -462.37)" fill="#3f3d56"/>
  <path id="Path_517" data-name="Path 517" d="M201.429,570.262l2.084,16.257s.834,5.419,1.667,8.337c0,0-.834,15.423,5.836,26.261l4.168,7.92.834,11.672,10.421,1.25-2.084-17.507s-.834-8.337,0-11.672-4.168-18.758-4.168-18.758,6.669-21.676,1.667-27.095S201.429,570.262,201.429,570.262Z" transform="translate(-134.565 -351.675)" fill="#a0616a"/>
  <path id="Path_518" data-name="Path 518" d="M225.07,726.2s-4.585,0-5,1.251-7.086,12.505-7.086,12.505-5.836,9.171,2.5,9.587,10.838-3.335,10.838-3.335,7.5-12.088,7.92-14.173-3.132-6.551-3.132-6.551S226.321,728.7,225.07,726.2Z" transform="translate(-139.866 -440.503)" fill="#2f2e41"/>
  <circle id="Ellipse_59" data-name="Ellipse 59" cx="14.173" cy="14.173" r="14.173" transform="translate(76.868 53.1)" fill="#a0616a"/>
  <path id="Path_519" data-name="Path 519" d="M221.6,247.124s0,15.423-5.419,16.674,7.5,15.423,14.59,13.756,10-12.922,10-12.922-6.253-7.92-3.752-12.088S221.6,247.124,221.6,247.124Z" transform="translate(-142.021 -175.475)" fill="#a0616a"/>
  <path id="Path_520" data-name="Path 520" d="M199.473,287.406a12.48,12.48,0,0,1-10-5.562,64.605,64.605,0,0,0-6.673,1.394c-.834.417-15.423,5-18.758,14.59l13.339,17.091s-2.918,24.177,0,35.015a30.715,30.715,0,0,1-1.251,19.592s-1.251.417.834,1.251,50.021-8.754,50.855-11.255-.834-2.5.417-3.752,4.585-8.754,1.251-11.255-5.419-30.013-5.419-30.013l8.754-22.093s-16-12.786-21.755-11.187C211.065,281.221,209.894,287.406,199.473,287.406Z" transform="translate(-113.851 -194.289)" fill="#d0cde1"/>
  <path id="Path_521" data-name="Path 521" d="M255.382,556.3s-.834,18.341.834,25.427,1.667,10,1.667,10-2.5,12.089-1.251,23.343-1.459,29.4-1.459,29.4l10.213,3.118,6.253-31.68s5-19.592,2.084-28.762c0,0,1.667-27.928,2.918-30.846S255.382,556.3,255.382,556.3Z" transform="translate(-164.342 -346.049)" fill="#a0616a"/>
  <path id="Path_522" data-name="Path 522" d="M221.525,214.1a4.739,4.739,0,0,1,1.719-3.5c1.177-.747,2.7-.441,4.086-.339s3.093-.246,3.55-1.563c.285-.821-.023-1.8.422-2.549.707-1.188,2.867-1.053,3.239-2.385a10.516,10.516,0,0,1,.174-1.3,1.919,1.919,0,0,1,1.45-.895,23.2,23.2,0,0,1,6.425-.566.854.854,0,0,0,.61-.121.746.746,0,0,0,.2-.343,4.68,4.68,0,0,0-1-4.309,10.534,10.534,0,0,0-3.725-2.662,27.282,27.282,0,0,0-10.053-2.672,13.054,13.054,0,0,0-7.715,1.525,10.918,10.918,0,0,0-1.858,1.481,16.307,16.307,0,0,0-4.583,9.117,20.539,20.539,0,0,0,1.12,10.209,10.643,10.643,0,0,0,3.611,5.188c.941.647,1.753,1.244,2.144.146C221.751,217.4,221.342,215.388,221.525,214.1Z" transform="translate(-141.67 -144.301)" fill="#2f2e41"/>
  <path id="Path_523" data-name="Path 523" d="M189.4,462.52s-6.253,8.337-5,14.173,5.836,15.423,5.836,15.423-2.5,18.758,1.667,18.758,22.093-.834,22.51-2.918-1.251-22.926-1.251-22.926,2.084,18.341,3.335,18.341,22.926,2.084,23.76.834,2.5-33.348,2.5-33.348,2.274-15.138-4.907-17.156S189.4,462.52,189.4,462.52Z" transform="translate(-125.038 -289.786)" fill="#2f2e41"/>
  <path id="Path_524" data-name="Path 524" d="M253.24,752.488s-7.5-4.168-7.92-.834-5,15.423-5,15.423-4.585,9.587,5.419,10,12.505-4.168,12.505-6.253-1.121-16.383-1.121-16.383Z" transform="translate(-155.53 -454.284)" fill="#2f2e41"/>
  <path id="Path_525" data-name="Path 525" d="M312.176,356.951l2.084,18.341s2.5,10,.834,14.173-7.92,23.343-7.92,23.343-1.667-10.421-5.836-11.672l2.5-23.76s-5.968-14.827-4.651-16.792S312.176,356.951,312.176,356.951Z" transform="translate(-188.622 -236.322)" fill="#a0616a"/>
  <path id="Path_526" data-name="Path 526" d="M162.171,359.755l.834,16.674a60.327,60.327,0,0,0,2.918,30.013l.834,6.67,5.419,10.421s1.251-10,3.752-10c0,0-2.5-6.669-1.667-10.421s-.417-23.76-.417-23.76l2.084-16.186Z" transform="translate(-112.816 -237.876)" fill="#a0616a"/>
  <path id="Path_527" data-name="Path 527" d="M299.676,305.542h4.585s10.838,25.011,6.67,25.427-17.507,3.752-17.924,2.084S299.676,305.542,299.676,305.542Z" transform="translate(-185.293 -207.84)" fill="#d0cde1"/>
  <path id="Path_528" data-name="Path 528" d="M164.506,310.216l-3.752,3.752s-5,18.758-1.251,20.842,17.924,4.585,18.758,2.918S164.506,310.216,164.506,310.216Z" transform="translate(-110.564 -210.43)" fill="#d0cde1"/>
  <path id="Path_529" data-name="Path 529" d="M664.509,99.455V388.532a13,13,0,0,1-12.991,12.982H534.162a12.968,12.968,0,0,1-12.991-12.982V99.455a12.99,12.99,0,0,1,12.992-12.991h17.561v2.252a10.7,10.7,0,0,0,10.7,10.7h59.687a10.609,10.609,0,0,0,6.342-2.087,9.943,9.943,0,0,0,1.052-.883,10.666,10.666,0,0,0,3.3-7.729V86.464h18.717A12.987,12.987,0,0,1,664.509,99.455Z" transform="translate(-311.713 -86.464)" fill="#3f3d56"/>
  <ellipse id="Ellipse_60" data-name="Ellipse 60" cx="33.448" cy="6.69" rx="33.448" ry="6.69" transform="translate(264.013 109.549)" opacity="0.1"/>
  <ellipse id="Ellipse_61" data-name="Ellipse 61" cx="33.448" cy="6.69" rx="33.448" ry="6.69" transform="translate(215.403 143.888)" opacity="0.1"/>
  <ellipse id="Ellipse_62" data-name="Ellipse 62" cx="33.448" cy="6.69" rx="33.448" ry="6.69" transform="translate(243.053 206.77)" opacity="0.1"/>
  <ellipse id="Ellipse_63" data-name="Ellipse 63" cx="33.448" cy="6.69" rx="33.448" ry="6.69" transform="translate(233.687 275.003)" opacity="0.1"/>
  <path id="Path_530" data-name="Path 530" d="M733.181,403.5H631.5v33.578l8.513-8.513h93.168Z" transform="translate(-349.871 -223.55)" fill="#2bacb5"/>
  <path id="Path_531" data-name="Path 531" d="M316,260H417.681v33.578l-8.513-8.513H316Z" transform="translate(-175.074 -144.046)" fill="#2bacb5"/>
  <rect id="Rectangle_340" data-name="Rectangle 340" width="57.203" height="4.638" transform="translate(304.314 186.032)" fill="#fff"/>
  <rect id="Rectangle_341" data-name="Rectangle 341" width="57.203" height="4.638" transform="translate(304.314 192.989)" fill="#fff"/>
  <rect id="Rectangle_342" data-name="Rectangle 342" width="57.203" height="4.638" transform="translate(158.259 122.482)" fill="#fff"/>
  <rect id="Rectangle_343" data-name="Rectangle 343" width="57.203" height="4.638" transform="translate(158.259 129.439)" fill="#fff"/>
  <path id="Path_532" data-name="Path 532" d="M858.766,118.642H667v63.327l16.055-16.055H858.766Z" transform="translate(-369.539 -65.731)" fill="#2bacb5"/>
  <rect id="Rectangle_344" data-name="Rectangle 344" width="132.007" height="10.703" transform="translate(327.341 63.614)" fill="#fff"/>
  <rect id="Rectangle_345" data-name="Rectangle 345" width="132.007" height="10.703" transform="translate(327.341 79.669)" fill="#fff"/>
  <path id="Path_533" data-name="Path 533" d="M619.553,663.463c4.881,9.052,15.241,12.938,15.241,12.938s2.446-10.791-2.435-19.843-15.241-12.938-15.241-12.938S614.672,654.411,619.553,663.463Z" transform="translate(-364.531 -395.146)" fill="#fff"/>
  <path id="Path_534" data-name="Path 534" d="M606.381,676.826c8.813,5.3,12.207,15.833,12.207,15.833s-10.894,1.935-19.707-3.367-12.207-15.833-12.207-15.833S597.569,671.524,606.381,676.826Z" transform="translate(-348.004 -411.487)" fill="#2bacb5"/>
</svg>
