<svg xmlns="http://www.w3.org/2000/svg" width="66.35" height="66.005" viewBox="0 0 66.35 66.005">
  <g id="python" transform="translate(-0.145 -0.072)">
    <path id="Path_233" data-name="Path 233" d="M33.081.072c-16.844,0-15.792,7.3-15.792,7.3l.019,7.567H33.381v2.272H10.923S.145,15.994.145,32.989,9.552,49.382,9.552,49.382h5.615V41.5s-.3-9.408,9.257-9.408H40.366s8.957.145,8.957-8.656V8.879S50.683.072,33.081.072ZM24.218,5.161a2.892,2.892,0,1,1-2.892,2.892,2.889,2.889,0,0,1,2.892-2.892Z"/>
    <path id="Path_234" data-name="Path 234" d="M82.412,113.633c16.844,0,15.792-7.3,15.792-7.3l-.019-7.567H82.112V96.489H104.57s10.778,1.222,10.778-15.773-9.408-16.393-9.408-16.393h-5.615V72.21s.3,9.408-9.257,9.408H75.126s-8.957-.145-8.957,8.656v14.553s-1.36,8.807,16.243,8.807Zm8.863-5.089a2.892,2.892,0,1,1,2.892-2.892,2.889,2.889,0,0,1-2.892,2.892Z" transform="translate(-48.853 -47.556)"/>
  </g>
</svg>
