<svg xmlns="http://www.w3.org/2000/svg" xmlns:xlink="http://www.w3.org/1999/xlink" version="1.1" x="0px" y="0px" viewBox="0 0 100 125" enable-background="new 0 0 100 100" xml:space="preserve"><g display="none"><rect x="-814.249" y="-1117.244" display="inline" fill="#000000" width="1345.273" height="1337.592"/></g><g><g><path d="M84.094,4.978H38.258c-5.754,0-10.435,4.681-10.435,10.434v24.076c0,5.753,4.681,10.434,10.435,10.434h4.692    l10.494,11.661l1.11-1.318c0.048-0.057,4.713-5.59,9.152-10.343h20.387c5.754,0,10.435-4.681,10.435-10.434V15.411    C94.528,9.658,89.848,4.978,84.094,4.978z M91.528,39.487c0,4.099-3.335,7.434-7.435,7.434H62.409l-0.443,0.472    c-3.316,3.522-6.843,7.588-8.59,9.628l-9.09-10.1h-6.028c-4.1,0-7.435-3.335-7.435-7.434V15.411c0-4.099,3.335-7.434,7.435-7.434    h45.836c4.1,0,7.435,3.335,7.435,7.434V39.487z"/><rect x="72.8" y="25.477" width="5.702" height="6.016"/><rect x="58.325" y="25.477" width="5.702" height="6.016"/><rect x="43.849" y="25.477" width="5.703" height="6.016"/><path d="M53.128,72.512h-1.686c-0.32,0-0.623,0.058-0.917,0.14V65.16H32.322v-3.525c1.751-0.555,3.029-2.175,3.029-4.11    c0-2.392-1.939-4.331-4.331-4.331s-4.331,1.939-4.331,4.331c0,1.936,1.278,3.555,3.03,4.11v3.525H11.513v7.49    c-0.293-0.081-0.596-0.139-0.914-0.139H8.913c-1.897,0-3.441,1.544-3.441,3.441v8.304c0,1.897,1.544,3.441,3.441,3.441h1.686    c0.319,0,0.621-0.058,0.914-0.139v7.463h39.013v-7.464c0.294,0.082,0.597,0.14,0.917,0.14h1.686c1.897,0,3.44-1.544,3.44-3.441    v-8.304C56.568,74.056,55.025,72.512,53.128,72.512z M11.436,84.257c0,0.454-0.384,0.838-0.837,0.838H8.913    c-0.454,0-0.838-0.384-0.838-0.838v-8.304c0-0.454,0.384-0.838,0.838-0.838h1.686c0.453,0,0.837,0.384,0.837,0.838V84.257z     M47.922,92.419H20.776V67.764h27.146V92.419z M53.965,84.257c0,0.454-0.384,0.838-0.837,0.838h-1.686    c-0.454,0-0.838-0.384-0.838-0.838v-8.304c0-0.454,0.384-0.838,0.838-0.838h1.686c0.453,0,0.837,0.384,0.837,0.838V84.257z"/><circle cx="27.684" cy="77.312" r="2.984"/><path d="M43.02,80.296c1.645,0,2.983-1.339,2.983-2.984s-1.339-2.984-2.983-2.984c-1.646,0-2.984,1.339-2.984,2.984    S41.374,80.296,43.02,80.296z"/><path d="M35.354,87.966c3.601,0,6.573-2.742,6.923-6.256H28.426C28.781,85.224,31.748,87.966,35.354,87.966z"/></g></g><text x="0" y="115" fill="#000000" font-size="5px" font-weight="bold" font-family="'Helvetica Neue', Helvetica, Arial-Unicode, Arial, Sans-serif">Created by Oksana Latysheva</text><text x="0" y="120" fill="#000000" font-size="5px" font-weight="bold" font-family="'Helvetica Neue', Helvetica, Arial-Unicode, Arial, Sans-serif">from the Noun Project</text></svg>