<svg xmlns="http://www.w3.org/2000/svg" xmlns:xlink="http://www.w3.org/1999/xlink" version="1.1" x="0px" y="0px" viewBox="0 0 100 125" enable-background="new 0 0 100 100" xml:space="preserve"><g><path d="M71.4,50.3c-0.2,0-0.3,0-0.5,0.1c0.2,0,0.3,0.1,0.5,0.2C71.4,50.5,71.4,50.4,71.4,50.3z"/><path d="M85.2,45.1C85.2,45.1,85.2,45.1,85.2,45.1C85.2,45.1,85.2,45.1,85.2,45.1C85.2,45.1,85.2,45.1,85.2,45.1z"/><path d="M59.5,43.2c0.1,0.1,0.2,0.2,0.2,0.2c0-0.2,0-0.4,0-0.6c-0.2,0-0.4,0.1-0.5,0.1C59.3,43,59.4,43.1,59.5,43.2z"/><path d="M59.1,38.4c-0.5,0.1-1.1,0.2-1.6,0.3c-0.1-0.1-0.3-0.2-0.4-0.3c0.6-0.1,1.2-0.2,1.8-0.3C58.9,38.2,59,38.3,59.1,38.4z"/><path d="M85.2,35.6v0.3c-2.2-0.1-4.4-0.1-6.7,0.1c-6.2,0.3-12.5,1.2-18.7,2.2c-0.1-0.1-0.1-0.2-0.2-0.3c6.3-1.1,12.6-2,18.9-2.3   C80.8,35.5,83,35.5,85.2,35.6z"/><path d="M55.3,38.7v0.4c-1.6,0.3-3.3,0.6-4.9,0.9c-3.2,0.6-6.5,1.2-9.9,1.8c0-0.1,0-0.2-0.1-0.3c3.3-0.6,6.6-1.2,9.9-1.8   C52,39.3,53.7,39,55.3,38.7z"/><path d="M40,41.5v0.4c-5.9,1-11.9,1.8-17.8,2.1C20.8,44,19.4,44,18,44c-4.5,0-8.7-0.4-12.8-1.1v-0.4c5.3,0.9,10.9,1.3,17,1   C28.2,43.3,34.1,42.5,40,41.5z"/><path d="M94.5,36.4v0.4c-2.8-0.5-5.8-0.7-8.8-0.8v-0.3C88.7,35.7,91.6,36,94.5,36.4z"/><path d="M85.2,40.2v0.3c-2.2-0.1-4.4,0-6.7,0c-1.7,0.1-3.5,0.2-5.2,0.4c-0.1-0.1-0.2-0.2-0.3-0.3c1.8-0.2,3.7-0.3,5.5-0.4   C80.8,40.1,83,40.1,85.2,40.2z"/><path d="M71.4,40.8v0.3c-3.7,0.4-7.5,1-11.2,1.6c0-0.1,0-0.1,0-0.2c0,0,0-0.1,0-0.1C63.9,41.8,67.7,41.2,71.4,40.8z"/><path d="M40,46.1v0.3c-3.6,0.6-7.2,1.2-10.9,1.5c-0.1-0.1-0.2-0.2-0.3-0.3C32.6,47.3,36.3,46.7,40,46.1z"/><path d="M27.7,47.8v0.3c-1.8,0.2-3.6,0.3-5.4,0.4c-1.4,0.1-2.9,0.1-4.3,0.1c-4.5,0-8.7-0.4-12.8-1.1v-0.4c5.3,0.9,10.9,1.3,17,1   C24.1,48.1,25.9,47.9,27.7,47.8z"/><path d="M94.5,41v0.3c-2.8-0.5-5.8-0.7-8.8-0.8v-0.3C88.7,40.3,91.6,40.6,94.5,41z"/><path d="M59.7,42.8L59.7,42.8c-0.2,0.1-0.3,0.1-0.5,0.1c-0.1-0.1-0.2-0.2-0.4-0.3c0.3,0,0.6-0.1,0.8-0.1   C59.7,42.6,59.7,42.7,59.7,42.8z"/><path d="M55.3,43.3v0.3c-1.6,0.3-3.3,0.6-4.9,0.9c-2,0.4-4,0.8-6,1.1c-0.1-0.1-0.1-0.2-0.2-0.3c2.1-0.4,4.1-0.8,6.1-1.1   C52,43.9,53.7,43.6,55.3,43.3z"/><path d="M57.9,43.2c-0.7,0.1-1.4,0.3-2.1,0.4v-0.4c0.5-0.1,1-0.2,1.6-0.3c0.1,0,0.2,0.1,0.3,0.1C57.8,43.1,57.8,43.1,57.9,43.2z"/><path d="M43.6,45.8l-2.1,0.4c-0.1-0.1-0.2-0.2-0.2-0.3c0.7-0.1,1.3-0.2,2-0.3c0,0,0,0,0,0C43.4,45.7,43.5,45.7,43.6,45.8z"/><path d="M71.4,45.4v0.4c-3.8,0.4-7.6,1-11.3,1.6c0-0.1,0.1-0.2,0.1-0.4C63.9,46.4,67.7,45.8,71.4,45.4z"/><path d="M17.3,52.9v0.3c-4.2,0-8.3-0.4-12.1-1.1v-0.4C9.1,52.5,13.1,52.8,17.3,52.9z"/><path d="M55.3,47.9v0.4c-1.6,0.3-3.3,0.6-4.9,0.9c-1.8,0.3-3.6,0.7-5.4,1c0-0.1-0.1-0.2-0.1-0.3c1.8-0.3,3.7-0.7,5.5-1   C52,48.5,53.7,48.2,55.3,47.9z"/><path d="M83.7,44.7C83.6,44.7,83.6,44.7,83.7,44.7c-0.1,0-0.2,0-0.3,0c-0.3,0-0.7,0.1-1,0.3c-1.2,0-2.5,0-3.8,0.1   c-0.8,0-1.5,0.1-2.3,0.1c0-0.1,0-0.2,0-0.3c0.8,0,1.5-0.1,2.3-0.2c0.6,0,1.2,0,1.9-0.1C81.5,44.7,82.6,44.7,83.7,44.7z"/><path d="M85.2,44.8v0.4h-0.1c-0.3-0.3-0.8-0.3-1.4-0.4C84.2,44.8,84.7,44.7,85.2,44.8z"/><path d="M83.7,44.7C83.7,44.7,83.7,44.7,83.7,44.7C83.7,44.7,83.7,44.7,83.7,44.7C83.7,44.7,83.7,44.7,83.7,44.7z"/><path d="M27.7,52.4v0.3c-1.8,0.2-3.6,0.3-5.4,0.4c-1.4,0.1-2.9,0.1-4.3,0.1h-0.2v-0.4c1.5,0,2.9,0,4.5-0.1   C24.1,52.7,25.9,52.5,27.7,52.4z"/><path d="M59.8,47.1c0,0.1-0.1,0.2-0.1,0.4c-1.3,0.2-2.6,0.5-4,0.7v-0.4C57.1,47.5,58.5,47.3,59.8,47.1z"/><path d="M44.6,50.2c-1.4,0.2-2.7,0.5-4.1,0.7v-0.3c1.3-0.2,2.7-0.5,4-0.7C44.5,50,44.6,50.1,44.6,50.2z"/><path d="M75.6,45.4c-1.2,0.1-2.5,0.2-3.8,0.3v-0.3c1.2-0.1,2.5-0.2,3.7-0.3C75.6,45.1,75.6,45.2,75.6,45.4z"/><path d="M31.8,52.2c-1.2,0.2-2.4,0.3-3.6,0.4v-0.4c1.2-0.1,2.3-0.2,3.5-0.4C31.7,52,31.8,52.1,31.8,52.2z"/><path d="M40,50.7V51c-2.5,0.4-5,0.8-7.5,1.1c0-0.1,0-0.2-0.1-0.3C35,51.5,37.5,51.1,40,50.7z"/><path d="M94.5,45.6V46c-2.8-0.5-5.8-0.7-8.8-0.8v-0.3C88.7,44.9,91.6,45.2,94.5,45.6z"/><path d="M17.3,57.4v0.4c-4.2,0-8.3-0.4-12.1-1.1v-0.4C9.1,57,13.1,57.4,17.3,57.4z"/><path d="M27.7,56.9v0.3c-1.8,0.2-3.6,0.3-5.4,0.4c-1.4,0.1-2.9,0.1-4.3,0.1c-0.1,0-0.1,0-0.2,0v-0.4c1.5,0,2.9,0,4.5-0.1   C24.1,57.3,25.9,57.1,27.7,56.9z"/><path d="M71.4,50v0.3c-0.1,0-0.3,0-0.5,0c-0.3,0-0.6,0-1,0c-0.2,0-0.5,0.1-0.8,0.2c-6.3,0.8-12.6,2-18.7,3.1   c-3.3,0.6-6.7,1.3-10.1,1.8c0-0.1,0.1-0.2,0.1-0.4c3.3-0.6,6.7-1.2,10-1.8C57.3,52.1,64.4,50.7,71.4,50z"/><path d="M94.5,50.2v0.4c-5-0.8-10.2-1.1-15.9-0.8c-2.2,0.1-4.4,0.3-6.7,0.5v-0.3c0.9-0.1,1.8-0.2,2.7-0.2c0,0.1-0.1,0.1-0.1,0.2   c0.1,0,0.2,0,0.3,0c0-0.1,0.1-0.2,0.1-0.2c1.2-0.1,2.4-0.2,3.6-0.2C84.2,49.1,89.5,49.4,94.5,50.2z"/><path d="M35.5,56c-0.1,0.1-0.1,0.2-0.2,0.4c-1.3,0.2-2.6,0.4-4,0.5c0.1-0.1,0.1-0.2,0.2-0.4C32.8,56.4,34.2,56.2,35.5,56z"/><path d="M31.2,56.6c-0.1,0.1-0.1,0.2-0.2,0.4c-0.9,0.1-1.9,0.2-2.8,0.3v-0.4C29.2,56.8,30.2,56.7,31.2,56.6z"/><path d="M17.3,62v0.4c-4.2,0-8.3-0.4-12.1-1.1v-0.4C9.1,61.6,13.1,62,17.3,62z"/><path d="M94.5,54.8v0.3c-5-0.8-10.2-1.1-15.9-0.8c-9.3,0.4-18.9,2.2-28.1,4c-9.2,1.7-18.8,3.5-28.2,4c-1.4,0.1-2.9,0.1-4.3,0.1   h-0.2V62c1.5,0,2.9,0,4.5-0.1c0.4,0,0.8,0,1.2-0.1c0.3,0.2,0.7,0.2,1.1,0.2c0.4,0,0.9-0.2,1.4-0.4c8.1-0.7,16.4-2.2,24.4-3.7   c9.2-1.7,18.8-3.5,28.2-4C84.2,53.7,89.5,54,94.5,54.8z"/><path d="M32.6,52.8c0,1.2-0.5,2.6-1.1,3.8c-0.1,0.1-0.1,0.2-0.2,0.4c-0.1,0.1-0.2,0.3-0.2,0.4c-0.1,0-0.2,0-0.3,0   c0.1-0.1,0.1-0.3,0.2-0.4c0.1-0.1,0.1-0.2,0.2-0.4c0.4-0.9,0.9-2.1,0.9-3.3c0-0.3-0.1-0.7-0.2-1c0-0.1-0.1-0.2-0.1-0.3   c-0.2-0.4-0.4-0.7-0.7-1c-0.7-0.7-1.8-1.2-2.8-1.2v9.3c0,0.7-0.5,1.5-1.2,2c-0.3,0.2-0.6,0.4-1,0.6c-0.5,0.2-0.9,0.4-1.4,0.4   c-0.4,0-0.8-0.1-1.1-0.2c0,0-0.1,0-0.2-0.1c-0.3-0.2-0.5-0.6-0.5-1c0-0.7,0.5-1.4,1.2-1.9c0.7-0.5,1.5-1,2.2-1c0.6,0,1.2,0,1.5,0.2   V45.4c0.2,0,0.3,0,0.4,0c0.1,0.7,0.2,1.5,0.7,2.4c0.1,0.1,0.2,0.2,0.3,0.3c0,0,0.1,0.1,0.1,0.1c0.7,0.7,1.5,1.3,2.1,1.9   c0.5,0.5,0.9,1.2,1.1,1.9c0,0.1,0.1,0.2,0.1,0.3C32.5,52.4,32.6,52.6,32.6,52.8z"/><path d="M76.3,45.4c0,1.6-0.8,3.2-1.4,4.2c-0.1,0.1-0.1,0.2-0.1,0.2c-0.1,0-0.2,0-0.3,0c0-0.1,0.1-0.1,0.1-0.2   c0.5-0.9,1.2-2.4,1.1-3.8c0-0.2,0-0.3-0.1-0.5c0-0.1,0-0.2-0.1-0.3c-0.2-0.6-0.4-1.1-0.8-1.6c-0.7-0.7-1.8-1.3-2.8-1.2v9.3   c0,0.7-0.5,1.5-1.2,2c-0.7,0.6-1.6,1-2.4,1.1c-0.5,0.1-1,0-1.3-0.2c-0.3-0.2-0.5-0.5-0.5-1c0-0.7,0.5-1.4,1.2-2   c0.5-0.4,1-0.7,1.5-0.9c0.2-0.1,0.5-0.2,0.8-0.2c0.4,0,0.7,0,1,0c0.2,0,0.3,0.1,0.5,0.2V37.9c0.2,0,0.3,0,0.5-0.1   c0.1,0.8,0.1,1.9,1.1,2.8c0,0,0,0,0.1,0.1c0.1,0.1,0.2,0.2,0.3,0.3c0.6,0.6,1.2,1.1,1.7,1.6c0.6,0.7,1.1,1.5,1.2,2.4   C76.2,45.1,76.2,45.2,76.3,45.4C76.3,45.3,76.3,45.4,76.3,45.4z"/><path d="M60,43.8c0-0.2,0.1-0.7,0.1-1.1c0-0.1,0-0.1,0-0.2c0,0,0-0.1,0-0.1c0-0.4-0.2-0.9-0.2-1.1c0-0.4,0.2-1.1,0.2-1.6   c0-0.5-0.1-1-0.3-1.5c-0.1-0.1-0.1-0.2-0.2-0.3c-0.2-0.3-0.4-0.7-0.7-1c-0.5-0.5-1.4-1.1-2.2-1.6c-0.8-0.5-0.9-1.3-0.9-1.9   c-0.2,0-0.3,0-0.4,0.1v15.1c-0.3-0.2-0.9-0.2-1.5-0.1c-0.7,0.2-1.6,0.7-2.3,1.3c-0.7,0.6-1.2,1.4-1.2,2.1c0,0.4,0.2,0.8,0.5,0.9   c0.3,0.2,0.8,0.2,1.3,0.1c0.8-0.2,1.7-0.6,2.4-1.3c0.7-0.6,1.2-1.4,1.2-2.1v-7.4c0.4,0.2,1,0.4,1.6,0.7c0.1,0,0.2,0.1,0.3,0.1   c0.1,0,0.2,0.1,0.2,0.1c0.6,0.3,1.1,0.5,1.4,0.8c0.6,0.6,0.6,1,0.7,1.9c0,0.3,0,0.7-0.2,1.1c0,0.1-0.1,0.2-0.1,0.4   c-0.1,0.5-0.3,0.9-0.5,1.2c0.1,0,0.2,0,0.3,0c0.2-0.4,0.4-0.8,0.5-1.2c0-0.1,0.1-0.2,0.1-0.4c0.1-0.5,0.2-1,0.2-1.5   C60.4,44.8,60.1,44.2,60,43.8z M59.7,43.4c-0.1-0.1-0.1-0.2-0.2-0.2c-0.1-0.1-0.2-0.2-0.3-0.3c-0.1-0.1-0.2-0.2-0.4-0.3   c-0.6-0.4-1.2-0.9-1.8-1.2c-0.7-0.4-1.3-2-1.2-2c0.1,0,2.1,0.8,2.8,1.4c0.5,0.5,0.9,1,1.1,1.7c0,0.1,0,0.2,0,0.3V43.4z M59.7,40.9   c0,0-0.5-0.7-0.8-1c-0.4-0.4-0.9-0.8-1.5-1.2c-0.1-0.1-0.3-0.2-0.4-0.3c-0.1-0.1-0.2-0.1-0.3-0.2c-0.8-0.5-1-1.7-0.9-1.7   c0,0,0.1,0,0.2,0.1c0,0,0.1,0,0.1,0c0,0,0.1,0,0.2,0.1c0,0,0,0,0,0c0.1,0.1,0.2,0.1,0.4,0.2c0.1,0,0.2,0.1,0.3,0.1   c0.2,0.1,0.3,0.1,0.5,0.2c0.1,0.1,0.2,0.1,0.3,0.2c0.1,0.1,0.2,0.1,0.3,0.2c0.1,0.1,0.2,0.1,0.3,0.2c0.1,0.1,0.2,0.1,0.2,0.2   c0,0.1,0.1,0.1,0.2,0.2c0.1,0.1,0.2,0.2,0.3,0.3c0.4,0.5,0.6,0.9,0.7,1.6C59.7,40.2,59.7,40.8,59.7,40.9z"/><path d="M45,50.1c0-0.1-0.1-0.2-0.1-0.3c-0.1-0.3-0.2-0.6-0.3-0.8c0-0.3,0.2-1.1,0.2-1.7c0-0.6-0.2-1.2-0.5-1.7   c-0.1-0.1-0.1-0.2-0.2-0.3c-0.2-0.3-0.4-0.5-0.6-0.7c-0.5-0.5-1.4-1.1-2.2-1.6c-0.5-0.3-0.7-0.8-0.8-1.2c0-0.1,0-0.2-0.1-0.3   c0-0.1,0-0.2,0-0.3c-0.2,0-0.3,0-0.5,0.1v12.7c-0.3-0.2-0.9-0.2-1.5-0.1c-0.7,0.1-1.6,0.6-2.3,1.2c-0.3,0.3-0.6,0.6-0.8,1   c-0.1,0.1-0.1,0.2-0.2,0.4c-0.1,0.2-0.2,0.5-0.2,0.7c0,0.4,0.2,0.8,0.5,1c0.3,0.2,0.8,0.3,1.3,0.2c0.8-0.1,1.7-0.6,2.4-1.2   c0.5-0.4,0.8-0.9,1-1.4c0-0.1,0.1-0.2,0.1-0.4c0-0.1,0.1-0.2,0.1-0.4v-7.2c1,0.5,2.8,0.9,3.5,1.6c0.2,0.2,0.4,0.4,0.5,0.7   c0.1,0.1,0.1,0.2,0.1,0.3c0.1,0.3,0.1,0.6,0.1,0.9c0,0.8-0.4,2.1-0.8,2.7c0.1,0,0.2,0,0.3,0c0.5-0.9,0.9-1.9,0.9-3.1   C45.1,50.5,45.1,50.3,45,50.1z M44.4,48.7c0,0-0.3-0.3-0.4-0.5c-0.5-0.5-1-0.8-1.8-1.3c-0.2-0.1-0.4-0.4-0.6-0.7   c-0.1-0.1-0.2-0.2-0.2-0.3c-0.5-0.8-0.9-1.7-0.8-1.8c0.1,0,2,0.8,2.8,1.4c0,0,0,0,0,0c0.1,0.1,0.2,0.2,0.2,0.3   c0.5,0.5,0.8,1,0.9,1.8C44.4,47.9,44.4,48.6,44.4,48.7z"/><path d="M17.8,50.1v14.1c0,0.8-0.5,1.5-1.2,1.9c-0.7,0.5-1.6,0.8-2.4,0.7c-0.5,0-1-0.2-1.3-0.5c-0.3-0.3-0.5-0.7-0.5-1.1   c0-0.7,0.5-1.3,1.2-1.8c0.7-0.5,1.6-0.8,2.3-0.8c0.6,0,1.2,0.1,1.5,0.4v-13C17.5,50.1,17.6,50.1,17.8,50.1z"/><path d="M85.7,32.2v14.1c0,0.8-0.5,1.4-1.2,1.9S82.8,49,82,49c-0.5,0-1-0.2-1.3-0.4c-0.3-0.2-0.5-0.6-0.5-1c0-0.7,0.5-1.4,1.2-1.9   c0.3-0.2,0.6-0.4,1-0.6c0.3-0.1,0.7-0.2,1-0.3c0.1,0,0.2,0,0.3,0c0,0,0,0,0.1,0h0.1c0,0,0.1,0,0.1,0c0.1,0,0.2,0,0.3,0   c0.1,0,0.2,0,0.3,0.1c0,0,0.1,0,0.1,0c0,0,0.1,0,0.1,0.1c0,0,0.1,0,0.1,0.1c0,0,0,0,0,0c0,0,0,0,0,0c0.1,0,0.1,0.1,0.2,0.1   c0,0,0,0,0.1,0v-13C85.4,32.1,85.5,32.1,85.7,32.2z"/></g><text x="0" y="115" fill="#000000" font-size="5px" font-weight="bold" font-family="'Helvetica Neue', Helvetica, Arial-Unicode, Arial, Sans-serif">Created by B Barrett</text><text x="0" y="120" fill="#000000" font-size="5px" font-weight="bold" font-family="'Helvetica Neue', Helvetica, Arial-Unicode, Arial, Sans-serif">from the Noun Project</text></svg>