<svg xmlns="http://www.w3.org/2000/svg" xmlns:xlink="http://www.w3.org/1999/xlink" xmlns:a="http://ns.adobe.com/AdobeSVGViewerExtensions/3.0/" version="1.1" x="0px" y="0px" viewBox="100.5 0.5 100 125" enable-background="new 100.5 0.5 100 100" xml:space="preserve"><rect x="0.5" y="0.5" display="none" fill="#000000" stroke="#000000" stroke-miterlimit="10" width="100" height="100"/><rect x="100.5" y="0.5" display="none" fill="#000000" stroke="#000000" stroke-miterlimit="10" width="100" height="100"/><rect x="200.5" y="0.5" display="none" fill="#000000" stroke="#000000" stroke-miterlimit="10" width="100" height="100"/><rect x="0.5" y="100.5" display="none" fill="#000000" stroke="#000000" stroke-miterlimit="10" width="100" height="100"/><rect x="100.5" y="100.5" display="none" fill="#000000" stroke="#000000" stroke-miterlimit="10" width="100" height="100"/><rect x="200.5" y="100.5" display="none" fill="#000000" stroke="#000000" stroke-miterlimit="10" width="100" height="100"/><path fill="#000000" d="M166.07,6.485H134.93c-3.251,0-5.885,2.635-5.885,5.885v76.259c0,3.25,2.634,5.885,5.885,5.885h31.141  c3.251,0,5.885-2.635,5.885-5.885V12.371C171.955,9.12,169.321,6.485,166.07,6.485z M168.875,87.555c0,2.209-1.791,4-4,4h-28.801  c-2.209,0-4-1.791-4-4V13.107c0-2.209,1.791-4,4-4h3.878c0.183,0.281,0.168,0.733,0.168,1.013c0,0.429,0.612,1.512,1.627,1.635  c0.96,0.116,8.307,0.012,9.06,0.001c0.752,0.011,8.098,0.115,9.061-0.001c1.013-0.123,1.625-1.206,1.625-1.635  c0-0.28-0.014-0.732,0.168-1.013h3.215c2.209,0,4,1.791,4,4V87.555z"/><rect x="100.5" y="0.5" fill="none" width="100" height="100"/><text x="100.5" y="115.5" fill="#000000" font-size="5px" font-weight="bold" font-family="'Helvetica Neue', Helvetica, Arial-Unicode, Arial, Sans-serif">Created by Matthias Van Wambeke</text><text x="100.5" y="120.5" fill="#000000" font-size="5px" font-weight="bold" font-family="'Helvetica Neue', Helvetica, Arial-Unicode, Arial, Sans-serif">from the Noun Project</text></svg>