<svg xmlns="http://www.w3.org/2000/svg" data-name="Layer 1" viewBox="0 0 100 125" x="0px" y="0px"><defs><style>.cls-1{stroke:#000;stroke-miterlimit:10;stroke-width:0.01px;}</style></defs><title>collections_08</title><path class="cls-1" d="M60.12,66.78a20.63,20.63,0,0,0-2.24,5.08l-1.07,3.57A5.5,5.5,0,0,1,52,79.37c-4.73.31-6.4-4.05-5.72-7.89a34.08,34.08,0,0,1,5-12.48,21.8,21.8,0,0,1,1.65-2.18L53,56.67A23.35,23.35,0,0,1,59.26,51a14.17,14.17,0,0,1,1.91-.87,1.61,1.61,0,0,0,1.2-1,1.15,1.15,0,0,0-.29-1.17l-6.21-4.58v4.1a4.44,4.44,0,0,1-4.44,4.44H51.35a4.44,4.44,0,0,1-4.44-4.44V29.61a9.41,9.41,0,0,1,3.88-7.45c2.42-1.71,6-1.07,8.52,0C64.46,24.4,69,28.3,73,32.12a34.05,34.05,0,0,1,8.25,11.43C82.62,46.84,84,53.36,80.62,56a5.44,5.44,0,0,1-2.48.94c-3.38.55-6.22,0.62-9.38,2.13A20.94,20.94,0,0,0,60.12,66.78ZM37.43,33.51a7.09,7.09,0,1,0-7.09-7.09A7.09,7.09,0,0,0,37.43,33.51Zm47.64,31.7a10.82,10.82,0,0,0,2-1.9c7.55-9.11,2.37-32,2.15-32.94a2,2,0,1,0-4,.92c1.4,6,3.89,23.12-1.31,29.41a6.6,6.6,0,0,1-5.72,2.35c-6.57-.26-11.39,1.3-14.33,4.64a12.72,12.72,0,0,0-2.8,9.82,2,2,0,0,0,4-.69A8.64,8.64,0,0,1,67,70.39c2.08-2.37,5.81-3.47,11.09-3.25a13.85,13.85,0,0,0,1.48,0C81,67.55,87.68,69.86,87.12,77A2,2,0,0,0,89,79.21h0.16a2,2,0,0,0,2-1.89A12.77,12.77,0,0,0,85.08,65.21Zm-76.33-22h4.64v38H40.14v-38h4.64v-8h-36v8ZM26.36,30.38H11.62v2.68H26.36V30.38Zm0-3.53H11.62v2.68H26.36V26.85Zm0-8H11.62v2.68H26.36V18.85Zm0,5.83H11.62V26H26.36V24.68Zm0-2.31H11.62v1.34H26.36V22.37Z"/><text x="0" y="115" fill="#000000" font-size="5px" font-weight="bold" font-family="'Helvetica Neue', Helvetica, Arial-Unicode, Arial, Sans-serif">Created by Hare Krishna</text><text x="0" y="120" fill="#000000" font-size="5px" font-weight="bold" font-family="'Helvetica Neue', Helvetica, Arial-Unicode, Arial, Sans-serif">from the Noun Project</text></svg>