<svg xmlns="http://www.w3.org/2000/svg" width="34.525" height="40.819" viewBox="0 0 34.525 40.819">
  <path id="android" d="M36.37,15.694a2.514,2.514,0,1,0-5.028,0V26.225a2.516,2.516,0,1,0,5.033,0V15.68h-.017ZM7.876,13.661l.007,16.328a2.682,2.682,0,0,0,2.675,2.7h1.808v5.579a2.509,2.509,0,0,0,5.017.024V32.717h3.39V38.3a2.51,2.51,0,1,0,5.021-.012V32.705h1.833A2.682,2.682,0,0,0,30.3,30.021V13.643l-22.5.015.068,0ZM24.285,8.678a.952.952,0,1,1,.952-.952.951.951,0,0,1-.952.952m-10.307,0a.951.951,0,1,1,.952-.932.961.961,0,0,1-.969.964m10.7-4.932L26.41.562a.365.365,0,0,0-.129-.485A.372.372,0,0,0,25.8.23L24.012,3.462A11.64,11.64,0,0,0,19.1,2.39a12.122,12.122,0,0,0-4.919,1.026L12.419.179a.348.348,0,0,0-.473-.136A.329.329,0,0,0,11.81.5l1.752,3.189a10.28,10.28,0,0,0-5.783,9.065H30.448a10.28,10.28,0,0,0-5.776-9.065m-20.3,9.477A2.521,2.521,0,0,0,1.85,15.69V26.222a2.518,2.518,0,0,0,5.036,0V15.694a2.51,2.51,0,0,0-2.5-2.514" transform="translate(-1.85 0)" fill="#fff"/>
</svg>
