<svg xmlns="http://www.w3.org/2000/svg" width="35.56" height="43.81" viewBox="0 0 35.56 43.81">
  <path id="apple" 
  d="M11.06,42.964a9.811,9.811,0,0,1-2.269-2.1A28.139,28.139,0,0,1,6.85,38.213,25.659,25.659,0,0,1,3.6,31.58a24.943,24.943,0,0,1-1.355-7.93,14.741,14.741,0,0,1,1.828-7.462,10.545,10.545,0,0,1,3.831-3.981,10.215,10.215,0,0,1,5.181-1.532,8.555,8.555,0,0,1,2.061.274c.529.146,1.168.383,1.952.675,1,.383,1.551.62,1.733.675a4.273,4.273,0,0,0,1.459.31,4.366,4.366,0,0,0,1.177-.237c.265-.091.766-.255,1.478-.566.7-.255,1.262-.474,1.706-.639a15.224,15.224,0,0,1,1.916-.474,9.042,9.042,0,0,1,2.094-.091,12.424,12.424,0,0,1,3.539.766,9.547,9.547,0,0,1,4.482,3.576,8.979,8.979,0,0,0-1.323,1,11.169,11.169,0,0,0-2.244,2.746,9.3,9.3,0,0,0-1.175,4.6,9.415,9.415,0,0,0,1.532,5.218,9.725,9.725,0,0,0,2.8,2.8,7.171,7.171,0,0,0,1.532.821c-.219.684-.46,1.35-.739,2.007a25.885,25.885,0,0,1-2.28,4.214C34,39.5,33.379,40.359,32.909,40.924a10.171,10.171,0,0,1-2.153,2,4.792,4.792,0,0,1-2.649.8,5.873,5.873,0,0,1-1.886-.232c-.529-.173-1.051-.369-1.562-.589a12.661,12.661,0,0,0-1.651-.62,8.245,8.245,0,0,0-2.124-.268,8.513,8.513,0,0,0-2.116.265,13.147,13.147,0,0,0-1.655.593c-.766.319-1.268.529-1.56.62a8.157,8.157,0,0,1-1.806.319,5.016,5.016,0,0,1-2.711-.821Zm12.5-33.677a6.794,6.794,0,0,1-3.6.8,7.316,7.316,0,0,1,.493-3.716A10.046,10.046,0,0,1,22.282,3.3,9.867,9.867,0,0,1,25.255,1,8.46,8.46,0,0,1,28.7,0a8.293,8.293,0,0,1-.456,3.776,10.833,10.833,0,0,1-1.824,3.211,9.2,9.2,0,0,1-2.893,2.3Z" 
  transform="translate(-2.247 0.001)" 
  fill="#fff"/>
</svg>
