<svg xmlns="http://www.w3.org/2000/svg" width="39.58" height="40.819" viewBox="0 0 39.58 40.819">
  <path id="mozillafirefox" d="M39.925,18.794a4.222,4.222,0,0,0-.12-.585s-.138.172-.379.482a13.27,13.27,0,0,0-.465-2.6,17.6,17.6,0,0,0-1.2-3.08,11.394,11.394,0,0,0-1.1-1.876c-.224-.344-.413-.6-.447-.654-.74-1.2-1.566-1.927-2.547-3.3A10.138,10.138,0,0,1,32.4,3.754a12.688,12.688,0,0,0-.62,2.237c-.981-1-1.859-1.721-2.375-2.2C26.829,1.379,27.139.14,27.139.14S22.321,5.509,24.4,11.1A10.758,10.758,0,0,0,28,15.886c2.013,1.652,4.182,2.96,5.317,6.316a10.6,10.6,0,0,0-4.01-4.251,9.488,9.488,0,0,1,.757,3.838,9.111,9.111,0,0,1-9.121,9.1,8.808,8.808,0,0,1-2.013-.224,8.525,8.525,0,0,1-2.254-.774,8.969,8.969,0,0,1-2.719-2.5v-.017a.719.719,0,0,0,.155.052,6.711,6.711,0,0,0,1.153.31,7.23,7.23,0,0,0,4.577-.533c1.446-.809,2.323-1.394,3.029-1.17s1.239-.447.757-1.153a3.78,3.78,0,0,0-3.648-1.411c-1.446.207-2.771,1.222-4.646.241-.138-.069-.241-.138-.361-.207-.12-.086.413.1.275.017a8.3,8.3,0,0,1-1.187-.706c-.017-.017.293.086.258.069a4.534,4.534,0,0,1-1.239-1.256,2.281,2.281,0,0,1-.086-1.979,1.743,1.743,0,0,1,.774-.723c.241.12.4.207.4.207s-.12-.207-.172-.31c.017-.017.034,0,.069-.017a9.757,9.757,0,0,1,.929.482,1.292,1.292,0,0,1,.43.379s.086-.034.017-.224a1.048,1.048,0,0,0-.447-.533h.034a3.519,3.519,0,0,1,.533.344,2.7,2.7,0,0,0,.224-1.153,1.547,1.547,0,0,0-.086-.637c-.069-.138.034-.189.155-.052a1.094,1.094,0,0,0-.1-.31.549.549,0,0,1,.1-.12,1.124,1.124,0,0,1,.275-.224A11.363,11.363,0,0,1,18,15.8c.533-.224.964-.413,1.05-.465a3.043,3.043,0,0,0,.379-.275,2.493,2.493,0,0,0,.843-1.463,1.059,1.059,0,0,0,.017-.224v-.138c-.069-.293-.568-.5-3.166-.757a2.257,2.257,0,0,1-1.859-1.738v.017c-.034.086-.069.189-.1.293.034-.1.069-.189.1-.293v-.017a6.681,6.681,0,0,1,2.547-3.166c.069-.052-.258.017-.189-.034a6.053,6.053,0,0,1,.671-.293c.12-.034-.5-.275-1.05-.224a3.142,3.142,0,0,0-.964.224c.138-.1.516-.241.43-.241a5.732,5.732,0,0,0-1.979.74.509.509,0,0,1,.034-.172,3.014,3.014,0,0,0-1.222.946V8.3a4.7,4.7,0,0,0-.6.568h-.017a8,8,0,0,0-4.491-.379l-.017-.017h.017a3.292,3.292,0,0,1-.792-.895l-.017.017L7.59,7.557a4.263,4.263,0,0,1-.293-.5,4.812,4.812,0,0,1-.241-.43.017.017,0,0,0-.017-.017c-.017,0-.052.155-.069.1a5.446,5.446,0,0,1-.361-2.151H6.592a2.276,2.276,0,0,0-.912,1.2c-.086.172-.138.258-.189.361V6.077l.052-.258c-.017.017-.017.034-.034.052a2.186,2.186,0,0,0-.31.465,2.54,2.54,0,0,0-.207.5V6.748c0-.069.017-.172,0-.138l-.017.052a12.066,12.066,0,0,0-1.033,3.872,4.729,4.729,0,0,0-.034.688v.034a9.236,9.236,0,0,0-1.05,1.394,19.837,19.837,0,0,0-2.2,5.421,12.49,12.49,0,0,1,1.187-2.082A19.017,19.017,0,0,0,.5,23.027c.155-.706.344-1.394.568-2.082a17.845,17.845,0,0,0,1.6,8.277,19.2,19.2,0,0,0,7.623,8.622,16.406,16.406,0,0,0,4.423,2.134c.207.069.43.155.637.224a.922.922,0,0,0-.189-.086,20.288,20.288,0,0,0,5.748.843c6.9,0,9.172-2.633,9.4-2.891a3.449,3.449,0,0,0,.809-1.1,3.938,3.938,0,0,0,.4-.172l.086-.034a1.353,1.353,0,0,1,.155-.069,14.629,14.629,0,0,0,2.925-1.824,7.047,7.047,0,0,0,2.7-3.975,2.475,2.475,0,0,0,.052-1.824c.1-.172.189-.327.207-.361a16.248,16.248,0,0,0,2.444-7.9v-.241A10.278,10.278,0,0,0,39.925,18.794Z" transform="translate(-0.5 -0.14)" fill="#fff"/>
</svg>
